<?xml version="1.0" encoding="utf-8"?>
<!-- Generator: Adobe Illustrator 16.0.0, SVG Export Plug-In . SVG Version: 6.00 Build 0)  -->
<!DOCTYPE svg PUBLIC "-//W3C//DTD SVG 1.1//EN" "http://www.w3.org/Graphics/SVG/1.1/DTD/svg11.dtd">
<svg version="1.1" id="Layer_1" xmlns="http://www.w3.org/2000/svg" xmlns:xlink="http://www.w3.org/1999/xlink" x="0px" y="0px"
	 width="150px" height="150px" viewBox="0 0 150 150" enable-background="new 0 0 150 150" xml:space="preserve">
<g>
	<path fill-rule="evenodd" clip-rule="evenodd" fill="#FFFFFF" d="M64.759-0.019c6.837,0,13.675,0,20.512,0
		c2.424,0.773,4.495,1.981,5.905,4.232c0.867,1.385,1.941,2.656,3.034,3.878c1.169,1.309,2.427,2.548,3.73,3.724
		c0.628,0.564,1.397,1.07,2.192,1.332c5.558,1.828,11.086,3.714,16.153,6.714c3.271,1.938,5.652,4.326,6.646,8.364
		c2.55,10.347,5.577,20.575,8.416,30.85c6.083,22.003,12.169,44.007,18.248,66.012c1.342,4.856-0.719,8.592-5.567,10.074
		c-2.142,0.653-4.297,1.265-6.452,1.868c-5.158,1.444-8.985-0.739-10.359-5.918c-3.155-11.904-6.294-23.812-9.448-35.717
		c-0.786-2.973-1.603-5.937-2.404-8.903c-0.093,0.015-0.187,0.029-0.278,0.044c0,0.58,0,1.16,0,1.74
		c0,16.114,0.016,32.227-0.009,48.341c-0.011,7.71-5.226,13.342-12.518,13.363c-18.359,0.059-36.72,0.057-55.079-0.037
		c-1.835-0.009-3.814-0.503-5.472-1.304c-5.009-2.422-7.058-6.751-7.062-12.156c-0.012-16.309-0.005-32.618-0.005-48.926
		c0-0.536,0-1.07,0-1.606c-2.185,7.142-4.067,14.282-5.938,21.429c-2.071,7.91-4.12,15.827-6.199,23.736
		c-1.354,5.149-5.262,7.363-10.372,5.91c-1.592-0.453-3.155-1.04-4.773-1.358c-3.78-0.745-6.494-2.664-7.659-6.464
		c0-0.977,0-1.953,0-2.931c0.09-0.166,0.217-0.323,0.266-0.501c5.543-20.078,11.082-40.158,16.617-60.238
		c3.492-12.668,7.042-25.321,10.417-38.021c0.698-2.628,2.023-4.567,4.141-6.109c4.917-3.582,10.498-5.826,16.264-7.436
		c4.74-1.323,7.501-4.895,10.196-8.309C59.873,3.165,61.624,0.87,64.759-0.019z M19.721,122.628c0.188-0.577,0.341-0.983,0.45-1.399
		c4.418-16.857,8.831-33.717,13.248-50.574c0.555-2.119,1.1-4.24,1.699-6.347c0.349-1.228,1.254-1.895,2.51-1.815
		c1.308,0.083,2.166,0.839,2.344,2.196c0.081,0.625,0.097,1.263,0.097,1.895c0.005,23.242,0.001,46.485,0.014,69.729
		c0.001,1.017-0.002,2.072,0.253,3.042c1.069,4.068,5.496,6.634,9.635,5.631c0.306-0.075,0.623-0.431,0.779-0.735
		c0.893-1.731,1.826-3.449,2.585-5.241c5.539-13.087,7.884-26.874,8.786-40.954c0.75-11.677,0.314-23.312-1.435-34.893
		c-1.489-9.865-3.807-19.501-7.965-28.613c-2.176-4.769-4.825-9.252-8.703-12.895c-0.563-0.528-1.028-0.752-1.791-0.357
		c-1.686,0.873-3.452,1.591-5.122,2.489c-2.594,1.393-4.424,3.214-5.272,6.344c-7.164,26.402-14.51,52.753-21.796,79.121
		c-0.902,3.264-1.78,6.535-2.685,9.862C11.563,120.31,15.618,121.462,19.721,122.628z M142.656,119.09
		c-0.154-0.604-0.266-1.073-0.394-1.536c-8.168-29.609-16.348-59.215-24.479-88.834c-0.407-1.485-1.168-2.596-2.411-3.312
		c-2.528-1.456-5.111-2.818-7.72-4.124c-0.37-0.186-1.185-0.014-1.491,0.292c-1.305,1.31-2.61,2.647-3.708,4.128
		c-4.685,6.32-7.442,13.545-9.591,21.025c-3.014,10.496-4.532,21.232-5.066,32.129c-0.704,14.352,0.238,28.57,3.338,42.613
		c1.717,7.776,4.123,15.327,7.933,22.366c0.258,0.478,0.821,1.109,1.253,1.116c1.449,0.025,2.955-0.002,4.345-0.367
		c3.405-0.897,5.279-3.773,5.28-7.808c0.006-23.195,0.001-46.389,0.012-69.582c0-0.725-0.092-1.605,0.268-2.135
		c0.493-0.724,1.347-1.579,2.105-1.64c0.764-0.062,1.65,0.713,2.381,1.258c0.288,0.214,0.324,0.792,0.436,1.214
		c3.721,14.02,7.434,28.042,11.153,42.063c1.283,4.839,2.58,9.674,3.913,14.669C134.367,121.445,138.423,120.293,142.656,119.09z
		 M96.35,17.263c-0.283,0.431-0.479,0.768-0.711,1.077c-1.972,2.613-4.596,4.034-7.864,4.156c-1.51,0.057-2.625-0.951-2.756-2.292
		c-0.127-1.311,0.811-2.393,2.323-2.678c0.289-0.054,0.574-0.128,0.865-0.157c1.716-0.171,2.818-1.214,3.69-2.585
		c0.506-0.793,0.495-1.435-0.271-2.168c-1.858-1.778-3.79-3.492-4.932-5.914c-0.646-1.369-2.065-1.717-3.495-1.722
		C77.73,4.964,72.26,4.963,66.791,4.981c-1.373,0.004-2.771,0.331-3.395,1.632c-1.201,2.501-3.279,4.207-5.066,6.189
		c-0.339,0.375-0.479,1.271-0.275,1.734c0.842,1.914,2.471,2.744,4.512,2.989c1.629,0.196,2.592,1.368,2.436,2.712
		c-0.162,1.396-1.321,2.333-2.934,2.259c-2.208-0.102-4.226-0.824-5.889-2.283c-0.973-0.854-1.772-1.905-2.685-2.906
		c-1.601,0.528-3.223,1.063-5.004,1.65c3.599,3.812,6.195,7.984,8.308,12.46c6.443,13.651,9.125,28.222,10.239,43.124
		c1.008,13.476,0.516,26.919-1.716,40.271c-1.645,9.837-4.118,19.43-8.419,28.483c-0.242,0.51-0.425,1.048-0.666,1.647
		c12.572,0,24.996,0,37.556,0c-0.222-0.547-0.378-0.995-0.582-1.42c-3.65-7.603-5.979-15.634-7.633-23.869
		c-2.526-12.59-3.36-25.319-2.956-38.141c0.396-12.575,2.043-24.966,5.635-37.049c2.372-7.981,5.493-15.632,10.571-22.341
		c0.812-1.071,1.702-2.081,2.639-3.218C99.687,18.334,98.078,17.817,96.35,17.263z M131.513,127.525
		c0.277,1.069,0.477,1.971,0.747,2.85c0.535,1.737,1.72,2.382,3.494,1.896c2.299-0.629,4.596-1.267,6.88-1.945
		c2.048-0.608,2.646-1.688,2.124-3.74c-0.214-0.842-0.475-1.672-0.749-2.628C139.845,125.146,135.746,126.316,131.513,127.525z
		 M18.512,127.554c-4.269-1.214-8.354-2.376-12.36-3.514c-1.534,2.363,0.07,4.087,0.865,5.929c0.101,0.232,0.536,0.366,0.843,0.456
		c2.185,0.649,4.368,1.307,6.568,1.899c1.543,0.414,2.673-0.188,3.223-1.706C17.993,129.669,18.203,128.671,18.512,127.554z"/>
	<path fill-rule="evenodd" clip-rule="evenodd" fill="#FFFFFF" d="M95.033,79.968c-1.407,0.007-2.493-1.081-2.483-2.492
		c0.008-1.4,1.132-2.499,2.523-2.467c1.285,0.028,2.427,1.159,2.459,2.434C97.565,78.771,96.391,79.96,95.033,79.968z"/>
	<path fill-rule="evenodd" clip-rule="evenodd" fill="#FFFFFF" d="M95.065,97.539c1.361,0.019,2.521,1.217,2.464,2.545
		c-0.054,1.273-1.217,2.406-2.485,2.424c-1.367,0.02-2.494-1.119-2.491-2.515C92.558,98.572,93.635,97.519,95.065,97.539z"/>
</g>
</svg>
