<?xml version="1.0" encoding="utf-8"?>
<!-- Generator: Adobe Illustrator 16.0.0, SVG Export Plug-In . SVG Version: 6.00 Build 0)  -->
<!DOCTYPE svg PUBLIC "-//W3C//DTD SVG 1.1//EN" "http://www.w3.org/Graphics/SVG/1.1/DTD/svg11.dtd">
<svg version="1.1" id="Layer_1" xmlns="http://www.w3.org/2000/svg" xmlns:xlink="http://www.w3.org/1999/xlink" x="0px" y="0px"
	 width="150px" height="150px" viewBox="0 0 150 150" enable-background="new 0 0 150 150" xml:space="preserve">
<g>
	<path fill-rule="evenodd" clip-rule="evenodd" fill="#FFFFFF" d="M136.832,6.766c0.793,0.362,1.626,0.658,2.376,1.097
		c2.528,1.479,3.966,3.723,3.985,6.641c0.063,9.592,0.066,19.185,0.005,28.777c-0.028,4.391-3.601,7.715-8.176,7.725
		c-11.59,0.024-23.181,0.008-34.771,0.008c-6.438,0-12.879,0.008-19.318-0.002c-5.308-0.009-8.597-3.328-8.599-8.664
		c-0.004-8.926-0.003-17.852,0-26.778c0-4.545,1.773-7.031,6.092-8.565c0.114-0.041,0.2-0.157,0.299-0.238
		C98.094,6.766,117.463,6.766,136.832,6.766z M92.268,28.124c-0.282,0.267-0.639,0.591-0.979,0.931
		c-1.542,1.535-3.036,3.121-4.629,4.601c-1.739,1.619-4.321,0.89-4.549-1.354c-0.086-0.855,0.461-1.987,1.079-2.663
		c2.065-2.258,4.295-4.369,6.462-6.535c2.161-2.159,3.321-2.164,5.465-0.021c7.287,7.283,14.565,14.573,21.875,21.832
		c0.39,0.388,1.032,0.733,1.561,0.738c5.374,0.054,10.746,0.047,16.119,0.026c2.134-0.008,3.19-1.071,3.224-3.196
		c0.03-1.865,0.038-3.731-0.017-5.595c-0.013-0.424-0.219-0.943-0.514-1.243c-3.685-3.725-7.4-7.419-11.11-11.118
		c-0.332-0.33-0.682-0.641-1.062-0.996c-2.419,2.426-4.767,4.787-7.124,7.136c-0.376,0.374-0.763,0.755-1.206,1.038
		c-1.036,0.66-2.09,0.637-3.082-0.12c-1.019-0.776-1.227-1.857-0.835-2.976c0.208-0.594,0.708-1.119,1.169-1.585
		c2.841-2.874,5.703-5.726,8.565-8.58c1.877-1.872,3.23-1.876,5.099-0.015c3.018,3.01,6.027,6.029,9.045,9.04
		c0.289,0.288,0.611,0.543,1.078,0.957c0-4.424,0.005-8.592-0.001-12.759c-0.006-2.556-0.998-3.565-3.534-3.566
		c-17.717-0.004-35.435-0.004-53.153,0c-2.55,0.001-3.556,1.001-3.557,3.54c-0.007,8.837-0.007,17.674,0,26.511
		c0.001,2.548,0.996,3.531,3.562,3.533c9.148,0.004,18.297,0.003,27.443-0.001c0.373,0,0.745-0.044,1.102-0.068
		C103.915,39.768,98.12,33.975,92.268,28.124z"/>
	<path fill-rule="evenodd" clip-rule="evenodd" fill="#FFFFFF" d="M45.141,6.766c0.691,0.875,1.646,1.647,2.034,2.639
		c4.015,10.263,7.939,20.562,11.89,30.85c0.063,0.165,0.134,0.328,0.195,0.494c0.919,2.503-0.188,4.136-2.84,4.138
		c-11.096,0.009-22.192,0.003-33.287,0.004c-0.523,0-1.045,0-1.72,0c0,1.923,0.002,3.728,0,5.533
		c-0.001,2.13,0.031,4.261-0.017,6.391c-0.032,1.517-1.18,2.655-2.586,2.693c-1.44,0.04-2.686-1.138-2.701-2.708
		c-0.037-3.902-0.012-7.805-0.012-11.909c-2.001,0-3.938-0.067-5.866,0.021c-1.596,0.074-2.765-0.439-3.473-1.896
		c0-0.533,0-1.066,0-1.599c0.184-0.397,0.39-0.786,0.548-1.193c3.921-10.178,7.813-20.369,11.791-30.524
		c0.424-1.08,1.357-1.96,2.055-2.933C29.147,6.766,37.145,6.766,45.141,6.766z M52.927,39.506c-0.08-0.328-0.109-0.543-0.186-0.741
		c-3.306-8.589-6.63-17.172-9.902-25.773c-0.312-0.819-0.787-0.896-1.501-0.895c-5.414,0.017-10.828,0.039-16.241-0.018
		c-0.982-0.01-1.353,0.348-1.678,1.213c-2.246,5.962-4.551,11.903-6.837,17.85c-1.061,2.756-2.124,5.51-3.223,8.364
		C26.599,39.506,39.675,39.506,52.927,39.506z"/>
	<path fill-rule="evenodd" clip-rule="evenodd" fill="#FFFFFF" d="M16.621,143.234c-1.808-0.922-2.058-2.5-1.808-4.292
		c0.938-6.736,6.548-11.643,13.389-11.699c0.704-0.006,1.407,0,2.294,0c0-0.646,0-1.204,0-1.764c0-23.713-0.001-47.426,0.01-71.14
		c0-0.701,0.028-1.435,0.231-2.097c0.368-1.209,1.589-1.896,2.816-1.727c1.18,0.162,2.104,1.083,2.24,2.292
		c0.063,0.571,0.052,1.152,0.052,1.729c0.002,23.625,0.002,47.25,0.002,70.874c0,0.564,0,1.129,0,1.489
		c2.254,0.409,4.378,0.609,6.385,1.201c4.601,1.355,8.46,6.554,8.772,11.374c0.108,1.68-0.354,2.949-1.866,3.761
		C38.3,143.234,27.46,143.234,16.621,143.234z M20.703,137.859c8.157,0,16.217,0,24.288,0c-0.713-2.923-3.721-5.176-7.208-5.266
		c-3.279-0.084-6.564-0.086-9.844,0.004C24.528,132.689,21.754,134.744,20.703,137.859z"/>
	<path fill-rule="evenodd" clip-rule="evenodd" fill="#FFFFFF" d="M66.256,94.071c17.437,0,34.739,0,51.765,0
		c0.939-2.058,1.689-4.188,2.83-6.081c1.391-2.313,3.599-3.78,6.198-4.534c0.849-0.244,1.182-0.644,1.065-1.493
		c-0.212-1.568-0.095-3.262-0.667-4.681c-1.229-3.041-3.783-4.279-7.017-4.265c-5.375,0.023-10.75,0.009-16.126,0.002
		c-0.53-0.001-1.067-0.019-1.589-0.102c-1.462-0.235-2.375-1.239-2.389-2.573c-0.015-1.282,0.828-2.302,2.2-2.61
		c0.428-0.096,0.877-0.139,1.316-0.139c5.508-0.009,11.017-0.054,16.524,0.008c5.312,0.059,9.396,2.29,11.873,7.116
		c1.146,2.233,1.361,4.667,1.295,7.119c-0.025,0.957,0.27,1.382,1.212,1.674c4.839,1.502,8.389,6.082,8.438,11.14
		c0.088,9.551,0.041,19.103,0.028,28.653c-0.003,1.764-1.063,2.788-2.817,2.861c-0.354,0.016-0.71,0.005-1.064,0.005
		c-31.363,0-62.728,0-94.09,0c-3.086,0-3.828-0.749-3.828-3.863c0-8.84-0.005-17.682,0.002-26.521
		c0.004-6.064,3.086-10.452,8.781-12.396c0.776-0.267,0.901-0.658,0.893-1.349c-0.033-2.497,0.126-4.976,1.278-7.259
		c2.42-4.79,6.438-7.083,11.698-7.172c5.463-0.093,10.929-0.028,16.392-0.011c0.524,0.002,1.08,0.064,1.566,0.245
		c1.158,0.431,1.785,1.32,1.737,2.562c-0.048,1.234-0.706,2.107-1.913,2.424c-0.632,0.166-1.317,0.184-1.979,0.185
		c-5.242,0.014-10.484-0.017-15.726,0.018c-3.892,0.025-6.578,1.949-7.384,5.424c-0.306,1.313-0.194,2.73-0.197,4.102
		c0,0.242,0.338,0.622,0.595,0.704c5.212,1.681,8.133,5.284,9.01,10.632C66.181,93.973,66.242,94.045,66.256,94.071z M118.4,110.039
		c-17.446,0-34.783,0-52.131,0c0,3.627,0,7.158,0,10.716c17.413,0,34.75,0,52.131,0C118.4,117.166,118.4,113.665,118.4,110.039z
		 M60.848,120.792c0-8.703,0.15-17.271-0.059-25.829c-0.12-4.913-4.81-7.912-9.329-6.372c-2.904,0.989-4.711,3.686-4.719,7.159
		c-0.018,7.947-0.008,15.895-0.002,23.843c0,0.386,0.045,0.771,0.072,1.199C51.5,120.792,56.101,120.792,60.848,120.792z
		 M137.853,120.778c0-8.745,0.194-17.4-0.075-26.04c-0.15-4.798-4.822-7.638-9.249-6.155c-2.921,0.978-4.747,3.662-4.755,7.127
		c-0.021,7.993-0.007,15.983-0.007,23.977c0,0.341,0,0.685,0,1.092C128.502,120.778,133.102,120.778,137.853,120.778z
		 M66.301,104.51c17.411,0,34.737,0,52.104,0c0.016-0.349,0.037-0.609,0.039-0.872c0.051-3.761-0.528-4.355-4.239-4.355
		c-14.465,0-28.93,0.04-43.396-0.027C67.022,99.237,65.772,99.771,66.301,104.51z"/>
	<path fill-rule="evenodd" clip-rule="evenodd" fill="#FFFFFF" d="M21.403,66.152c0.028,1.421-1.144,2.656-2.563,2.702
		c-1.473,0.048-2.744-1.19-2.736-2.664c0.008-1.427,1.203-2.625,2.631-2.636C20.154,63.544,21.376,64.731,21.403,66.152z"/>
	<path fill-rule="evenodd" clip-rule="evenodd" fill="#FFFFFF" d="M92.257,67.635c1.379-0.043,2.658,1.175,2.712,2.583
		c0.055,1.442-1.072,2.66-2.521,2.726c-1.511,0.068-2.768-1.108-2.782-2.602C89.652,68.936,90.856,67.68,92.257,67.635z"/>
</g>
</svg>
