<?xml version="1.0" encoding="utf-8"?>
<!-- Generator: Adobe Illustrator 16.0.0, SVG Export Plug-In . SVG Version: 6.00 Build 0)  -->
<!DOCTYPE svg PUBLIC "-//W3C//DTD SVG 1.1//EN" "http://www.w3.org/Graphics/SVG/1.1/DTD/svg11.dtd">
<svg version="1.1" id="Layer_1" xmlns="http://www.w3.org/2000/svg" xmlns:xlink="http://www.w3.org/1999/xlink" x="0px" y="0px"
	 width="150px" height="150px" viewBox="0 0 150 150" enable-background="new 0 0 150 150" xml:space="preserve">
<g>
	<path fill-rule="evenodd" clip-rule="evenodd" fill="#FFFFFF" d="M125.686,121.801c-4.978-0.031-9.019-4.17-8.974-9.189
		c0.045-4.897,4.187-8.984,9.087-8.963c4.961,0.02,9.126,4.219,9.068,9.143C134.811,117.782,130.684,121.832,125.686,121.801z
		 M125.699,116.159c1.943,0.033,3.503-1.441,3.541-3.349c0.04-1.901-1.478-3.491-3.375-3.54c-1.912-0.047-3.48,1.463-3.512,3.379
		C122.32,114.64,123.738,116.127,125.699,116.159z"/>
	<path fill-rule="evenodd" clip-rule="evenodd" fill="#FFFFFF" d="M106.772,47.95c0-3.549,0.019-6.902-0.004-10.255
		c-0.03-4.462,1.151-8.554,3.975-12.026c5.151-6.342,11.816-8.663,19.77-6.815c7.271,1.69,12.826,7.905,13.991,15.375
		c0.181,1.158,0.244,2.347,0.245,3.521c0.013,24.795-0.121,49.589,0.072,74.381c0.078,10.148-7.9,19.789-19.607,19.631
		c-7.175-0.096-14.351-0.017-21.524-0.017c-30.471,0-60.939,0-91.41-0.005c-0.816,0-1.64-0.01-2.445-0.121
		c-2.58-0.358-4.291-2.341-4.302-4.913c-0.1-24.159-0.153-48.316-0.354-72.474c-0.028-3.53,2.436-6.343,6.313-6.331
		c31.104,0.09,62.211,0.05,93.316,0.05C105.396,47.95,105.981,47.95,106.772,47.95z M106.772,77.656
		C76.57,93.839,46.621,109.886,16.67,125.934c6.817,0.248,13.532,0.256,20.248,0.229c0.422-0.003,0.869-0.226,1.26-0.432
		c2.844-1.506,5.678-3.035,8.514-4.555c6.475-3.468,12.942-6.946,19.425-10.398c2.068-1.104,3.897-0.281,4.364,1.898
		c0.277,1.29-0.254,2.221-1.88,3.096c-5.946,3.202-11.905,6.381-17.855,9.572c-0.37,0.199-0.719,0.438-1.372,0.838
		c7.084,0,13.798,0.007,20.513-0.017c0.424-0.003,0.882-0.187,1.269-0.393c11.55-6.18,23.091-12.383,34.651-18.545
		c0.771-0.41,0.996-0.888,0.982-1.705c-0.044-2.452-0.016-4.905-0.016-7.356c0-0.883,0-1.766,0-2.826
		c-0.779,0.403-1.301,0.667-1.817,0.943c-5.397,2.884-10.786,5.783-16.196,8.643c-1.907,1.009-3.696,0.278-4.193-1.626
		c-0.379-1.458,0.109-2.488,1.658-3.321c6.07-3.264,12.108-6.587,18.248-9.714c1.78-0.906,2.49-1.916,2.35-3.924
		C106.627,83.557,106.772,80.749,106.772,77.656z M78.771,86.317c-0.12-0.196-0.154-0.287-0.216-0.349
		C67.934,75.337,57.315,64.701,46.66,54.101c-0.383-0.383-1.114-0.581-1.686-0.585c-7.128-0.038-14.258-0.026-21.387-0.021
		c-0.363,0-0.727,0.058-0.994,0.079c13.655,13.658,27.253,27.259,40.913,40.923C68.484,91.829,73.595,89.092,78.771,86.317z
		 M54.139,53.491c0.411,0.483,0.595,0.732,0.812,0.948c9.439,9.444,18.89,18.879,28.307,28.345c0.615,0.619,1.052,0.599,1.744,0.217
		c2.9-1.598,5.828-3.142,8.742-4.709c1.255-0.676,2.505-1.36,3.858-2.096c-7.483-7.48-14.831-14.839-22.215-22.158
		c-0.357-0.354-1.042-0.512-1.58-0.523c-2.497-0.054-4.995-0.023-7.493-0.023C62.371,53.491,58.427,53.491,54.139,53.491z
		 M139.098,49.215c0-4.526,0.166-8.876-0.04-13.207c-0.315-6.692-6.075-11.937-13.048-12.157
		c-6.522-0.205-12.743,4.754-13.361,11.157c-0.447,4.634-0.215,9.333-0.276,14.004c-0.002,0.051,0.124,0.104,0.191,0.152
		C119.663,42.59,130.876,41.89,139.098,49.215z M139.119,74.715c0-4.34,0.164-8.51-0.038-12.662
		c-0.311-6.393-5.54-11.862-11.623-12.464c-6.901-0.683-12.94,3.465-14.654,10.092c-0.214,0.828-0.412,1.69-0.421,2.537
		c-0.044,4.151-0.021,8.303-0.021,12.533C123.053,67.683,129.146,67.665,139.119,74.715z M57.921,97.491
		c-2.452-2.465-4.812-4.836-7.241-7.278c-0.576,0.302-1.256,0.655-1.932,1.012c-11.813,6.238-23.598,12.531-35.467,18.661
		c-1.924,0.993-2.703,2.047-2.541,4.211c0.208,2.78,0.051,5.59,0.051,8.645C26.659,114.24,42.287,105.866,57.921,97.491z
		 M139.119,99.043c0-3.948,0.162-7.71-0.035-11.453c-0.355-6.787-5.579-11.891-12.57-12.541c-5.979-0.557-12.433,3.82-13.553,10.034
		c-0.81,4.49-0.437,9.192-0.582,13.8c0,0.039,0.133,0.081,0.205,0.121C119.538,92.493,130.644,91.48,139.119,99.043z M10.8,104.946
		C22.886,98.561,34.735,92.3,46.734,85.962c-2.311-2.292-4.449-4.451-6.647-6.549c-0.252-0.239-0.935-0.322-1.251-0.157
		c-9.11,4.771-18.203,9.579-27.285,14.403c-0.313,0.165-0.715,0.553-0.719,0.842C10.781,97.889,10.8,101.276,10.8,104.946z
		 M139.179,112.703c-0.03-7.424-6.058-13.415-13.441-13.362c-7.427,0.053-13.433,6.071-13.4,13.432
		c0.031,7.332,6.163,13.436,13.473,13.408C133.174,126.151,139.21,120.066,139.179,112.703z M82.921,53.558
		c0.5,0.53,0.799,0.86,1.113,1.177c5.481,5.486,10.964,10.972,16.446,16.455c2.292,2.293,2.276,2.262,5.193,0.741
		c0.839-0.438,1.129-0.96,1.12-1.9c-0.046-5.034-0.021-10.068-0.025-15.102c-0.001-0.438-0.05-0.875-0.08-1.371
		C98.782,53.558,91.003,53.558,82.921,53.558z M35.449,74.676c-2.283-2.267-4.401-4.315-6.452-6.431
		c-0.619-0.642-1.072-0.666-1.843-0.252c-4.624,2.493-9.227,5.031-13.949,7.327c-1.9,0.923-2.637,1.998-2.465,4.116
		c0.213,2.641,0.051,5.313,0.051,8.267C19.107,83.309,27.165,79.053,35.449,74.676z M112.259,126.112
		c-3.496-3.742-5.304-7.973-5.493-13.077c-8.126,4.354-16.066,8.609-24.006,12.864c0.024,0.071,0.05,0.142,0.074,0.213
		C92.555,126.112,102.275,126.112,112.259,126.112z M10.855,70.298c4.489-2.369,8.768-4.626,13.16-6.943
		c-0.399-0.424-0.729-0.787-1.077-1.135c-2.47-2.474-5.048-4.851-7.376-7.451c-1.414-1.582-2.959-1.324-4.707-1.157
		C10.855,59.146,10.855,64.576,10.855,70.298z"/>
	<path fill-rule="evenodd" clip-rule="evenodd" fill="#FFFFFF" d="M77.248,110.37c-1.529-0.075-2.651-1.347-2.568-2.916
		c0.081-1.549,1.33-2.649,2.915-2.569c1.536,0.079,2.649,1.339,2.572,2.916C80.093,109.326,78.819,110.447,77.248,110.37z"/>
</g>
</svg>
