<?xml version="1.0" encoding="utf-8"?>
<!-- Generator: Adobe Illustrator 16.0.0, SVG Export Plug-In . SVG Version: 6.00 Build 0)  -->
<!DOCTYPE svg PUBLIC "-//W3C//DTD SVG 1.1//EN" "http://www.w3.org/Graphics/SVG/1.1/DTD/svg11.dtd">
<svg version="1.1" id="Layer_1" xmlns="http://www.w3.org/2000/svg" xmlns:xlink="http://www.w3.org/1999/xlink" x="0px" y="0px"
	 width="150px" height="150px" viewBox="0 0 150 150" enable-background="new 0 0 150 150" xml:space="preserve">
<path fill-rule="evenodd" clip-rule="evenodd" fill="#FFFFFF" d="M47.882,121.324c0,5.515,0,11.091-0.001,16.667
	c0,0.96,0.036,1.922-0.011,2.88c-0.102,2.043-1.003,2.909-3.065,2.916c-4.683,0.018-9.365,0.01-14.047,0.005
	c-2.681-0.004-3.443-0.724-3.447-3.402c-0.018-8.944-0.054-17.889,0.032-26.832c0.015-1.697-0.409-2.394-2.172-2.666
	c-5.413-0.84-10.204,0.138-14.346,3.942c-0.7,0.643-2.042,1.002-2.99,0.859c-1.354-0.205-1.653-1.488-1.645-2.814
	c0.034-5.402,0.045-10.807-0.004-16.208c-0.016-1.6,0.617-2.569,2.095-3.16c5.62-2.244,11.401-3.189,17.434-2.357
	c0.459,0.063,0.934,0.008,1.576,0.008c0-4.456,0.027-8.827-0.053-13.197c-0.006-0.364-0.696-0.94-1.151-1.04
	C20.498,75.706,15.403,76.535,11,80.512c-0.746,0.671-1.999,1.176-2.969,1.104c-1.193-0.091-1.833-1.196-1.83-2.514
	c0.012-5.643,0.012-11.285,0-16.928c-0.004-1.368,0.611-2.208,1.887-2.73c5.483-2.241,11.138-3.244,17.054-2.517
	c0.644,0.08,1.295,0.085,2.155,0.138c0-4.522,0.041-8.89-0.067-13.255c-0.011-0.4-0.918-1.009-1.491-1.129
	c-5.482-1.147-10.483-0.238-14.707,3.693c-0.175,0.163-0.33,0.426-0.532,0.471c-0.933,0.206-2.055,0.733-2.771,0.406
	c-0.716-0.328-1.438-1.523-1.457-2.354c-0.126-5.64-0.053-11.284-0.074-16.927c-0.006-1.492,0.788-2.274,2.082-2.794
	c5.376-2.158,10.915-3.153,16.71-2.462c0.698,0.083,1.403,0.093,2.31,0.149c0-3.958-0.002-7.729,0.002-11.5
	c0.001-0.899-0.029-1.804,0.046-2.698c0.128-1.54,0.973-2.437,2.558-2.443c5.104-0.021,10.205-0.036,15.308,0.007
	c1.839,0.016,2.663,1.074,2.671,3.299c0.02,5.823,0.232,11.659-0.084,17.464c-0.168,3.091,0.858,4.644,3.641,5.693
	c4.35,1.642,8.594,3.561,13.268,5.525c0-1.162,0-1.801,0-2.44c0-8.583-0.005-17.168,0.002-25.751
	c0.003-3.149,0.669-3.807,3.792-3.807c4.383-0.002,8.765-0.002,13.147,0c2.88,0.001,3.641,0.73,3.645,3.598
	c0.014,8.644,0.005,17.289,0.005,25.932c0,0.647,0,1.295,0,2.611c5.644-2.503,10.89-4.794,16.084-7.201
	c0.427-0.197,0.692-1.17,0.697-1.786c0.049-6.423,0.027-12.846,0.03-19.27c0.003-3.207,0.688-3.884,3.908-3.885
	c4.441,0,8.884-0.004,13.326,0.002c2.541,0.004,3.319,0.756,3.339,3.33c0.03,3.721,0.008,7.444,0.01,11.165c0,0.65,0,1.298,0,2.149
	c0.893-0.053,1.595-0.059,2.288-0.142c5.731-0.688,11.213,0.303,16.554,2.37c1.615,0.624,2.304,1.644,2.278,3.408
	c-0.074,5.341-0.051,10.685-0.009,16.028c0.01,1.338-0.354,2.383-1.628,2.912c-1.226,0.51-2.188-0.042-3.066-0.895
	c-4.203-4.082-9.253-4.968-14.822-3.92c-1.18,0.223-1.66,0.748-1.63,2.048c0.095,4.07,0.035,8.143,0.035,12.391
	c0.84-0.049,1.488-0.047,2.125-0.129c5.793-0.739,11.334,0.271,16.74,2.329c1.625,0.617,2.279,1.674,2.255,3.428
	c-0.074,5.282-0.049,10.564-0.011,15.847c0.01,1.376-0.269,2.511-1.647,3.085c-1.35,0.563-2.279-0.188-3.185-1.043
	c-4.259-4.022-9.326-4.872-14.862-3.681c-0.532,0.114-1.338,0.795-1.347,1.229c-0.102,4.31-0.063,8.623-0.063,13.142
	c1.237-0.127,2.286-0.275,3.34-0.34c5.352-0.335,10.506,0.53,15.492,2.499c1.509,0.595,2.298,1.51,2.278,3.228
	c-0.063,5.401-0.041,10.806-0.011,16.208c0.007,1.314-0.274,2.614-1.631,2.829c-0.946,0.148-2.295-0.203-2.993-0.843
	c-4.828-4.426-10.331-5.063-16.481-3.403c0,1.999,0,3.855,0,5.713c-0.002,7.684,0.009,15.367-0.006,23.051
	c-0.005,2.91-0.711,3.586-3.63,3.587c-4.502,0.004-9.005,0.006-13.507-0.001c-2.592-0.004-3.421-0.822-3.429-3.461
	c-0.017-5.702-0.005-11.405-0.005-17.107c0-0.654,0-1.308,0-2.121c-0.556,0.163-0.938,0.264-1.314,0.386
	c-4.714,1.541-9.413,3.137-14.155,4.587c-1.005,0.309-1.361,0.671-1.353,1.692c0.041,4.142,0.029,8.282,0.013,12.425
	c-0.013,2.854-0.781,3.6-3.649,3.601c-4.504,0.004-9.005,0.005-13.507-0.001c-2.634-0.003-3.42-0.77-3.437-3.438
	c-0.024-3.962-0.059-7.925,0.02-11.886c0.029-1.462-0.291-2.104-1.908-2.539C57.875,124.596,53.013,122.933,47.882,121.324z
	 M79.975,73.387c0-20.94,0-41.488,0-62.034c-3.412,0-6.685,0-9.988,0c0,20.672,0,41.233,0,62.034
	C73.36,73.387,76.627,73.387,79.975,73.387z M11.381,97.82c0,3.498,0,6.804,0,9.834c2.534-0.688,4.959-1.615,7.465-1.975
	c6.12-0.876,11.716,1.066,17.12,3.711c4.732,2.318,9.386,4.826,14.227,6.896c4.596,1.964,9.389,3.466,14.489,5.315
	c0-3.26-0.05-5.945,0.024-8.626c0.029-1.098-0.378-1.509-1.397-1.87c-3.832-1.356-7.69-2.684-11.395-4.343
	c-5.463-2.446-10.712-5.382-16.216-7.723C27.8,95.681,19.657,94.731,11.381,97.82z M138.756,108.102c0-3.28,0.054-6.278-0.055-9.272
	c-0.017-0.485-0.683-1.268-1.159-1.364c-2.925-0.589-5.87-1.33-8.83-1.439c-6.175-0.226-11.979,1.619-17.458,4.278
	c-8.236,3.999-16.229,8.521-25.106,11.059c-0.318,0.091-0.777,0.494-0.781,0.76c-0.056,2.97-0.036,5.941-0.036,9.242
	c3.004-0.932,5.786-1.522,8.335-2.638c6.959-3.048,13.844-6.268,20.712-9.513C122.256,105.489,130.197,103.621,138.756,108.102z
	 M11.239,39.266c2.844-0.708,5.561-1.697,8.354-2.013c6.054-0.686,11.545,1.402,16.89,4.009c5.592,2.728,11.169,5.5,16.877,7.963
	c3.536,1.526,7.304,2.514,11.312,3.859c0-3.404,0.042-6.327-0.058-9.244c-0.01-0.346-0.745-0.777-1.226-0.978
	c-5.567-2.331-11.176-4.562-16.719-6.948c-4.829-2.079-9.484-4.601-14.406-6.42c-6.451-2.387-13.125-2.55-19.742-0.393
	c-0.5,0.163-1.214,0.747-1.227,1.157C11.192,33.35,11.239,36.447,11.239,39.266z M85.314,52.899
	c2.317-0.652,4.419-0.995,6.309-1.819c7.613-3.321,15.176-6.757,22.725-10.222c4.329-1.985,8.723-3.602,13.563-3.743
	c3.79-0.11,7.325,0.757,10.844,2.64c0-3.306,0.038-6.349-0.045-9.389c-0.01-0.413-0.556-1.064-0.964-1.169
	c-2.137-0.546-4.289-1.136-6.473-1.371c-7.201-0.773-13.901,1.174-20.287,4.263c-8.126,3.929-15.988,8.434-24.768,10.879
	c-0.373,0.104-0.854,0.708-0.863,1.091C85.281,46.866,85.314,49.675,85.314,52.899z M102.106,70.846
	c-8.834,4.146-17.467,7.916-27.102,7.917c-9.673,0-18.342-3.819-27.123-7.898c0,2.572,0.181,4.863-0.049,7.112
	c-0.245,2.397,0.568,3.552,2.859,4.462c6.644,2.633,13.324,4.979,20.512,5.565c10.599,0.863,20.375-2.069,29.833-6.446
	c0.47-0.218,1.008-0.906,1.021-1.39C102.153,77.178,102.106,74.184,102.106,70.846z M32.441,45c0,0.976,0,1.626,0,2.278
	c0,13.668,0,27.335,0,41.001c0,4.042,0.009,4.021,3.817,5.474c2.093,0.797,4.149,1.686,6.425,2.617c0-0.895,0-1.547,0-2.201
	c0-5.335,0-10.669,0-16.005c0-8.811,0.017-17.623-0.033-26.435c-0.005-0.656-0.314-1.644-0.795-1.909
	C38.88,48.18,35.815,46.703,32.441,45z M117.457,45.047c-2.93,1.484-5.652,2.958-8.461,4.242c-1.271,0.582-1.73,1.268-1.726,2.696
	c0.059,14.146,0.036,28.293,0.036,42.438c0,0.58,0,1.16,0,1.893c3.529-1.387,6.831-2.683,10.15-3.986
	C117.457,76.648,117.457,60.974,117.457,45.047z M69.972,138.631c3.412,0,6.725,0,10.007,0c0-15.269,0-30.407,0-45.449
	c-3.395,0-6.662,0-10.007,0C69.972,108.32,69.972,123.452,69.972,138.631z M32.575,113.436c0,8.615,0,16.918,0,25.224
	c3.405,0,6.678,0,10.104,0c0-6.511,0.013-12.914-0.026-19.318c-0.003-0.383-0.324-0.943-0.655-1.116
	C38.934,116.619,35.836,115.082,32.575,113.436z M117.431,138.709c0-8.467,0-16.756,0-25.282c-3.009,1.522-5.791,3.025-8.663,4.334
	c-1.2,0.549-1.497,1.263-1.484,2.482c0.054,5.577,0.021,11.154,0.028,16.733c0,0.567,0.067,1.136,0.105,1.732
	C110.836,138.709,114.06,138.709,117.431,138.709z M47.891,53.022c0,2.542,0,5.178,0,7.814c0,4.295-0.041,4.387,3.908,6.15
	c4.134,1.845,8.358,3.488,12.894,5.365c0-4.869,0.02-9.233-0.039-13.596c-0.003-0.314-0.517-0.792-0.881-0.906
	C58.532,56.225,53.278,54.65,47.891,53.022z M102.105,52.892c-4.456,1.456-8.683,2.929-12.967,4.212
	c-3.813,1.141-3.841,1.049-3.841,5.115c0,3.215,0,6.431,0,9.845c5.802-1.752,11.067-4.003,16.131-6.73
	c0.33-0.177,0.643-0.734,0.647-1.117C102.125,60.443,102.105,56.668,102.105,52.892z M64.188,106.489
	c0.171-0.188,0.342-0.377,0.512-0.567c0-4.239,0.04-8.479-0.062-12.717c-0.01-0.434-0.807-1.061-1.352-1.23
	c-2.277-0.71-4.633-1.18-6.896-1.925c-2.814-0.927-5.566-2.042-8.505-3.134c0,3.908-0.02,7.677,0.028,11.444
	c0.005,0.388,0.305,0.98,0.629,1.128C53.742,101.855,58.968,104.166,64.188,106.489z M85.309,105.963
	c0.336,0.029,0.53,0.108,0.668,0.051c5.122-2.128,10.244-4.252,15.339-6.442c0.37-0.159,0.749-0.805,0.756-1.229
	c0.059-3.763,0.034-7.526,0.034-11.083c-5.367,1.622-10.664,3.208-15.945,4.848c-0.348,0.107-0.812,0.616-0.814,0.944
	C85.291,97.349,85.309,101.646,85.309,105.963z M11.235,73.982c5.224-2.879,10.502-3.142,15.962-2.133c0-3.283,0-6.314,0-9.46
	c-5.484-0.983-10.746-0.646-15.962,1.305c0,0.712,0,1.307,0,1.902C11.235,68.288,11.235,70.981,11.235,73.982z M138.757,73.975
	c0-1.834,0.021-3.382-0.006-4.929c-0.031-1.789,0.577-4.2-0.338-5.204c-1.083-1.187-3.473-1.32-5.341-1.618
	c-3.426-0.545-6.875-0.626-10.25,0.229c0,3.192,0,6.218,0,9.433C128.333,70.787,133.547,71.159,138.757,73.975z M32.501,11.326
	c0,4.35,0,8.526,0,12.65c3.378,1.323,6.685,2.618,10.077,3.946c0-5.566,0-11.039,0-16.596
	C39.208,11.326,35.942,11.326,32.501,11.326z M107.403,27.933c3.412-1.334,6.723-2.63,10.02-3.92c0-4.219,0-8.437,0-12.679
	c-3.393,0-6.658,0-10.02,0C107.403,16.9,107.403,22.374,107.403,27.933z"/>
</svg>
