<?xml version="1.0" encoding="utf-8"?>
<!-- Generator: Adobe Illustrator 16.0.0, SVG Export Plug-In . SVG Version: 6.00 Build 0)  -->
<!DOCTYPE svg PUBLIC "-//W3C//DTD SVG 1.1//EN" "http://www.w3.org/Graphics/SVG/1.1/DTD/svg11.dtd">
<svg version="1.1" id="Layer_1" xmlns="http://www.w3.org/2000/svg" xmlns:xlink="http://www.w3.org/1999/xlink" x="0px" y="0px"
	 width="150px" height="150px" viewBox="0 0 150 150" enable-background="new 0 0 150 150" xml:space="preserve">
<path fill-rule="evenodd" clip-rule="evenodd" fill="#FFFFFF" d="M97.294-0.001c5.232,1.917,9.826,4.788,13.154,9.331
	c1.459,1.991,2.767,4.153,3.775,6.402c7.538,16.797,14.977,33.637,22.464,50.457c1.089,2.445,1.632,4.976,1.608,7.654
	c-0.034,3.856-0.025,7.714-0.004,11.571c0.019,2.89-1.148,5.059-3.679,6.519c-0.355,0.205-0.656,0.792-0.688,1.224
	c-0.093,1.263,0.005,2.538-0.046,3.805c-0.103,2.582-1.938,4.372-4.515,4.396c-2.88,0.028-5.761,0.03-8.642,0
	c-2.544-0.025-4.272-1.729-4.424-4.293c-0.029-0.486-0.061-0.979-0.019-1.463c0.165-1.939,0.047-3.564-2.067-4.684
	c-1.524-0.805-2.238-2.56-2.271-4.369c-0.06-3.319-0.031-6.641-0.077-9.959c-0.008-0.62-0.064-1.29-0.309-1.845
	c-2.365-5.398-4.775-10.775-7.175-16.158c-0.076-0.168-0.182-0.324-0.445-0.786c-0.785,2.061-1.52,3.866-2.141,5.711
	c-0.135,0.399,0.063,0.964,0.231,1.406c4.984,13.107,8.027,26.751,11.022,40.396c1.929,8.795,3.593,17.653,5.154,26.521
	c0.648,3.683,0.847,7.464,1.016,11.21c0.18,4.047-2.755,6.948-6.813,6.95c-24.9,0.012-49.801,0.011-74.702,0
	c-4.146-0.002-7.225-2.914-6.838-7.036c0.663-7.074,1.347-14.185,2.683-21.152c2.877-15.012,6.158-29.948,10.423-44.643
	c1.126-3.875,2.471-7.689,3.825-11.495c0.471-1.324,0.558-2.498-0.048-3.781c-0.594-1.257-1.052-2.579-1.671-4.123
	c-0.312,0.596-0.522,0.951-0.688,1.326c-2.28,5.115-4.569,10.228-6.813,15.36c-0.282,0.645-0.439,1.395-0.449,2.099
	c-0.048,3.124-0.016,6.249-0.023,9.375c-0.008,2.625-1.194,4.594-3.467,5.847c-0.702,0.388-0.984,0.778-0.943,1.573
	c0.065,1.265,0.051,2.538,0.005,3.808c-0.082,2.335-1.883,4.157-4.222,4.197c-3.026,0.051-6.055,0.049-9.081,0
	c-2.343-0.036-4.137-1.851-4.243-4.18c-0.023-0.488-0.021-0.978-0.007-1.465c0.063-1.926,0.26-3.688-2.078-4.828
	c-1.686-0.821-2.31-2.817-2.313-4.788c-0.008-4.492-0.146-8.99,0.061-13.473c0.094-2.042,0.576-4.187,1.396-6.06
	c7.472-17.038,15.052-34.03,22.609-51.03C39.214,7.897,44.893,2.75,52.761-0.001c0.782,0,1.563,0,2.345,0
	c1.226,0.902,2.437,1.827,3.688,2.691c0.362,0.251,0.843,0.47,1.27,0.472c9.947,0.026,19.893,0.024,29.839,0.006
	c0.405,0,0.888-0.104,1.2-0.337c1.215-0.905,2.375-1.882,3.557-2.832C95.536-0.001,96.415-0.001,97.294-0.001z M92.839,145.614
	c-0.521-9.782-1.013-19.33-1.546-28.876c-0.169-3.02-0.474-6.031-0.663-9.05c-0.091-1.465,0.748-2.498,1.985-2.627
	c1.21-0.126,2.187,0.635,2.397,2.027c0.175,1.153,0.207,2.331,0.27,3.5c0.576,10.816,1.146,21.634,1.717,32.45
	c0.043,0.816,0.086,1.632,0.134,2.558c5.24,0,10.357,0.042,15.472-0.026c1.436-0.02,2.336-1.119,2.222-2.567
	c-0.271-3.45-0.394-6.938-1.006-10.333c-1.677-9.294-3.422-18.581-5.423-27.811c-2.741-12.653-5.731-25.254-10.171-37.458
	c-0.41-1.124-0.915-1.45-2.078-1.446c-11.768,0.046-23.534,0.029-35.302,0.027c-0.536,0-1.076,0.005-1.609-0.042
	c-1.247-0.109-1.977-0.814-2.053-2.056c-0.079-1.276,0.672-2,1.849-2.265c0.514-0.115,1.068-0.068,1.604-0.068
	c11.914-0.004,23.827-0.015,35.741,0.021c0.978,0.002,1.475-0.249,1.812-1.203c1.069-3.03,2.294-6.004,3.347-9.039
	c0.634-1.829,1.146-3.711,1.548-5.604c0.308-1.454,1.087-2.386,2.317-2.32c1.242,0.067,2.198,1.068,2.077,2.531
	c-0.123,1.488-0.604,2.943-0.795,4.43c-0.109,0.858-0.207,1.861,0.117,2.613c2.858,6.617,5.848,13.178,8.709,19.793
	c0.484,1.123,0.724,2.422,0.769,3.65c0.108,2.975,0.025,5.956,0.038,8.935c0.009,2.028,0.794,2.801,2.851,2.83
	c1.074,0.016,2.147-0.007,3.223,0.006c1.679,0.02,2.72,0.889,2.69,2.228c-0.029,1.287-1.04,2.121-2.624,2.151
	c-0.561,0.011-1.122,0.002-1.671,0.002c0,1.573,0,2.922,0,4.335c2.884,0,5.69,0,8.676,0c0-2.105,0.004-4.141-0.001-6.178
	c-0.004-1.339,0.551-2.221,1.924-2.528c2.023-0.452,2.456-1,2.464-3.126c0.013-3.906,0.091-7.815-0.04-11.716
	c-0.053-1.573-0.311-3.251-0.938-4.678c-7.609-17.297-15.28-34.569-22.994-51.821c-2.54-5.681-6.761-9.714-12.552-12.052
	c-1.705-0.688-2.184-0.388-2.717,1.401c-0.64,2.144-1.263,4.301-2.061,6.389c-2.419,6.334-6.866,10.195-13.77,10.781
	c-1.335,0.113-1.608,0.591-1.57,1.791c0.076,2.438,0.07,4.883-0.003,7.322c-0.054,1.802-1.205,2.766-2.694,2.414
	c-1.421-0.336-1.752-1.421-1.763-2.672c-0.021-2.393-0.062-4.788,0.017-7.177c0.037-1.156-0.267-1.555-1.502-1.682
	c-5.104-0.524-9.541-2.489-11.977-7.246c-1.604-3.135-2.672-6.557-3.856-9.893c-0.657-1.849-1.008-2.123-2.849-1.381
	c-6.229,2.51-10.336,7.074-13.016,13.149c-7.351,16.667-14.793,33.294-22.157,49.955c-0.564,1.275-1.106,2.68-1.152,4.042
	c-0.158,4.632-0.118,9.272-0.087,13.909c0.009,1.203,0.759,1.938,1.956,2.233c2.127,0.526,2.4,0.903,2.403,3.124
	c0.003,1.882,0.001,3.764,0.001,5.638c3.031,0,5.845,0,8.714,0c0-1.458,0-2.843,0-4.339c-0.758,0-1.435,0.034-2.106-0.007
	c-1.336-0.082-2.229-1.021-2.192-2.252c0.035-1.17,0.904-2.048,2.188-2.102c1.219-0.052,2.441-0.005,3.661-0.02
	c2.097-0.027,2.915-0.837,2.927-2.944c0.018-3.027-0.059-6.057,0.037-9.081c0.035-1.133,0.254-2.335,0.702-3.37
	c2.847-6.57,5.759-13.111,8.708-19.635c0.475-1.05,0.535-1.947,0.196-3.059c-0.434-1.425-0.694-2.936-0.782-4.424
	c-0.077-1.332,0.991-2.282,2.186-2.275c1.131,0.006,1.927,0.875,2.174,2.147c0.286,1.473,0.579,2.965,1.079,4.374
	c1.301,3.67,2.688,7.31,4.1,10.94c0.721,1.855,0.814,3.646,0.094,5.538c-3.599,9.438-6.19,19.176-8.397,29.012
	c-3.474,15.484-7.553,30.864-8.544,46.807c-0.147,2.381,0.632,3.387,3.004,3.393c4.492,0.011,8.984,0.006,13.477-0.001
	c0.371-0.001,0.743-0.064,1.159-0.103c0.039-0.378,0.083-0.663,0.096-0.95c0.417-9.116,0.805-18.233,1.257-27.349
	c0.164-3.313,0.432-6.622,0.745-9.924c0.146-1.534,1.112-2.331,2.376-2.234c1.286,0.1,2.143,1.184,2.041,2.725
	c-0.396,6.037-0.891,12.069-1.217,18.109c-0.339,6.286-0.527,12.581-0.771,18.872c-0.011,0.268,0.088,0.541,0.126,0.755
	c5.104,0,10.11,0,15.204,0c0-0.684,0-1.265,0-1.848c0-11.669-0.002-23.339,0.006-35.009c0.001-0.628,0.051-1.265,0.16-1.885
	c0.197-1.132,0.995-1.695,2.064-1.706c1.063-0.011,1.889,0.519,2.109,1.649c0.121,0.616,0.174,1.254,0.174,1.883
	c0.01,11.719,0.007,23.437,0.007,35.154c0,0.572,0,1.144,0,1.79c0.482,0.031,0.813,0.07,1.142,0.07
	C83.107,145.615,87.784,145.614,92.839,145.614z M60.249,7.677c0.954,2.166,1.71,4.214,2.731,6.122
	c1.354,2.529,3.551,4.211,6.377,4.665c2.574,0.414,5.222,0.652,7.821,0.554c6.663-0.252,10.479-3.443,12.18-11.34
	C79.766,7.677,70.189,7.677,60.249,7.677z"/>
</svg>
