<?xml version="1.0" encoding="utf-8"?>
<!-- Generator: Adobe Illustrator 16.0.0, SVG Export Plug-In . SVG Version: 6.00 Build 0)  -->
<!DOCTYPE svg PUBLIC "-//W3C//DTD SVG 1.1//EN" "http://www.w3.org/Graphics/SVG/1.1/DTD/svg11.dtd">
<svg version="1.1" id="Layer_1" xmlns="http://www.w3.org/2000/svg" xmlns:xlink="http://www.w3.org/1999/xlink" x="0px" y="0px"
	 width="150px" height="150px" viewBox="0 0 150 150" enable-background="new 0 0 150 150" xml:space="preserve">
<g>
	<path fill-rule="evenodd" clip-rule="evenodd" fill="#FFFFFF" d="M118.166,55.731c6.64,0.521,9.47,2.605,9.586,6.918
		c0.119,4.412-2.411,6.88-7.993,7.705c-0.433,3.672-0.87,7.374-1.306,11.076c-0.857,7.28-1.716,14.56-2.569,21.842
		c-0.844,7.181-1.685,14.362-2.521,21.544c-0.617,5.301-1.175,10.607-1.864,15.899c-0.471,3.613-3.508,6.196-7.14,6.198
		c-19.577,0.012-39.156,0.012-58.733-0.001c-3.61-0.003-6.665-2.642-7.103-6.24c-1.064-8.762-2.037-17.535-3.066-26.301
		c-0.954-8.123-1.942-16.24-2.897-24.363c-0.768-6.532-1.508-13.067-2.275-19.726c-0.52-0.034-1-0.063-1.48-0.096
		c-3.428-0.235-6.478-3.258-6.501-6.687c-0.06-8.439-0.098-16.881,0.013-25.32c0.074-5.744,5.398-10.925,11.147-11.111
		c0.993-0.033,1.989-0.004,3.127-0.004c0.026-0.558,0.067-1.036,0.068-1.515c0.007-3.396-0.009-6.791,0.01-10.188
		c0.009-1.81,0.857-2.675,2.643-2.688c3.047-0.021,6.093-0.024,9.14,0.001c1.694,0.015,2.566,0.896,2.578,2.603
		c0.023,3.396,0.007,6.792,0.007,10.188c0,0.485,0,0.97,0,1.587c0.791,0,1.428-0.009,2.064,0.002
		c1.88,0.029,2.725,0.861,2.728,2.763c0.01,7.392,0.004,14.782,0.004,22.174c0,1.196,0,2.394,0,3.71c1.563,0,3.079,0,4.807,0
		c0-0.489,0-1.017,0-1.543c0-9.739-0.008-19.479,0.002-29.217c0.006-6.395,4.598-11.666,10.636-12.242
		c6.412-0.611,11.89,3.482,13.152,9.87c0.163,0.823,0.165,1.687,0.167,2.532c0.01,9.639,0.007,19.277,0.007,28.917
		c0,0.54,0,1.08,0,1.712c1.623,0,3.137,0,4.806,0c0-0.633,0-1.217,0-1.802c0-15.882-0.001-31.764,0.001-47.646
		c0-2.498,0.701-3.205,3.185-3.206c7.491-0.001,14.982-0.002,22.475,0.001c2.364,0.001,3.099,0.746,3.099,3.145
		c0.002,15.882,0.001,31.764,0.001,47.646C118.166,54.462,118.166,55.053,118.166,55.731z M114.875,70.283
		c-26.594,0-53.126,0-79.72,0c2.435,20.769,4.86,41.447,7.286,62.134c21.792,0,43.47,0,65.149,0
		C110.025,111.649,112.445,91.009,114.875,70.283z M94.295,7.928c0,16.022,0,31.918,0,47.778c6.415,0,12.723,0,19.006,0
		c0-3.196,0-6.273,0-9.484c-2.412,0-4.748,0.041-7.081-0.012c-1.905-0.044-3.131-1.926-2.115-3.413
		c0.467-0.684,1.563-1.229,2.417-1.297c2.259-0.178,4.539-0.061,6.779-0.061c0-1.719,0-3.198,0-4.808
		c-2.415,0-4.751,0.041-7.084-0.013c-1.904-0.044-3.129-1.929-2.11-3.416c0.467-0.682,1.564-1.226,2.419-1.293
		c2.258-0.178,4.539-0.06,6.773-0.06c0-1.722,0-3.201,0-4.809c-2.416,0-4.752,0.028-7.087-0.011
		c-1.438-0.024-2.383-0.98-2.416-2.313c-0.035-1.406,0.925-2.386,2.429-2.454c0.548-0.024,1.098-0.005,1.647-0.005
		c1.822,0,3.645,0,5.427,0c0-4.919,0-9.594,0-14.332C106.943,7.928,100.672,7.928,94.295,7.928z M75.182,60.609
		c-15.023,0-30.047-0.004-45.071,0.004c-1.864,0-3.018,0.93-3.031,2.38c-0.013,1.454,1.146,2.417,2.997,2.417
		c29.947,0.006,59.896,0.006,89.842,0c1.861,0,3.021-0.937,3.033-2.382c0.012-1.455-1.146-2.39-2.999-2.418
		c-0.35-0.007-0.698-0.001-1.048-0.001C104.33,60.609,89.756,60.609,75.182,60.609z M43.082,137.399
		c0.057,0.711,0.1,1.35,0.161,1.986c0.186,1.919,1.062,2.744,3.022,2.745c19.17,0.008,38.341,0.008,57.51,0
		c1.949-0.001,2.83-0.839,3.014-2.76c0.06-0.634,0.097-1.27,0.15-1.972C85.63,137.399,64.381,137.399,43.082,137.399z
		 M36.717,55.718c4.83,0,9.54,0,14.21,0c0-4.817,0-9.527,0-14.209c-4.796,0-9.47,0-14.21,0
		C36.717,46.263,36.717,50.937,36.717,55.718z M65.509,26.95c4.807,0,9.517,0,14.213,0c0.823-6.535-3.365-9.458-7.1-9.47
		C69.048,17.468,64.686,20.254,65.509,26.95z M31.795,32.515c-2.748,0.68-4.7,3.418-4.725,6.687
		c-0.036,4.686-0.011,9.371-0.011,14.057c0,0.935,0,1.869,0,2.737c1.675-0.092,3.193-0.176,4.735-0.26
		C31.795,47.934,31.795,40.232,31.795,32.515z M50.979,31.945c-4.832,0-9.541,0-14.208,0c0,1.623,0,3.139,0,4.62
		c4.796,0,9.469,0,14.208,0C50.979,35.008,50.979,33.528,50.979,31.945z M65.487,36.539c4.832,0,9.54,0,14.207,0
		c0-1.624,0-3.141,0-4.621c-4.794,0-9.467,0-14.207,0C65.487,33.477,65.487,34.954,65.487,36.539z M65.546,41.462
		c0,4.755,0,9.498,0,14.261c1.563,0,3.078,0,4.567,0c0-4.812,0-9.521,0-14.261C68.557,41.462,67.113,41.462,65.546,41.462z
		 M79.711,55.757c0-4.83,0-9.539,0-14.207c-1.625,0-3.139,0-4.621,0c0,4.794,0,9.468,0,14.207
		C76.646,55.757,78.126,55.757,79.711,55.757z M41.555,17.518c0,3.243,0,6.354,0,9.412c1.627,0,3.141,0,4.613,0
		c0-3.2,0-6.275,0-9.412C44.607,17.518,43.129,17.518,41.555,17.518z"/>
	<path fill-rule="evenodd" clip-rule="evenodd" fill="#FFFFFF" d="M55.909,75.006c1.548,0,3.098-0.028,4.645,0.009
		c1.528,0.035,2.438,0.904,2.456,2.419c0.036,3.195,0.038,6.394-0.004,9.59c-0.019,1.422-0.94,2.325-2.377,2.341
		c-3.196,0.04-6.394,0.04-9.589,0c-1.44-0.017-2.357-0.917-2.376-2.341c-0.041-3.196-0.038-6.395-0.003-9.59
		c0.018-1.517,0.921-2.384,2.453-2.419C52.711,74.978,54.311,75.006,55.909,75.006z M53.486,84.475c1.677,0,3.191,0,4.672,0
		c0-1.6,0-3.077,0-4.592c-1.596,0-3.107,0-4.672,0C53.486,81.454,53.486,82.932,53.486,84.475z"/>
	<path fill-rule="evenodd" clip-rule="evenodd" fill="#FFFFFF" d="M75.05,75.006c1.549,0,3.098-0.026,4.645,0.008
		c1.604,0.034,2.483,0.911,2.499,2.53c0.029,3.097,0.028,6.193,0,9.29c-0.015,1.617-0.897,2.519-2.495,2.535
		c-3.146,0.031-6.294,0.034-9.439-0.003c-1.513-0.018-2.403-0.927-2.419-2.454c-0.033-3.146-0.034-6.293,0.001-9.439
		c0.018-1.586,0.928-2.433,2.564-2.462C71.953,74.984,73.501,75.006,75.05,75.006z M77.351,79.869c-1.653,0-3.131,0-4.644,0
		c0,1.596,0,3.107,0,4.619c1.608,0,3.122,0,4.644,0C77.351,82.902,77.351,81.426,77.351,79.869z"/>
	<path fill-rule="evenodd" clip-rule="evenodd" fill="#FFFFFF" d="M63.021,101.373c0.001,1.548,0.025,3.098-0.006,4.645
		c-0.032,1.616-0.9,2.516-2.499,2.531c-3.147,0.031-6.294,0.036-9.44-0.003c-1.513-0.019-2.4-0.929-2.416-2.457
		c-0.032-3.146-0.032-6.294,0-9.439c0.017-1.53,0.903-2.435,2.419-2.452c3.196-0.035,6.394-0.038,9.59,0.005
		c1.423,0.018,2.302,0.936,2.343,2.376C63.056,98.176,63.021,99.773,63.021,101.373z M53.524,98.997c0,1.646,0,3.158,0,4.672
		c1.609,0,3.122,0,4.594,0c0-1.623,0-3.138,0-4.672C56.557,98.997,55.115,98.997,53.524,98.997z"/>
	<path fill-rule="evenodd" clip-rule="evenodd" fill="#FFFFFF" d="M74.924,108.559c-1.548,0-3.098,0.03-4.645-0.01
		c-1.521-0.038-2.421-0.918-2.438-2.437c-0.035-3.146-0.034-6.293-0.001-9.438c0.016-1.597,0.916-2.466,2.545-2.48
		c3.097-0.026,6.193-0.028,9.289,0.001c1.613,0.016,2.503,0.899,2.52,2.509c0.03,3.098,0.028,6.194,0.001,9.29
		c-0.016,1.681-0.911,2.534-2.625,2.561C78.021,108.577,76.472,108.56,74.924,108.559z M72.722,99.033c0,1.643,0,3.155,0,4.62
		c1.626,0,3.14,0,4.615,0c0-1.601,0-3.079,0-4.62C75.778,99.033,74.301,99.033,72.722,99.033z"/>
	<path fill-rule="evenodd" clip-rule="evenodd" fill="#FFFFFF" d="M94.048,108.559c-1.499,0-2.997,0.024-4.495-0.007
		c-1.622-0.033-2.518-0.895-2.534-2.496c-0.03-3.146-0.033-6.293,0.002-9.439c0.019-1.517,0.921-2.403,2.451-2.42
		c3.146-0.033,6.293-0.032,9.439,0c1.529,0.016,2.44,0.902,2.458,2.414c0.038,3.196,0.04,6.393-0.003,9.59
		c-0.019,1.423-0.938,2.307-2.374,2.347C97.345,108.592,95.696,108.557,94.048,108.559z M96.497,103.703c0-1.618,0-3.131,0-4.619
		c-1.616,0-3.13,0-4.63,0c0,1.593,0,3.071,0,4.619C93.418,103.703,94.896,103.703,96.497,103.703z"/>
	<path fill-rule="evenodd" clip-rule="evenodd" fill="#FFFFFF" d="M63.021,120.66c0,1.499,0.021,2.998-0.006,4.495
		c-0.031,1.689-0.904,2.563-2.608,2.577c-3.046,0.023-6.094,0.023-9.14,0c-1.711-0.014-2.597-0.881-2.611-2.57
		c-0.025-3.097-0.028-6.194,0.002-9.291c0.017-1.606,0.906-2.482,2.527-2.496c3.097-0.028,6.194-0.029,9.29,0
		c1.675,0.016,2.517,0.913,2.542,2.64C63.039,117.563,63.021,119.112,63.021,120.66z M58.182,118.266c-1.666,0-3.18,0-4.673,0
		c0,1.596,0,3.074,0,4.601c1.591,0,3.104,0,4.673,0C58.182,121.298,58.182,119.82,58.182,118.266z"/>
	<path fill-rule="evenodd" clip-rule="evenodd" fill="#FFFFFF" d="M74.917,127.738c-1.499,0-2.998,0.021-4.495-0.005
		c-1.698-0.03-2.572-0.896-2.586-2.598c-0.023-3.047-0.022-6.094,0-9.141c0.013-1.773,0.888-2.614,2.706-2.625
		c2.997-0.017,5.994-0.019,8.99,0.002c1.79,0.011,2.652,0.875,2.665,2.669c0.021,2.998,0.02,5.994,0,8.991
		c-0.013,1.858-0.88,2.687-2.786,2.704C77.913,127.75,76.415,127.739,74.917,127.738z M72.685,118.208c0,1.644,0,3.121,0,4.662
		c1.586,0,3.098,0,4.636,0c0-1.599,0-3.111,0-4.662C75.744,118.208,74.267,118.208,72.685,118.208z"/>
	<path fill-rule="evenodd" clip-rule="evenodd" fill="#FFFFFF" d="M94.081,127.738c-1.498,0-2.997,0.022-4.494-0.006
		c-1.69-0.031-2.558-0.903-2.571-2.611c-0.022-3.048-0.023-6.095,0-9.141c0.014-1.713,0.878-2.593,2.572-2.606
		c3.096-0.026,6.192-0.029,9.29,0.001c1.603,0.018,2.481,0.911,2.495,2.532c0.03,3.096,0.03,6.194,0,9.29
		c-0.015,1.615-0.897,2.498-2.497,2.533C97.278,127.766,95.68,127.738,94.081,127.738z M91.865,118.208c0,1.644,0,3.121,0,4.662
		c1.584,0,3.097,0,4.636,0c0-1.6,0-3.111,0-4.662C94.925,118.208,93.447,118.208,91.865,118.208z"/>
	<path fill-rule="evenodd" clip-rule="evenodd" fill="#FFFFFF" d="M94.192,89.378c-1.549,0-3.097,0.024-4.645-0.007
		c-1.62-0.032-2.514-0.896-2.529-2.5c-0.03-3.146-0.034-6.293,0.003-9.439c0.018-1.516,0.922-2.4,2.455-2.415
		c3.146-0.033,6.293-0.033,9.44,0c1.526,0.015,2.435,0.905,2.453,2.418c0.037,3.196,0.039,6.394-0.004,9.591
		c-0.02,1.421-0.94,2.302-2.378,2.341C97.391,89.411,95.791,89.378,94.192,89.378z M96.53,79.893c-1.629,0-3.143,0-4.619,0
		c0,1.621,0,3.137,0,4.624c1.596,0,3.074,0,4.619,0C96.53,82.963,96.53,81.484,96.53,79.893z"/>
	<path fill-rule="evenodd" clip-rule="evenodd" fill="#FFFFFF" d="M106.173,15.007c0.027,1.341-0.967,2.397-2.297,2.442
		c-1.341,0.046-2.414-0.934-2.478-2.261c-0.065-1.407,0.971-2.507,2.369-2.516C105.11,12.665,106.146,13.67,106.173,15.007z"/>
</g>
</svg>
