<?xml version="1.0" encoding="utf-8"?>
<!-- Generator: Adobe Illustrator 16.0.0, SVG Export Plug-In . SVG Version: 6.00 Build 0)  -->
<!DOCTYPE svg PUBLIC "-//W3C//DTD SVG 1.1//EN" "http://www.w3.org/Graphics/SVG/1.1/DTD/svg11.dtd">
<svg version="1.1" id="Layer_1" xmlns="http://www.w3.org/2000/svg" xmlns:xlink="http://www.w3.org/1999/xlink" x="0px" y="0px"
	 width="150px" height="150px" viewBox="0 0 150 150" enable-background="new 0 0 150 150" xml:space="preserve">
<g>
	<path fill="#FFFFFF" d="M136.832,6.766c0.793,0.362,1.626,0.658,2.376,1.097c2.528,1.479,3.966,3.723,3.985,6.641
		c0.063,9.592,0.065,19.185,0.005,28.777c-0.028,4.391-3.601,7.715-8.177,7.725c-11.59,0.024-23.181,0.008-34.771,0.008
		c-6.438,0-12.879,0.008-19.317-0.002c-5.309-0.009-8.598-3.328-8.6-8.664c-0.004-8.926-0.003-17.852,0-26.778
		c0-4.545,1.773-7.031,6.092-8.565c0.114-0.041,0.2-0.157,0.299-0.238C98.094,6.766,117.463,6.766,136.832,6.766z M92.268,28.124
		c-0.281,0.267-0.639,0.591-0.979,0.931c-1.542,1.535-3.036,3.121-4.629,4.601c-1.739,1.619-4.321,0.89-4.549-1.354
		c-0.086-0.854,0.461-1.987,1.078-2.663c2.065-2.258,4.295-4.369,6.463-6.535c2.16-2.159,3.32-2.164,5.465-0.021
		c7.287,7.283,14.564,14.573,21.875,21.832c0.39,0.388,1.031,0.733,1.561,0.738c5.375,0.054,10.746,0.047,16.119,0.026
		c2.135-0.008,3.189-1.071,3.225-3.196c0.029-1.865,0.037-3.731-0.018-5.595c-0.013-0.424-0.219-0.943-0.514-1.243
		c-3.686-3.725-7.4-7.419-11.11-11.118c-0.332-0.33-0.683-0.641-1.062-0.996c-2.42,2.426-4.768,4.787-7.125,7.136
		c-0.375,0.374-0.762,0.755-1.205,1.038c-1.036,0.66-2.09,0.637-3.082-0.12c-1.02-0.776-1.227-1.857-0.836-2.976
		c0.209-0.594,0.709-1.119,1.17-1.585c2.841-2.874,5.703-5.726,8.564-8.58c1.877-1.872,3.23-1.876,5.1-0.015
		c3.018,3.01,6.027,6.029,9.045,9.04c0.289,0.288,0.611,0.543,1.078,0.957c0-4.424,0.005-8.592-0.002-12.759
		c-0.006-2.556-0.998-3.565-3.533-3.566c-17.717-0.004-35.436-0.004-53.153,0c-2.55,0.001-3.556,1.001-3.557,3.54
		c-0.007,8.837-0.007,17.674,0,26.511c0.001,2.548,0.995,3.531,3.562,3.533c9.148,0.004,18.297,0.003,27.443-0.001
		c0.373,0,0.745-0.044,1.102-0.068C103.915,39.768,98.12,33.975,92.268,28.124z"/>
	<path fill="#FFFFFF" d="M45.141,6.766c0.691,0.875,1.646,1.647,2.034,2.639c4.015,10.263,7.939,20.562,11.89,30.85
		c0.063,0.165,0.134,0.328,0.195,0.494c0.919,2.503-0.188,4.136-2.84,4.138c-11.096,0.009-22.192,0.003-33.287,0.004
		c-0.523,0-1.045,0-1.72,0c0,1.923,0.002,3.728,0,5.533c-0.001,2.13,0.031,4.261-0.017,6.391c-0.032,1.517-1.18,2.655-2.586,2.693
		c-1.44,0.04-2.686-1.138-2.701-2.708c-0.037-3.902-0.012-7.805-0.012-11.909c-2.001,0-3.938-0.067-5.866,0.021
		c-1.596,0.074-2.765-0.439-3.473-1.896c0-0.533,0-1.066,0-1.599c0.184-0.397,0.39-0.786,0.548-1.193
		C11.227,30.046,15.119,19.855,19.097,9.7c0.424-1.08,1.357-1.96,2.055-2.933C29.147,6.766,37.145,6.766,45.141,6.766z
		 M52.927,39.506c-0.08-0.328-0.109-0.543-0.186-0.741c-3.306-8.589-6.63-17.172-9.902-25.773c-0.312-0.819-0.787-0.896-1.501-0.895
		c-5.414,0.017-10.828,0.039-16.241-0.018c-0.982-0.01-1.353,0.348-1.678,1.213c-2.246,5.962-4.551,11.903-6.837,17.85
		c-1.061,2.756-2.124,5.51-3.223,8.364C26.599,39.506,39.675,39.506,52.927,39.506z"/>
	<path fill="#FFFFFF" d="M16.621,143.234c-1.808-0.922-2.058-2.5-1.808-4.293c0.938-6.735,6.548-11.643,13.389-11.698
		c0.704-0.007,1.407,0,2.294,0c0-0.646,0-1.204,0-1.765c0-23.713-0.001-47.426,0.01-71.14c0-0.701,0.028-1.435,0.231-2.097
		c0.368-1.209,1.589-1.896,2.816-1.727c1.18,0.162,2.104,1.083,2.24,2.292c0.063,0.571,0.052,1.152,0.052,1.729
		c0.002,23.625,0.002,47.25,0.002,70.874c0,0.564,0,1.129,0,1.488c2.254,0.41,4.378,0.609,6.385,1.201
		c4.601,1.355,8.46,6.555,8.772,11.375c0.108,1.68-0.354,2.948-1.866,3.76C38.3,143.234,27.46,143.234,16.621,143.234z
		 M20.703,137.859c8.157,0,16.217,0,24.288,0c-0.713-2.924-3.721-5.176-7.208-5.267c-3.279-0.084-6.564-0.086-9.844,0.005
		C24.528,132.689,21.754,134.744,20.703,137.859z"/>
	<path fill="#FFFFFF" d="M66.256,94.07c17.438,0,34.739,0,51.766,0c0.938-2.057,1.688-4.188,2.83-6.08
		c1.391-2.313,3.599-3.78,6.197-4.534c0.85-0.244,1.182-0.644,1.064-1.493c-0.211-1.568-0.094-3.262-0.666-4.681
		c-1.229-3.041-3.783-4.279-7.018-4.265c-5.375,0.023-10.75,0.009-16.125,0.002c-0.531-0.001-1.068-0.019-1.59-0.102
		c-1.462-0.235-2.375-1.239-2.389-2.573c-0.016-1.282,0.828-2.302,2.199-2.61c0.429-0.096,0.877-0.139,1.316-0.139
		c5.508-0.009,11.018-0.054,16.524,0.008c5.312,0.059,9.396,2.29,11.872,7.116c1.146,2.233,1.361,4.667,1.296,7.119
		c-0.025,0.957,0.271,1.382,1.212,1.674c4.839,1.502,8.389,6.082,8.438,11.141c0.088,9.551,0.041,19.103,0.028,28.652
		c-0.003,1.764-1.063,2.788-2.817,2.861c-0.354,0.016-0.709,0.005-1.063,0.005c-31.363,0-62.728,0-94.09,0
		c-3.086,0-3.828-0.749-3.828-3.862c0-8.841-0.005-17.683,0.002-26.521c0.004-6.064,3.086-10.452,8.781-12.396
		c0.776-0.267,0.901-0.658,0.893-1.349c-0.033-2.497,0.126-4.976,1.278-7.259c2.42-4.79,6.438-7.083,11.698-7.172
		c5.463-0.093,10.929-0.028,16.392-0.011c0.523,0.002,1.08,0.064,1.566,0.245c1.158,0.431,1.785,1.32,1.736,2.562
		c-0.048,1.234-0.705,2.107-1.912,2.424c-0.633,0.166-1.318,0.184-1.979,0.185c-5.242,0.014-10.484-0.017-15.726,0.018
		c-3.892,0.025-6.578,1.949-7.384,5.424c-0.306,1.313-0.194,2.729-0.197,4.103c0,0.241,0.338,0.621,0.595,0.703
		c5.212,1.682,8.133,5.284,9.01,10.633C66.181,93.973,66.242,94.045,66.256,94.07z M118.4,110.039c-17.446,0-34.783,0-52.131,0
		c0,3.627,0,7.158,0,10.716c17.413,0,34.75,0,52.131,0C118.4,117.166,118.4,113.665,118.4,110.039z M60.848,120.792
		c0-8.703,0.15-17.271-0.059-25.829c-0.12-4.913-4.81-7.912-9.329-6.372c-2.904,0.989-4.711,3.687-4.719,7.159
		c-0.018,7.947-0.008,15.895-0.002,23.843c0,0.386,0.045,0.771,0.072,1.199C51.5,120.792,56.101,120.792,60.848,120.792z
		 M137.854,120.777c0-8.744,0.193-17.399-0.076-26.039c-0.149-4.799-4.821-7.639-9.248-6.155c-2.922,0.978-4.747,3.662-4.756,7.127
		c-0.021,7.993-0.006,15.983-0.006,23.978c0,0.34,0,0.685,0,1.092C128.502,120.777,133.102,120.777,137.854,120.777z M66.301,104.51
		c17.411,0,34.737,0,52.104,0c0.017-0.349,0.037-0.609,0.039-0.871c0.052-3.762-0.527-4.355-4.238-4.355
		c-14.465,0-28.93,0.04-43.396-0.027C67.022,99.236,65.772,99.771,66.301,104.51z"/>
	<path fill="#FFFFFF" d="M21.403,66.152c0.028,1.421-1.144,2.656-2.563,2.702c-1.473,0.048-2.744-1.19-2.736-2.664
		c0.008-1.427,1.203-2.625,2.631-2.636C20.154,63.544,21.376,64.731,21.403,66.152z"/>
	<path fill="#FFFFFF" d="M92.257,67.635c1.38-0.043,2.658,1.175,2.712,2.583c0.055,1.442-1.072,2.66-2.521,2.726
		c-1.51,0.068-2.768-1.108-2.781-2.602C89.652,68.936,90.855,67.68,92.257,67.635z"/>
</g>
</svg>
