<?xml version="1.0" encoding="utf-8"?>
<!-- Generator: Adobe Illustrator 16.0.0, SVG Export Plug-In . SVG Version: 6.00 Build 0)  -->
<!DOCTYPE svg PUBLIC "-//W3C//DTD SVG 1.1//EN" "http://www.w3.org/Graphics/SVG/1.1/DTD/svg11.dtd">
<svg version="1.1" id="Layer_1" xmlns="http://www.w3.org/2000/svg" xmlns:xlink="http://www.w3.org/1999/xlink" x="0px" y="0px"
	 width="150px" height="150px" viewBox="0 0 150 150" enable-background="new 0 0 150 150" xml:space="preserve">
<g>
	<path fill-rule="evenodd" clip-rule="evenodd" fill="#FFFFFF" d="M58.104,6.265c11.277,0,22.554,0,33.83,0
		c1.963,0.694,3.778,1.59,4.981,3.403c1.054,1.591,1.367,3.37,1.373,5.229c0.009,2.894,0.002,5.788,0.002,8.833
		c11.304,0,22.457,0,33.623,0c0.046,0.321,0.089,0.493,0.089,0.664c0,9.929,0.008,19.857-0.014,29.785
		c-0.009,3.604-1.177,6.813-3.376,9.686c-0.443,0.579-0.73,1.438-0.734,2.17c-0.051,8.362-0.033,16.724-0.028,25.088
		c0,0.474,0.042,0.948,0.072,1.589c3.582,0,7.042,0,10.535,0c0,7.641,0.021,15.105-0.007,22.572
		c-0.023,5.994-4.506,11.074-9.84,12.167c-1.036,0.213-0.842,0.995-0.912,1.653c-0.582,5.385-3.159,9.575-7.814,12.279
		c-1.886,1.097-4.124,1.586-6.202,2.353c-25.775,0-51.551,0-77.325,0c-0.206-0.082-0.405-0.201-0.618-0.239
		c-6.822-1.256-12.008-6.143-13.134-12.943c-0.352-2.136-1.061-2.991-3.053-3.784c-5.547-2.21-8.004-6.677-8.014-12.558
		c-0.01-6.663-0.004-13.327,0.001-19.99c0-0.477,0.044-0.951,0.076-1.596c3.562,0,7.021,0,10.577,0c0-0.618,0-1.062,0-1.503
		c0-8.14-0.027-16.279,0.025-24.418c0.01-1.329-0.32-2.371-1.144-3.415c-1.876-2.378-2.933-5.15-2.957-8.173
		c-0.083-10.24-0.064-20.481-0.08-30.723c-0.001-0.204,0.08-0.408,0.143-0.707c11.18,0,22.298,0,33.567,0
		c0-3.047-0.008-5.986,0.003-8.924c0.008-2.306,0.464-4.542,2.259-6.09C55.189,7.655,56.727,7.053,58.104,6.265z M26.549,68.183
		c-0.043,0.436-0.077,0.607-0.077,0.78c-0.002,19.372-0.054,38.747,0.025,58.12c0.029,7.213,5.107,12.355,12.066,12.368
		c24.296,0.042,48.592,0.041,72.888-0.036c1.772-0.006,3.687-0.442,5.286-1.2c4.833-2.296,6.83-6.435,6.831-11.645
		c0.006-18.972,0.003-37.942,0-56.915c0-0.42-0.045-0.841-0.081-1.472c-4.828,2.826-10.041,1.689-15.011,2.044
		c0,2.714,0,5.279,0,7.989c1.791,0,3.467,0,5.146,0c0,5.404,0,10.659,0,16.063c-1.76,0-3.438,0-5.262,0c0,0.626,0.002,1.106,0,1.589
		c-0.015,2.594,0.036,5.189-0.057,7.783c-0.143,3.862-3.128,7.052-6.93,7.53c-3.878,0.488-7.576-1.876-8.646-5.655
		c-0.323-1.143-0.407-2.374-0.438-3.568c-0.063-2.53-0.02-5.063-0.02-7.694c-1.486,0-2.78-0.059-4.066,0.02
		c-0.996,0.06-1.313-0.261-1.304-1.276c0.05-4.608,0.021-9.218,0.027-13.827c0-0.301,0.07-0.602,0.124-1.045c1.729,0,3.41,0,5.138,0
		c0-2.719,0-5.288,0-7.908c-5.023,0-9.966,0-14.93,0c0,18.425,0,36.78,0,55.263c10.551,0,20.999,0,31.492,0c0,1.443,0,2.76,0,4.137
		c-25.327,0-50.576,0-75.861,0c0-1.413,0-2.73,0-4.193c13.346,0,26.609,0,39.893,0c0-18.501,0-36.857,0-55.18
		c-5.048,0-9.992,0-14.901,0c0,2.665,0,5.232,0,7.962c1.779,0,3.452,0,5.232,0c0,5.209,0.015,10.258-0.041,15.306
		c-0.003,0.252-0.604,0.688-0.946,0.709c-1.409,0.08-2.826,0.034-4.356,0.034c0,0.754,0.01,1.327-0.001,1.899
		c-0.061,2.771,0.034,5.556-0.227,8.306c-0.375,3.948-4.087,6.893-8.185,6.758c-4.019-0.135-7.459-3.432-7.612-7.419
		c-0.103-2.682-0.048-5.367-0.068-8.052c-0.004-0.47-0.04-0.938-0.067-1.548c-1.838,0-3.518,0-5.193,0c0-5.409,0-10.669,0-16.072
		c1.76,0,3.437,0,5.184,0c0-2.713,0-5.28,0-7.926C36.542,69.909,31.379,70.979,26.549,68.183z M22.41,28.043
		c0,9.27-0.175,18.397,0.084,27.513c0.106,3.754,2.392,6.661,5.647,8.633c4.24,2.568,8.904,1.464,13.578,1.705
		c0-5.731,0-11.255,0-16.818c5.392,0,10.645,0,16.087,0c0,5.64,0,11.194,0,16.729c11.58,0,22.969,0,34.496,0
		c0-5.612,0-11.138,0-16.736c5.392,0,10.645,0,16.058,0c0,2.824,0,5.584,0,8.345c0,2.8,0,5.601,0,8.435
		c2.885,0,5.582,0.186,8.243-0.037c6.442-0.541,10.931-5.16,11.061-11.618c0.173-8.543,0.053-17.091,0.052-25.636
		c0-0.162-0.078-0.325-0.127-0.513C92.517,28.043,57.502,28.043,22.41,28.043z M56.143,23.626c12.604,0,25.172,0,37.87,0
		c0-2.938,0.002-5.79-0.005-8.642c-0.001-0.445-0.012-0.896-0.076-1.335c-0.268-1.841-1.609-3.101-3.443-3.104
		c-10.323-0.019-20.647-0.019-30.97,0.001c-1.71,0.003-3.262,1.206-3.333,2.874C56.042,16.797,56.143,20.183,56.143,23.626z
		 M46.051,53.332c0,8.294,0,16.495,0,24.707c2.521,0,4.943,0,7.371,0c0-8.291,0-16.46,0-24.707
		C50.958,53.332,48.565,53.332,46.051,53.332z M96.625,77.997c2.523,0,4.964,0,7.359,0c0-8.327,0-16.487,0-24.673
		c-2.494,0-4.889,0-7.359,0C96.625,61.595,96.625,69.796,96.625,77.997z M58.728,89.921c0-2.496,0-4.926,0-7.391
		c-6.059,0-12.031,0-18.013,0c0,2.515,0,4.941,0,7.391C46.763,89.921,52.697,89.921,58.728,89.921z M91.303,89.909
		c6.055,0,12.022,0,18.038,0c0-2.511,0-4.939,0-7.362c-6.066,0-12.034,0-18.038,0C91.303,85.045,91.303,87.439,91.303,89.909z
		 M15.943,105.394c0,3.764-0.175,7.433,0.054,11.074c0.2,3.204,3.26,6.274,6.112,6.617c0-5.88,0-11.757,0-17.691
		C20.033,105.394,18.039,105.394,15.943,105.394z M127.941,105.393c0,5.984,0,11.854,0,17.74c2.735-0.543,5.462-2.834,5.83-5.72
		c0.505-3.945,0.433-7.965,0.609-12.021C132.04,105.393,130.045,105.393,127.941,105.393z M45.985,94.329
		c0,3.189-0.055,6.221,0.02,9.248c0.044,1.813,1.57,3.245,3.365,3.383c1.821,0.14,3.756-0.998,3.869-2.751
		c0.212-3.264,0.061-6.552,0.061-9.88C50.911,94.329,48.519,94.329,45.985,94.329z M96.547,94.327c0,2.342-0.021,4.521,0.008,6.699
		c0.015,1.065,0.005,2.153,0.213,3.189c0.331,1.653,1.92,2.774,3.642,2.752c1.699-0.023,3.463-1.237,3.545-2.867
		c0.163-3.231,0.049-6.475,0.049-9.773C101.516,94.327,99.123,94.327,96.547,94.327z M22.121,97.024c-2.16,0-4.154,0-6.223,0
		c0,1.353,0,2.622,0,3.966c2.101,0,4.13,0,6.223,0C22.121,99.645,22.121,98.374,22.121,97.024z M127.951,97.01
		c0,1.434,0,2.703,0,3.95c2.133,0,4.16,0,6.154,0c0-1.38,0-2.649,0-3.95C131.999,97.01,130.008,97.01,127.951,97.01z"/>
	<path fill-rule="evenodd" clip-rule="evenodd" fill="#FFFFFF" d="M113.013,129.641c0-1.437,0-2.714,0-4.091
		c1.367,0,2.679,0,4.107,0c0,1.316,0,2.661,0,4.091C115.772,129.641,114.462,129.641,113.013,129.641z"/>
</g>
</svg>
