<?xml version="1.0" encoding="utf-8"?>
<!-- Generator: Adobe Illustrator 16.0.0, SVG Export Plug-In . SVG Version: 6.00 Build 0)  -->
<!DOCTYPE svg PUBLIC "-//W3C//DTD SVG 1.1//EN" "http://www.w3.org/Graphics/SVG/1.1/DTD/svg11.dtd">
<svg version="1.1" id="Layer_1" xmlns="http://www.w3.org/2000/svg" xmlns:xlink="http://www.w3.org/1999/xlink" x="0px" y="0px"
	 width="150px" height="150px" viewBox="0 0 150 150" enable-background="new 0 0 150 150" xml:space="preserve">
<g>
	<path fill-rule="evenodd" clip-rule="evenodd" fill="#FFFFFF" d="M142.62,7.018c1.119,0.926,1.428,2.107,1.37,3.543
		c-0.101,2.419-0.022,4.847-0.028,7.271c-0.006,2.216-0.744,2.945-2.997,2.975c-0.482,0.006-0.966,0.001-1.586,0.001
		c0,0.717,0,1.288,0,1.859c0,31.789,0,63.579,0,95.368c0,3.507-0.362,3.875-3.928,4.009c-0.171,0.007-0.343,0.044-0.658,0.086
		c0,0.503,0,0.983,0,1.464c0,6.106,0.004,12.214-0.002,18.319c-0.002,2.298-0.772,3.06-3.07,3.063
		c-2.649,0.003-5.3,0.007-7.948-0.001c-1.778-0.007-2.544-0.601-2.894-2.342c-1.292-6.409-2.56-12.823-3.84-19.232
		c-0.087-0.433-0.207-0.856-0.317-1.307c-27.857,0-55.64,0-83.518,0c-0.63,3.1-1.26,6.164-1.872,9.231
		c-0.746,3.732-1.469,7.469-2.215,11.202c-0.363,1.823-1.113,2.441-2.945,2.447c-2.739,0.007-5.478,0.011-8.218-0.002
		c-1.921-0.009-2.766-0.857-2.771-2.816c-0.012-6.151-0.004-12.303-0.004-18.455c0-0.487,0-0.977,0-1.668
		c-0.727,0-1.382,0.034-2.032-0.007c-1.676-0.106-2.504-0.986-2.552-2.672c-0.011-0.403-0.002-0.808-0.002-1.212
		c0-31.789,0-63.579,0-95.367c0-0.582,0-1.164,0-1.926c-1.666-0.104-3.506,0.284-4.589-1.437c0-4.129,0-8.257,0-12.396
		C51.542,7.018,97.08,7.018,142.62,7.018z M15.275,117.257c39.838,0,79.594,0,119.419,0c0-32.155,0-64.229,0-96.369
		c-39.84,0-79.593,0-119.419,0C15.275,53.043,15.275,85.116,15.275,117.257z M10.629,16.087c42.979,0,85.829,0,128.666,0
		c0-1.525,0-2.942,0-4.368c-42.934,0-85.783,0-128.666,0C10.629,13.212,10.629,14.598,10.629,16.087z M19.908,122.106
		c0,6.163,0,12.189,0,18.229c1.677,0,3.238,0,4.889,0c1.216-6.07,2.422-12.104,3.646-18.229
		C25.525,122.106,22.757,122.106,19.908,122.106z M121.525,122.114c1.235,6.159,2.443,12.192,3.641,18.169c1.744,0,3.333,0,4.935,0
		c0-6.104,0-12.098,0-18.169C127.262,122.114,124.502,122.114,121.525,122.114z"/>
	<path fill-rule="evenodd" clip-rule="evenodd" fill="#FFFFFF" d="M74.984,71.409c16.527,0,33.052,0,49.578,0.002
		c2.664,0,3.32,0.654,3.322,3.341c0.004,11.586,0.004,23.172-0.002,34.758c0,2.591-0.764,3.338-3.387,3.338
		c-33.008,0.002-66.013,0.002-99.021,0c-2.624,0-3.387-0.747-3.389-3.336c-0.004-11.631-0.006-23.262,0.002-34.894
		c0.002-2.506,0.708-3.207,3.184-3.207C41.845,71.409,58.414,71.409,74.984,71.409z M123.139,108.074c0-10.775,0-21.391,0-31.979
		c-32.18,0-64.258,0-96.307,0c0,10.718,0,21.337,0,31.979C58.978,108.074,91.024,108.074,123.139,108.074z"/>
	<path fill-rule="evenodd" clip-rule="evenodd" fill="#FFFFFF" d="M74.918,66.825c-16.437,0-32.872,0.001-49.309,0
		c-2.86,0-3.522-0.641-3.522-3.439c-0.004-11.541-0.004-23.083,0-34.623c0.002-2.705,0.706-3.391,3.457-3.391
		c32.962-0.001,65.924-0.001,98.886,0c2.747,0,3.453,0.686,3.455,3.392c0.004,11.541,0.002,23.082,0,34.624
		c-0.002,2.756-0.678,3.438-3.391,3.438C107.969,66.826,91.442,66.825,74.918,66.825z M26.815,30.127c0,10.706,0,21.326,0,31.995
		c32.156,0,64.233,0,96.345,0c0-10.707,0-21.325,0-31.995C91,30.127,58.917,30.127,26.815,30.127z"/>
	<path fill-rule="evenodd" clip-rule="evenodd" fill="#FFFFFF" d="M74.932,94.376c-3.81-0.03-6.972-3.233-6.882-6.968
		c0.093-3.816,3.249-6.864,7.057-6.813c3.722,0.052,6.837,3.216,6.815,6.922C81.899,91.308,78.74,94.407,74.932,94.376z
		 M74.978,89.747c1.232,0.005,2.197-0.957,2.216-2.208c0.02-1.241-0.917-2.248-2.133-2.298c-1.256-0.051-2.298,0.991-2.285,2.282
		C72.789,88.776,73.744,89.743,74.978,89.747z"/>
	<path fill-rule="evenodd" clip-rule="evenodd" fill="#FFFFFF" d="M81.92,41.553c-0.046,3.771-3.299,6.969-7.012,6.891
		c-3.786-0.08-6.969-3.35-6.856-7.045c0.112-3.752,3.249-6.834,6.942-6.823C78.744,34.585,81.964,37.83,81.92,41.553z M74.99,43.716
		c1.266-0.002,2.188-0.916,2.201-2.178c0.014-1.271-0.888-2.209-2.144-2.235c-1.326-0.027-2.287,0.922-2.269,2.245
		C72.795,42.807,73.726,43.718,74.99,43.716z"/>
</g>
</svg>
