<?xml version="1.0" encoding="UTF-8"?>
<!DOCTYPE svg PUBLIC "-//W3C//DTD SVG 1.1//EN" "http://www.w3.org/Graphics/SVG/1.1/DTD/svg11.dtd">
<!-- Creator: CorelDRAW 2017 -->
<svg xmlns="http://www.w3.org/2000/svg" xml:space="preserve" width="517px" height="517px" version="1.1" style="shape-rendering:geometricPrecision; text-rendering:geometricPrecision; image-rendering:optimizeQuality; fill-rule:evenodd; clip-rule:evenodd"
viewBox="0 0 151.87 151.87"
 xmlns:xlink="http://www.w3.org/1999/xlink">
 <defs>
  <style type="text/css">
   <![CDATA[
    .fil0 {fill:#FEFEFE}
    .fil2 {fill:white}
    .fil1 {fill:#EF7F1A;fill-opacity:0.501961}
   ]]>
  </style>
 </defs>
 <g id="Layer_x0020_1">
  <metadata id="CorelCorpID_0Corel-Layer"/>
  <path class="fil0" d="M75.94 0c41.92,0 75.93,33.99 75.93,75.94 0,41.92 -34.01,75.93 -75.93,75.93 -41.95,0 -75.94,-34.01 -75.94,-75.93 0,-41.95 33.99,-75.94 75.94,-75.94zm0 2.24c40.69,0 73.69,33 73.69,73.7 0,40.69 -33,73.69 -73.69,73.69 -40.7,0 -73.7,-33 -73.7,-73.69 0,-40.7 33,-73.7 73.7,-73.7z"/>
  <path class="fil1" d="M75.94 9.18c36.85,0 66.74,29.89 66.74,66.77 0,36.85 -29.89,66.74 -66.74,66.74 -36.88,0 -66.75,-29.89 -66.75,-66.74 0,-36.88 29.87,-66.77 66.75,-66.77z"/>
  <g id="_2150585468592">
   <path class="fil2" d="M78.72 99.4c-9.84,-1.88 -8.04,5.96 -12.56,7.88 -0.59,0.26 -1.58,0.58 -2.35,0.5 0.61,1.42 2.77,3.01 5.44,3.66l1.11 0.22c3.23,0.45 6.93,-0.59 9.46,-4.83 0.54,-0.89 1.33,-2.67 1.57,-4 3.84,-1.17 5.34,-1.68 8.77,-3.05 5.03,-2 10.29,-5.4 14.13,-9.34 2.82,-2.86 4.62,-5.11 6.89,-8.38 0.62,-0.91 2.7,-4.02 2.91,-5.11 0.14,-0.73 -0.31,-1.32 -1.1,-1.48 -1.39,-0.26 -12.04,3.66 -15.21,5.38 -0.39,0.22 -0.69,0.38 -1.11,0.58 -3.9,2 -8.39,5.8 -11.3,9.07 -1.25,1.4 -2.26,2.67 -3.43,4.21 -1.48,1.92 -2.25,3.37 -3.22,4.69l0 0 0 0z"/>
   <g>
    <path class="fil2" d="M67.09 44.74c0.4,1.47 0.74,1.13 1.55,2.32 6.71,-3.56 9.66,2.1 9.66,4.24 0,5.12 -7.9,8.98 -11.21,13.91l1.61 1.85c1.72,-1.11 5.03,-4.82 6.79,-6.58 2.89,-2.89 5.5,-4.53 5.5,-9.18 0,-3.25 -2.57,-6.02 -4.69,-7.27 -3.38,-2 -6.28,-0.83 -9.21,0.71l0 0z"/>
    <path class="fil2" d="M77.21 61.02c2.6,3.96 11.11,9.38 11.11,13.06 0,4.34 -2.99,6.56 -5.39,6.56 -2.15,0 -2.59,-0.76 -4.25,-1.15l-1.61 1.86c9.13,6.25 16.95,-3.74 13.05,-10.59 -1.09,-1.92 -9.27,-10.16 -11.05,-11.35l-1.86 1.61 0 0z"/>
    <path class="fil2" d="M52.8 77.17l1.88 -1.62c-1.07,-1.61 -4.18,-4.36 -5.82,-6 -3.66,-3.66 -5.32,-4 -5.32,-8.59 0,-2.2 3.2,-5.03 5.4,-5.03 2.14,0 2.59,0.79 4.26,1.17l1.62 -1.86c-9.29,-6.34 -17.11,3.94 -12.91,10.83 1.05,1.74 9.27,10.01 10.89,11.1l0 0 0 0z"/>
    <path class="fil2" d="M50.88 84.5c0,6.02 5.42,9.7 9.38,9.02 2.58,-0.45 2.88,-1.24 4.52,-1.68 -0.38,-1.46 -0.75,-1.11 -1.55,-2.31 -6.69,3.54 -9.64,-2.12 -9.64,-4.24 0,-5.37 8.6,-10.43 11.19,-14.28l-1.86 -1.62c-2,1.35 -8.04,7.8 -10.02,10.18 -1.11,1.32 -2.02,2.67 -2.02,4.93l0 0 0 0z"/>
    <path class="fil2" d="M56.96 60.88l16.21 16.39 1.73 -1.56c-0.52,-1.73 -2.64,-3.23 -3.85,-4.42 -1.92,-1.94 -10.73,-11.42 -12.45,-11.88l-1.64 1.47 0 0 0 0z"/>
    <path class="fil2" d="M58.21 41.65c0,1.25 14.31,14.95 15.06,15.45l1.61 -1.86c-1.27,-1.87 -10.48,-10.58 -13.47,-13.7 -0.97,-1.03 -0.87,-1.31 -2.43,-1.43 -0.46,0.71 -0.77,0.69 -0.77,1.54l0 0 0 0z"/>
    <path class="fil2" d="M56.98 81.35c1.38,2 5.74,5.94 7.7,7.88 1.37,1.4 2.49,2.49 3.86,3.88 2.08,2.06 2.57,3.21 4.34,3.38 1.48,-2.23 1.1,-1.82 -2.6,-5.52 -1.38,-1.37 -2.49,-2.47 -3.86,-3.86 -1.96,-1.94 -5.88,-6.32 -7.82,-7.62l-1.62 1.86 0 0z"/>
    <polygon class="fil2" points="46.54,65.49 48.5,67.21 64.88,51.02 63.17,49.06 "/>
    <polygon class="fil2" points="67,85.57 68.7,87.53 85.33,71.09 83.37,69.39 "/>
    <path class="fil2" d="M87.55 65.59l1.46 1.64c1.45,-1.01 4.97,-4.15 5.11,-5.88 -2.02,-1.36 -1.74,-1.15 -4.34,1.45 -0.93,0.93 -1.86,1.42 -2.23,2.79l0 0z"/>
    <path class="fil2" d="M37.75 75.25c2.02,1.35 1.73,1.15 4.34,-1.46 0.93,-0.93 1.86,-1.41 2.22,-2.78l-1.45 -1.64c-1.46,1.01 -4.97,4.14 -5.11,5.88l0 0 0 0z"/>
   </g>
  </g>
 </g>
</svg>
