<?xml version="1.0" encoding="UTF-8" standalone="no"?>
<!-- Creator: CorelDRAW 2017 -->

<svg
   xmlns:dc="http://purl.org/dc/elements/1.1/"
   xmlns:cc="http://creativecommons.org/ns#"
   xmlns:rdf="http://www.w3.org/1999/02/22-rdf-syntax-ns#"
   xmlns:svg="http://www.w3.org/2000/svg"
   xmlns="http://www.w3.org/2000/svg"
   xmlns:sodipodi="http://sodipodi.sourceforge.net/DTD/sodipodi-0.dtd"
   xmlns:inkscape="http://www.inkscape.org/namespaces/inkscape"
   xml:space="preserve"
   width="286.492"
   height="30"
   version="1.1"
   style="clip-rule:evenodd;fill-rule:evenodd;image-rendering:optimizeQuality;shape-rendering:geometricPrecision;text-rendering:geometricPrecision"
   viewBox="0 0 358.98224 37.550562"
   id="svg22"
   sodipodi:docname="b (2).svg"
   inkscape:version="0.92.3 (2405546, 2018-03-11)"><metadata
   id="metadata26"><rdf:RDF><cc:Work
       rdf:about=""><dc:format>image/svg+xml</dc:format><dc:type
         rdf:resource="http://purl.org/dc/dcmitype/StillImage" /><dc:title></dc:title></cc:Work></rdf:RDF></metadata><sodipodi:namedview
   pagecolor="#ffffff"
   bordercolor="#666666"
   borderopacity="1"
   objecttolerance="10"
   gridtolerance="10"
   guidetolerance="10"
   inkscape:pageopacity="0"
   inkscape:pageshadow="2"
   inkscape:window-width="640"
   inkscape:window-height="480"
   id="namedview24"
   showgrid="false"
   inkscape:snap-text-baseline="true"
   inkscape:zoom="0.75971731"
   inkscape:cx="325.51094"
   inkscape:cy="44.5"
   inkscape:current-layer="svg22" />
 <defs
   id="defs4">
  <style
   type="text/css"
   id="style2">
   <![CDATA[
    .fil0 {fill:#FEFEFE}
   ]]>
  </style>
 </defs>
 <g
   id="Layer_x0020_1"
   transform="matrix(0.33744625,0,0,0.33744625,0,-0.12011078)"
   style="fill:#ffffff;stroke-width:2.96343493;opacity:1">
  <metadata
   id="CorelCorpID_0Corel-Layer" />
  <path
   class="fil0"
   d="m 532.08,18.22 v 0.29 c 27.18,23.09 12.22,54.93 6.67,64.42 0.65,13.2 51.79,27.09 61.34,-8.22 -0.14,-38.06 -48.15,-15.56 -30.27,-1.13 7.12,5.74 11.75,-4.75 11.75,-4.75 0,0 16.04,2.26 1.13,12.43 -14.91,10.17 -36.83,-14.24 -19.43,-30.05 17.39,-15.82 44.06,-2.49 45.41,17.62 1.36,20.11 -15.14,36.66 -38.75,37.46 -22.15,0.74 -36.35,-14.58 -38.02,-16.48 -1.67,1.9 -15.87,17.22 -38.02,16.48 -23.61,-0.8 -40.11,-17.35 -38.75,-37.46 1.35,-20.11 28.01,-33.44 45.41,-17.62 17.4,15.81 -4.52,40.22 -19.43,30.05 -14.91,-10.17 1.13,-12.43 1.13,-12.43 0,0 4.63,10.49 11.75,4.75 17.87,-14.43 -30.13,-36.93 -30.28,1.13 9.56,35.31 60.7,21.42 61.35,8.22 -5.55,-9.49 -20.51,-41.33 6.67,-64.42 v -0.29 l 0.17,0.15 z m -0.11,10.26 v 0.2 c 15.73,28.54 1.41,48.85 0,50.73 v 0.15 l -0.06,-0.08 -0.06,0.08 v -0.15 c -1.41,-1.88 -15.73,-22.19 0,-50.73 v -0.2 l 0.06,0.1 z"
   id="path7"
   inkscape:connector-curvature="0"
   style="fill:#ffffff;stroke-width:8.78194618" />
  <g
   id="_2849207031728"
   style="fill:#ffffff;stroke-width:2.96343493">
   <path
   class="fil0"
   d="m 511.51,52.72 -0.27,-0.52 c 15.37,-92.84 -84.56,-41.87 -0.38,0.2 l 0.26,0.52 0.06,-0.36 z m -5.92,-11.09 -0.16,-0.34 c 9.47,-60.58 -52.13,-27.32 -0.24,0.12 l 0.17,0.34 0.03,-0.23 z"
   id="path9"
   inkscape:connector-curvature="0"
   style="fill:#ffffff;stroke-width:2.96343493" />
   <path
   class="fil0"
   d="m 552.31,52.72 0.27,-0.52 c -15.37,-92.84 84.56,-41.87 0.38,0.2 l -0.26,0.52 -0.06,-0.36 z m 5.92,-11.09 0.16,-0.34 c -9.47,-60.58 52.13,-27.32 0.24,0.12 l -0.17,0.34 -0.03,-0.23 z"
   id="path11"
   inkscape:connector-curvature="0"
   style="fill:#ffffff;stroke-width:2.96343493" />
  </g>
  <rect
   class="fil0"
   y="106.18"
   width="1063.8199"
   height="5.2199998"
   id="rect14"
   x="0"
   style="fill:#ffffff;stroke-width:8.78194618" />
  <g
   id="_2849207032176"
   style="fill:#ffffff;stroke-width:2.96343493">
   <circle
   class="fil0"
   cx="613.40002"
   cy="97.330002"
   r="8.8500004"
   id="circle16"
   style="fill:#ffffff;stroke-width:2.96343493" />
   <circle
   class="fil0"
   cx="450.42001"
   cy="97.330002"
   r="8.8500004"
   id="circle18"
   style="fill:#ffffff;stroke-width:2.96343493" />
  </g>
 </g>
</svg>