<?xml version="1.0" encoding="UTF-8"?>
<!DOCTYPE svg PUBLIC "-//W3C//DTD SVG 1.1//EN" "http://www.w3.org/Graphics/SVG/1.1/DTD/svg11.dtd">
<!-- Creator: CorelDRAW 2017 -->
<svg xmlns="http://www.w3.org/2000/svg" xml:space="preserve" width="517px" height="517px" version="1.1" style="shape-rendering:geometricPrecision; text-rendering:geometricPrecision; image-rendering:optimizeQuality; fill-rule:evenodd; clip-rule:evenodd"
viewBox="0 0 131.11 131.11"
 xmlns:xlink="http://www.w3.org/1999/xlink">
 <defs>
  <style type="text/css">
   <![CDATA[
    .fil0 {fill:#FEFEFE}
    .fil2 {fill:white}
    .fil1 {fill:#EF7F1A;fill-opacity:0.501961}
   ]]>
  </style>
 </defs>
 <g id="Layer_x0020_1">
  <metadata id="CorelCorpID_0Corel-Layer"/>
  <path class="fil0" d="M65.55 0c36.21,0 65.56,29.35 65.56,65.55 0,36.21 -29.35,65.56 -65.56,65.56 -36.2,0 -65.55,-29.35 -65.55,-65.56 0,-36.2 29.35,-65.55 65.55,-65.55zm0 1.93c35.14,0 63.63,28.48 63.63,63.62 0,35.14 -28.49,63.63 -63.63,63.63 -35.14,0 -63.62,-28.49 -63.62,-63.63 0,-35.14 28.48,-63.62 63.62,-63.62z"/>
  <path class="fil1" d="M65.56 7.93c31.82,0 57.62,25.8 57.62,57.64 0,31.82 -25.8,57.61 -57.62,57.61 -31.84,0 -57.62,-25.79 -57.62,-57.61 0,-31.84 25.78,-57.64 57.62,-57.64z"/>
  <g id="_2150380465936">
   <path class="fil2" d="M88.22 71.81c-0.23,1.02 -0.33,2.41 -0.49,3.44 -0.84,5.76 -1.51,12 -2.32,17.85 -0.14,1.05 -0.25,2.7 -0.57,3.47 -0.35,0.84 -1.19,1.69 -2.34,1.69l-5.09 0c-0.32,0 -0.91,-0.27 -1.15,-0.41 -1.55,-0.92 -1.5,-4.06 -1.81,-6.41 -0.71,-5.38 0.03,-1.48 1.89,-6.49l1.32 -4.42c0.6,-2.07 2.35,-7.42 2.35,-9.23 0,-1.25 -0.34,-2.53 -0.74,-3.44 -1.38,-3.16 -4.5,-4.64 -8.37,-4.64 -0.01,-0.43 -0.43,-3.57 -0.52,-3.78 -0.22,-0.21 -0.94,0.45 -1.56,0.79 -6.56,3.51 -2.44,2.99 -10.43,2.99 -1.79,0 -3.56,0 -5.34,0 0.26,-1.07 1.26,-1.52 2.05,-2.12l14.96 -10.57c1.52,-1.05 5.59,-1.38 6.26,-0.67l1.55 1.96c0.41,0.51 1.74,2.27 2.14,2.53 0.9,-0.59 3.61,-4.81 4.3,-4.81 3.45,0 6.3,-0.37 8.49,3.1 1.02,1.62 0.99,3.37 0.78,5.26l-0.15 4.15c0.01,1.12 -0.24,5.04 -0.53,5.85 -0.56,1.51 -1.7,2.59 -3.11,3.26l-1.57 0.65 0 0 0 0 0 0z"/>
   <path class="fil2" d="M49.54 67.77l21.88 0c2.41,0 4.04,1.58 4.04,3.39 0,0.77 -0.47,2.06 -0.65,2.74 -0.25,0.9 -0.53,1.8 -0.8,2.72 -0.44,1.51 -1.76,6.68 -2.49,7.81 -1.95,3.01 -4.22,2.31 -6.02,2.57 -0.67,0.1 -0.97,-0.07 -1.64,-0.07 -0.66,0 -0.85,0.11 -1.3,0.12 -0.52,0.01 -0.63,-0.12 -1.3,-0.12 -0.66,0 -0.85,0.11 -1.31,0.12 -0.51,0.01 -0.62,-0.12 -1.29,-0.12 -0.67,0 -0.85,0.11 -1.31,0.12 -0.53,0.01 -0.62,-0.12 -1.31,-0.12 -2.67,0 -4.36,0.51 -6.66,-1.42 -0.28,-0.22 -0.7,-0.84 -0.91,-1.17 -0.28,-0.41 -0.48,-0.96 -0.63,-1.46 -0.33,-1.1 -0.62,-2.17 -0.96,-3.33l-3.28 -11.44c-0.17,-0.58 -0.39,-1.2 -0.45,-1.77 -1.6,0 -3.32,0.33 -4.5,-0.44l-0.57 -0.47c-1.44,-1.64 -0.51,-4.56 2.34,-4.56 2.92,0 6.54,-0.55 7.63,2.27l1.49 4.63 0 0 0 0 0 0z"/>
   <path class="fil2" d="M80.01 47.58c-3.08,0 -5.47,-1.78 -6.68,-4.24 -0.87,-1.77 -0.92,-4.08 -0.14,-5.95 0.35,-0.8 0.89,-1.63 1.45,-2.21 3.76,-3.92 10.1,-2.69 12.18,2.21 0.28,0.65 0.65,2.15 0.59,3 -0.09,1.16 -0.28,1.98 -0.71,2.94 -0.72,1.62 -2.1,2.91 -3.68,3.6 -0.87,0.39 -1.78,0.65 -3.01,0.65l0 0 0 0z"/>
   <path class="fil2" d="M69.33 94.61c0,4.84 -7.29,4.82 -7.29,0 0,-1.67 1.49,-3.52 3.52,-3.52 2.36,0 3.77,1.85 3.77,3.52z"/>
   <path class="fil2" d="M58 94.61c0,4.89 -7.16,4.73 -7.16,0.26l0 -0.65c0,-1.55 1.68,-3.13 3.26,-3.13 2.3,0 3.9,1.37 3.9,3.52z"/>
  </g>
 </g>
</svg>
