<?xml version="1.0" encoding="UTF-8"?>
<!DOCTYPE svg PUBLIC "-//W3C//DTD SVG 1.1//EN" "http://www.w3.org/Graphics/SVG/1.1/DTD/svg11.dtd">
<!-- Creator: CorelDRAW 2017 -->
<svg xmlns="http://www.w3.org/2000/svg" xml:space="preserve" width="250px" height="135px" version="1.1" style="shape-rendering:geometricPrecision; text-rendering:geometricPrecision; image-rendering:optimizeQuality; fill-rule:evenodd; clip-rule:evenodd"
viewBox="0 0 26.85 14.5"
 xmlns:xlink="http://www.w3.org/1999/xlink">
 <defs>
  <style type="text/css">
   <![CDATA[
    .str0 {stroke:#486225;stroke-width:0.1}
    .fil6 {fill:none}
    .fil5 {fill:#FEFEFE}
    .fil1 {fill:#84B834}
    .fil0 {fill:#486225}
    .fil3 {fill:#B89479}
    .fil2 {fill:#FEFEFE}
    .fil4 {fill:white}
   ]]>
  </style>
 </defs>
 <g id="Layer_x0020_1">
  <metadata id="CorelCorpID_0Corel-Layer"/>
  <g id="_2180644780720">
   <g>
    <path class="fil0" d="M19.82 12.02c-0.08,0.17 -0.82,0.57 -1.37,0.47 -0.18,-0.03 -0.31,-0.14 -0.21,-0.32 0.47,-0.81 1.75,-0.49 1.58,-0.15zm1.44 -3.18c0.57,0.49 0.98,1 1.71,0.68 0.16,-0.07 0.45,-0.28 0.49,-0.34l0 0.81 -2.21 0 0.01 -1.15zm1.57 -1.55c0.45,-0.08 0.96,0.42 0.54,1.07 -0.68,1.05 -1.74,0.71 -1.92,0.39 -0.28,-0.48 0.86,-1.37 1.38,-1.46zm-6.87 4.61c0.06,-0.02 0.03,0.01 0.07,-0.03 0.14,-0.96 1.19,-1.07 1.48,-0.73 0.35,0.4 -0.32,1.12 -1.16,1.27 0.09,0.1 0.35,0.39 0.48,0.45 0.11,0.01 0.81,-0.43 0.91,-1.02 0.19,-0.99 -0.6,-1.09 -0.64,-1.21l0 -0.33 1.27 0c0.01,0.18 0.01,0.37 0.01,0.55 -0.01,0.29 -0.15,0.07 -0.1,0.4 0.31,-0.1 0.49,-0.22 0.88,-0.25 0.43,-0.04 0.69,0.01 0.68,0.45 -0.19,-0.08 -0.24,-0.14 -0.52,-0.16 -0.59,-0.03 -1.23,0.34 -1.29,0.78 -0.06,0.39 0.32,0.65 0.65,0.72 0.39,0.08 0.85,-0.02 1.11,-0.22 0.09,0.08 0,0.08 0.22,0.17 0.09,0.04 0.16,0.07 0.24,0.09 0.02,-0.42 0.04,-1.49 -0.08,-1.83 -0.22,-0.59 -1.18,-0.3 -1.45,-0.29l0 -0.41 2.01 0 0.01 2.37 0.48 0.24c0.04,-0.82 -0.13,-1.41 0.37,-1.9 0.14,-0.12 0.51,-0.42 0.77,-0.18 0.24,0.23 -0.2,0.51 -0.45,0.54 0.13,0.17 0.26,0.29 0.37,0.45 0.28,-0.09 0.83,-0.61 0.29,-1.01 -0.45,-0.34 -0.88,-0.15 -1.31,0.06l0 -0.57 2.2 0.01c0.01,0.39 0,0.78 0,1.17 0,0.38 -0.06,0.8 0.14,1.07 0.4,0.53 1.25,0.2 1.43,-0.41 -0.14,-0.05 -0.39,-0.25 -0.52,-0.26 0,0.27 -0.03,0.6 -0.22,0.72 -0.34,0.21 -0.36,-0.21 -0.36,-0.45 0,-0.61 -0.01,-1.23 0,-1.85l1.31 -0.02 0 -0.29 -1.31 -0.01c0,-0.7 0.1,-0.45 -0.42,-0.85 0.09,-0.16 0.2,-0.24 0.28,-0.49 0.22,-0.64 -0.17,-1.22 -0.61,-1.57 -0.63,-0.51 -1.1,-0.1 -1.55,0.3 -0.11,0.1 -0.26,0.31 -0.39,0.38l0 -0.79 -0.51 0 0 3.03 -6.77 0 0 0.31 2.68 0c0,0.42 0.02,0.33 -0.14,0.38l-0.46 0.18c-0.13,0.06 -0.17,-0.01 -0.28,-0.07 -0.55,-0.34 -1.17,-0.19 -1.52,0.21 -0.71,0.82 0.5,1.74 1.1,1.87 -0.17,-0.3 -0.81,-0.58 -0.78,-1.19 0.04,-0.61 0.83,-0.89 1.14,-0.64 0,0.15 -0.21,0.34 -0.22,0.66l0.48 0.2z"/>
    <path class="fil0" d="M13.46 3.8c0.66,0.62 1.03,1.17 1.04,2.23l-0.36 0 0 0.39 0.36 0.01 0 2.87c0.06,0.07 0.51,0.32 0.61,0.35 0.02,-0.5 -0.1,-1.32 0.12,-1.7 0.17,-0.3 0.62,-0.71 1.06,-0.77 0.61,-0.09 0.79,0.5 0.69,1.07 -0.05,0.27 -0.16,0.46 -0.3,0.62l-0.42 0.5 0.55 0.31c0.11,-0.1 0.31,-0.3 0.4,-0.42 0.77,-1.02 0.04,-2.37 -0.98,-2.4 -0.36,-0.01 -0.65,0.12 -0.88,0.35 -0.03,0.03 -0.06,0.06 -0.09,0.1 -0.02,0.02 -0.03,0.03 -0.06,0.05 -0.05,0.04 0.01,0 -0.07,0.04l0 -0.98 4.22 0 0 -0.39 -4.22 -0.01c-0.01,-0.48 -0.14,-0.98 -0.32,-1.37 -0.46,-0.98 -0.73,-0.86 -1.35,-0.85z"/>
    <path class="fil1" d="M18.52 5.58c0.13,0.02 0.15,0.04 0.2,0.12l0.04 -0.1c-0.24,-0.94 -0.51,-1.7 -1.56,-2.12 -0.73,-0.29 -1.21,-0.48 -1.6,-1.14 -0.15,-0.24 -0.17,-0.42 -0.24,-0.7 -0.2,1.13 -0.12,2.22 0.5,2.93 0.39,0.45 1.22,0.76 1.86,0.87 0.24,0.05 0.61,0.06 0.8,0.14z"/>
    <path class="fil0" d="M18.54 3.68c0.09,0.16 0.25,0.3 0.38,0.46 0.47,0.63 0.53,1.22 0.53,1.98 0,1.1 0,2.2 -0.01,3.31l0.57 0.28c0.02,-1.26 0,-2.71 0,-3.98 0,-0.43 -0.07,-0.83 -0.22,-1.19 -0.2,-0.5 -0.38,-0.6 -0.55,-0.86l-0.7 0z"/>
    <path class="fil2" d="M22.83 7.29c-0.52,0.09 -1.66,0.98 -1.38,1.46 0.18,0.32 1.24,0.66 1.92,-0.39 0.42,-0.65 -0.09,-1.15 -0.54,-1.07z"/>
    <polygon class="fil0" points="20.12,6.42 24.11,6.42 24.11,6.03 20.13,6.03 "/>
    <path class="fil0" d="M18.14 9.41l0.49 0.28c0.03,-0.05 0.02,0.03 0.03,-0.09l0 -2.75 -0.52 0 0 2.56z"/>
    <path class="fil2" d="M21.25 9.99l2.21 0 0 -0.81c-0.04,0.06 -0.33,0.27 -0.49,0.34 -0.73,0.32 -1.14,-0.19 -1.71,-0.68l-0.01 1.15z"/>
    <path class="fil2" d="M19.82 12.02c0.17,-0.34 -1.11,-0.66 -1.58,0.15 -0.1,0.18 0.03,0.29 0.21,0.32 0.55,0.1 1.29,-0.3 1.37,-0.47z"/>
    <path class="fil3" d="M15.96 11.9c0.03,0.02 0.01,0.02 0.05,0 0.03,-0.01 0.01,0.01 0.02,-0.03 -0.04,0.04 -0.01,0.01 -0.07,0.03z"/>
   </g>
   <g>
    <path class="fil0" d="M11.86 9.95c-0.04,-0.03 -0.21,-0.14 -0.12,-0.22 0.1,-0.09 0.12,0.16 0.12,0.22zm-0.19 -0.24c-0.02,0.03 -0.03,0.07 -0.09,0.08 -0.05,0.01 -0.09,-0.02 -0.1,-0.07 -0.02,-0.14 0.14,-0.03 0.19,-0.01zm0.11 -0.06c0.01,-0.03 0.01,-0.06 0.02,-0.1 0.02,-0.07 0.01,-0.06 0.08,-0.07 0.07,0.1 0,0.17 -0.1,0.17zm-0.08 -0.13c0.05,0.08 0.04,0.05 0.02,0.14 -0.15,-0.02 -0.18,-0.13 -0.02,-0.14zm1.12 -0.03c0.14,-0.03 0.16,0.1 0.19,0.22 -0.1,-0.03 -0.22,-0.09 -0.19,-0.22zm-0.27 0.11l0 -0.07c0.03,-0.02 -0.02,-0.02 0.08,-0.04 0.03,0 0.08,0.01 0.11,0.02 -0.04,0.09 -0.08,0.12 -0.19,0.09zm-0.44 -0.18c0.11,0.01 0.05,0 0.08,0.04 -0.09,0.05 -0.08,-0.03 -0.08,-0.04zm0.53 -0.05c0.04,-0.06 0.02,-0.06 0.11,-0.06 0.02,0.04 0.06,0.09 0,0.11 -0.07,0.04 -0.1,-0.04 -0.11,-0.05zm0.2 0.06l0.02 -0.18c0.17,-0.03 0.18,0.13 -0.02,0.18zm-1.5 -0.15c0.05,-0.07 0.17,-0.12 0.25,-0.15 -0.01,0.1 -0.01,0.07 -0.1,0.12 -0.09,0.05 -0.08,0.08 -0.15,0.03zm1.27 0.02c-0.43,-0.13 -0.48,0.08 -0.76,0.01 -0.29,-0.07 -0.23,-0.49 0.06,-0.4 0.05,0.11 0.06,0.13 -0.02,0.2 -0.12,-0.01 -0.05,-0.02 -0.14,-0.06 -0.03,0.45 0.67,0 0.86,0.25zm-0.64 -0.11c0.09,-0.08 0.05,-0.12 0.11,-0.17 0.08,-0.08 0.05,0.04 0.1,-0.12l0.02 -0.04c0,0 0,-0.01 0.01,-0.02 0.06,0.19 -0.01,0.36 -0.24,0.35zm-0.72 -0.27c0.13,-0.04 0.14,0.04 0.14,0.18 -0.06,-0.04 -0.15,-0.09 -0.14,-0.18zm1.01 -0.08c0.12,0.08 0.21,0.12 0.24,0.29 -0.19,-0.05 -0.17,-0.13 -0.24,-0.29zm-0.13 0.01c-0.06,0.04 -0.27,0.11 -0.24,-0.02 0.01,-0.06 0.06,-0.06 0.12,-0.04l0.12 0.06zm0.68 0.01c0,0 -0.06,0.02 -0.01,-0.07 0.03,-0.05 0,-0.01 0.06,-0.03 -0.02,0.06 -0.01,0.09 -0.05,0.1zm-1.84 -0.05c-0.03,-0.04 -0.06,0.06 -0.03,-0.09 0.01,-0.05 0.03,-0.05 0.06,-0.07l-0.03 0.16zm1.2 -0.16c0.02,0.02 0.06,-0.04 0.02,0.1 -0.05,0.01 -0.05,0.02 -0.1,-0.02 -0.05,-0.05 -0.03,0.01 -0.03,-0.09 0.06,-0.02 -0.01,-0.01 0.05,-0.01 0.12,-0.01 0.03,-0.01 0.06,0.02zm-1.12 0.03c0.02,0.03 0.02,0.02 0,0.05 -0.03,-0.03 -0.08,-0.02 0,-0.05zm1.24 0.13c0.05,-0.04 0.05,-0.02 0.1,-0.05 0.06,-0.04 -0.02,-0.03 0.23,-0.18 0.01,0.26 -0.14,0.29 -0.33,0.23zm-0.34 -0.16l0.01 -0.09c0.08,0.09 0.04,0.07 0,0.11 -0.05,0.05 -0.03,0.03 -0.11,0.03 0.01,-0.12 0.04,-0.09 0.1,-0.05zm-0.8 0.05l0.04 -0.17c0.02,0.01 0.06,-0.05 0.03,0.09 -0.01,0.08 -0.03,0.06 -0.07,0.08zm0.1 -0.12c0.02,-0.02 -0.06,-0.07 0.05,0l-0.04 0.01c0,0 0,-0.01 -0.01,-0.01zm1.01 0.17c-0.01,-0.04 0,-0.07 -0.02,-0.13 -0.01,-0.06 -0.04,-0.14 0.05,-0.13 0.08,0 0.12,0.13 -0.03,0.26zm0.75 -0.13c-0.08,-0.04 -0.13,-0.12 0,-0.13 0.02,0 0.09,0 0.11,0.01 -0.02,0.07 -0.04,0.09 -0.11,0.12zm-1.35 0.33c-0.09,-0.11 -0.12,-0.41 0.23,-0.44 -0.02,0.01 0,0 -0.05,0.02 -0.28,0.14 -0.01,0.21 -0.18,0.42zm-0.29 -0.39l0.03 -0.17c0.02,0.02 0.06,-0.06 0.04,0.1 -0.01,0.06 -0.07,0.07 -0.07,0.07zm0.74 -0.14c0.09,0.03 0.07,0.05 0.03,0.12l-0.05 -0.06c0,-0.06 -0.01,-0.03 0.02,-0.06zm-0.64 0.02c0,-0.09 0.04,-0.04 0.04,-0.01 -0.01,0.06 -0.04,0.02 -0.04,0.01zm1.56 -0.13c0.09,0.01 0.12,0.04 0.1,0.11 -0.07,0.03 -0.06,0.02 -0.12,0l0.02 -0.11zm-0.48 0.23c-0.22,0.04 -0.21,-0.18 -0.11,-0.24 0.15,-0.08 0.29,0.04 0.32,0.15 0.05,0.15 -0.02,0.29 -0.07,0.42 -0.09,0.23 -0.03,0.18 -0.03,0.39 -0.11,-0.16 -0.05,-0.28 0.01,-0.46 0.05,-0.18 0.08,-0.43 -0.15,-0.42 0.02,0.06 0.04,0.07 0.03,0.16zm-0.96 -0.13c0,-0.08 0,-0.13 0.04,-0.19 0.05,0.07 0.01,0.15 -0.04,0.19zm0.11 -0.17c0.04,0.06 0.01,0.03 0,0.05 0,0 -0.01,-0.01 -0.01,-0.01 0,0 -0.01,-0.01 -0.01,-0.01l0.02 -0.03zm0.26 0.18c0.08,-0.26 0.24,-0.22 0.5,-0.19 -0.04,0.1 -0.16,0.1 -0.26,0.07 -0.19,-0.04 -0.14,0.07 -0.24,0.12zm-0.15 -0.39c0.06,0.06 0.03,0.16 0,0.21l-0.01 -0.03c-0.02,-0.08 0,-0.1 0.01,-0.18zm-0.97 0.62c0.02,-0.07 0,-0.04 0.09,-0.08 0.04,-0.02 0.06,-0.03 0.1,-0.06 0.26,-0.14 0.27,-0.17 0.48,-0.33 0.07,-0.05 0.14,-0.07 0.11,0 -0.01,0.03 -0.03,0.04 -0.04,0.05l-0.3 0.22c-0.07,0.04 -0.34,0.24 -0.44,0.2zm0.08 -0.38c0.06,0.04 0.11,0.03 0.15,0 0.06,-0.06 0.05,-0.12 0.05,-0.2 0.05,0.08 0.07,0.07 0.13,0.12 -0.07,0.34 -0.51,0.2 -0.39,0 0.04,-0.08 0.09,-0.07 0.16,-0.02 -0.05,0.03 -0.01,-0.02 -0.07,0.02 -0.04,0.03 -0.03,0.03 -0.03,0.08zm0.97 -0.21c0.04,0.03 0.04,-0.03 0.03,0.06 -0.13,0.03 -0.04,0 -0.06,-0.02l0.03 -0.04zm0.75 0.15c0.07,-0.1 0.11,-0.2 0.19,-0.22 0.01,0.08 -0.02,0.1 -0.06,0.15 -0.04,0.05 -0.05,0.09 -0.13,0.07zm-0.63 -0.15l-0.03 -0.02 0 -0.16c0.05,0.03 0.04,-0.07 0.05,0.06 0,0.04 -0.01,0.08 -0.02,0.12zm0.62 -0.03c-0.05,-0.01 -0.26,-0.05 -0.19,-0.14 0.1,-0.1 0.16,0.08 0.19,0.14zm-2.13 -0.21c0.04,0.07 0.03,0.07 -0.02,0.12 -0.04,0.01 -0.1,0.01 -0.1,-0.06 0,-0.08 0.05,-0.08 0.12,-0.06zm0.17 0.11l-0.09 0 -0.01 -0.12c0.21,-0.03 0.1,0.12 0.1,0.12zm-0.43 -0.08c-0.04,0.08 -0.08,0.08 -0.15,0.06 0.02,-0.03 0,-0.04 0.07,-0.07 0.08,-0.02 0.07,0.01 0.08,0.01zm0 0.08c0.12,0.02 0.16,0.19 0.39,0.12 0.22,-0.06 0.18,-0.26 0.21,-0.35 0.03,0.03 0.02,-0.01 0.03,0.04 0.09,0.38 -0.53,0.51 -0.63,0.19zm1.92 -0.06l-0.01 -0.15c0.01,-0.05 0.01,-0.02 0.03,-0.05 0.04,0.07 0.03,0.14 -0.02,0.2zm-1.66 -0.13c0.05,-0.06 0.04,-0.06 0.08,0 -0.05,0.04 0.06,0.03 -0.03,0.02 -0.05,0 -0.02,0 -0.05,-0.02zm-0.17 0.02c-0.04,-0.13 0.04,-0.15 0.12,-0.1 0.02,0.1 -0.01,0.13 -0.12,0.1zm1.91 -0.08c0.06,0.08 0.01,0.03 0,0.05 -0.03,-0.04 -0.06,0.09 -0.01,-0.04 0,0 0.01,-0.01 0.01,-0.01zm-1.62 -0.04c0.21,-0.09 0.15,0.18 0.03,0.1 -0.04,-0.02 -0.03,-0.05 -0.03,-0.1zm-0.61 -0.1c0.12,0.01 0.08,0.06 0.08,0.18 -0.07,-0.03 -0.11,-0.07 -0.08,-0.18zm1.46 0.56c-0.28,0.18 -0.61,-0.41 -0.38,-0.57 0.05,0.09 -0.08,0.23 0.11,0.35 0.14,0.1 0.17,0.07 0.27,0.22zm-1.02 -0.54c0.1,-0.06 0.16,-0.04 0.12,0.09l-0.09 0 -0.03 -0.09zm2.31 -0.13c-0.01,0.17 0.1,0.21 0.03,0.3 -0.08,-0.09 -0.14,-0.2 -0.03,-0.3zm-0.4 0.06c0.03,-0.02 0.02,-0.02 0.06,0l-0.06 0zm-0.04 -0.04c0.05,0.08 0.05,0.12 0.02,0.2 -0.02,-0.02 -0.01,0.02 -0.03,-0.05 -0.03,-0.11 -0.01,-0.11 0.01,-0.15zm-1.17 0.04c0.13,-0.12 0.29,-0.02 0.4,0.08 0.13,0.13 0.18,0.18 0.11,0.38 -0.07,-0.04 -0.02,-0.01 -0.07,-0.06 -0.14,-0.15 -0.08,-0.27 -0.23,-0.35 -0.08,-0.04 -0.14,-0.01 -0.21,-0.05zm-0.18 -0.12c0.1,-0.04 0.13,-0.01 0.11,0.08 -0.01,0.01 -0.02,0.06 -0.09,0.01 -0.03,-0.02 -0.03,-0.05 -0.02,-0.09zm1.47 -0.12c0.05,0.04 0.1,0.1 0.03,0.17 -0.03,-0.07 -0.04,-0.1 -0.03,-0.17zm-0.65 0.28c-0.07,-0.05 -0.04,-0.02 -0.04,-0.11 0.31,-0.22 0.37,0.29 0.02,0.34l-0.1 -0.16c0.33,0.06 0.26,-0.22 0.16,-0.16 -0.08,0.04 -0.01,0.05 -0.04,0.09zm-1.62 0.27c-0.08,-0.17 0.07,-0.36 0.21,-0.45 0.11,-0.08 0.52,-0.12 0.53,0.04 -0.27,-0.09 -0.47,-0.13 -0.66,0.16 -0.08,0.13 -0.01,0.15 -0.08,0.25zm2.33 -0.53c0,-0.08 0.05,-0.03 0.04,-0.01 -0.01,0.05 -0.03,0.05 -0.04,0.01zm-1.1 -0.11c-0.04,0.02 0.05,0.03 -0.06,0.02 -0.07,-0.01 -0.03,0 -0.05,-0.02 -0.02,-0.02 -0.02,-0.07 0.01,-0.09 0.05,-0.06 0.14,-0.02 0.1,0.09zm-0.66 -0.03c0.1,-0.09 0.12,-0.02 0.14,0.1 -0.11,-0.01 -0.12,-0.01 -0.14,-0.1zm1.07 0.9c0,0.01 -0.01,0 -0.01,0.01 0,0.01 -0.01,0.01 -0.02,0.01l-0.07 0.06c-0.03,0.01 -0.09,-0.01 0.03,-0.12 0.33,-0.31 0.44,-0.51 0.66,-0.86 0.06,-0.1 0,-0.05 0.07,-0.06 0.03,0.06 -0.06,0.18 -0.1,0.26 -0.11,0.17 -0.31,0.44 -0.45,0.58 -0.05,0.05 -0.08,0.07 -0.11,0.12zm-0.32 -0.99c0,0 -0.01,-0.04 0.1,0 0.02,0.05 0.02,0.06 -0.01,0.11 -0.11,0.01 -0.14,-0.04 -0.09,-0.11zm-0.05 -0.02c-0.06,-0.03 -0.06,-0.01 -0.03,-0.07 0.05,0.02 0.06,-0.04 0.03,0.07zm-0.1 -0.03c-0.32,0.05 0.03,-0.3 0,0zm0.17 -0.14c0.07,-0.02 0.06,-0.02 0.13,0.01l-0.01 0.11c-0.13,0.03 -0.15,-0.02 -0.12,-0.12zm-0.99 0.08c0.06,-0.04 0.02,-0.04 0.07,0 -0.07,0.06 -0.05,0.02 -0.07,0zm0.11 0.02c-0.03,-0.07 -0.04,-0.11 0.01,-0.17 0.04,0.05 0.04,0.1 -0.01,0.17zm1.31 -0.11c0.14,0.02 0.24,0.27 0.22,0.46 -0.05,-0.05 -0.11,-0.09 -0.14,-0.2 -0.03,-0.09 -0.06,-0.18 -0.08,-0.26zm-0.49 0.04c-0.06,0.06 -0.16,-0.04 -0.09,-0.11 0.07,-0.07 0.17,0.05 0.09,0.11zm0.59 -0.06c0.17,0.01 0.24,0.03 0.29,0.15l-0.14 0.01c-0.06,-0.07 -0.11,-0.1 -0.15,-0.16zm-0.68 0.5l-0.04 -0.02 0.04 -0.04c0.23,0 0.28,0.02 0.36,-0.16 0.1,-0.21 -0.04,-0.26 -0.07,-0.4 0.07,0.03 0.1,0.08 0.13,0.17 0.05,0.16 -0.01,0.33 -0.15,0.42 -0.07,0.04 -0.18,0.04 -0.27,0.03zm-0.63 -0.59c0.03,0.03 0.05,-0.08 0.01,0.04 0,0 -0.01,0.01 -0.01,0.02 -0.01,-0.02 -0.07,0.03 0,-0.06zm1.04 -0.05c0.12,0 0.14,-0.02 0.16,0.1 -0.13,0.03 -0.11,-0.02 -0.16,-0.1zm-0.77 0.61c-0.12,-0.14 -0.04,-0.4 0.06,-0.53 0.06,-0.08 0.31,-0.25 0.48,-0.15 -0.04,0.1 -0.2,-0.07 -0.43,0.18 -0.21,0.22 -0.05,0.39 -0.11,0.5zm0.57 -0.59c0,-0.06 0,-0.05 0.02,-0.11l0.07 -0.09c0.04,0.09 -0.02,0.18 -0.09,0.2zm-0.28 -0.25c0.06,-0.04 0.08,-0.06 0.16,0.07 -0.2,0.01 -0.14,-0.04 -0.16,-0.07zm0.48 -0.13c0.04,0.01 0.05,0.01 0.08,0.03 0.05,0.05 0.02,0.02 0.04,0.08 -0.11,0.05 -0.15,0 -0.12,-0.11zm-0.17 -0.06l0.12 -0.02 0.01 0.11c-0.07,0.03 -0.16,0.04 -0.13,-0.09zm-1.35 0.97l0 0c0.08,0 0.07,-0.01 0.14,-0.05l-0.01 -0.06 -0.06 -0.03c0.03,-0.06 -0.02,-0.02 0.06,-0.05l0.04 0.02c0,-0.1 -0.01,-0.1 0.03,-0.15 0.03,0.03 0.02,-0.01 0.03,0.04l-0.03 0.16 0.01 0.02c0.09,-0.04 0.09,-0.11 0.19,-0.1 0.01,0.08 -0.11,0.14 -0.18,0.18 -0.27,0.17 -0.53,0.28 -0.85,0.32l0.67 0.63c0.13,0.11 0.54,0.53 0.62,0.7 0.26,-0.08 0.68,-0.41 0.86,-0.54 0.01,0.01 0.03,0.02 0.04,0.03 -0.04,0.12 -0.66,0.51 -0.83,0.56 0.05,0.13 0.17,0.28 0.24,0.44 0.28,0.58 0.3,1.15 0.05,1.73 -0.15,0.36 -0.35,0.6 -0.56,0.82 -0.1,0.11 -0.24,0.24 -0.37,0.33 -0.04,0.04 -0.38,0.27 -0.39,0.29 1.4,0.1 2.47,-0.92 2.94,-1.7 0.64,-1.07 0.62,-2.32 -0.05,-3.38 -0.01,-0.03 -0.03,-0.05 -0.05,-0.09l-0.07 -0.08c-0.05,0.05 -0.15,0.22 -0.19,0.29 -0.04,0.06 -0.06,0.1 -0.09,0.15 -0.08,0.1 -0.46,0.59 -0.56,0.59 -0.16,0 0.1,-0.14 0.13,-0.24 0.06,-0.03 0.14,-0.13 0.19,-0.19 0.16,-0.18 0.36,-0.47 0.46,-0.69 -0.19,-0.32 -0.52,-0.56 -0.59,-0.68 -0.08,0.03 -0.26,0.15 -0.36,0.07 0.08,-0.06 0.2,-0.01 0.3,-0.11l-0.47 -0.41c-0.07,-0.06 0,-0.04 -0.08,-0.04 -0.1,0.41 0.16,0.45 0.1,0.51 -0.01,0.01 0.03,0.05 -0.05,-0.01 -0.09,-0.08 -0.14,-0.28 -0.11,-0.43 0.02,-0.12 0.06,-0.1 -0.01,-0.16 -0.04,0.04 -0.08,0.3 -0.26,0.61 -0.07,0.11 -0.31,0.44 -0.42,0.48 -0.04,-0.08 -0.06,-0.01 0.09,-0.17 0.06,-0.07 0.11,-0.1 0.14,-0.19l0.02 -0.04 -0.04 -0.01c-0.11,-0.01 -0.03,0.01 -0.06,-0.03 0.03,-0.05 0,-0.04 0.05,-0.03l0.02 -0.02 -0.03 -0.13 -0.01 -0.01c-0.19,0.34 0.01,0.18 -0.07,0.41 -0.05,-0.06 -0.04,-0.13 -0.04,-0.22 -0.13,0.12 -0.17,0.21 -0.26,0.23 -0.03,-0.1 -0.02,-0.04 0.15,-0.24 0.07,-0.08 0.13,-0.17 0.18,-0.26 0.11,-0.2 0.19,-0.44 0.2,-0.69 -0.43,-0.32 -0.97,-0.96 -1.2,-1.43 -1.51,-3.13 3.84,-2.89 3.24,-0.83 -0.43,-0.08 -0.62,-0.37 -0.91,-0.56 -0.43,-0.26 -0.89,-0.06 -1.12,0.22 -0.25,0.3 -0.22,0.87 -0.01,1.22 0.37,0.59 0.98,0.78 1.61,0.36 0.09,-0.05 0.18,-0.11 0.24,-0.17 2.07,-1.79 -1.26,-4.08 -3.55,-2.49 -1.55,1.07 -1.87,2.81 -0.86,4.39 0.12,0.19 0.62,0.83 0.75,0.86 0.52,0.13 1.17,-0.36 1.21,-0.38 0.03,0.04 0.01,0.01 0.04,0.07 -0.04,0.02 -0.15,0.08 -0.18,0.12 -0.04,0.05 -0.05,0.17 -0.06,0.24z"/>
    <path class="fil1" d="M10.43 11.32c-0.53,0.1 -0.79,0.36 -1.42,0.36 -0.56,0 -1,-0.17 -1.38,-0.41 -0.24,-0.14 -0.31,-0.22 -0.5,-0.4 -0.12,-0.1 -0.28,-0.33 -0.38,-0.5 -1.06,-1.8 0.78,-3.21 1.83,-2.26 0.72,0.66 0.51,1.89 -0.56,2.15 0.67,0.1 1.61,-0.55 1.67,-1.46 0.06,-0.9 -0.65,-1.65 -1.19,-1.94 -0.76,-0.4 -1.84,-0.29 -2.53,0.12 -2.36,1.41 -2.03,4.71 0.3,5.86 1.12,0.54 2.64,0.21 3.52,-0.61 0.18,-0.17 0.64,-0.64 0.64,-0.91z"/>
    <path class="fil1" d="M3.95 5.17l0.33 0 0.03 0.42c0.2,0.05 0.25,0.08 0.41,0.14 0.09,-0.24 -0.02,-0.04 0.14,-0.34 0.2,0.05 0.53,0.26 0.67,0.37 0.16,0.12 0.42,0.43 0.58,0.49 -0.05,-0.56 0.12,-0.59 -0.31,-0.9 -0.2,-0.14 -0.53,-0.34 -0.79,-0.43l0.06 -0.37c-0.13,-0.03 -0.27,-0.11 -0.42,-0.11 -0.07,0.1 -0.17,0.24 -0.21,0.33 -0.58,-0.11 -0.9,-0.18 -1.54,-0.02 -0.16,0.04 -0.31,0.11 -0.45,0.14 0.22,0.64 0.32,0.37 0.82,0.29 0.25,-0.04 0.44,0 0.68,-0.01z"/>
    <path class="fil1" d="M1.61 7.58l0.23 0.45c0.44,-0.18 1.08,-0.75 1.71,-0.82 0.33,-0.03 0.47,0.06 0.73,0.13l-0.14 -0.6c-0.81,-0.19 -1.28,0.17 -1.97,0.53l-0.56 0.31z"/>
    <path class="fil0" d="M5.51 4.94c0.06,0.05 0.12,0.1 0.17,0.15 0.07,0.06 0.12,0.08 0.16,0.14 0.25,-0.16 0.23,-0.59 1.02,-1.02 0.17,-0.08 0.31,-0.19 0.44,-0.25l-0.2 -0.42c-0.55,0.13 -1.4,0.82 -1.59,1.4z"/>
    <path class="fil0" d="M3.54 4.52l0.49 -0.02c0.09,-0.12 0.24,-0.54 0.5,-0.88 0.08,-0.09 0.16,-0.18 0.22,-0.26l-0.25 -0.46c-0.03,0.02 -0.01,0.01 -0.04,0.04 0,0 -0.04,0.04 -0.04,0.05l-0.21 0.27c-0.26,0.35 -0.61,0.78 -0.67,1.26z"/>
    <path class="fil0" d="M3.41 7.38c0.12,0.3 0.57,1.4 0.73,1.56 0.21,-0.83 0.28,-0.5 0.01,-1.04 -0.22,-0.45 -0.1,-0.68 -0.74,-0.52z"/>
    <path class="fil1" d="M3.88 6.14c0.13,0.08 0.5,0.14 0.68,0.23 0.18,0.08 0.39,0.27 0.56,0.33 0.07,-0.79 -0.56,-1.04 -1.21,-0.99l-0.03 0.43z"/>
    <path class="fil1" d="M4.36 4.18l1.15 0.37c0.07,-0.05 0.24,-0.28 0.29,-0.35 -0.16,-0.18 -0.88,-0.43 -1.19,-0.44 -0.06,0.16 -0.19,0.26 -0.25,0.42z"/>
    <path class="fil0" d="M3.23 6.16l0.04 0.44 0.45 -0.09c0.02,-0.22 0,-0.42 0.01,-0.62 0.01,-0.19 0.06,-0.39 0.04,-0.58 -0.11,0 -0.23,0 -0.34,0.01 -0.13,0 -0.14,0.05 -0.15,0.19 -0.02,0.15 -0.07,0.51 -0.05,0.65z"/>
    <path class="fil0" d="M4.65 7.76l0.36 -0.42c-0.15,-0.51 -0.2,-0.76 -0.72,-0.9 -0.06,0.32 0.2,1.11 0.36,1.32z"/>
    <path class="fil1" d="M2.04 6.23c0.03,0.12 0.12,0.33 0.2,0.41l0.86 -0.41 -0.01 -0.44c-0.33,-0.07 -0.85,0.33 -1.05,0.44z"/>
    <path class="fil0" d="M5.42 7l0.43 -0.25c-0.02,-0.1 -0.05,-0.18 -0.08,-0.28 -0.05,-0.25 -0.06,-0.55 -0.5,-0.65 -0.04,0.32 -0.04,0.82 0.12,1.12l0.02 0.05c0,0 0.01,0 0.01,0.01z"/>
    <path class="fil0" d="M9.36 10.94c-0.01,-0.11 -0.14,-0.07 -0.22,-0.34 -0.06,-0.19 -0.03,-0.33 0.01,-0.51 -0.09,0.05 -0.15,0.1 -0.25,0.16 -0.15,0.08 -0.23,0.06 -0.29,0.12 0.12,0.27 0.36,0.64 0.75,0.57z"/>
    <path class="fil0" d="M8.16 9.1c0.05,-0.15 -0.03,-0.29 -0.13,-0.33 -0.15,-0.06 -0.29,0.02 -0.34,0.14 -0.12,0.33 0.35,0.47 0.47,0.19z"/>
    <path class="fil0" d="M11.02 6.32c0.06,0.07 0.03,0.03 0,0.06 -0.02,-0.02 -0.07,0 0,-0.06zm0.03 -0.15c0.05,0.06 0.05,0.08 0.05,0.16 -0.03,-0.02 -0.03,0 -0.06,-0.08 -0.01,-0.03 -0.01,-0.06 0.01,-0.08zm0.11 -0.07c-0.01,0.03 0,0.04 -0.03,0.05 -0.07,0.02 -0.03,-0.01 -0.04,-0.03l0.07 -0.02zm0 0c-0.04,-0.09 -0.05,-0.06 -0.06,-0.18l0.04 0.03c0.03,0.03 0.08,0.05 0.06,0.19l-0.04 -0.04zm0 -0.21c0,0 -0.04,-0.09 0.06,0 -0.07,0.05 -0.04,0.01 -0.06,0zm-0.21 0.41c-0.01,0.06 -0.01,0.04 0.01,0.08l0.01 0.08 0.06 0.09c0.1,-0.19 0.26,-0.46 0.27,-0.71 -0.03,-0.05 -0.12,-0.1 -0.16,-0.12 -0.01,0.01 -0.01,0.01 -0.01,0.02l-0.02 0.05c-0.01,0.03 -0.01,0.05 -0.01,0.08 -0.03,0.18 -0.13,0.3 -0.15,0.43z"/>
    <path class="fil0" d="M9.69 7.38c-0.04,-0.02 -0.02,0.01 -0.04,-0.03 -0.05,-0.08 0,-0.02 0.03,-0.04l0.01 0.07zm0.18 -0.09c0.04,-0.04 -0.01,-0.01 0.04,-0.02 0.07,-0.01 0,-0.01 0.02,0.02 -0.06,0.05 -0.01,0.03 -0.06,0zm0.09 0.04c0.02,-0.08 0.02,-0.11 0.09,-0.16 -0.02,0.1 -0.02,0.12 -0.09,0.16zm0.18 -0.17c0.07,0.1 0.01,0.05 0,0.07 0,-0.01 -0.01,-0.01 -0.01,-0.02 -0.03,-0.1 0,-0.03 0.01,-0.05zm-0.27 0.03c0,0.02 -0.01,0.03 -0.02,0.05 0,0.01 -0.01,0.02 -0.01,0.02 0,0 -0.01,0.01 -0.01,0.02 -0.04,0.08 -0.05,0.08 -0.13,0.14l-0.01 -0.04 0.09 -0.13 0 -0.03 -0.16 0.01c-0.02,0.09 -0.04,0.15 -0.13,0.2 0.07,0.1 0.46,-0.04 0.59,-0.09 0.06,-0.03 0.12,-0.05 0.17,-0.11l0 0c-0.03,0.02 -0.04,0 -0.07,0.02l0.06 -0.21 -0.37 0.15z"/>
    <path class="fil4" d="M12.61 9.3c-0.19,-0.25 -0.89,0.2 -0.86,-0.25 0.09,0.04 0.02,0.05 0.14,0.06 0.08,-0.07 0.07,-0.09 0.02,-0.2 -0.29,-0.09 -0.35,0.33 -0.06,0.4 0.28,0.07 0.33,-0.14 0.76,-0.01z"/>
    <path class="fil4" d="M12.55 8.54c0.01,-0.09 -0.01,-0.1 -0.03,-0.16 0.23,-0.01 0.2,0.24 0.15,0.42 -0.06,0.18 -0.12,0.3 -0.01,0.46 0,-0.21 -0.06,-0.16 0.03,-0.39 0.05,-0.13 0.12,-0.27 0.07,-0.42 -0.03,-0.11 -0.17,-0.23 -0.32,-0.15 -0.1,0.06 -0.11,0.28 0.11,0.24z"/>
    <path class="fil4" d="M11.81 8.03c0.03,-0.05 0.06,-0.07 0.11,-0.12 0.14,-0.14 0.34,-0.41 0.45,-0.58 0.04,-0.08 0.13,-0.2 0.1,-0.26 -0.07,0.01 -0.01,-0.04 -0.07,0.06 -0.22,0.35 -0.33,0.55 -0.66,0.86 -0.12,0.11 -0.06,0.13 -0.03,0.12l0.07 -0.06c0.01,0 0.02,0 0.02,-0.01 0,-0.01 0.01,0 0.01,-0.01z"/>
    <path class="fil4" d="M11.47 8.1c-0.1,-0.15 -0.13,-0.12 -0.27,-0.22 -0.19,-0.12 -0.06,-0.26 -0.11,-0.35 -0.23,0.16 0.1,0.75 0.38,0.57z"/>
    <path class="fil4" d="M11.55 7.57c-0.11,-0.1 -0.27,-0.2 -0.4,-0.08 0.07,0.04 0.13,0.01 0.21,0.05 0.15,0.08 0.09,0.2 0.23,0.35 0.05,0.05 0,0.02 0.07,0.06 0.07,-0.2 0.02,-0.25 -0.11,-0.38z"/>
    <path class="fil4" d="M10.92 8.27c0,-0.05 -0.01,-0.05 0.03,-0.08 0.06,-0.04 0.02,0.01 0.07,-0.02 -0.07,-0.05 -0.12,-0.06 -0.16,0.02 -0.12,0.2 0.32,0.34 0.39,0 -0.06,-0.05 -0.08,-0.04 -0.13,-0.12 0,0.08 0.01,0.14 -0.05,0.2 -0.04,0.03 -0.09,0.04 -0.15,0z"/>
    <path class="fil4" d="M11.79 7.53c0.03,-0.04 -0.04,-0.05 0.04,-0.09 0.1,-0.06 0.17,0.22 -0.16,0.16l0.1 0.16c0.35,-0.05 0.29,-0.56 -0.02,-0.34 0,0.09 -0.03,0.06 0.04,0.11z"/>
    <path class="fil4" d="M10.84 8.65c0.1,0.04 0.37,-0.16 0.44,-0.2l0.3 -0.22c0.01,-0.01 0.03,-0.02 0.04,-0.05 0.03,-0.07 -0.04,-0.05 -0.11,0 -0.21,0.16 -0.22,0.19 -0.48,0.33 -0.04,0.03 -0.06,0.04 -0.1,0.06 -0.09,0.04 -0.07,0.01 -0.09,0.08z"/>
    <path class="fil4" d="M11 7.29c0.06,-0.11 -0.1,-0.28 0.11,-0.5 0.23,-0.25 0.39,-0.08 0.43,-0.18 -0.17,-0.1 -0.42,0.07 -0.48,0.15 -0.1,0.13 -0.18,0.39 -0.06,0.53z"/>
    <path class="fil4" d="M10.17 7.8c0.07,-0.1 0,-0.12 0.08,-0.25 0.19,-0.29 0.39,-0.25 0.66,-0.16 -0.01,-0.16 -0.42,-0.12 -0.53,-0.04 -0.14,0.09 -0.29,0.28 -0.21,0.45z"/>
    <path class="fil4" d="M10.24 7.93c0.1,0.32 0.72,0.19 0.63,-0.19 -0.01,-0.05 0,-0.01 -0.03,-0.04 -0.03,0.09 0.01,0.29 -0.21,0.35 -0.23,0.07 -0.27,-0.1 -0.39,-0.12z"/>
    <path class="fil4" d="M11.36 7.26l0 0.06c0.09,0.01 0.2,0.01 0.27,-0.03 0.14,-0.09 0.2,-0.26 0.15,-0.42 -0.03,-0.09 -0.06,-0.14 -0.13,-0.17 0.03,0.14 0.17,0.19 0.07,0.4 -0.08,0.18 -0.13,0.16 -0.36,0.16z"/>
    <path class="fil4" d="M11.94 6.84c0.02,0.08 0.05,0.17 0.08,0.26 0.03,0.11 0.09,0.15 0.14,0.2 0.02,-0.19 -0.08,-0.44 -0.22,-0.46z"/>
    <path class="fil4" d="M11.96 8.42c0.1,-0.05 0.05,-0.16 0.24,-0.12 0.1,0.03 0.22,0.03 0.26,-0.07 -0.26,-0.03 -0.42,-0.07 -0.5,0.19z"/>
    <path class="fil4" d="M12.29 8.81c0.19,0.06 0.34,0.03 0.33,-0.23 -0.25,0.15 -0.17,0.14 -0.23,0.18 -0.05,0.03 -0.05,0.01 -0.1,0.05z"/>
    <path class="fil4" d="M11.66 8.95c0.17,-0.21 -0.1,-0.28 0.18,-0.42 0.05,-0.02 0.03,-0.01 0.05,-0.02 -0.35,0.03 -0.32,0.33 -0.23,0.44z"/>
    <path class="fil4" d="M11.97 9.19c0.23,0.01 0.3,-0.16 0.24,-0.35 -0.01,0.01 -0.01,0.02 -0.01,0.02l-0.02 0.04c-0.05,0.16 -0.02,0.04 -0.1,0.12 -0.06,0.05 -0.02,0.09 -0.11,0.17z"/>
    <path class="fil4" d="M12.26 8.84c0.07,0.16 0.05,0.24 0.24,0.29 -0.03,-0.17 -0.12,-0.21 -0.24,-0.29z"/>
    <path class="fil4" d="M13.01 9.71c-0.03,-0.12 -0.05,-0.25 -0.19,-0.22 -0.03,0.13 0.09,0.19 0.19,0.22z"/>
    <path class="fil4" d="M12.24 8.62c0.02,0.06 0.01,0.09 0.02,0.13 0.15,-0.13 0.11,-0.26 0.03,-0.26 -0.09,-0.01 -0.06,0.07 -0.05,0.13z"/>
    <path class="fil4" d="M12.04 6.82c0.04,0.06 0.09,0.09 0.15,0.16l0.14 -0.01c-0.05,-0.12 -0.12,-0.14 -0.29,-0.15z"/>
    <path class="fil4" d="M11.89 8.83c-0.03,0.13 0.18,0.06 0.24,0.02l-0.12 -0.06c-0.06,-0.02 -0.11,-0.02 -0.12,0.04z"/>
    <path class="fil4" d="M11.86 9.95c0,-0.06 -0.02,-0.31 -0.12,-0.22 -0.09,0.08 0.08,0.19 0.12,0.22z"/>
    <path class="fil4" d="M11.67 9.71c-0.05,-0.02 -0.21,-0.13 -0.19,0.01 0.01,0.05 0.05,0.08 0.1,0.07 0.06,-0.01 0.07,-0.05 0.09,-0.08z"/>
    <path class="fil4" d="M12.44 7.89c-0.07,0.09 0.14,0.13 0.19,0.14 -0.03,-0.06 -0.09,-0.24 -0.19,-0.14z"/>
    <path class="fil4" d="M9.49 7.43c0,-0.11 0,-0.1 0.07,-0.14 -0.04,-0.05 0.02,-0.01 -0.07,-0.03l-0.17 0.02c0.05,0.04 0.1,0.12 0.17,0.15z"/>
    <path class="fil4" d="M12.84 9.43c0.2,-0.05 0.19,-0.21 0.02,-0.18l-0.02 0.18z"/>
    <path class="fil4" d="M12.76 7.43c-0.11,0.1 -0.05,0.21 0.03,0.3 0.07,-0.09 -0.04,-0.13 -0.03,-0.3z"/>
    <path class="fil4" d="M11.34 9.28c0.07,0.05 0.06,0.02 0.15,-0.03 0.09,-0.05 0.09,-0.02 0.1,-0.12 -0.08,0.03 -0.2,0.08 -0.25,0.15z"/>
    <path class="fil4" d="M12.55 9.6c0.11,0.03 0.15,0 0.19,-0.09 -0.03,-0.01 -0.08,-0.02 -0.11,-0.02 -0.1,0.02 -0.05,0.02 -0.08,0.04l0 0.07z"/>
    <path class="fil4" d="M12.64 8.21c0.08,0.02 0.09,-0.02 0.13,-0.07 0.04,-0.05 0.07,-0.07 0.06,-0.15 -0.08,0.02 -0.12,0.12 -0.19,0.22z"/>
    <path class="fil4" d="M13.01 8.62c0.07,-0.03 0.09,-0.05 0.11,-0.12 -0.02,-0.01 -0.09,-0.01 -0.11,-0.01 -0.13,0.01 -0.08,0.09 0,0.13z"/>
    <path class="fil4" d="M11.45 6.88c0.08,-0.06 -0.02,-0.18 -0.09,-0.11 -0.07,0.07 0.03,0.17 0.09,0.11z"/>
    <path class="fil4" d="M11.51 6.85c-0.03,0.1 -0.01,0.15 0.12,0.12l0.01 -0.11c-0.07,-0.03 -0.06,-0.03 -0.13,-0.01z"/>
    <path class="fil4" d="M11.25 8.92c-0.01,0.09 0.08,0.14 0.14,0.18 0,-0.14 -0.01,-0.22 -0.14,-0.18z"/>
    <path class="fil4" d="M10.38 7.88c0,0.07 0.06,0.07 0.1,0.06 0.05,-0.05 0.06,-0.05 0.02,-0.12 -0.07,-0.02 -0.12,-0.02 -0.12,0.06z"/>
    <path class="fil4" d="M10.33 7.76c0.11,0.03 0.14,0 0.12,-0.1 -0.08,-0.05 -0.16,-0.03 -0.12,0.1z"/>
    <path class="fil4" d="M11.78 9.65c0.1,0 0.17,-0.07 0.1,-0.17 -0.07,0.01 -0.06,0 -0.08,0.07 -0.01,0.04 -0.01,0.07 -0.02,0.1z"/>
    <path class="fil4" d="M11.29 7.16c0.02,0.02 -0.02,0.01 0.05,0.02 0.11,0.01 0.02,0 0.06,-0.02 0.04,-0.11 -0.05,-0.15 -0.1,-0.09 -0.03,0.02 -0.03,0.07 -0.01,0.09z"/>
    <path class="fil4" d="M10.62 7.64c0,0.05 -0.01,0.08 0.03,0.1 0.12,0.08 0.18,-0.19 -0.03,-0.1z"/>
    <path class="fil4" d="M11.6 6.26c-0.03,0.13 0.06,0.12 0.13,0.09l-0.01 -0.11 -0.12 0.02z"/>
    <path class="fil4" d="M11.58 7.15c0.03,-0.05 0.03,-0.06 0.01,-0.11 -0.11,-0.04 -0.1,0 -0.1,0 -0.05,0.07 -0.02,0.12 0.09,0.11z"/>
    <path class="fil4" d="M10.67 7.93c0,0 0.11,-0.15 -0.1,-0.12l0.01 0.12 0.09 0z"/>
    <path class="fil4" d="M9.49 7.43c0.09,-0.05 0.11,-0.11 0.13,-0.2 -0.03,0 -0.02,-0.02 -0.07,0 -0.06,0.01 -0.03,0.01 -0.06,0.03 0.09,0.02 0.03,-0.02 0.07,0.03 -0.07,0.04 -0.07,0.03 -0.07,0.14z"/>
    <path class="fil4" d="M11.34 6.99c0.03,-0.3 -0.32,0.05 0,0z"/>
    <path class="fil4" d="M11.72 9.66c0.02,-0.09 0.03,-0.06 -0.02,-0.14 -0.16,0.01 -0.13,0.12 0.02,0.14z"/>
    <path class="fil4" d="M10.48 7.65l0.09 0c0.04,-0.13 -0.02,-0.15 -0.12,-0.09l0.03 0.09z"/>
    <path class="fil4" d="M10.88 7.23c-0.02,-0.12 -0.04,-0.19 -0.14,-0.1 0.02,0.09 0.03,0.09 0.14,0.1z"/>
    <path class="fil4" d="M10.09 7.72c0,-0.12 0.04,-0.17 -0.08,-0.18 -0.03,0.11 0.01,0.15 0.08,0.18z"/>
    <path class="fil4" d="M11.08 7.45c0.02,-0.09 -0.01,-0.12 -0.11,-0.08 -0.01,0.04 -0.01,0.07 0.02,0.09 0.07,0.05 0.08,0 0.09,-0.01z"/>
    <path class="fil4" d="M12.75 9.42c0.06,-0.02 0.02,-0.07 0,-0.11 -0.09,0 -0.07,0 -0.11,0.06 0.01,0.01 0.04,0.09 0.11,0.05z"/>
    <path class="fil4" d="M11.77 6.68c0.05,0.08 0.03,0.13 0.16,0.1 -0.02,-0.12 -0.04,-0.1 -0.16,-0.1z"/>
    <path class="fil4" d="M13.01 8.42c0.06,0.02 0.05,0.03 0.12,0 0.02,-0.07 -0.01,-0.1 -0.1,-0.11l-0.02 0.11z"/>
    <path class="fil4" d="M12.09 8.73l0.09 0.01 -0.01 -0.09c-0.03,-0.03 0.06,-0.03 -0.06,-0.02 -0.06,0 0.01,-0.01 -0.05,0.01 0,0.1 -0.02,0.04 0.03,0.09z"/>
    <path class="fil4" d="M11.85 6.35c-0.03,-0.02 -0.04,-0.02 -0.08,-0.03 -0.03,0.11 0.01,0.16 0.12,0.11 -0.02,-0.06 0.01,-0.03 -0.04,-0.08z"/>
    <path class="fil4" d="M11.45 6.52c-0.08,-0.13 -0.1,-0.11 -0.16,-0.07 0.02,0.03 -0.04,0.08 0.16,0.07z"/>
    <path class="fil4" d="M9.69 7.38l0.01 0.04c0.08,-0.06 0.09,-0.06 0.13,-0.14 -0.02,-0.05 0.04,-0.06 -0.05,-0.03l-0.09 0.13z"/>
    <path class="fil4" d="M11.57 6.7c0.07,-0.02 0.13,-0.11 0.09,-0.2l-0.07 0.09c-0.02,0.06 -0.02,0.05 -0.02,0.11z"/>
    <path class="fil5" d="M11.16 6.1l0.04 0.04c0.02,-0.14 -0.03,-0.16 -0.06,-0.19l-0.04 -0.03c0.01,0.12 0.02,0.09 0.06,0.18z"/>
    <path class="fil4" d="M10.93 6.52l-0.02 0.02 0.01 0.06 0.04 0.01 -0.02 0.04c0.08,-0.04 0.06,-0.03 0.09,-0.1l-0.06 -0.09 0.01 0.11 -0.05 -0.05z"/>
    <polygon class="fil4" points="10.93,6.52 10.98,6.57 10.97,6.46 10.96,6.38 10.9,6.39 "/>
    <path class="fil4" d="M10.42 7.06c-0.01,0.1 -0.02,0.04 0.03,0.05l0.03 -0.16c-0.01,-0.05 0,-0.01 -0.03,-0.04 -0.04,0.05 -0.03,0.05 -0.03,0.15z"/>
    <path class="fil4" d="M10.16 7.84c-0.07,0.03 -0.05,0.04 -0.07,0.07 0.07,0.02 0.11,0.02 0.15,-0.06 -0.01,0 0,-0.03 -0.08,-0.01z"/>
    <path class="fil4" d="M11.37 8.56c0,0 0.06,-0.01 0.07,-0.07 0.02,-0.16 -0.02,-0.08 -0.04,-0.1l-0.03 0.17z"/>
    <path class="fil4" d="M11.15 8.7c0.04,-0.02 0.06,0 0.07,-0.08 0.03,-0.14 -0.01,-0.08 -0.03,-0.09l-0.04 0.17z"/>
    <path class="fil4" d="M12.34 7.65c0.03,-0.08 0.03,-0.12 -0.02,-0.2 -0.02,0.04 -0.04,0.04 -0.01,0.15 0.02,0.07 0.01,0.03 0.03,0.05z"/>
    <path class="fil4" d="M12.01 8.06c0.01,-0.04 0.02,-0.08 0.02,-0.12 -0.01,-0.13 0,-0.03 -0.05,-0.06l0 0.16 0.03 0.02z"/>
    <path class="fil4" d="M11.81 8.03c-0.01,0.08 -0.03,0.1 -0.01,0.18l0.01 0.03c0.03,-0.05 0.06,-0.15 0,-0.21z"/>
    <path class="fil4" d="M11.59 8.41c0.05,-0.04 0.09,-0.12 0.04,-0.19 -0.04,0.06 -0.04,0.11 -0.04,0.19z"/>
    <path class="fil4" d="M11 8.65c-0.03,0.02 -0.05,0.02 -0.06,0.07 -0.03,0.15 0,0.05 0.03,0.09l0.03 -0.16z"/>
    <path class="fil4" d="M12.16 7.87c0.05,-0.06 0.06,-0.13 0.02,-0.2 -0.02,0.03 -0.02,0 -0.03,0.05l0.01 0.15z"/>
    <path class="fil4" d="M10.63 6.95c0.05,-0.07 0.05,-0.12 0.01,-0.17 -0.05,0.06 -0.04,0.1 -0.01,0.17z"/>
    <path class="fil4" d="M12.44 7.25c-0.01,0.07 0,0.1 0.03,0.17 0.07,-0.07 0.02,-0.13 -0.03,-0.17z"/>
    <path class="fil4" d="M11.96 8.67l-0.01 -0.02c-0.06,-0.04 -0.09,-0.07 -0.1,0.05 0.08,0 0.06,0.02 0.11,-0.03z"/>
    <path class="fil4" d="M10.38 7.12l0.01 0.06c0,0 0.01,-0.01 0.02,-0.01 0,0.01 0.01,0 0.01,0 0.03,-0.02 0.03,-0.02 0.04,-0.04l-0.01 -0.02c-0.05,-0.01 -0.04,0.05 -0.03,-0.05l-0.04 -0.02 0 0.08z"/>
    <path class="fil4" d="M12.14 8.54c0.04,-0.07 0.06,-0.09 -0.03,-0.12 -0.03,0.03 -0.02,0 -0.02,0.06l0.05 0.06z"/>
    <path class="fil4 str0" d="M11.1 6.33c0,-0.08 0,-0.1 -0.05,-0.16 -0.02,0.02 -0.02,0.05 -0.01,0.08 0.03,0.08 0.03,0.06 0.06,0.08z"/>
    <path class="fil4 str0" d="M9.96 7.33c0.07,-0.04 0.07,-0.06 0.09,-0.16 -0.07,0.05 -0.07,0.08 -0.09,0.16z"/>
    <path class="fil4" d="M12.81 8.86c0.04,-0.01 0.03,-0.04 0.05,-0.1 -0.06,0.02 -0.03,-0.02 -0.06,0.03 -0.05,0.09 0.01,0.07 0.01,0.07z"/>
    <path class="fil4" d="M9.78 7.25c0.09,-0.03 0.03,-0.02 0.05,0.03 0,-0.01 0.01,-0.02 0.01,-0.02 0,0 0.01,-0.01 0.01,-0.02 0.01,-0.02 0.02,-0.03 0.02,-0.05l-0.09 0.03 0 0.03z"/>
    <path class="fil4" d="M12.09 8.73c0.05,0.04 0.05,0.03 0.1,0.02 0.04,-0.14 0,-0.08 -0.02,-0.1l0.01 0.09 -0.09 -0.01z"/>
    <path class="fil4" d="M11.95 8.65l0.01 0.02c0.04,-0.04 0.08,-0.02 0,-0.11l-0.01 0.09z"/>
    <path class="fil4" d="M10.89 6.38l0.01 0.01 0.06 -0.01c-0.02,-0.04 -0.02,-0.02 -0.01,-0.08 -0.07,0.05 -0.03,0 -0.06,0.08z"/>
    <path class="fil4" d="M10.92 6.6l-0.01 -0.06c-0.05,-0.01 -0.02,-0.02 -0.05,0.03 0.03,0.04 -0.05,0.02 0.06,0.03z"/>
    <path class="fil4" d="M11.44 7.02c0.03,-0.11 0.02,-0.05 -0.03,-0.07 -0.03,0.06 -0.03,0.04 0.03,0.07z"/>
    <path class="fil4" d="M12.11 9.42c0,0.01 -0.01,0.09 0.08,0.04 -0.03,-0.04 0.03,-0.03 -0.08,-0.04z"/>
    <path class="fil4" d="M10.58 7.74c-0.04,-0.06 -0.03,-0.06 -0.08,0 0.03,0.02 0,0.02 0.05,0.02 0.09,0.01 -0.02,0.02 0.03,-0.02z"/>
    <path class="fil4" d="M11.16 6.1l-0.07 0.02c0.01,0.02 -0.03,0.05 0.04,0.03 0.03,-0.01 0.02,-0.02 0.03,-0.05z"/>
    <path class="fil4" d="M11.16 5.89c0.02,0.01 -0.01,0.05 0.06,0 -0.1,-0.09 -0.06,0 -0.06,0z"/>
    <path class="fil4" d="M10.38 7.12l0 -0.08c-0.08,0.03 -0.03,-0.01 -0.06,0.05l0.06 0.03z"/>
    <path class="fil0" d="M9.69 7.38l-0.01 -0.07c-0.03,0.02 -0.08,-0.04 -0.03,0.04 0.02,0.04 0,0.01 0.04,0.03z"/>
    <path class="fil4" d="M10.14 7.23c0.01,-0.02 0.07,0.03 0,-0.07 -0.01,0.02 -0.04,-0.05 -0.01,0.05 0,0.01 0.01,0.01 0.01,0.02z"/>
    <path class="fil4" d="M12.5 7.27c0.01,0.04 0.03,0.04 0.04,-0.01 0.01,-0.02 -0.04,-0.07 -0.04,0.01z"/>
    <path class="fil4" d="M11.02 6.38c0.03,-0.03 0.06,0.01 0,-0.06 -0.07,0.06 -0.02,0.04 0,0.06z"/>
    <path class="fil4" d="M10.52 6.93c0.02,0.02 0,0.06 0.07,0 -0.05,-0.04 -0.01,-0.04 -0.07,0z"/>
    <path class="fil4" d="M11.47 8.44c0,0.01 0.03,0.05 0.04,-0.01 0,-0.03 -0.04,-0.08 -0.04,0.01z"/>
    <path class="fil4" d="M11.86 8.1c0.02,0.02 -0.07,0.05 0.06,0.02 0.01,-0.09 0.01,-0.03 -0.03,-0.06l0.02 0.06 -0.05 -0.02z"/>
    <path class="fil4" d="M10.73 6.73c-0.07,0.09 -0.01,0.04 0,0.06 0,-0.01 0.01,-0.02 0.01,-0.02 0.04,-0.12 0.02,-0.01 -0.01,-0.04z"/>
    <path class="fil4" d="M9.87 7.29c0.05,0.03 0,0.05 0.06,0 -0.02,-0.03 0.05,-0.03 -0.02,-0.02 -0.05,0.01 0,-0.02 -0.04,0.02z"/>
    <path class="fil4" d="M11.05 8.68c-0.08,0.03 -0.03,0.02 0,0.05 0.02,-0.03 0.02,-0.02 0,-0.05z"/>
    <path class="fil4" d="M12.24 7.68c0,0 -0.01,0.01 -0.01,0.01 -0.05,0.13 -0.02,0 0.01,0.04 0.01,-0.02 0.06,0.03 0,-0.05z"/>
    <polygon class="fil4" points="11.86,8.1 11.91,8.12 11.89,8.06 "/>
    <path class="fil4" d="M11.25 8.58c0.01,0 0.01,0.01 0.01,0.01l0.04 -0.01c-0.11,-0.07 -0.03,-0.02 -0.05,0z"/>
    <polygon class="fil4" points="11.36,7.32 11.36,7.26 11.32,7.3 "/>
    <path class="fil4" d="M11.7 8.24l-0.02 0.03c0,0 0.01,0.01 0.01,0.01 0,0 0.01,0.01 0.01,0.01 0.01,-0.02 0.04,0.01 0,-0.05z"/>
    <path class="fil4" d="M12.36 7.49l0.06 0c-0.04,-0.02 -0.03,-0.02 -0.06,0z"/>
   </g>
  </g>
  <rect class="fil6" width="26.85" height="14.5"/>
 </g>
</svg>
