<?xml version="1.0" encoding="utf-8"?>
<!-- Generator: Adobe Illustrator 16.0.0, SVG Export Plug-In . SVG Version: 6.00 Build 0)  -->
<!DOCTYPE svg PUBLIC "-//W3C//DTD SVG 1.1//EN" "http://www.w3.org/Graphics/SVG/1.1/DTD/svg11.dtd">
<svg version="1.1" id="Capa_1" xmlns="http://www.w3.org/2000/svg" xmlns:xlink="http://www.w3.org/1999/xlink" x="0px" y="0px"
	 width="612px" height="792px" viewBox="0 0 612 792" enable-background="new 0 0 612 792" xml:space="preserve">
<g>
	<g>
		<g>
			<path d="M-440.041,89.999h-235.386c-13,0-23.538,10.538-23.538,23.539v235.385c0,13,10.538,23.539,23.538,23.539h235.386
				c13,0,23.538-10.538,23.538-23.539V113.538C-416.503,100.537-427.041,89.999-440.041,89.999z"/>
			<path d="M-110.504,89.999h-235.386c-13,0-23.538,10.538-23.538,23.539v235.385c0,13,10.538,23.539,23.538,23.539h235.386
				c13,0,23.539-10.538,23.539-23.539V113.538C-86.965,100.537-97.504,89.999-110.504,89.999z"/>
			<path d="M-440.041,419.538h-235.386c-13,0-23.538,10.539-23.538,23.539v235.386c0,13,10.538,23.538,23.538,23.538h235.386
				c13,0,23.538-10.538,23.538-23.538V443.077C-416.503,430.077-427.041,419.538-440.041,419.538z"/>
			<path d="M-110.504,419.538h-235.386c-13,0-23.538,10.539-23.538,23.539v235.386c0,13,10.538,23.538,23.538,23.538h235.386
				c13,0,23.539-10.538,23.539-23.538V443.077C-86.965,430.077-97.504,419.538-110.504,419.538z"/>
		</g>
	</g>
</g>
<g>
	<path d="M273.815,107.675c0-7.41-6.001-13.411-13.41-13.411H17.676c-7.41,0-13.411,6.001-13.411,13.411v242.729
		c0,7.409,6.001,13.411,13.411,13.411h242.729c7.409,0,13.41-6.001,13.41-13.411V107.675z M246.994,336.994H31.086V121.085h215.908
		V336.994z"/>
	<path d="M607.736,107.675c0-7.41-6.001-13.411-13.41-13.411H351.596c-7.409,0-13.41,6.001-13.41,13.411v242.729
		c0,7.409,6.001,13.411,13.41,13.411h242.729c7.409,0,13.41-6.001,13.41-13.411V107.675z M580.914,336.994H365.006V121.085h215.908
		V336.994z"/>
	<path d="M273.815,441.596c0-7.409-6.001-13.41-13.41-13.41H17.676c-7.41,0-13.411,6.001-13.411,13.41v242.729
		c0,7.409,6.001,13.41,13.411,13.41h242.729c7.409,0,13.41-6.001,13.41-13.41V441.596z M246.994,669.573H31.086V455.006h215.908
		V669.573z"/>
	<path d="M607.736,441.596c0-7.409-6.001-13.41-13.41-13.41H351.596c-7.409,0-13.41,6.001-13.41,13.41v242.729
		c0,7.409,6.001,13.41,13.41,13.41h242.729c7.409,0,13.41-6.001,13.41-13.41V441.596z M580.914,669.573H365.006V455.006h215.908
		V669.573z"/>
</g>
</svg>
