<?xml version="1.0" encoding="utf-8"?>
<!-- Generator: Adobe Illustrator 16.0.0, SVG Export Plug-In . SVG Version: 6.00 Build 0)  -->
<!DOCTYPE svg PUBLIC "-//W3C//DTD SVG 1.1//EN" "http://www.w3.org/Graphics/SVG/1.1/DTD/svg11.dtd">
<svg version="1.1" id="Capa_1" xmlns="http://www.w3.org/2000/svg" xmlns:xlink="http://www.w3.org/1999/xlink" x="0px" y="0px"
	 width="612px" height="792px" viewBox="0 0 612 792" enable-background="new 0 0 612 792" xml:space="preserve">
<g>
	<g>
		<g>
			<rect x="-760.039" y="412.105" width="128.843" height="128.843"/>
			<rect x="-760.039" y="90" width="128.843" height="128.842"/>
			<rect x="-760.039" y="573.157" width="128.843" height="128.843"/>
			<rect x="-760.039" y="251.053" width="128.843" height="128.842"/>
			<rect x="-913.04" y="412.105" width="120.789" height="128.843"/>
			<rect x="-913.04" y="573.157" width="120.789" height="128.843"/>
			<rect x="-913.04" y="90" width="120.789" height="128.842"/>
			<rect x="-913.04" y="251.053" width="120.789" height="128.842"/>
			<rect x="-598.987" y="412.105" width="128.843" height="128.843"/>
			<rect x="-437.935" y="251.053" width="120.789" height="128.842"/>
			<rect x="-437.935" y="412.105" width="120.789" height="128.843"/>
			<rect x="-437.935" y="90" width="120.789" height="128.842"/>
			<rect x="-598.987" y="573.157" width="128.843" height="128.843"/>
			<rect x="-598.987" y="251.053" width="128.843" height="128.842"/>
			<rect x="-598.987" y="90" width="128.843" height="128.842"/>
			<rect x="-437.935" y="573.157" width="120.789" height="128.843"/>
		</g>
	</g>
</g>
<g>
	<g>
		<path d="M590.945,90H21.055c-7.72,0-14.036,6.316-14.036,14.037v583.926c0,7.721,6.316,14.037,14.036,14.037h569.89
			c7.721,0,14.037-6.316,14.037-14.037V104.037C604.982,96.316,598.665,90,590.945,90z M145.982,673.927H35.092V556.019h110.89
			V673.927z M145.982,527.945H35.092V410.037h110.89V527.945z M145.982,381.963H35.092V264.055h110.89V381.963z M145.982,235.981
			H35.092V118.073h110.89V235.981z M291.963,673.927H174.055V556.019h117.908V673.927z M291.963,527.945H174.055V410.037h117.908
			V527.945z M291.963,381.963H174.055V264.055h117.908V381.963z M291.963,235.981H174.055V118.073h117.908V235.981z
			 M437.945,673.927H320.036V556.019h117.908V673.927z M437.945,527.945H320.036V410.037h117.908V527.945z M437.945,381.963H320.036
			V264.055h117.908V381.963z M437.945,235.981H320.036V118.073h117.908V235.981z M576.908,673.927H466.018V556.019h110.891V673.927z
			 M576.908,527.945H466.018V410.037h110.891V527.945z M576.908,381.963H466.018V264.055h110.891V381.963z M576.908,235.981H466.018
			V118.073h110.891V235.981z"/>
	</g>
</g>
</svg>
