<?xml version="1.0" encoding="utf-8"?>
<!-- Generator: Adobe Illustrator 16.0.0, SVG Export Plug-In . SVG Version: 6.00 Build 0)  -->
<!DOCTYPE svg PUBLIC "-//W3C//DTD SVG 1.1//EN" "http://www.w3.org/Graphics/SVG/1.1/DTD/svg11.dtd">
<svg version="1.1" id="Capa_1" xmlns="http://www.w3.org/2000/svg" xmlns:xlink="http://www.w3.org/1999/xlink" x="0px" y="0px"
	 width="612px" height="792px" viewBox="0 0 612 792" enable-background="new 0 0 612 792" xml:space="preserve">
<g>
	<g>
		<g>
			<path d="M-589.913,90h-141.914c-9.797,0-17.738,7.942-17.738,17.739v141.913c0,9.797,7.941,17.739,17.738,17.739h141.914
				c9.797,0,17.738-7.942,17.738-17.739V107.739C-572.175,97.942-580.116,90-589.913,90z"/>
			<path d="M-377.044,90h-141.913c-9.797,0-17.739,7.942-17.739,17.739v141.913c0,9.797,7.942,17.739,17.739,17.739h141.913
				c9.798,0,17.739-7.942,17.739-17.739V107.739C-359.304,97.942-367.246,90-377.044,90z"/>
			<path d="M-589.913,302.87h-141.914c-9.797,0-17.738,7.941-17.738,17.739v141.914c0,9.797,7.941,17.739,17.738,17.739h141.914
				c9.797,0,17.738-7.942,17.738-17.739V320.609C-572.175,310.812-580.116,302.87-589.913,302.87z"/>
			<path d="M-377.044,302.87h-141.913c-9.797,0-17.739,7.941-17.739,17.739v141.914c0,9.797,7.942,17.739,17.739,17.739h141.913
				c9.798,0,17.739-7.942,17.739-17.739V320.609C-359.304,310.812-367.246,302.87-377.044,302.87z"/>
			<path d="M-164.174,90h-141.913c-9.798,0-17.739,7.942-17.739,17.739v141.913c0,9.797,7.941,17.739,17.739,17.739h141.913
				c9.797,0,17.739-7.942,17.739-17.739V107.739C-146.434,97.942-154.378,90-164.174,90z"/>
			<path d="M-164.174,302.87h-141.913c-9.798,0-17.739,7.941-17.739,17.739v141.914c0,9.797,7.941,17.739,17.739,17.739h141.913
				c9.797,0,17.739-7.942,17.739-17.739V320.609C-146.434,310.812-154.378,302.87-164.174,302.87z"/>
			<path d="M-589.913,524.608h-141.914c-9.797,0-17.738,7.941-17.738,17.739v141.913c0,9.798,7.941,17.739,17.738,17.739h141.914
				c9.797,0,17.738-7.941,17.738-17.739V542.348C-572.175,532.55-580.116,524.608-589.913,524.608z"/>
			<path d="M-377.044,524.608h-141.913c-9.797,0-17.739,7.941-17.739,17.739v141.913c0,9.798,7.942,17.739,17.739,17.739h141.913
				c9.798,0,17.739-7.941,17.739-17.739V542.348C-359.304,532.55-367.246,524.608-377.044,524.608z"/>
			<path d="M-164.174,524.608h-141.913c-9.798,0-17.739,7.941-17.739,17.739v141.913c0,9.798,7.941,17.739,17.739,17.739h141.913
				c9.797,0,17.739-7.941,17.739-17.739V542.348C-146.434,532.55-154.378,524.608-164.174,524.608z"/>
		</g>
	</g>
</g>
<g id="Grid">
	<path d="M384.451,307.742H227.549c-5.417,0-9.806,4.39-9.806,9.806v156.903c0,5.416,4.39,9.807,9.806,9.807h156.903
		c5.416,0,9.807-4.391,9.807-9.807V317.548C394.258,312.132,389.867,307.742,384.451,307.742z M374.646,464.646H237.355V327.355
		h137.291V464.646z"/>
	<path d="M384.451,92H227.549c-5.417,0-9.806,4.39-9.806,9.807V258.71c0,5.416,4.39,9.806,9.806,9.806h156.903
		c5.416,0,9.807-4.39,9.807-9.806V101.807C394.258,96.39,389.867,92,384.451,92z M374.646,248.903H237.355V111.613h137.291V248.903z
		"/>
	<path d="M384.451,523.484H227.549c-5.417,0-9.806,4.391-9.806,9.806v156.903c0,5.416,4.39,9.807,9.806,9.807h156.903
		c5.416,0,9.807-4.391,9.807-9.807V533.29C394.258,527.875,389.867,523.484,384.451,523.484z M374.646,680.387H237.355v-137.29
		h137.291V680.387z"/>
	<path d="M168.71,307.742H11.807c-5.417,0-9.807,4.39-9.807,9.806v156.903c0,5.416,4.39,9.807,9.807,9.807H168.71
		c5.416,0,9.807-4.391,9.807-9.807V317.548C178.516,312.132,174.126,307.742,168.71,307.742z M158.904,464.646H21.613V327.355
		h137.291V464.646z"/>
	<path d="M168.71,92H11.807C6.39,92,2,96.39,2,101.807V258.71c0,5.416,4.39,9.806,9.807,9.806H168.71
		c5.416,0,9.807-4.39,9.807-9.806V101.807C178.516,96.39,174.126,92,168.71,92z M158.904,248.903H21.613V111.613h137.291V248.903z"
		/>
	<path d="M168.71,523.484H11.807C6.39,523.484,2,527.875,2,533.29v156.903C2,695.609,6.39,700,11.807,700H168.71
		c5.416,0,9.807-4.391,9.807-9.807V533.29C178.516,527.875,174.126,523.484,168.71,523.484z M158.904,680.387H21.613v-137.29
		h137.291V680.387z"/>
	<path d="M600.194,307.742H443.29c-5.416,0-9.806,4.39-9.806,9.806v156.903c0,5.416,4.39,9.807,9.806,9.807h156.903
		c5.416,0,9.807-4.391,9.807-9.807V317.548C610,312.132,605.61,307.742,600.194,307.742z M590.387,464.646h-137.29V327.355h137.29
		V464.646z"/>
	<path d="M600.194,92H443.29c-5.416,0-9.806,4.39-9.806,9.807V258.71c0,5.416,4.39,9.806,9.806,9.806h156.903
		c5.416,0,9.807-4.39,9.807-9.806V101.807C610,96.39,605.61,92,600.194,92z M590.387,248.903h-137.29V111.613h137.29V248.903z"/>
	<path d="M600.194,523.484H443.29c-5.416,0-9.806,4.391-9.806,9.806v156.903c0,5.416,4.39,9.807,9.806,9.807h156.903
		c5.416,0,9.807-4.391,9.807-9.807V533.29C610,527.875,605.61,523.484,600.194,523.484z M590.387,680.387h-137.29v-137.29h137.29
		V680.387z"/>
</g>
</svg>
