<?xml version="1.0" encoding="utf-8"?>
<!-- Generator: Adobe Illustrator 16.0.0, SVG Export Plug-In . SVG Version: 6.00 Build 0)  -->
<!DOCTYPE svg PUBLIC "-//W3C//DTD SVG 1.1//EN" "http://www.w3.org/Graphics/SVG/1.1/DTD/svg11.dtd">
<svg version="1.1" id="Layer_1" xmlns="http://www.w3.org/2000/svg" xmlns:xlink="http://www.w3.org/1999/xlink" x="0px" y="0px"
	 width="16px" height="46px" viewBox="0 0 16 46" enable-background="new 0 0 16 46" xml:space="preserve">
<path fill="#0B4981" d="M13.055,0.991c-6.258,0.625-7.26,6.006-8.331,11.776c-0.406,2.189-0.825,4.437-1.525,6.524l-0.021,0.054
	C2.89,20.205,2.263,22.072,1.072,23c1.191,0.928,1.818,2.794,2.107,3.652l0.017,0.055c0.703,2.088,1.122,4.336,1.528,6.523
	c1.07,5.764,2.071,11.137,8.299,11.774v-0.002H16v0.986h-2.922V46c-7.002-0.6-8.074-6.375-9.225-12.572
	c-0.399-2.147-0.809-4.354-1.491-6.381l-0.017-0.055C2.042,26.088,1.303,23.896,0,23.498L0.125,23L0,22.502
	c1.303-0.397,2.042-2.59,2.343-3.493l0.021-0.054c0.681-2.029,1.09-4.234,1.49-6.382C5.001,6.39,6.07,0.63,13.023,0.005h0.006
	L13.078,0v0.005H16v0.986H13.055z"/>
</svg>
