<?xml version="1.0" encoding="UTF-8"?>
<!DOCTYPE svg PUBLIC "-//W3C//DTD SVG 1.1//EN" "http://www.w3.org/Graphics/SVG/1.1/DTD/svg11.dtd">
<!-- Creator: CorelDRAW 2017 -->
<svg xmlns="http://www.w3.org/2000/svg" xml:space="preserve" width="250px" height="137px" version="1.1" style="shape-rendering:geometricPrecision; text-rendering:geometricPrecision; image-rendering:optimizeQuality; fill-rule:evenodd; clip-rule:evenodd"
viewBox="0 0 234.21 128.34"
 xmlns:xlink="http://www.w3.org/1999/xlink">
 <defs>
  <style type="text/css">
   <![CDATA[
    .str0 {stroke:#114770;stroke-width:0.15}
    .fil8 {fill:none}
    .fil6 {fill:#FEFEFE}
    .fil1 {fill:#ED731D}
    .fil4 {fill:#114770}
    .fil0 {fill:#0B4981}
    .fil7 {fill:#83B735}
    .fil3 {fill:#B89479}
    .fil2 {fill:#FEFEFE}
    .fil5 {fill:white}
   ]]>
  </style>
 </defs>
 <g id="Layer_x0020_1">
  <metadata id="CorelCorpID_0Corel-Layer"/>
  <g id="_2817652226448">
   <path class="fil0" d="M113.14 90.28c-0.3,-0.25 -1.95,-1.32 -1.08,-2.13 0.92,-0.86 1.11,1.52 1.08,2.13zm-1.77 -2.32c-0.22,0.33 -0.36,0.68 -0.88,0.78 -0.54,0.1 -0.89,-0.19 -0.97,-0.64 -0.25,-1.4 1.35,-0.35 1.85,-0.14zm1.02 -0.54c0.12,-0.33 0.12,-0.6 0.21,-0.95 0.21,-0.77 0.11,-0.6 0.8,-0.72 0.69,0.96 -0.05,1.6 -1.01,1.67zm-0.74 -1.25c0.43,0.7 0.34,0.44 0.17,1.27 -1.42,-0.12 -1.75,-1.23 -0.17,-1.27zm10.78 -0.37c1.39,-0.29 1.54,1.01 1.86,2.13 -0.97,-0.24 -2.08,-0.85 -1.86,-2.13zm-2.56 1.15l-0.02 -0.76c0.3,-0.18 -0.2,-0.21 0.75,-0.31 0.31,-0.03 0.76,0.06 1.08,0.11 -0.36,0.88 -0.8,1.23 -1.81,0.96zm-4.27 -1.78c1.02,0.1 0.47,-0.05 0.77,0.39 -0.83,0.45 -0.74,-0.34 -0.77,-0.39zm5.17 -0.51c0.37,-0.58 0.18,-0.56 1.06,-0.56 0.19,0.43 0.51,0.83 -0.02,1.09 -0.66,0.34 -0.95,-0.46 -1.04,-0.53zm1.93 0.56l0.2 -1.73c1.61,-0.23 1.72,1.28 -0.2,1.73zm-14.55 -1.43c0.45,-0.66 1.62,-1.18 2.41,-1.4 -0.11,0.97 -0.1,0.63 -0.94,1.12 -0.86,0.49 -0.76,0.78 -1.47,0.28zm12.24 0.24c-4.12,-1.28 -4.59,0.76 -7.29,0.07 -2.83,-0.72 -2.28,-4.75 0.61,-3.86 0.46,1.05 0.5,1.23 -0.28,1.96 -1.07,-0.14 -0.47,-0.24 -1.27,-0.58 -0.36,4.28 6.4,-0.07 8.23,2.41zm-6.17 -1.11c0.85,-0.79 0.48,-1.15 1.05,-1.65 0.82,-0.74 0.52,0.36 1.03,-1.17l0.14 -0.35c0.02,-0.04 0.06,-0.11 0.09,-0.16 0.64,1.84 -0.07,3.4 -2.31,3.33zm-6.9 -2.63c1.22,-0.34 1.33,0.4 1.33,1.73 -0.59,-0.32 -1.42,-0.78 -1.33,-1.73zm9.76 -0.72c1.13,0.71 2,1.15 2.32,2.76 -1.9,-0.47 -1.63,-1.26 -2.32,-2.76zm-1.3 0.07c-0.61,0.4 -2.57,1.08 -2.34,-0.18 0.1,-0.55 0.61,-0.55 1.17,-0.4l1.17 0.58zm6.58 0.12c-0.02,-0.04 -0.58,0.17 -0.11,-0.66 0.29,-0.5 0.04,-0.14 0.57,-0.28 -0.14,0.53 -0.07,0.79 -0.46,0.94zm-17.75 -0.47c-0.37,-0.38 -0.66,0.57 -0.33,-0.89 0.11,-0.47 0.3,-0.5 0.62,-0.68l-0.29 1.57zm11.58 -1.59c0.19,0.2 0.58,-0.34 0.17,0.96 -0.47,0.1 -0.46,0.24 -0.97,-0.17 -0.48,-0.49 -0.31,0.09 -0.24,-0.82 0.53,-0.25 -0.11,-0.19 0.48,-0.19 1.1,-0.01 0.22,-0.08 0.56,0.22zm-10.87 0.27c0.22,0.33 0.22,0.22 0,0.52 -0.25,-0.31 -0.73,-0.19 0,-0.52zm11.98 1.26c0.49,-0.37 0.48,-0.15 0.96,-0.44 0.64,-0.39 -0.12,-0.28 2.28,-1.73 0.09,2.48 -1.32,2.75 -3.24,2.17zm-3.27 -1.52l0.15 -0.85c0.74,0.84 0.34,0.7 0.01,1.05 -0.55,0.48 -0.3,0.27 -1.07,0.25 0.11,-1.14 0.33,-0.87 0.91,-0.45zm-7.75 0.44l0.47 -1.64c0.15,0.18 0.54,-0.44 0.29,0.87 -0.15,0.78 -0.33,0.61 -0.76,0.77zm1.01 -1.14c0.17,-0.12 -0.56,-0.63 0.52,0l-0.4 0.12c-0.02,-0.01 -0.08,-0.09 -0.12,-0.12zm9.76 1.68c-0.12,-0.37 -0.03,-0.66 -0.17,-1.22 -0.15,-0.6 -0.46,-1.39 0.43,-1.34 0.76,0.04 1.21,1.33 -0.26,2.56zm7.27 -1.27c-0.83,-0.36 -1.3,-1.19 0,-1.28 0.14,-0.01 0.82,0.06 1,0.07 -0.15,0.69 -0.38,0.93 -1,1.21zm-13.1 3.16c-0.81,-1 -1.1,-3.9 2.26,-4.26 -0.21,0.13 -0.05,0.06 -0.48,0.27 -2.71,1.29 -0.1,2.01 -1.78,3.99zm-2.79 -3.73l0.32 -1.68c0.16,0.19 0.6,-0.53 0.36,0.95 -0.11,0.66 -0.62,0.68 -0.68,0.73zm7.16 -1.39c0.84,0.32 0.67,0.48 0.26,1.15l-0.4 -0.55c-0.07,-0.57 -0.17,-0.29 0.14,-0.6zm-6.18 0.24c-0.01,-0.92 0.43,-0.39 0.36,-0.08 -0.11,0.55 -0.35,0.19 -0.36,0.08zm15.11 -1.29c0.86,0.1 1.15,0.41 0.93,1.11 -0.67,0.24 -0.52,0.17 -1.13,-0.04l0.2 -1.07zm-4.7 2.23c-2.14,0.41 -1.98,-1.72 -0.99,-2.28 1.39,-0.8 2.74,0.35 3.06,1.39 0.45,1.5 -0.21,2.87 -0.66,4.07 -0.85,2.29 -0.34,1.76 -0.32,3.83 -1.04,-1.54 -0.47,-2.76 0.06,-4.49 0.54,-1.75 0.84,-4.18 -1.44,-4.1 0.26,0.65 0.47,0.77 0.29,1.58zm-9.22 -1.22c-0.04,-0.81 -0.06,-1.25 0.4,-1.83 0.42,0.65 0.04,1.38 -0.4,1.83zm1.05 -1.65c0.37,0.54 0.12,0.24 0,0.51 -0.03,-0.05 -0.12,-0.18 -0.12,-0.14 0,0.03 -0.05,-0.11 -0.05,-0.13l0.17 -0.24zm2.49 1.69c0.78,-2.46 2.28,-2.09 4.84,-1.82 -0.39,0.99 -1.52,0.97 -2.5,0.72 -1.85,-0.46 -1.34,0.67 -2.34,1.1zm-1.4 -3.71c0.57,0.52 0.21,1.53 -0.02,1.99l-0.14 -0.29c-0.14,-0.79 0,-1 0.16,-1.7zm-9.4 5.92c0.21,-0.63 -0.06,-0.3 0.81,-0.74 0.4,-0.2 0.6,-0.31 1,-0.53 2.55,-1.43 2.63,-1.66 4.67,-3.2 0.64,-0.48 1.33,-0.75 1.04,0 -0.08,0.21 -0.25,0.34 -0.37,0.45l-2.95 2.09c-0.67,0.42 -3.27,2.36 -4.2,1.93zm0.8 -3.68c0.51,0.46 1.02,0.38 1.42,0 0.57,-0.55 0.42,-1.1 0.5,-1.89 0.49,0.76 0.68,0.68 1.26,1.2 -0.71,3.27 -4.98,1.87 -3.84,-0.05 0.43,-0.72 0.92,-0.67 1.55,-0.17 -0.47,0.3 -0.12,-0.19 -0.68,0.18 -0.39,0.25 -0.31,0.25 -0.21,0.73zm9.34 -1.95c0.34,0.26 0.34,-0.37 0.27,0.53 -1.23,0.35 -0.34,0.04 -0.61,-0.22l0.34 -0.31zm7.22 1.41c0.67,-0.99 1.06,-1.89 1.84,-2.08 0.08,0.77 -0.14,0.88 -0.52,1.37 -0.45,0.56 -0.5,0.95 -1.32,0.71zm-6.03 -1.47l-0.35 -0.15 0.07 -1.58c0.42,0.35 0.31,-0.61 0.44,0.64 0.04,0.38 -0.09,0.73 -0.16,1.09zm5.93 -0.27c-0.43,-0.1 -2.53,-0.43 -1.76,-1.3 0.88,-1 1.54,0.76 1.76,1.3zm-20.57 -2.04c0.37,0.7 0.3,0.66 -0.17,1.22 -0.45,0.01 -1.02,0.1 -1.01,-0.63 0.02,-0.72 0.49,-0.75 1.18,-0.59zm1.63 1.1l-0.91 -0.06 -0.07 -1.11c2.08,-0.28 0.98,1.16 0.98,1.17zm-4.13 -0.75c-0.44,0.73 -0.77,0.74 -1.43,0.51 0.16,-0.24 -0.08,-0.37 0.65,-0.61 0.79,-0.26 0.71,0.07 0.78,0.1zm-0.04 0.71c1.17,0.2 1.61,1.87 3.84,1.2 2.11,-0.63 1.69,-2.57 2.02,-3.41 0.23,0.25 0.18,-0.04 0.29,0.43 0.84,3.65 -5.16,4.93 -6.15,1.78zm18.62 -0.58l-0.16 -1.43c0.12,-0.48 0.1,-0.23 0.29,-0.45 0.38,0.68 0.33,1.28 -0.13,1.88zm-16.06 -1.22c0.44,-0.64 0.32,-0.59 0.73,0 -0.51,0.35 0.64,0.25 -0.3,0.17 -0.42,-0.03 -0.12,0.04 -0.43,-0.17zm-1.63 0.13c-0.42,-1.23 0.33,-1.43 1.14,-0.93 0.14,0.94 -0.15,1.27 -1.14,0.93zm18.48 -0.76c0.53,0.79 0.09,0.29 0,0.52 -0.32,-0.41 -0.62,0.86 -0.13,-0.4 0.01,-0.02 0.08,-0.09 0.13,-0.12zm-15.76 -0.34c2.05,-0.89 1.5,1.72 0.33,0.95 -0.35,-0.24 -0.28,-0.52 -0.33,-0.95zm-5.84 -0.94c1.13,0.07 0.79,0.51 0.8,1.71 -0.67,-0.27 -1.1,-0.65 -0.8,-1.71zm14.08 5.38c-2.63,1.77 -5.84,-4 -3.63,-5.49 0.43,0.79 -0.76,2.19 1.03,3.39 1.35,0.91 1.63,0.67 2.6,2.1zm-9.8 -5.25c0.96,-0.58 1.54,-0.38 1.14,0.9l-0.86 0.02 -0.28 -0.92zm22.28 -1.25c-0.07,1.62 0.95,2.06 0.28,2.96 -0.76,-0.89 -1.36,-1.95 -0.28,-2.96zm-3.84 0.63c0.27,-0.24 0.23,-0.2 0.54,0l-0.54 0zm-0.43 -0.39c0.5,0.74 0.49,1.12 0.2,1.93 -0.14,-0.22 -0.04,0.17 -0.23,-0.47 -0.33,-1.06 -0.09,-1.09 0.03,-1.46zm-11.27 0.39c1.23,-1.15 2.85,-0.24 3.89,0.79 1.25,1.23 1.72,1.71 1.01,3.63 -0.62,-0.4 -0.18,-0.09 -0.61,-0.54 -1.38,-1.49 -0.81,-2.64 -2.26,-3.41 -0.78,-0.42 -1.36,-0.09 -2.03,-0.47zm-1.75 -1.2c1.02,-0.38 1.27,-0.04 1.05,0.82 -0.04,0.03 -0.16,0.53 -0.84,0.07 -0.31,-0.2 -0.29,-0.51 -0.21,-0.89zm14.26 -1.19c0.44,0.42 0.89,1.01 0.25,1.66 -0.3,-0.69 -0.35,-0.91 -0.25,-1.66zm-6.3 2.71c-0.68,-0.44 -0.39,-0.14 -0.43,-1.08 2.99,-2.08 3.57,2.87 0.21,3.31l-0.94 -1.49c3.19,0.52 2.47,-2.14 1.49,-1.62 -0.75,0.4 -0.02,0.5 -0.33,0.88zm-15.73 2.6c-0.78,-1.57 0.76,-3.43 2.08,-4.35 1.04,-0.71 5,-1.15 5.08,0.47 -2.58,-0.89 -4.47,-1.29 -6.34,1.55 -0.76,1.17 -0.11,1.44 -0.82,2.33zm22.62 -5.11c-0.03,-0.77 0.44,-0.31 0.38,-0.04 -0.12,0.48 -0.37,0.45 -0.38,0.04zm-10.73 -1.04c-0.36,0.21 0.5,0.33 -0.54,0.21 -0.67,-0.07 -0.26,0.01 -0.46,-0.21 -0.21,-0.23 -0.22,-0.65 0.03,-0.91 0.51,-0.53 1.4,-0.15 0.97,0.91zm-6.33 -0.27c0.95,-0.91 1.16,-0.17 1.3,0.98 -0.98,-0.15 -1.09,-0.15 -1.3,-0.98zm10.38 8.72c-0.05,0.03 -0.12,0.01 -0.14,0.08 -0.02,0.07 -0.12,0.07 -0.14,0.09l-0.7 0.56c-0.34,0.12 -0.88,-0.07 0.3,-1.18 3.18,-3 4.21,-4.86 6.32,-8.32 0.57,-0.94 0.02,-0.41 0.7,-0.56 0.34,0.63 -0.55,1.78 -0.97,2.48 -1.01,1.7 -2.98,4.33 -4.39,5.67 -0.47,0.45 -0.77,0.63 -0.98,1.18zm-3.11 -9.64c0,0 -0.08,-0.36 0.98,0 0.14,0.56 0.14,0.62 -0.11,1.07 -1.06,0.1 -1.34,-0.32 -0.87,-1.07zm-0.49 -0.16c-0.6,-0.28 -0.59,-0.06 -0.33,-0.71 0.46,0.22 0.59,-0.34 0.33,0.71zm-1.03 -0.28c-3.01,0.51 0.36,-2.88 0,0zm1.69 -1.36c0.63,-0.18 0.59,-0.17 1.21,0.05l-0.03 1.06c-1.27,0.38 -1.5,-0.17 -1.18,-1.11zm-9.58 0.76c0.56,-0.34 0.21,-0.41 0.68,0 -0.71,0.62 -0.44,0.15 -0.68,0zm1.11 0.17c-0.33,-0.6 -0.42,-1 0.05,-1.64 0.37,0.51 0.39,1.03 -0.05,1.64zm12.6 -1c1.37,0.17 2.38,2.59 2.2,4.44 -0.5,-0.52 -1.06,-0.91 -1.4,-1.92 -0.31,-0.94 -0.53,-1.76 -0.8,-2.52zm-4.7 0.39c-0.63,0.52 -1.6,-0.44 -0.87,-1.11 0.7,-0.64 1.67,0.46 0.87,1.11zm5.71 -0.66c1.64,0.11 2.33,0.36 2.78,1.54l-1.33 0.01c-0.55,-0.66 -1.07,-0.93 -1.45,-1.55zm-6.61 4.87l-0.37 -0.23 0.42 -0.3c2.15,-0.02 2.7,0.12 3.44,-1.54 0.94,-2.09 -0.41,-2.54 -0.64,-3.91 0.6,0.3 0.98,0.8 1.25,1.66 0.48,1.53 -0.16,3.19 -1.47,4.01 -0.72,0.44 -1.73,0.38 -2.63,0.31zm-6.07 -5.72c0.26,0.28 0.5,-0.76 0.12,0.41 -0.01,0.04 -0.09,0.11 -0.12,0.17 -0.1,-0.19 -0.67,0.34 0,-0.58zm10.01 -0.45c1.2,0.03 1.43,-0.2 1.62,0.95 -1.24,0.28 -1.08,-0.23 -1.62,-0.95zm-7.39 5.93c-1.2,-1.39 -0.37,-3.95 0.55,-5.17 0.57,-0.74 3,-2.4 4.61,-1.42 -0.37,0.96 -1.89,-0.73 -4.12,1.69 -2.01,2.19 -0.48,3.84 -1.04,4.9zm5.5 -5.77c-0.01,-0.59 -0.04,-0.47 0.19,-1.01l0.65 -0.86c0.43,0.78 -0.15,1.69 -0.84,1.87zm-2.7 -2.35c0.58,-0.39 0.8,-0.67 1.54,0.68 -1.95,0.08 -1.38,-0.43 -1.54,-0.68zm4.65 -1.28c0.37,0.1 0.46,0.07 0.73,0.31 0.51,0.45 0.25,0.12 0.36,0.75 -1,0.49 -1.36,0.01 -1.09,-1.06zm-1.68 -0.6l1.18 -0.17 0.13 1.03c-0.74,0.34 -1.57,0.43 -1.31,-0.86zm-13.06 9.35l0.04 0.07c0.73,-0.04 0.69,-0.13 1.31,-0.5l-0.11 -0.63 -0.5 -0.22c0.28,-0.59 -0.26,-0.24 0.51,-0.51l0.38 0.15c0.08,-0.92 -0.05,-0.94 0.37,-1.46 0.21,0.31 0.14,-0.1 0.21,0.46l-0.24 1.5 0.12 0.2c0.83,-0.41 0.87,-1.1 1.83,-0.98 0.07,0.84 -1.06,1.38 -1.74,1.8 -2.61,1.62 -5.15,2.68 -8.29,3.08l6.54 6.04c1.23,1.12 5.25,5.19 5.95,6.75 2.58,-0.73 6.57,-3.9 8.3,-5.22 0.11,0.11 0.3,0.25 0.43,0.36 -0.38,1.15 -6.34,4.89 -8.04,5.43 0.47,1.24 1.66,2.65 2.37,4.19 2.64,5.67 2.85,11.14 0.47,16.8 -1.44,3.41 -3.4,5.72 -5.44,7.89 -0.95,1.02 -2.3,2.28 -3.56,3.21 -0.45,0.33 -3.67,2.55 -3.83,2.78 13.58,0.93 23.94,-8.88 28.44,-16.4 6.22,-10.43 6.05,-22.44 -0.42,-32.76 -0.15,-0.23 -0.28,-0.46 -0.5,-0.81l-0.71 -0.82c-0.47,0.54 -1.39,2.13 -1.79,2.78 -0.39,0.62 -0.57,1.02 -0.94,1.47 -0.76,0.94 -4.38,5.71 -5.36,5.73 -1.54,0.02 0.94,-1.37 1.28,-2.35 0.59,-0.3 1.32,-1.25 1.77,-1.77 1.55,-1.77 3.55,-4.6 4.49,-6.74 -1.85,-3.09 -5,-5.42 -5.7,-6.56 -0.81,0.3 -2.51,1.49 -3.5,0.67 0.82,-0.58 1.9,-0.04 2.91,-1.08l-4.52 -3.96c-0.66,-0.51 -0.02,-0.34 -0.76,-0.37 -0.97,4 1.54,4.32 0.94,4.92 -0.13,0.08 0.25,0.48 -0.47,-0.09 -0.94,-0.75 -1.39,-2.7 -1.12,-4.16 0.21,-1.18 0.59,-0.9 -0.12,-1.58 -0.39,0.47 -0.74,2.94 -2.52,5.97 -0.58,1.01 -2.9,4.24 -3.97,4.65 -0.38,-0.8 -0.6,-0.17 0.82,-1.69 0.64,-0.68 1.11,-0.98 1.38,-1.82l0.19 -0.39 -0.4 -0.1c-1.05,-0.04 -0.29,0.06 -0.6,-0.31 0.32,-0.44 0.01,-0.35 0.54,-0.3l0.13 -0.17 -0.24 -1.26 -0.09 -0.09c-1.89,3.28 0.06,1.76 -0.74,3.97 -0.43,-0.62 -0.39,-1.23 -0.36,-2.14 -1.22,1.17 -1.64,2.03 -2.53,2.26 -0.32,-1.02 -0.2,-0.37 1.51,-2.38 0.62,-0.74 1.23,-1.62 1.69,-2.47 1.03,-1.9 1.81,-4.27 1.97,-6.69 -4.16,-3.08 -9.45,-9.26 -11.67,-13.85 -14.54,-30.2 36.02,-26.13 30.75,-8.1 -4.12,-0.78 -5.36,-3.52 -8.2,-5.28 -4.17,-2.59 -8.54,-0.66 -10.82,2.09 -2.43,2.94 -2.11,8.46 -0.04,11.83 3.53,5.73 9.46,7.51 15.57,3.5 0.84,-0.55 1.66,-1.14 2.28,-1.67 20.06,-17.3 -12.15,-39.46 -34.37,-24.1 -14.94,10.33 -18.04,27.14 -8.27,42.48 1.15,1.8 5.98,8.01 7.25,8.33 5.03,1.23 11.26,-3.53 11.72,-3.69 0.23,0.38 0.07,0.08 0.36,0.68 -0.34,0.13 -1.4,0.74 -1.71,1.1 -0.44,0.5 -0.52,1.64 -0.63,2.33z"/>
   <path class="fil1" d="M99.39 103.54c-5.16,0.99 -7.65,3.45 -13.74,3.46 -5.49,0 -9.7,-1.65 -13.4,-3.9 -2.27,-1.38 -2.99,-2.21 -4.85,-3.89 -1.11,-1.01 -2.71,-3.2 -3.68,-4.85 -10.24,-17.38 7.58,-31.07 17.7,-21.86 6.98,6.36 4.92,18.25 -5.33,20.79 6.41,0.99 15.51,-5.28 16.08,-14.09 0.56,-8.76 -6.23,-16.02 -11.52,-18.8 -7.31,-3.85 -17.75,-2.82 -24.44,1.16 -22.84,13.6 -19.67,45.57 2.91,56.63 10.83,5.3 25.53,2.05 34.08,-5.87 1.75,-1.62 6.16,-6.2 6.19,-8.78z"/>
   <path class="fil0" d="M177.42 111.59c-0.69,1.39 -6.53,4.49 -10.84,3.76 -1.42,-0.24 -2.45,-1.15 -1.65,-2.53 3.71,-6.43 13.82,-3.91 12.49,-1.23zm11.38 -25.1c4.5,3.89 7.72,7.95 13.5,5.35 1.19,-0.53 3.53,-2.14 3.85,-2.67l0.01 6.41 -17.45 0.01 0.09 -9.1zm12.37 -12.22c3.52,-0.62 7.53,3.3 4.23,8.44 -5.34,8.3 -13.73,5.63 -15.17,3.11 -2.17,-3.8 6.82,-10.82 10.94,-11.55zm-54.23 36.43c0.42,-0.21 0.23,0.01 0.54,-0.29 1.12,-7.59 9.42,-8.46 11.71,-5.78 2.75,3.23 -2.52,8.85 -9.19,10.08 0.73,0.8 2.77,3.1 3.82,3.57 0.84,0.08 6.33,-3.46 7.2,-8.09 1.46,-7.8 -4.79,-8.64 -5.09,-9.58l0.02 -2.61 10.04 0.05c0.03,1.39 0.06,2.94 0.02,4.32 -0.06,2.31 -1.2,0.59 -0.8,3.19 2.52,-0.79 3.91,-1.75 7,-2.03 3.34,-0.3 5.42,0.14 5.37,3.6 -1.53,-0.63 -1.94,-1.16 -4.09,-1.26 -4.67,-0.24 -9.76,2.63 -10.26,6.12 -0.45,3.13 2.54,5.16 5.17,5.69 3.11,0.63 6.69,-0.18 8.75,-1.74 0.74,0.62 0.03,0.67 1.72,1.35 0.73,0.3 1.26,0.57 1.96,0.72 0.09,-3.32 0.31,-11.73 -0.7,-14.44 -1.71,-4.65 -9.31,-2.34 -11.44,-2.3l0.01 -3.27 15.84 0.05 0.1 18.67 3.84 1.95c0.26,-6.46 -1.09,-11.18 2.91,-15 1.05,-1 3.98,-3.37 6.04,-1.44 1.88,1.78 -1.56,4 -3.49,4.26 0.96,1.37 1.99,2.27 2.84,3.53 2.25,-0.68 6.62,-4.76 2.33,-7.95 -3.59,-2.67 -6.93,-1.23 -10.38,0.46l0.01 -4.53 17.41 0.09c0.05,3.09 0.01,6.2 0.01,9.29 0,3 -0.52,6.32 1.07,8.41 3.19,4.22 9.85,1.62 11.29,-3.25 -1.12,-0.4 -3.09,-1.97 -4.08,-2.06 -0.02,2.12 -0.25,4.74 -1.78,5.71 -2.62,1.67 -2.82,-1.67 -2.82,-3.56 0.02,-4.84 -0.06,-9.71 0.01,-14.61l10.3 -0.1 0 -2.32 -10.31 -0.11c0,-5.47 0.76,-3.57 -3.32,-6.66 0.75,-1.29 1.56,-1.92 2.22,-3.87 1.72,-5.08 -1.34,-9.65 -4.8,-12.41 -5.03,-4.01 -8.73,-0.83 -12.24,2.36 -0.89,0.81 -2.08,2.42 -3.09,2.99l0 -6.2 -4.04 0 0 23.88 -53.45 0.03 0 2.39 21.16 0c0.01,3.34 0.15,2.65 -1.09,3.03l-3.6 1.46c-1.04,0.42 -1.41,-0.12 -2.24,-0.62 -4.34,-2.62 -9.25,-1.45 -11.98,1.68 -5.63,6.46 3.9,13.77 8.69,14.8 -1.34,-2.42 -6.43,-4.59 -6.16,-9.44 0.28,-4.81 6.54,-7.04 8.94,-5.02 0.03,1.18 -1.62,2.69 -1.7,5.21l3.8 1.6z"/>
   <path class="fil0" d="M127.18 46.7c5.19,4.94 8.15,9.23 8.19,17.64l-2.84 0 0 3.08 2.85 0.07 0.01 22.63c0.46,0.61 4.06,2.52 4.82,2.78 0.18,-3.96 -0.79,-10.39 0.97,-13.45 1.35,-2.33 4.88,-5.57 8.34,-6.06 4.84,-0.68 6.28,3.98 5.45,8.5 -0.38,2.1 -1.25,3.6 -2.34,4.86l-3.36 3.91 4.35 2.49c0.86,-0.79 2.5,-2.37 3.2,-3.3 6.03,-8.06 0.3,-18.72 -7.8,-18.95 -2.77,-0.08 -5.12,0.94 -6.88,2.74 -0.26,0.26 -0.47,0.5 -0.75,0.76 -0.18,0.18 -0.27,0.27 -0.5,0.43 -0.4,0.29 0.12,0.01 -0.51,0.3l0.02 -7.71 33.29 -0.02 0 -3.06 -33.32 -0.09c-0.05,-3.83 -1.13,-7.76 -2.54,-10.79 -3.65,-7.79 -5.75,-6.82 -10.65,-6.76z"/>
   <path class="fil1" d="M167.14 60.77c0.99,0.2 1.22,0.3 1.56,0.97l0.35 -0.81c-1.88,-7.45 -4.04,-13.44 -12.36,-16.74 -5.73,-2.27 -9.55,-3.82 -12.64,-8.98 -1.16,-1.95 -1.28,-3.3 -1.9,-5.53 -1.56,8.89 -0.91,17.53 3.96,23.13 3.09,3.57 9.64,5.97 14.73,6.88 1.89,0.34 4.77,0.48 6.3,1.08z"/>
   <path class="fil1" d="M167.3 45.77c0.74,1.25 1.99,2.36 2.97,3.65 3.77,4.99 4.19,9.61 4.19,15.58 0,8.7 0,17.41 -0.03,26.18l4.47 2.18c0.18,-9.89 0.02,-21.36 0.02,-31.42 0,-3.37 -0.61,-6.55 -1.74,-9.38 -1.58,-3.97 -3,-4.71 -4.35,-6.78l-5.53 -0.01z"/>
   <path class="fil0" d="M36.72 44.01l3.19 0.09 0.21 4.01c1.98,0.52 2.42,0.75 4,1.35 0.87,-2.32 -0.16,-0.38 1.31,-3.28 2.01,0.45 5.14,2.55 6.53,3.58 1.57,1.17 4.04,4.17 5.58,4.75 -0.49,-5.47 1.21,-5.74 -2.96,-8.69 -1.97,-1.4 -5.09,-3.27 -7.63,-4.2l0.61 -3.59c-1.33,-0.23 -2.69,-1.01 -4.07,-1.01 -0.7,0.92 -1.71,2.26 -2.1,3.13 -5.57,-1.05 -8.72,-1.67 -14.84,-0.18 -1.59,0.38 -3.01,1.04 -4.36,1.36 2.15,6.23 3.09,3.59 7.92,2.84 2.44,-0.38 4.26,-0.06 6.61,-0.16z"/>
   <path class="fil2" d="M201.17 74.27c-4.12,0.73 -13.11,7.75 -10.94,11.55 1.44,2.52 9.83,5.19 15.17,-3.11 3.3,-5.14 -0.71,-9.06 -4.23,-8.44z"/>
   <path class="fil1" d="M14.05 67.37l2.17 4.35c4.27,-1.79 10.54,-7.29 16.62,-7.91 3.12,-0.32 4.48,0.55 7,1.22l-1.37 -5.74c-7.84,-1.84 -12.36,1.58 -18.97,5.09l-5.45 2.99z"/>
   <path class="fil1" d="M51.79 41.84c0.52,0.52 1.1,0.99 1.62,1.44 0.65,0.56 1.12,0.77 1.59,1.39 2.42,-1.57 2.16,-5.71 9.87,-9.85 1.57,-0.84 2.96,-1.87 4.23,-2.5l-1.97 -4.04c-5.32,1.23 -13.52,7.93 -15.34,13.56z"/>
   <polygon class="fil0" points="179.76,67.42 211.3,67.42 211.3,64.34 179.82,64.34 "/>
   <path class="fil0" d="M164.11 91.03l3.87 2.15c0.25,-0.32 0.14,0.3 0.27,-0.64l-0.01 -21.73 -4.13 0 0 20.22z"/>
   <path class="fil2" d="M188.71 95.59l17.45 -0.01 -0.01 -6.41c-0.32,0.53 -2.66,2.14 -3.85,2.67 -5.78,2.6 -9,-1.46 -13.5,-5.35l-0.09 9.1z"/>
   <path class="fil1" d="M32.67 37.74l4.81 -0.16c0.85,-1.18 2.28,-5.24 4.83,-8.49 0.73,-0.93 1.56,-1.73 2.1,-2.54l-2.4 -4.4c-0.26,0.17 -0.16,0.09 -0.4,0.33 -0.02,0.02 -0.37,0.43 -0.41,0.47l-1.97 2.62c-2.55,3.37 -5.9,7.52 -6.56,12.17z"/>
   <path class="fil1" d="M31.47 65.41c1.12,2.91 5.49,13.59 7.03,15.12 2.08,-7.99 2.71,-4.87 0.15,-10.03 -2.2,-4.44 -1,-6.57 -7.18,-5.09z"/>
   <path class="fil1" d="M35.97 53.42c1.25,0.83 4.9,1.4 6.62,2.22 1.76,0.83 3.79,2.65 5.44,3.2 0.61,-7.65 -5.41,-10.09 -11.71,-9.55l-0.35 4.13z"/>
   <path class="fil2" d="M177.42 111.59c1.33,-2.68 -8.78,-5.2 -12.49,1.23 -0.8,1.38 0.23,2.29 1.65,2.53 4.31,0.73 10.15,-2.37 10.84,-3.76z"/>
   <path class="fil0" d="M40.61 34.48l11.18 3.55c0.67,-0.45 2.32,-2.68 2.74,-3.4 -1.47,-1.66 -8.43,-4.08 -11.49,-4.2 -0.58,1.54 -1.81,2.47 -2.43,4.05z"/>
   <path class="fil1" d="M29.7 53.64l0.4 4.26 4.39 -0.92c0.12,-2.06 -0.02,-3.98 0.07,-5.96 0.09,-1.83 0.59,-3.79 0.34,-5.61 -1.02,-0.01 -2.2,0.01 -3.22,0.05 -1.3,0.06 -1.34,0.53 -1.51,1.85 -0.18,1.45 -0.62,5 -0.47,6.33z"/>
   <path class="fil0" d="M43.47 69.08l3.45 -4.08c-1.44,-4.9 -1.97,-7.34 -6.93,-8.71 -0.61,3.14 1.92,10.82 3.48,12.79z"/>
   <path class="fil0" d="M18.16 54.28c0.37,1.18 1.21,3.17 1.95,4.02l8.35 -3.95 -0.15 -4.33c-3.14,-0.65 -8.22,3.19 -10.15,4.26z"/>
   <path class="fil0" d="M50.92 61.75l4.16 -2.43c-0.2,-0.96 -0.55,-1.72 -0.77,-2.73 -0.53,-2.39 -0.64,-5.24 -4.9,-6.24 -0.33,3.05 -0.36,7.88 1.15,10.85l0.26 0.42c0.02,0.03 0.06,0.09 0.1,0.13z"/>
   <path class="fil0" d="M89.04 99.83c-0.15,-0.99 -1.38,-0.66 -2.2,-3.25 -0.59,-1.86 -0.21,-3.21 0.1,-4.97 -0.86,0.47 -1.47,1.05 -2.4,1.55 -1.48,0.81 -2.24,0.62 -2.77,1.19 1.16,2.6 3.44,6.18 7.27,5.48z"/>
   <path class="fil0" d="M77.35 82.04c0.56,-1.39 -0.24,-2.73 -1.23,-3.14 -1.41,-0.58 -2.83,0.18 -3.25,1.29 -1.21,3.25 3.38,4.59 4.48,1.85z"/>
   <path class="fil3" d="M146.94 110.7c0.24,0.15 0.04,0.13 0.37,0 0.25,-0.1 0.11,0.08 0.17,-0.29 -0.31,0.3 -0.12,0.08 -0.54,0.29z"/>
   <g>
    <path class="fil4" d="M105.1 55.19c0.56,0.68 0.29,0.24 0,0.59 -0.22,-0.23 -0.74,-0.03 0,-0.59zm0.22 -1.42c0.49,0.53 0.46,0.72 0.54,1.48 -0.27,-0.21 -0.35,0.02 -0.61,-0.73 -0.1,-0.26 -0.11,-0.58 0.07,-0.75zm1.09 -0.74c-0.09,0.28 0.04,0.45 -0.29,0.52 -0.63,0.14 -0.26,-0.15 -0.36,-0.35l0.65 -0.17zm0 0c-0.36,-0.87 -0.44,-0.55 -0.56,-1.72l0.34 0.28c0.36,0.35 0.78,0.51 0.58,1.84l-0.36 -0.4zm-0.03 -2.01c0.03,-0.03 -0.31,-0.9 0.62,0 -0.67,0.46 -0.42,0.11 -0.62,0zm-2.03 4c-0.08,0.54 -0.11,0.34 0.13,0.79l0.13 0.68 0.55 0.88c0.99,-1.81 2.52,-4.38 2.57,-6.79 -0.21,-0.57 -1.1,-1.05 -1.54,-1.19 -0.03,0.05 -0.07,0.07 -0.08,0.16l-0.2 0.5c-0.06,0.24 -0.08,0.51 -0.12,0.75 -0.28,1.8 -1.2,2.94 -1.44,4.22z"/>
    <path class="fil4" d="M92.21 65.4c-0.43,-0.16 -0.22,0.1 -0.42,-0.26 -0.42,-0.79 0.03,-0.19 0.3,-0.41l0.12 0.67zm1.77 -0.84c0.38,-0.36 -0.18,-0.13 0.35,-0.2 0.63,-0.08 -0.05,-0.09 0.23,0.2 -0.63,0.46 -0.17,0.27 -0.58,0zm0.87 0.36c0.15,-0.78 0.13,-1.07 0.83,-1.48 -0.19,0.93 -0.21,1.11 -0.83,1.48zm1.73 -1.59c0.64,0.9 0.08,0.5 0,0.64 -0.05,-0.04 -0.11,-0.11 -0.12,-0.15 -0.35,-0.95 -0.04,-0.34 0.12,-0.49zm-2.61 0.23c-0.06,0.2 -0.12,0.37 -0.2,0.56 -0.02,0.04 -0.1,0.19 -0.11,0.16 -0.02,-0.04 -0.08,0.09 -0.12,0.14 -0.42,0.86 -0.44,0.85 -1.2,1.42l-0.13 -0.44 0.84 -1.2 0 -0.3 -1.55 0.12c-0.22,0.87 -0.34,1.4 -1.25,1.88 0.68,0.94 4.49,-0.39 5.72,-0.87 0.62,-0.25 1.19,-0.5 1.66,-1.01l-0.04 -0.07c-0.31,0.2 -0.32,0.04 -0.65,0.24l0.62 -2.06 -3.59 1.43z"/>
    <path class="fil5" d="M120.39 84.03c-1.83,-2.48 -8.59,1.87 -8.23,-2.41 0.8,0.34 0.2,0.44 1.27,0.58 0.78,-0.73 0.74,-0.91 0.28,-1.96 -2.89,-0.89 -3.44,3.14 -0.61,3.86 2.7,0.69 3.17,-1.35 7.29,-0.07z"/>
    <path class="fil5" d="M119.82 76.64c0.18,-0.81 -0.03,-0.93 -0.29,-1.58 2.28,-0.08 1.98,2.35 1.44,4.1 -0.53,1.73 -1.1,2.95 -0.06,4.49 -0.02,-2.07 -0.53,-1.54 0.32,-3.83 0.45,-1.2 1.11,-2.57 0.66,-4.07 -0.32,-1.04 -1.67,-2.19 -3.06,-1.39 -0.99,0.56 -1.15,2.69 0.99,2.28z"/>
    <path class="fil5" d="M112.74 71.75c0.21,-0.55 0.51,-0.73 0.98,-1.18 1.41,-1.34 3.38,-3.97 4.39,-5.67 0.42,-0.7 1.31,-1.85 0.97,-2.48 -0.68,0.15 -0.13,-0.38 -0.7,0.56 -2.11,3.46 -3.14,5.32 -6.32,8.32 -1.18,1.11 -0.64,1.3 -0.3,1.18l0.7 -0.56c0.02,-0.02 0.12,-0.02 0.14,-0.09 0.02,-0.07 0.09,-0.05 0.14,-0.08z"/>
    <path class="fil5" d="M109.38 72.4c-0.97,-1.43 -1.25,-1.19 -2.6,-2.1 -1.79,-1.2 -0.6,-2.6 -1.03,-3.39 -2.21,1.49 1,7.26 3.63,5.49z"/>
    <path class="fil5" d="M110.21 67.32c-1.04,-1.03 -2.66,-1.94 -3.89,-0.79 0.67,0.38 1.25,0.05 2.03,0.47 1.45,0.77 0.88,1.92 2.26,3.41 0.43,0.45 -0.01,0.14 0.61,0.54 0.71,-1.92 0.24,-2.4 -1.01,-3.63z"/>
    <path class="fil5" d="M104.14 73.99c-0.1,-0.48 -0.18,-0.48 0.21,-0.73 0.56,-0.37 0.21,0.12 0.68,-0.18 -0.63,-0.5 -1.12,-0.55 -1.55,0.17 -1.14,1.92 3.13,3.32 3.84,0.05 -0.58,-0.52 -0.77,-0.44 -1.26,-1.2 -0.08,0.79 0.07,1.34 -0.5,1.89 -0.4,0.38 -0.91,0.46 -1.42,0z"/>
    <path class="fil5" d="M112.53 66.85c0.31,-0.38 -0.42,-0.48 0.33,-0.88 0.98,-0.52 1.7,2.14 -1.49,1.62l0.94 1.49c3.36,-0.44 2.78,-5.39 -0.21,-3.31 0.04,0.94 -0.25,0.64 0.43,1.08z"/>
    <path class="fil5" d="M103.34 77.67c0.93,0.43 3.53,-1.51 4.2,-1.93l2.95 -2.09c0.12,-0.11 0.29,-0.24 0.37,-0.45 0.29,-0.75 -0.4,-0.48 -1.04,0 -2.04,1.54 -2.12,1.77 -4.67,3.2 -0.4,0.22 -0.6,0.33 -1,0.53 -0.87,0.44 -0.6,0.11 -0.81,0.74z"/>
    <path class="fil5" d="M104.88 64.6c0.56,-1.06 -0.97,-2.71 1.04,-4.9 2.23,-2.42 3.75,-0.73 4.12,-1.69 -1.61,-0.98 -4.04,0.68 -4.61,1.42 -0.92,1.22 -1.75,3.78 -0.55,5.17z"/>
    <path class="fil5" d="M96.8 69.45c0.71,-0.89 0.06,-1.16 0.82,-2.33 1.87,-2.84 3.76,-2.44 6.34,-1.55 -0.08,-1.62 -4.04,-1.18 -5.08,-0.47 -1.32,0.92 -2.86,2.78 -2.08,4.35z"/>
    <path class="fil5" d="M97.49 70.73c0.99,3.15 6.99,1.87 6.15,-1.78 -0.11,-0.47 -0.06,-0.18 -0.29,-0.43 -0.33,0.84 0.09,2.78 -2.02,3.41 -2.23,0.67 -2.67,-1 -3.84,-1.2z"/>
    <path class="fil5" d="M108.38 64.31l-0.05 0.53c0.9,0.07 1.91,0.13 2.63,-0.31 1.31,-0.82 1.95,-2.48 1.47,-4.01 -0.27,-0.86 -0.65,-1.36 -1.25,-1.66 0.23,1.37 1.58,1.82 0.64,3.91 -0.74,1.66 -1.29,1.52 -3.44,1.54z"/>
    <path class="fil5" d="M113.93 60.24c0.27,0.76 0.49,1.58 0.8,2.52 0.34,1.01 0.9,1.4 1.4,1.92 0.18,-1.85 -0.83,-4.27 -2.2,-4.44z"/>
    <path class="fil5" d="M114.14 75.46c1,-0.43 0.49,-1.56 2.34,-1.1 0.98,0.25 2.11,0.27 2.5,-0.72 -2.56,-0.27 -4.06,-0.64 -4.84,1.82z"/>
    <path class="fil5" d="M117.3 79.23c1.92,0.58 3.33,0.31 3.24,-2.17 -2.4,1.45 -1.64,1.34 -2.28,1.73 -0.48,0.29 -0.47,0.07 -0.96,0.44z"/>
    <path class="fil5" d="M111.22 80.58c1.68,-1.98 -0.93,-2.7 1.78,-3.99 0.43,-0.21 0.27,-0.14 0.48,-0.27 -3.36,0.36 -3.07,3.26 -2.26,4.26z"/>
    <path class="fil5" d="M114.22 82.92c2.24,0.07 2.95,-1.49 2.31,-3.33 -0.03,0.05 -0.07,0.12 -0.09,0.16l-0.14 0.35c-0.51,1.53 -0.21,0.43 -1.03,1.17 -0.57,0.5 -0.2,0.86 -1.05,1.65z"/>
    <path class="fil5" d="M117.08 79.57c0.69,1.5 0.42,2.29 2.32,2.76 -0.32,-1.61 -1.19,-2.05 -2.32,-2.76z"/>
    <path class="fil5" d="M124.29 87.93c-0.32,-1.12 -0.47,-2.42 -1.86,-2.13 -0.22,1.28 0.89,1.89 1.86,2.13z"/>
    <path class="fil5" d="M116.88 77.47c0.14,0.56 0.05,0.85 0.17,1.22 1.47,-1.23 1.02,-2.52 0.26,-2.56 -0.89,-0.05 -0.58,0.74 -0.43,1.34z"/>
    <path class="fil5" d="M114.94 59.97c0.38,0.62 0.9,0.89 1.45,1.55l1.33 -0.01c-0.45,-1.18 -1.14,-1.43 -2.78,-1.54z"/>
    <path class="fil5" d="M113.44 79.46c-0.23,1.26 1.73,0.58 2.34,0.18l-1.17 -0.58c-0.56,-0.15 -1.07,-0.15 -1.17,0.4z"/>
    <path class="fil5" d="M113.14 90.28c0.03,-0.61 -0.16,-2.99 -1.08,-2.13 -0.87,0.81 0.78,1.88 1.08,2.13z"/>
    <path class="fil5" d="M111.37 87.96c-0.5,-0.21 -2.1,-1.26 -1.85,0.14 0.08,0.45 0.43,0.74 0.97,0.64 0.52,-0.1 0.66,-0.45 0.88,-0.78z"/>
    <path class="fil5" d="M118.84 70.41c-0.77,0.87 1.33,1.2 1.76,1.3 -0.22,-0.54 -0.88,-2.3 -1.76,-1.3z"/>
    <path class="fil5" d="M90.25 65.9c0.03,-1.07 0.02,-0.99 0.73,-1.33 -0.41,-0.47 0.17,-0.12 -0.74,-0.27l-1.64 0.14c0.5,0.43 0.97,1.15 1.65,1.46z"/>
    <path class="fil5" d="M122.7 85.22c1.92,-0.45 1.81,-1.96 0.2,-1.73l-0.2 1.73z"/>
    <path class="fil5" d="M121.86 65.9c-1.08,1.01 -0.48,2.07 0.28,2.96 0.67,-0.9 -0.35,-1.34 -0.28,-2.96z"/>
    <path class="fil5" d="M108.15 83.79c0.71,0.5 0.61,0.21 1.47,-0.28 0.84,-0.49 0.83,-0.15 0.94,-1.12 -0.79,0.22 -1.96,0.74 -2.41,1.4z"/>
    <path class="fil5" d="M119.87 86.95c1.01,0.27 1.45,-0.08 1.81,-0.96 -0.32,-0.05 -0.77,-0.14 -1.08,-0.11 -0.95,0.1 -0.45,0.13 -0.75,0.31l0.02 0.76z"/>
    <path class="fil5" d="M120.7 73.45c0.82,0.24 0.87,-0.15 1.32,-0.71 0.38,-0.49 0.6,-0.6 0.52,-1.37 -0.78,0.19 -1.17,1.09 -1.84,2.08z"/>
    <path class="fil5" d="M124.32 77.42c0.62,-0.28 0.85,-0.52 1,-1.21 -0.18,-0.01 -0.86,-0.08 -1,-0.07 -1.3,0.09 -0.83,0.92 0,1.28z"/>
    <path class="fil5" d="M109.23 60.63c0.8,-0.65 -0.17,-1.75 -0.87,-1.11 -0.73,0.67 0.24,1.63 0.87,1.11z"/>
    <path class="fil5" d="M109.8 60.31c-0.32,0.94 -0.09,1.49 1.18,1.11l0.03 -1.06c-0.62,-0.22 -0.58,-0.23 -1.21,-0.05z"/>
    <path class="fil5" d="M107.32 80.29c-0.09,0.95 0.74,1.41 1.33,1.73 0,-1.33 -0.11,-2.07 -1.33,-1.73z"/>
    <path class="fil5" d="M98.85 70.26c-0.01,0.73 0.56,0.64 1.01,0.63 0.47,-0.56 0.54,-0.52 0.17,-1.22 -0.69,-0.16 -1.16,-0.13 -1.18,0.59z"/>
    <path class="fil5" d="M98.42 69.06c0.99,0.34 1.28,0.01 1.14,-0.93 -0.81,-0.5 -1.56,-0.3 -1.14,0.93z"/>
    <path class="fil5" d="M112.39 87.42c0.96,-0.07 1.7,-0.71 1.01,-1.67 -0.69,0.12 -0.59,-0.05 -0.8,0.72 -0.09,0.35 -0.09,0.62 -0.21,0.95z"/>
    <path class="fil5" d="M107.69 63.3c0.2,0.22 -0.21,0.14 0.46,0.21 1.04,0.12 0.18,0 0.54,-0.21 0.43,-1.06 -0.46,-1.44 -0.97,-0.91 -0.25,0.26 -0.24,0.68 -0.03,0.91z"/>
    <path class="fil5" d="M101.14 67.96c0.05,0.43 -0.02,0.71 0.33,0.95 1.17,0.77 1.72,-1.84 -0.33,-0.95z"/>
    <path class="fil5" d="M110.65 54.6c-0.26,1.29 0.57,1.2 1.31,0.86l-0.13 -1.03 -1.18 0.17z"/>
    <path class="fil5" d="M110.5 63.18c0.25,-0.45 0.25,-0.51 0.11,-1.07 -1.06,-0.36 -0.98,0 -0.98,0 -0.47,0.75 -0.19,1.17 0.87,1.07z"/>
    <path class="fil5" d="M101.66 70.77c0,-0.01 1.1,-1.45 -0.98,-1.17l0.07 1.11 0.91 0.06z"/>
    <path class="fil5" d="M90.25 65.9c0.91,-0.48 1.03,-1.01 1.25,-1.88 -0.26,-0.09 -0.14,-0.21 -0.63,-0.07 -0.57,0.16 -0.32,0.1 -0.63,0.35 0.91,0.15 0.33,-0.2 0.74,0.27 -0.71,0.34 -0.7,0.26 -0.73,1.33z"/>
    <path class="fil5" d="M108.11 61.67c0.36,-2.88 -3.01,0.51 0,0z"/>
    <path class="fil5" d="M111.82 87.44c0.17,-0.83 0.26,-0.57 -0.17,-1.27 -1.58,0.04 -1.25,1.15 0.17,1.27z"/>
    <path class="fil5" d="M99.86 68.07l0.86 -0.02c0.4,-1.28 -0.18,-1.48 -1.14,-0.9l0.28 0.92z"/>
    <path class="fil5" d="M103.66 64.01c-0.14,-1.15 -0.35,-1.89 -1.3,-0.98 0.21,0.83 0.32,0.83 1.3,0.98z"/>
    <path class="fil5" d="M96.1 68.73c-0.01,-1.2 0.33,-1.64 -0.8,-1.71 -0.3,1.06 0.13,1.44 0.8,1.71z"/>
    <path class="fil5" d="M105.62 66.15c0.22,-0.86 -0.03,-1.2 -1.05,-0.82 -0.08,0.38 -0.1,0.69 0.21,0.89 0.68,0.46 0.8,-0.04 0.84,-0.07z"/>
    <path class="fil5" d="M121.81 85.19c0.53,-0.26 0.21,-0.66 0.02,-1.09 -0.88,0 -0.69,-0.02 -1.06,0.56 0.09,0.07 0.38,0.87 1.04,0.53z"/>
    <path class="fil5" d="M112.27 58.67c0.54,0.72 0.38,1.23 1.62,0.95 -0.19,-1.15 -0.42,-0.92 -1.62,-0.95z"/>
    <path class="fil5" d="M124.32 75.48c0.61,0.21 0.46,0.28 1.13,0.04 0.22,-0.7 -0.07,-1.01 -0.93,-1.11l-0.2 1.07z"/>
    <path class="fil5" d="M115.39 78.49l0.93 0.07 -0.13 -0.86c-0.34,-0.3 0.54,-0.23 -0.56,-0.22 -0.59,0 0.05,-0.06 -0.48,0.19 -0.07,0.91 -0.24,0.33 0.24,0.82z"/>
    <path class="fil5" d="M113.06 55.51c-0.27,-0.24 -0.36,-0.21 -0.73,-0.31 -0.27,1.07 0.09,1.55 1.09,1.06 -0.11,-0.63 0.15,-0.3 -0.36,-0.75z"/>
    <path class="fil5" d="M109.22 57.16c-0.74,-1.35 -0.96,-1.07 -1.54,-0.68 0.16,0.25 -0.41,0.76 1.54,0.68z"/>
    <path class="fil5" d="M92.21 65.4l0.13 0.44c0.76,-0.57 0.78,-0.56 1.2,-1.42 -0.16,-0.42 0.43,-0.5 -0.49,-0.22l-0.84 1.2z"/>
    <path class="fil5" d="M110.38 58.83c0.69,-0.18 1.27,-1.09 0.84,-1.87l-0.65 0.86c-0.23,0.54 -0.2,0.42 -0.19,1.01z"/>
    <path class="fil6" d="M106.41 53.03l0.36 0.4c0.2,-1.33 -0.22,-1.49 -0.58,-1.84l-0.34 -0.28c0.12,1.17 0.2,0.85 0.56,1.72z"/>
    <path class="fil5" d="M104.16 57.1l-0.13 0.17 0.06 0.61 0.4 0.1 -0.19 0.39c0.76,-0.36 0.54,-0.31 0.86,-1l-0.55 -0.88 0.05 1.15 -0.5 -0.54z"/>
    <polygon class="fil5" points="104.16,57.1 104.66,57.64 104.61,56.49 104.48,55.81 103.92,55.84 "/>
    <path class="fil5" d="M99.22 62.31c-0.07,1 -0.13,0.37 0.34,0.5l0.24 -1.5c-0.07,-0.56 0,-0.15 -0.21,-0.46 -0.42,0.52 -0.29,0.54 -0.37,1.46z"/>
    <path class="fil5" d="M96.75 69.92c-0.73,0.24 -0.49,0.37 -0.65,0.61 0.66,0.23 0.99,0.22 1.43,-0.51 -0.07,-0.03 0.01,-0.36 -0.78,-0.1z"/>
    <path class="fil5" d="M108.43 76.85c0.06,-0.05 0.57,-0.07 0.68,-0.73 0.24,-1.48 -0.2,-0.76 -0.36,-0.95l-0.32 1.68z"/>
    <path class="fil5" d="M106.28 78.15c0.43,-0.16 0.61,0.01 0.76,-0.77 0.25,-1.31 -0.14,-0.69 -0.29,-0.87l-0.47 1.64z"/>
    <path class="fil5" d="M117.79 68.07c0.29,-0.81 0.3,-1.19 -0.2,-1.93 -0.12,0.37 -0.36,0.4 -0.03,1.46 0.19,0.64 0.09,0.25 0.23,0.47z"/>
    <path class="fil5" d="M114.67 71.98c0.07,-0.36 0.2,-0.71 0.16,-1.09 -0.13,-1.25 -0.02,-0.29 -0.44,-0.64l-0.07 1.58 0.35 0.15z"/>
    <path class="fil5" d="M112.74 71.75c-0.16,0.7 -0.3,0.91 -0.16,1.7l0.14 0.29c0.23,-0.46 0.59,-1.47 0.02,-1.99z"/>
    <path class="fil5" d="M110.6 75.42c0.44,-0.45 0.82,-1.18 0.4,-1.83 -0.46,0.58 -0.44,1.02 -0.4,1.83z"/>
    <path class="fil5" d="M104.9 77.72c-0.32,0.18 -0.51,0.21 -0.62,0.68 -0.33,1.46 -0.04,0.51 0.33,0.89l0.29 -1.57z"/>
    <path class="fil5" d="M116.11 70.15c0.46,-0.6 0.51,-1.2 0.13,-1.88 -0.19,0.22 -0.17,-0.03 -0.29,0.45l0.16 1.43z"/>
    <path class="fil5" d="M101.33 61.24c0.44,-0.61 0.42,-1.13 0.05,-1.64 -0.47,0.64 -0.38,1.04 -0.05,1.64z"/>
    <path class="fil5" d="M118.83 64.14c-0.1,0.75 -0.05,0.97 0.25,1.66 0.64,-0.65 0.19,-1.24 -0.25,-1.66z"/>
    <path class="fil5" d="M114.19 77.91l-0.16 -0.2c-0.58,-0.42 -0.8,-0.69 -0.91,0.45 0.77,0.02 0.52,0.23 1.07,-0.25z"/>
    <path class="fil5" d="M98.83 62.89l0.11 0.63c0.06,-0.03 0.15,-0.12 0.18,-0.07 0.02,0.04 0.13,-0.06 0.17,-0.09 0.27,-0.19 0.22,-0.16 0.39,-0.35l-0.12 -0.2c-0.47,-0.13 -0.41,0.5 -0.34,-0.5l-0.38 -0.15 -0.01 0.73z"/>
    <path class="fil5" d="M115.85 76.61c0.41,-0.67 0.58,-0.83 -0.26,-1.15 -0.31,0.31 -0.21,0.03 -0.14,0.6l0.4 0.55z"/>
    <path class="fil5 str0" d="M105.86 55.25c-0.08,-0.76 -0.05,-0.95 -0.54,-1.48 -0.18,0.17 -0.17,0.49 -0.07,0.75 0.26,0.75 0.34,0.52 0.61,0.73z"/>
    <path class="fil5 str0" d="M94.85 64.92c0.62,-0.37 0.64,-0.55 0.83,-1.48 -0.7,0.41 -0.68,0.7 -0.83,1.48z"/>
    <path class="fil5" d="M122.36 79.76c0.39,-0.15 0.32,-0.41 0.46,-0.94 -0.53,0.14 -0.28,-0.22 -0.57,0.28 -0.47,0.83 0.09,0.62 0.11,0.66z"/>
    <path class="fil5" d="M93.05 64.2c0.92,-0.28 0.33,-0.2 0.49,0.22 0.04,-0.05 0.1,-0.18 0.12,-0.14 0.01,0.03 0.09,-0.12 0.11,-0.16 0.08,-0.19 0.14,-0.36 0.2,-0.56l-0.92 0.34 0 0.3z"/>
    <path class="fil5" d="M115.39 78.49c0.51,0.41 0.5,0.27 0.97,0.17 0.41,-1.3 0.02,-0.76 -0.17,-0.96l0.13 0.86 -0.93 -0.07z"/>
    <path class="fil5" d="M114.03 77.71l0.16 0.2c0.33,-0.35 0.73,-0.21 -0.01,-1.05l-0.15 0.85z"/>
    <path class="fil5" d="M103.83 55.75l0.09 0.09 0.56 -0.03c-0.24,-0.45 -0.21,-0.25 -0.13,-0.79 -0.65,0.4 -0.3,0 -0.52,0.73z"/>
    <path class="fil5" d="M104.09 57.88l-0.06 -0.61c-0.53,-0.05 -0.22,-0.14 -0.54,0.3 0.31,0.37 -0.45,0.27 0.6,0.31z"/>
    <path class="fil5" d="M109.14 61.95c0.26,-1.05 0.13,-0.49 -0.33,-0.71 -0.26,0.65 -0.27,0.43 0.33,0.71z"/>
    <path class="fil5" d="M115.6 85.17c0.03,0.05 -0.06,0.84 0.77,0.39 -0.3,-0.44 0.25,-0.29 -0.77,-0.39z"/>
    <path class="fil5" d="M100.78 68.93c-0.41,-0.59 -0.29,-0.64 -0.73,0 0.31,0.21 0.01,0.14 0.43,0.17 0.94,0.08 -0.21,0.18 0.3,-0.17z"/>
    <path class="fil5" d="M106.41 53.03l-0.65 0.17c0.1,0.2 -0.27,0.49 0.36,0.35 0.33,-0.07 0.2,-0.24 0.29,-0.52z"/>
    <path class="fil5" d="M106.38 51.02c0.2,0.11 -0.05,0.46 0.62,0 -0.93,-0.9 -0.59,-0.03 -0.62,0z"/>
    <path class="fil5" d="M98.83 62.89l0.01 -0.73c-0.77,0.27 -0.23,-0.08 -0.51,0.51l0.5 0.22z"/>
    <path class="fil7 str0" d="M92.21 65.4l-0.12 -0.67c-0.27,0.22 -0.72,-0.38 -0.3,0.41 0.2,0.36 -0.01,0.1 0.42,0.26z"/>
    <path class="fil5" d="M96.58 63.97c0.08,-0.14 0.64,0.26 0,-0.64 -0.16,0.15 -0.47,-0.46 -0.12,0.49 0.01,0.04 0.07,0.11 0.12,0.15z"/>
    <path class="fil5" d="M119.42 64.34c0.01,0.41 0.26,0.44 0.38,-0.04 0.06,-0.27 -0.41,-0.73 -0.38,0.04z"/>
    <path class="fil5" d="M105.1 55.78c0.29,-0.35 0.56,0.09 0,-0.59 -0.74,0.56 -0.22,0.36 0,0.59z"/>
    <path class="fil5" d="M100.22 61.07c0.24,0.15 -0.03,0.62 0.68,0 -0.47,-0.41 -0.12,-0.34 -0.68,0z"/>
    <path class="fil5" d="M109.41 75.7c0.01,0.11 0.25,0.47 0.36,-0.08 0.07,-0.31 -0.37,-0.84 -0.36,0.08z"/>
    <path class="fil5" d="M113.14 72.35c0.27,0.26 -0.62,0.57 0.61,0.22 0.07,-0.9 0.07,-0.27 -0.27,-0.53l0.18 0.52 -0.52 -0.21z"/>
    <path class="fil5" d="M102.26 59.12c-0.67,0.92 -0.1,0.39 0,0.58 0.03,-0.06 0.11,-0.13 0.12,-0.17 0.38,-1.17 0.14,-0.13 -0.12,-0.41z"/>
    <path class="fil5" d="M93.98 64.56c0.41,0.27 -0.05,0.46 0.58,0 -0.28,-0.29 0.4,-0.28 -0.23,-0.2 -0.53,0.07 0.03,-0.16 -0.35,0.2z"/>
    <path class="fil5" d="M105.32 77.97c-0.73,0.33 -0.25,0.21 0,0.52 0.22,-0.3 0.22,-0.19 0,-0.52z"/>
    <path class="fil5" d="M116.9 68.3c-0.05,0.03 -0.12,0.1 -0.13,0.12 -0.49,1.26 -0.19,-0.01 0.13,0.4 0.09,-0.23 0.53,0.27 0,-0.52z"/>
    <polygon class="fil5" points="113.14,72.35 113.66,72.56 113.48,72.04 "/>
    <path class="fil5" d="M107.29 77.01c0.04,0.03 0.1,0.11 0.12,0.12l0.4 -0.12c-1.08,-0.63 -0.35,-0.12 -0.52,0z"/>
    <polygon class="fil5" points="108.33,64.84 108.38,64.31 107.96,64.61 "/>
    <path class="fil5" d="M111.65 73.77l-0.17 0.24c0,0.02 0.05,0.16 0.05,0.13 0,-0.04 0.09,0.09 0.12,0.14 0.12,-0.27 0.37,0.03 0,-0.51z"/>
    <path class="fil5" d="M118.02 66.53l0.54 0c-0.31,-0.2 -0.27,-0.24 -0.54,0z"/>
   </g>
  </g>
  <rect class="fil8" width="234.21" height="128.34"/>
 </g>
</svg>
