<?xml version="1.0" encoding="iso-8859-1"?>
<!-- Generator: Adobe Illustrator 19.0.0, SVG Export Plug-In . SVG Version: 6.00 Build 0)  -->
<svg version="1.1" id="Capa_1" xmlns="http://www.w3.org/2000/svg" xmlns:xlink="http://www.w3.org/1999/xlink" x="0px" y="0px"
	 viewBox="0 0 436 436" style="enable-background:new 0 0 436 436;" xml:space="preserve">
<g>
	<g>
		<path d="M421,0H15C9.5,0,5,4.5,5,10v416c0,5.5,4.5,10,10,10h406c5.5,0,10-4.5,10-10V10C431,4.5,426.5,0,421,0z M104,416H25v-84h79
			V416z M104,312H25v-84h79V312z M104,208H25v-84h79V208z M104,104H25V20h79V104z M208,416h-84v-84h84V416z M208,312h-84v-84h84V312
			z M208,208h-84v-84h84V208z M208,104h-84V20h84V104z M312,416h-84v-84h84V416z M312,312h-84v-84h84V312z M312,208h-84v-84h84V208z
			 M312,104h-84V20h84V104z M411,416h-79v-84h79V416z M411,312h-79v-84h79V312z M411,208h-79v-84h79V208z M411,104h-79V20h79V104z"
			/>
	</g>
</g>
<g>
</g>
<g>
</g>
<g>
</g>
<g>
</g>
<g>
</g>
<g>
</g>
<g>
</g>
<g>
</g>
<g>
</g>
<g>
</g>
<g>
</g>
<g>
</g>
<g>
</g>
<g>
</g>
<g>
</g>
</svg>
