<?xml version="1.0" encoding="UTF-8"?>
<!DOCTYPE svg PUBLIC "-//W3C//DTD SVG 1.1//EN" "http://www.w3.org/Graphics/SVG/1.1/DTD/svg11.dtd">
<!-- Creator: CorelDRAW 2017 -->
<svg xmlns="http://www.w3.org/2000/svg" xml:space="preserve" width="517px" height="517px" version="1.1" style="shape-rendering:geometricPrecision; text-rendering:geometricPrecision; image-rendering:optimizeQuality; fill-rule:evenodd; clip-rule:evenodd"
viewBox="0 0 878.83 878.83"
 xmlns:xlink="http://www.w3.org/1999/xlink">
 <defs>
  <style type="text/css">
   <![CDATA[
    .fil0 {fill:#FEFEFE}
    .fil2 {fill:white}
    .fil1 {fill:#EF7F1A;fill-opacity:0.501961}
   ]]>
  </style>
 </defs>
 <g id="Layer_x0020_1">
  <metadata id="CorelCorpID_0Corel-Layer"/>
  <path class="fil0" d="M439.41 0c242.69,0 439.42,196.73 439.42,439.41 0,242.69 -196.73,439.42 -439.42,439.42 -242.68,0 -439.41,-196.73 -439.41,-439.42 0,-242.68 196.73,-439.41 439.41,-439.41zm0 12.94c235.53,0 426.48,190.94 426.48,426.47 0,235.53 -190.95,426.48 -426.48,426.48 -235.53,0 -426.47,-190.95 -426.47,-426.48 0,-235.53 190.94,-426.47 426.47,-426.47z"/>
  <path class="fil1" d="M439.41 53.15c213.28,0 386.21,172.93 386.21,386.32 0,213.28 -172.93,386.21 -386.21,386.21 -213.39,0 -386.21,-172.93 -386.21,-386.21 0,-213.39 172.82,-386.32 386.21,-386.32z"/>
  <g id="_2150457730512">
   <g>
    <path class="fil2" d="M381.93 292.33l0 39.69c0,7.55 2.96,6.06 15.59,7.97 6.39,0.97 14.73,2.65 20.9,2.78 0.78,-7.82 0.19,-18.78 0.17,-26.92 -0.01,-4.33 -1.06,-10.51 2.63,-11.61 5.44,-1.63 5,4.56 4.96,8.64l0 137.42c-0.05,9.79 1.43,15.9 11.67,15.9l96.36 0c9.82,0 11.72,-5.67 11.68,-15.16l-0.01 -138.16c-0.03,-4.08 -0.61,-9.51 4.39,-8.77 4.29,0.64 3.2,6.8 3.2,11 -0.03,8.34 -0.62,19.67 0.17,27.66l30.61 -4.15c4.87,-0.69 5.89,-1.33 5.89,-6.6l0 -40.42c0,-15.99 -11.8,-19.15 -23.45,-24.37 -5.49,-2.46 -11.08,-4.97 -16.7,-7.52 -5.11,-2.3 -11.95,-6.07 -17.24,-7.26 -3.87,5.46 -11.18,39.68 -46.34,39.94 -24.36,0.18 -41.94,-19.7 -46.39,-39.87 -4.76,0.34 -28.16,11.79 -34.14,14.47 -12.39,5.54 -23.95,8.56 -23.95,25.34l0 0 0 0z"/>
    <path class="fil2" d="M456.8 269.56c2.97,7.51 16.88,15.47 29.6,15.36 13.61,-0.14 25,-8.05 29.12,-15.36 -7.63,-4.45 -50.21,-3.59 -58.72,0z"/>
    <path class="fil2" d="M468.47 211.72c10.8,2.74 3.14,-8.96 12.21,-13.99 8.36,-4.63 16.9,2.57 19.23,6.9 6.4,11.95 -2.73,20.48 -10.79,26.51 -2.77,2.05 -4.58,4.08 -5.32,7.96 8.18,0.78 7.9,-0.07 13.08,-3.88 2.84,-2.09 6.48,-5.9 8.49,-9.18 5.57,-9.13 5.78,-19.04 -0.45,-27.9 -14.19,-20.16 -44.22,-4.59 -36.45,13.58l0 0z"/>
    <path class="fil2" d="M447.43 249.72c-0.02,4.36 2.9,9.41 4.12,12.7 5.01,-0.57 9.77,-1.81 15,-2.37 18.12,-1.99 17.26,3.12 16.63,-13.04 -8.01,-1.06 -28.83,-0.18 -35.75,2.71z"/>
    <path class="fil2" d="M520.24 262.19c1.83,-2.82 4.42,-8.73 4.39,-12.47 -7.14,-2.97 -25.38,-3.55 -33.7,-2.78 -0.61,13.85 -2.31,11.56 9.48,12.41 6.32,0.49 14.78,2.81 19.83,2.84z"/>
   </g>
   <g>
    <path class="fil2" d="M538.83 479.65c31.88,2.19 45.52,5.22 74.25,14.28 11.18,3.52 16.06,4.09 13.7,17.93 7.06,-3.57 4.51,-3.34 7.09,-1.88 -22.82,12.65 -4.28,17.58 -48.92,7.11 -9.26,-2.17 -16.24,-4.67 -25.78,-7.04 -10.59,-2.61 -19.61,-3.6 -17.3,-16.6 16.36,-5.17 56.71,16.88 75.14,11.91 1.1,4.42 -0.37,5.11 -1.22,6.25 -2.21,2.93 -1.5,1.43 -2.04,2.11 -2.94,-2.69 -59.23,-17.97 -66.43,-18.84 0.64,8.1 -0.83,8.83 17.31,13.2l47.42 11.56c8.49,-0.58 15.33,-8.34 11.82,-16.32 -3.67,-6.72 -35.63,-12.84 -43.1,-14.7 -12.4,-3.09 -39.33,-11.99 -47.68,-1.9 -3.6,7.31 -1.85,17.74 3.74,22.82 7.6,6.89 70.37,18.88 73.66,18.76 12.47,-0.37 22.91,-14.55 36.22,-24.97 8.01,-6.26 28.43,-21.07 28.91,-31.05l-12.81 12.46c1.7,-5.15 -0.05,-2.65 5.78,-8.81 2.31,-2.45 4.37,-4.42 5.06,-7.83 1.69,-8.32 -3.81,-14.26 -10.27,-16.23 -10.47,-3.16 -37.59,-6.77 -49.73,-6.39 -16.72,0.52 -25.33,8.22 -39.64,14.58 -12.43,5.54 -25.02,12.13 -35.18,19.59l0 0 0 0z"/>
    <path class="fil2" d="M512.03 527.95c18.38,-0.4 44.67,3.98 60.9,9.38 9.34,3.1 19.05,5.02 28.12,7.99 12.67,4.17 15.18,6.07 12.37,20.1l5.53 -1.28c-5.8,5.21 -11.3,11.12 -17.86,13.2 -8.6,2.72 -78.22,-17.04 -81.62,-19.3 -3.94,-2.61 -7.69,-8.75 -3.41,-13.37 8.53,-7.93 65.49,16.78 86.21,13.03 0.38,0.92 3.56,-1.82 -0.22,4.94 -1.87,3.35 -2.13,0.78 -3.06,4.35 -10.88,-3.68 -68.11,-22.12 -78.1,-20.63 2.2,14.1 24.89,15.6 48.13,21.2 8.39,2.03 47.53,19.02 41.78,-14.4 -14.43,-6.82 -70.83,-21.54 -90.49,-22.36 -24.38,-1.02 -20.58,23.27 -11.41,31.3 7.87,6.89 82.71,23.02 89.19,21.91 11.36,-1.92 19.16,-13.36 33.19,-23.99 12.9,-9.78 56.63,-41.75 58.25,-55.95l-1.87 2.01c-1.85,1.97 -0.95,1.22 -2.58,2.78 -2.67,2.55 -3.28,2.86 -6.59,4.83 5.78,-9.25 17.23,-23.48 -0.84,-32.1l-49.28 42.7c-18.45,16.1 -39.58,4.98 -73.81,-3.02 -18.22,-4.26 -20.25,-14.5 -42.53,6.68l0 0z"/>
    <path class="fil2" d="M486.65 582.8c23.18,-5.89 48.74,5.86 69.52,12.28 32.97,10.19 56.49,9.48 49.8,33.95 7.05,-4.48 52.53,-48.9 62.21,-56.69l32.49 -28.18c11.26,-10.63 16.51,-30.24 -4.98,-36.58l-20.58 20.85c-7.45,7.7 -14.17,12.29 -21.95,19.05l-45.08 36.86c-11.57,7 -22.62,3.74 -33.29,0.26 -9.44,-3.07 -23.8,-5.11 -33.61,-6.86 -9.62,-1.69 -25.08,-8.65 -31.46,-9.43 -5.04,-0.62 -17.85,11.58 -23.07,14.49l0 0z"/>
    <path class="fil2" d="M495.48 603.16c12.33,-2.38 38.28,5.41 50.13,9.03 23.32,7.14 28.34,9.01 48.47,7.72 0.73,4.23 -0.83,-3.3 -1.56,2.38 -0.23,1.65 -4.03,-1.82 2.84,3.73 -4.49,0.34 -5.05,0.48 -6.12,3.94 -0.03,0.1 0.03,0.57 -0.08,0.81 -7.31,-4.28 -77.72,-23.99 -88.21,-24.17 1.3,13.61 9.65,13.55 22.35,16.59 9.68,2.33 58.98,16.01 64,15.64 13.22,-0.95 24.52,-19.44 10.62,-26.6l-34.53 -11c-18.31,-5.47 -78.09,-29.4 -83.2,-7.34 -1.96,8.49 3.37,23.12 8.85,29.01 13.19,14.22 55.83,17.8 80.06,24.86 17.86,5.19 29.77,0.68 38.98,-9.38 5.96,-6.52 8.4,-7.15 13.87,-12.35l67.89 -63.13c5.28,-5.34 26.22,-18.97 22.19,-28.19 -14.41,16.47 -73.99,69.8 -94.99,88.09 -28.72,24.99 -16.88,23.84 -62.56,13.28 -12.74,-2.95 -23.24,-6.49 -35.59,-10.24 -12.5,-3.8 -25.38,-5.42 -23.41,-22.68l0 0 0 0z"/>
   </g>
   <g>
    <path class="fil2" d="M202.31 380.63l29.62 -0.13c15.48,-0.02 16.44,-1.94 17.18,4.87 -16.42,2 -23.7,1.18 -40.52,1.32l-0.34 28.66 35.12 0.14c5.96,-0.08 7.9,-1.42 9.44,3.73 -2.38,3.04 -1.12,2.28 -6.08,2.28l-39.83 0.09c-10.39,15.67 -20.79,19.53 -32.62,53.81 -16.19,46.89 -7.22,96.31 21.41,134.97 8.38,11.33 10.3,14.18 29.41,14.11 14.53,-0.07 29.05,0.07 43.59,-0.03 -2.05,-3.83 -5.99,-7.1 -8.87,-11.04 -2.79,-3.8 -5.4,-7.14 -7.99,-11.34 -35.48,-57.13 -29.3,-126.7 14.51,-179.2 4.82,-5.79 4.56,-5 4.45,-15.02 -0.07,-6.83 0.29,-13.73 -0.21,-20.52 -2.88,-1.43 -27.3,-3.77 -15.42,-27.8 -14.97,-1.25 -34.02,-0.13 -49.46,-0.23 -8.17,-0.06 -14.8,0.74 -16.03,8.81 -1.33,8.79 4.48,12.52 12.64,12.53l0 -0.01 0 0z"/>
    <path class="fil2" d="M237.03 498.38l91.73 0.19c5.35,-0.06 9.19,-1.35 11.76,2.65 -0.98,3.03 2.48,3.63 -11.76,3.44l-45.36 0.14 35.79 65.35c3.2,-3.21 4.92,-7.89 7.01,-12.24 2.44,-5.1 3.46,-10.83 8.59,-9.34l0.46 3.56c-0.47,3.41 -8.49,15.56 -9.51,21.47 4.79,0.1 9.59,0.07 14.38,0.03l11.2 0.43c0.34,0.09 0.64,0.25 0.93,0.36l1.69 0.91c2.35,6.67 -14.09,4.22 -20.65,4.22l-85.98 -0.03c1.73,7.05 5.65,12.56 8.67,18.36l40.93 0.35c6.86,-0.13 8.94,-1.48 9.1,4.36 -5.73,3.77 -35.74,1.07 -45.03,1.66 6.08,12.73 13.81,19.33 29.01,19.33 16.6,0 34.02,0.49 50.49,-0.27 -0.47,-9.56 2.16,-15.08 10.23,-17 -10.18,-21.39 3.56,-25.33 21.5,-25.67 -0.31,-2.88 -3.55,-10.54 -4.93,-13.16 -2.51,-4.75 -7.63,-4.23 -12.15,-7.23 -19.46,-12.91 -11.8,-55.3 -6.09,-58.14 7.86,-3.91 18.99,9.2 25.36,11.59 2.65,-34.22 -7.75,-34 19.69,-37.11 -2.03,-8.73 -8.46,-22.07 -12.85,-28.62 -32.46,-0.61 -65.52,-0.04 -98.05,-0.04 -32.78,0 -26.63,-3.9 -35.06,13.65 -4.31,8.95 -10.3,25.69 -11.1,36.8l0 0 0 0z"/>
    <path class="fil2" d="M452.68 640.17c-3.42,7.95 -17.65,-3.05 -20.3,-5.67 -9.65,-9.54 -7.55,-19.36 -12.53,-21.21 -2.19,2.91 10.54,24.51 12,27.46 7.83,15.6 4.47,19.28 -7.56,26.77 7.41,11.33 2.79,7.18 5.81,12.64 11.09,0.25 20.35,-3.08 27.21,-8.22 4.2,-3.16 4.37,-6.86 10.39,-7.68 5.58,-0.77 11.98,0.24 17.06,-0.82l0.8 -1.88c1.3,-5.61 -0.43,-45.72 -1.05,-48.42l-21.37 0.22c-6,-10.72 -3.57,-17.61 -12.87,-24.09 -9.07,-6.35 -21.54,-3.98 -33.83,-3.77 -11.79,0.2 -23.77,0.5 -35.4,0.87 -10.6,0.32 -29.06,-2.78 -27.77,10.5 1.41,14.36 27.6,4.31 43.87,4.16 13.04,-0.11 1.46,6.03 22.8,6.25 11.42,0.13 5.07,4.17 11.84,16.4 6.9,12.47 18.67,12.36 20.9,16.5l0 -0.02 0 0.01z"/>
    <path class="fil2" d="M328.5 385.11c-6.84,4.06 -40.42,0.52 -51.73,1.57l-0.13 28.51 83.17 0.14 0.15 -28.35 -10.81 -1.18c0.86,-12.26 18.15,0.13 26.5,-8.5 7.17,-7.43 2,-17.72 -9.27,-18.02 -7.4,-0.21 -97.36,-0.76 -101.53,0.77 -9.25,3.4 -8.36,17.47 0.54,19.92 4.11,1.12 41.7,0.6 50.84,0.51 7.13,-0.07 11.7,-1.98 12.27,4.63l0 0 0 0z"/>
    <path class="fil2" d="M380.47 494.39c-0.01,31.46 -2.73,17.63 8.89,34.83l59.72 -0.01c1.1,-15.25 0.57,-30.25 0.07,-45.52l-9.61 -0.84 -0.52 15.32c-5.38,-0.35 -5.2,0.4 -5.76,-4.77 -0.24,-2.27 0.13,-7.51 0.06,-10.29l-7.5 -0.13c-0.04,5.48 0.61,10.94 -1.16,14.8 -6.56,-0.57 -4.59,-1.75 -4.86,-14.73l-8.59 0.04c-0.01,4.89 1.06,10.86 -1.6,14.43 -3.93,-0.09 -3.86,0.92 -4.41,-4.19 -0.28,-2.58 0.04,-7.4 -0.07,-10.39l-8.43 -0.1c-0.1,3.06 0.11,6.42 0,9.35 -0.19,4.72 0.12,4.22 -3.05,6.1 -3.13,-1.9 -2.85,-1.45 -3.05,-6.11 -0.12,-2.99 0.1,-6.1 -0.07,-9.3 -10.97,-0.1 -10.06,1.16 -10.06,11.51l0 0z"/>
    <path class="fil2" d="M401.63 579.68c7.55,0.35 15.19,-0.24 22.79,-0.3 9.34,-0.07 12.97,0.71 17.77,-4.56 8.84,-9.77 7.84,-23.43 7.27,-39.43l-58.32 -0.13c1.29,22.25 -6.63,12.76 -0.27,24.5 3.43,6.33 6.65,14.57 10.76,19.92l0 0z"/>
    <path class="fil2" d="M245.56 573.39l67.93 0.25c-0.51,-3.06 -32.4,-61.49 -35.57,-65.11l-32.36 64.86 0 0 0 0z"/>
    <path class="fil2" d="M259.82 442.11l117.09 -0.12c-1.63,-4.66 -12.84,-19.8 -18.53,-20.69l-78.72 -0.11c-8.18,0.54 -18.89,17.71 -19.84,20.92z"/>
    <path class="fil2" d="M351.67 507.21c-2.41,7.74 -4.16,31.48 -0.72,39.02 4.27,9.37 17.77,18.4 28.9,8.39 9,-8.08 6.52,-22.58 -1.55,-30.07 -4.02,-3.73 -21.24,-16.98 -26.63,-17.34l0 0z"/>
    <path class="fil2" d="M242.18 565.8l30.43 -60.9 -36.78 -0.21c-1.09,15.59 -1.06,49.96 6.35,61.11l0 0 0 0z"/>
    <path class="fil2" d="M409.93 643.85c6.89,-17.45 -5.04,-15.41 -19.31,-13.72 -7.22,0.85 -32.23,2.38 -35.52,5.68 -3.29,3.29 -2.43,10.75 1.23,13.2 4.07,2.72 48.97,-4.03 53.6,-5.16l0 0 0 0z"/>
    <path class="fil2" d="M390.15 607.8c-11.89,1.37 -24.65,2.01 -36.34,3.88 -5.77,0.9 -8.77,4.48 -7.24,10.64 1.74,7.13 7.48,5.73 15.05,4.82 24.62,-3 47.51,-0.31 43.04,-14.95 -1.85,-6.07 -7.78,-5.16 -14.51,-4.39l0 0z"/>
    <path class="fil2" d="M407.78 650.77c-10.66,0.62 -22.09,2.63 -32.6,3.75 -6.29,0.68 -11.57,0.23 -12.64,6.27 -1.16,6.66 3.42,9.56 9.43,9.31 9.53,-0.41 22.87,-2.81 32.98,-3.99 5.68,-0.65 10.26,-0.87 10.99,-6.9 0.75,-5.92 -2.99,-8.76 -8.16,-8.44l0 0 0 0z"/>
    <path class="fil2" d="M408.77 671.75c-13.96,1.75 -43.51,0.32 -35.39,14.86 2.53,4.52 8.07,3.7 13.61,3.02 5.89,-0.71 27.86,-2.61 31.52,-4.18 5.26,-2.26 10.66,-16.26 -9.74,-13.7l0 0z"/>
    <path class="fil2" d="M409.54 623.09c8.93,6.89 10.15,10.53 6.04,22.77 1.04,1.14 3.92,4.2 4.9,6.15 1.78,3.63 1.09,6.3 2.79,9.09 11.64,-4.2 4.42,-15.25 0.65,-22.69 -4.01,-7.94 -8.13,-17.05 -12.31,-24.15l-2.07 8.83 0 0z"/>
    <path class="fil2" d="M372.83 565.01l2.58 7.23 12.33 -5.02 -3.33 -7.82c-3.43,1.22 -8.32,3.58 -11.58,5.61z"/>
   </g>
  </g>
 </g>
</svg>
