<?xml version="1.0" encoding="utf-8"?>
<!-- Generator: Adobe Illustrator 16.0.0, SVG Export Plug-In . SVG Version: 6.00 Build 0)  -->
<!DOCTYPE svg PUBLIC "-//W3C//DTD SVG 1.1//EN" "http://www.w3.org/Graphics/SVG/1.1/DTD/svg11.dtd">
<svg version="1.1" xmlns="http://www.w3.org/2000/svg" xmlns:xlink="http://www.w3.org/1999/xlink" x="0px" y="0px" width="500px"
	 height="500px" viewBox="0 0 500 500" enable-background="new 0 0 500 500" xml:space="preserve">
<g id="BACKGROUND" display="none">
	<rect display="inline" fill="#7D3AEA" width="500" height="500"/>
</g>
<g id="OBJECTS">
	<g>
		<g>
			<path fill="#FFCE55" d="M434.515,176.054l-76.029,24.716c-3.345,1.087-6.937-0.743-8.023-4.087l-14.326-44.07
				c-1.088-3.345,0.742-6.937,4.088-8.024l76.028-24.714c3.344-1.087,6.937,0.742,8.023,4.087l14.326,44.07
				C439.689,171.375,437.859,174.967,434.515,176.054z"/>
			
				<rect x="337.255" y="142.701" transform="matrix(-0.951 0.3091 -0.3091 -0.951 794.3755 171.5607)" fill="#404041" width="92.68" height="12.028"/>
			<circle fill="#404041" cx="423.953" cy="167.307" r="5.041"/>
		</g>
		<g>
			<g>
				<polygon fill="#E6E7E8" points="144.17,189.01 84.582,249.409 2.903,168.825 54.452,116.575 54.452,116.575 61.546,116.044 
					69.6,115.441 				"/>
				<polygon fill="#A6A8AB" points="54.452,116.575 61.562,123.589 69.6,115.441 69.6,115.441 				"/>
				<g>
					
						<rect x="22.116" y="160.513" transform="matrix(0.7023 -0.7119 0.7119 0.7023 -112.6159 75.557)" fill="#D0D2D3" width="23.835" height="23.835"/>
					<g>
						
							<rect x="36.265" y="139.033" transform="matrix(0.7023 -0.7119 0.7119 0.7023 -84.3575 79.2714)" fill="#D0D2D3" width="32.678" height="2.934"/>
						
							<rect x="40.634" y="143.343" transform="matrix(0.7023 -0.7119 0.7119 0.7023 -86.1252 83.6647)" fill="#D0D2D3" width="32.679" height="2.934"/>
						
							<rect x="45.003" y="147.653" transform="matrix(0.7023 -0.7119 0.7119 0.7023 -87.8937 88.0593)" fill="#D0D2D3" width="32.678" height="2.934"/>
						
							<rect x="49.372" y="151.964" transform="matrix(0.7023 -0.7119 0.7119 0.7023 -89.6625 92.4545)" fill="#D0D2D3" width="32.678" height="2.935"/>
					</g>
				</g>
				<g>
					
						<rect x="45.378" y="183.462" transform="matrix(0.7023 -0.7118 0.7118 0.7023 -122.0251 98.9424)" fill="#D0D2D3" width="23.835" height="23.835"/>
					<g>
						
							<rect x="59.526" y="161.981" transform="matrix(0.7023 -0.7119 0.7119 0.7023 -93.7696 102.6616)" fill="#D0D2D3" width="32.679" height="2.935"/>
						
							<rect x="63.895" y="166.292" transform="matrix(0.7023 -0.7118 0.7118 0.7023 -95.5364 107.0513)" fill="#D0D2D3" width="32.679" height="2.934"/>
						
							<rect x="68.264" y="170.602" transform="matrix(0.7023 -0.7119 0.7119 0.7023 -97.3062 111.4501)" fill="#D0D2D3" width="32.678" height="2.935"/>
						
							<rect x="72.633" y="174.913" transform="matrix(0.7023 -0.7119 0.7119 0.7023 -99.0739 115.8436)" fill="#D0D2D3" width="32.678" height="2.934"/>
					</g>
				</g>
				<g>
					
						<rect x="68.638" y="206.411" transform="matrix(0.7023 -0.7119 0.7119 0.7023 -131.4429 122.3436)" fill="#D0D2D3" width="23.835" height="23.836"/>
					<g>
						
							<rect x="82.787" y="184.931" transform="matrix(0.7023 -0.7119 0.7119 0.7023 -103.1814 126.05)" fill="#D0D2D3" width="32.678" height="2.934"/>
						
							<rect x="87.156" y="189.241" transform="matrix(0.7023 -0.7119 0.7119 0.7023 -104.9511 130.4497)" fill="#D0D2D3" width="32.678" height="2.935"/>
						
							<rect x="91.525" y="193.552" transform="matrix(0.7023 -0.7119 0.7119 0.7023 -106.7184 134.8409)" fill="#D0D2D3" width="32.678" height="2.934"/>
						
							<rect x="95.895" y="197.862" transform="matrix(0.7023 -0.7119 0.7119 0.7023 -108.4855 139.2324)" fill="#D0D2D3" width="32.679" height="2.934"/>
					</g>
				</g>
			</g>
			<g>
				<polygon fill="#F9FAFE" points="145.104,182.665 80.296,237.424 6.243,149.781 62.309,102.409 62.309,102.409 69.421,102.522 
					77.497,102.651 				"/>
				<polygon fill="#A6A8AB" points="62.309,102.409 68.755,110.038 77.497,102.651 77.497,102.651 				"/>
				<g>
					
						<rect x="25.003" y="144.271" transform="matrix(0.7638 -0.6454 0.6454 0.7638 -92.0862 60.7144)" fill="#D0D2D3" width="23.835" height="23.835"/>
					<g>
						
							<rect x="41.964" y="124.601" transform="matrix(0.7638 -0.6454 0.6454 0.7638 -67.5968 67.4016)" fill="#D0D2D3" width="32.678" height="2.935"/>
						
							<rect x="45.925" y="129.289" transform="matrix(0.7638 -0.6454 0.6454 0.7638 -69.6875 71.0667)" fill="#D0D2D3" width="32.678" height="2.935"/>
						
							<rect x="49.886" y="133.978" transform="matrix(0.7639 -0.6454 0.6454 0.7639 -71.7761 74.7264)" fill="#D0D2D3" width="32.678" height="2.934"/>
						
							<rect x="53.848" y="138.666" transform="matrix(0.7638 -0.6454 0.6454 0.7638 -73.8669 78.3913)" fill="#D0D2D3" width="32.678" height="2.934"/>
					</g>
				</g>
				<g>
					
						<rect x="46.092" y="169.231" transform="matrix(0.7639 -0.6454 0.6454 0.7639 -103.212 80.2158)" fill="#D0D2D3" width="23.835" height="23.835"/>
					<g>
						
							<rect x="63.054" y="149.561" transform="matrix(0.7638 -0.6454 0.6454 0.7638 -78.7253 86.9072)" fill="#D0D2D3" width="32.678" height="2.935"/>
						
							<rect x="67.014" y="154.249" transform="matrix(0.7638 -0.6454 0.6454 0.7638 -80.8158 90.5709)" fill="#D0D2D3" width="32.678" height="2.935"/>
						
							<rect x="70.976" y="158.938" transform="matrix(0.7639 -0.6454 0.6454 0.7639 -82.9046 94.2316)" fill="#D0D2D3" width="32.678" height="2.934"/>
						
							<rect x="74.937" y="163.626" transform="matrix(0.7638 -0.6454 0.6454 0.7638 -84.9969 97.9004)" fill="#D0D2D3" width="32.678" height="2.934"/>
					</g>
				</g>
				<g>
					
						<rect x="67.181" y="194.19" transform="matrix(0.7638 -0.6454 0.6454 0.7638 -114.3438 99.7267)" fill="#D0D2D3" width="23.836" height="23.835"/>
					<g>
						
							<rect x="84.143" y="174.521" transform="matrix(0.7638 -0.6454 0.6454 0.7638 -89.8542 106.4133)" fill="#D0D2D3" width="32.678" height="2.934"/>
						
							<rect x="88.104" y="179.209" transform="matrix(0.7638 -0.6454 0.6454 0.7638 -91.9444 110.0765)" fill="#D0D2D3" width="32.678" height="2.935"/>
						
							<rect x="92.065" y="183.897" transform="matrix(0.7639 -0.6454 0.6454 0.7639 -94.0331 113.7366)" fill="#D0D2D3" width="32.678" height="2.934"/>
						
							<rect x="96.026" y="188.585" transform="matrix(0.7638 -0.6454 0.6454 0.7638 -96.1242 117.4023)" fill="#D0D2D3" width="32.678" height="2.935"/>
					</g>
				</g>
			</g>
			<g>
				<path fill="#FFCE55" d="M55.826,172.786l-7.937-13.706c-2.17-3.746-0.892-8.541,2.854-10.711l51.103-29.598
					c3.746-2.17,8.542-0.891,10.711,2.855l56.35,97.294c2.17,3.746,0.892,8.542-2.854,10.711l-41.259,23.897l-16.626,9.63
					l-6.783,3.928c-3.746,2.17-8.542,0.892-10.711-2.855l-40.555-70.022c-2.169-3.746-0.892-8.542,2.854-10.711l0,0
					C56.718,181.327,57.996,176.532,55.826,172.786z"/>
				<path opacity="0.3" fill="none" stroke="#FFFFFF" stroke-width="0.35" stroke-miterlimit="10" d="M165.806,222.979
					l-69.08,40.009l-41.968-72.461l3.625-2.099c5.335-3.09,7.155-9.919,4.065-15.255l-11.192-19.324l55.794-32.315L165.806,222.979z
					"/>
				<path opacity="0.2" fill="#FFFFFF" d="M148.429,219.011L148.429,219.011c2.301-1.333,3.086-4.278,1.753-6.58l-42.807-73.911
					c-1.333-2.301-4.278-3.086-6.58-1.753l0,0c-2.301,1.333-3.086,4.278-1.753,6.579l42.807,73.911
					C143.181,219.559,146.127,220.344,148.429,219.011z"/>
			</g>
		</g>
		<path fill="#303637" d="M392.573,363.556H118.322c-5.481,0-9.924-4.443-9.924-9.925V180.55c0-5.481,4.443-9.925,9.924-9.925
			h274.251c5.482,0,9.926,4.443,9.926,9.925v173.081C402.499,359.112,398.056,363.556,392.573,363.556z"/>
		<path fill="#83B735" d="M385.218,354.068h-259.54c-5.188,0-9.393-4.007-9.393-8.948V189.06c0-4.942,4.205-8.949,9.393-8.949
			h259.54c5.188,0,9.393,4.007,9.393,8.949v156.06C394.61,350.062,390.405,354.068,385.218,354.068z"/>
		<path fill="#303637" d="M236.324,363.556v58.734h38.248v-58.734H236.324z M255.448,407.537c-6.882,0-12.46-5.578-12.46-12.458
			c0-6.883,5.578-12.461,12.46-12.461c6.881,0,12.46,5.578,12.46,12.461C267.908,401.959,262.329,407.537,255.448,407.537z"/>
		<rect x="196.738" y="422.29" fill="#303637" width="117.419" height="11.562"/>
		<g>
			<g>
				<line fill="none" stroke="#000000" stroke-miterlimit="10" x1="423.082" y1="267.091" x2="425.147" y2="267.091"/>
				
					<line fill="none" stroke="#000000" stroke-miterlimit="10" stroke-dasharray="4.1943,4.1943" x1="429.342" y1="267.091" x2="452.41" y2="267.091"/>
				<polyline fill="none" stroke="#000000" stroke-miterlimit="10" points="454.508,267.091 456.573,267.091 456.573,265.025 				
					"/>
				
					<line fill="none" stroke="#000000" stroke-miterlimit="10" stroke-dasharray="4.0558,4.0558" x1="456.573" y1="260.97" x2="456.573" y2="60.205"/>
				<polyline fill="none" stroke="#000000" stroke-miterlimit="10" points="456.573,58.177 456.573,56.112 454.508,56.112 				"/>
				
					<line fill="none" stroke="#000000" stroke-miterlimit="10" stroke-dasharray="4.1483,4.1483" x1="450.359" y1="56.112" x2="261.613" y2="56.112"/>
				<line fill="none" stroke="#000000" stroke-miterlimit="10" x1="259.539" y1="56.112" x2="257.474" y2="56.112"/>
			</g>
		</g>
		<circle cx="422.139" cy="267.292" r="5.981"/>
		<circle cx="251.493" cy="56.112" r="5.98"/>
		<path fill="#FFA97C" d="M199.987,231.135c4.798-1.917,10.836-3.21,14.671,0.25c2.005,1.81,2.887,4.531,3.53,7.154
			c1.282,5.232,1.942,10.593,2.555,15.944c0.9,7.859,1.708,15.814,0.689,23.659c-1.018,7.844-4.035,15.67-9.771,21.116
			c-1.366,1.298-2.946,2.482-4.796,2.843c-1.337,0.263-2.718,0.074-4.067-0.115c-4.61-0.645-9.221-1.289-13.831-1.933
			c-1.564-0.22-3.149-0.443-4.606-1.053c-2.113-0.886-3.818-2.524-5.324-4.251c-9.593-10.995-12.29-26.877-7.963-40.657
			C174.895,241.927,188.909,235.563,199.987,231.135z"/>
		<polyline opacity="0.3" fill="#D66634" points="190.925,249.094 185.143,251.593 190.925,250.765 190.925,248.301 		"/>
		<g>
			<g>
				<rect x="190.925" y="129.156" fill="#F9FAFE" width="137.909" height="179.824"/>
				<rect x="190.925" y="129.156" fill="#303637" width="137.909" height="11.489"/>
			</g>
			<circle fill="#F06359" cx="319.571" cy="134.074" r="2.093"/>
			<circle fill="#E6E7E8" cx="311.498" cy="134.074" r="2.093"/>
			<circle fill="#E6E7E8" cx="303.423" cy="134.074" r="2.093"/>
		</g>
		
			<line fill="none" stroke="#000000" stroke-width="5" stroke-linecap="round" stroke-linejoin="round" stroke-miterlimit="10" x1="230.276" y1="456.641" x2="74.466" y2="456.641"/>
		
			<line fill="none" stroke="#F1F1F2" stroke-width="5" stroke-linecap="round" stroke-linejoin="round" stroke-miterlimit="10" x1="327.115" y1="102.334" x2="231.112" y2="102.334"/>
		
			<line fill="none" stroke="#000000" stroke-width="5" stroke-linecap="round" stroke-linejoin="round" stroke-miterlimit="10" x1="459.326" y1="480.4" x2="363.321" y2="480.4"/>
		
			<circle fill="none" stroke="#000000" stroke-width="2.5" stroke-linecap="round" stroke-linejoin="round" stroke-miterlimit="10" cx="103.771" cy="417.704" r="4.585"/>
		
			<circle fill="none" stroke="#000000" stroke-width="3" stroke-linecap="round" stroke-linejoin="round" stroke-miterlimit="10" cx="332.053" cy="80.911" r="5.613"/>
		
			<circle fill="none" stroke="#000000" stroke-width="3" stroke-linecap="round" stroke-linejoin="round" stroke-miterlimit="10" cx="453.713" cy="448.642" r="5.613"/>
		<g>
			<circle fill="#929497" cx="223.937" cy="176.539" r="22.957"/>
			<g>
				<defs>
					<circle id="SVGID_1_" cx="223.981" cy="176.884" r="22.603"/>
				</defs>
				<clipPath id="SVGID_2_">
					<use xlink:href="#SVGID_1_"  overflow="visible"/>
				</clipPath>
				<g clip-path="url(#SVGID_2_)">
					<g>
						<path fill="#F7D9BC" d="M227.1,187.859l2.062,0.458c3.804,0.845,6.511,4.219,6.511,8.116v2.985
							c0,0.496-0.402,0.897-0.898,0.897h-10.708h-10.709c-0.496,0-0.897-0.401-0.897-0.897v-2.985c0-3.896,2.707-7.271,6.511-8.116
							l1.753-0.39c0.025-0.005,0.049-0.009,0.075-0.013l2.063-0.279c0.04-0.005,0.08-0.009,0.121-0.009h2.589
							c0.046,0,0.093,0.004,0.14,0.011l1.333,0.21C227.063,187.852,227.081,187.855,227.1,187.859z"/>
						<g>
							<path fill="#00ADEE" d="M230.66,188.65l-3.587-0.797l-0.898-0.142l-0.028,2.231c0-0.002,0-0.003,0-0.004l0.007-0.168
								c0,0.057-0.002,0.112-0.007,0.168l0,0.009v-0.005c-0.088,1.079-0.991,1.927-2.092,1.927c-1.16,0-2.1-0.94-2.1-2.1v-0.005
								v-2.006l-1.195,0.161l-3.289,0.731c-0.832,0.185-1.595,0.527-2.263,0.991v10.675h8.856h8.943v-10.612
								C232.321,189.209,231.528,188.843,230.66,188.65z"/>
						</g>
						<path fill="#00ADEE" d="M215.209,196.089h-2.75c0,0-0.694-4.112,2.75-6.448V196.089z"/>
						<path fill="#00ADEE" d="M233.044,196.089h2.75c0,0,0.694-4.112-2.75-6.448V196.089z"/>
						<g>
							<path fill="#F7D9BC" d="M226.175,187.654l-0.028,2.293l0.007-0.178c0,1.16-0.94,2.1-2.1,2.1s-2.1-0.94-2.1-2.1v-0.005v-3.323
								l0.52-0.477h0.348l2.051-0.446l0.604,0.125l0.698,0.248"/>
							<path fill="#F6A49B" d="M224.874,185.518l-2.051,0.446h-0.348l-0.52,0.477v1.605c0.618,0.409,1.358,0.647,2.154,0.647
								c0.756,0,1.463-0.216,2.061-0.588l0.005-0.451v-1.764l-0.698-0.248L224.874,185.518z"/>
						</g>
					</g>
					<path fill="#F7D9BC" d="M224.081,187.186L224.081,187.186c-4.632,0-8.388-3.756-8.388-8.388v-9.335
						c0-4.632,3.755-8.388,8.388-8.388l0,0c4.633,0,8.388,3.756,8.388,8.388v9.335C232.469,183.43,228.714,187.186,224.081,187.186z
						"/>
					<circle fill="#292B2B" cx="227.875" cy="173.543" r="0.879"/>
					<circle fill="#292B2B" cx="220.516" cy="173.543" r="0.879"/>
					<g>
						<g>
							<path fill="#F7A584" d="M224.223,182.012c-1.133,0.003-2.223-0.352-3.019-0.882c-0.095-0.062-0.12-0.182-0.058-0.264
								c0.061-0.083,0.181-0.101,0.27-0.042c0.741,0.491,1.753,0.819,2.808,0.816c1.063,0.006,2.084-0.324,2.827-0.82
								c0.089-0.059,0.208-0.041,0.271,0.042c0.062,0.083,0.038,0.202-0.057,0.265C226.462,181.662,225.365,182.019,224.223,182.012
								z"/>
						</g>
					</g>
					<g>
						<g>
							<path fill="#F7A584" d="M223.285,185.059c-0.069,0-0.136-0.039-0.168-0.104c-0.044-0.093-0.006-0.205,0.086-0.249
								c0.264-0.128,0.575-0.196,0.9-0.196c0.302,0,0.595,0.059,0.846,0.17c0.094,0.042,0.136,0.152,0.095,0.246
								c-0.042,0.094-0.152,0.137-0.246,0.095c-0.205-0.091-0.445-0.139-0.695-0.139c-0.269,0-0.523,0.055-0.737,0.158
								C223.34,185.053,223.313,185.059,223.285,185.059z"/>
						</g>
					</g>
					<path fill="#F6A49B" d="M232.469,173.349L232.469,173.349c0.896,0,1.621,0.726,1.621,1.622v0.938
						c0,0.895-0.726,1.621-1.62,1.621h-0.001"/>
					<path fill="#F6A49B" d="M215.693,173.349L215.693,173.349c-0.896,0-1.622,0.726-1.622,1.622v0.938
						c0,0.895,0.726,1.621,1.622,1.621l0,0"/>
					<path fill="#F6A49B" d="M223.977,173.95l-0.652,2.684c-0.144,0.589,0.303,1.157,0.91,1.157l0,0
						c0.607,0,1.053-0.568,0.909-1.157l-0.653-2.683C224.424,173.682,224.042,173.682,223.977,173.95z"/>
					<g>
						<g>
							<g>
								<path fill="#27282A" d="M221.749,171.299c-0.082,0-0.164-0.027-0.233-0.083c-1.193-0.961-1.926-0.092-1.957-0.054
									c-0.129,0.159-0.364,0.182-0.523,0.052c-0.16-0.13-0.183-0.364-0.053-0.523c0.421-0.516,1.59-1.19,3-0.054
									c0.161,0.129,0.186,0.363,0.057,0.523C221.965,171.251,221.858,171.299,221.749,171.299z"/>
							</g>
						</g>
					</g>
					<g>
						<g>
							<g>
								<path fill="#27282A" d="M226.573,171.299c-0.109,0-0.217-0.048-0.291-0.139c-0.128-0.16-0.103-0.394,0.057-0.523
									c1.41-1.136,2.579-0.461,3,0.054c0.13,0.159,0.107,0.394-0.053,0.523c-0.159,0.129-0.392,0.106-0.522-0.05
									c-0.08-0.095-0.802-0.879-1.958,0.052C226.738,171.272,226.655,171.299,226.573,171.299z"/>
							</g>
						</g>
					</g>
					<path fill="#F7D9BC" d="M228.018,184.784c0,0.08-0.002,0.159-0.007,0.237"/>
					<rect x="233.044" y="196.089" fill="#F6A49B" width="1.045" height="4.227"/>
					<rect x="214.164" y="196.089" fill="#F6A49B" width="1.045" height="4.227"/>
					<path opacity="0.2" fill="#F7A584" d="M224.116,187.185c0.005,0,0.011,0,0.016,0l0,0c4.632,0,8.387-3.756,8.387-8.388v-5.963
						l-0.024-0.056c0,0-0.483,8.285-6.94,10.801c-0.929,0.362-1.968,0.362-2.897,0c-6.458-2.516-6.94-10.801-6.94-10.801
						l-0.025,0.056v5.963c0,4.632,3.756,8.388,8.388,8.388l0,0c0.005,0,0.011,0,0.016,0"/>
					<path fill="#27282A" d="M231.792,162.762c-1.199-2.804-4.015-5.194-10.397-4.119c-0.105,0.176-1.631,0.235-2.649,1.941
						c-1.876,0.23-4.356,2.114-3.052,11.82c0,0,1.406-10.922,5.061-6.907c0,0,0-0.002,0-0.002c1.188,1.362,4.328,3.793,11.676,3.965
						c0.103,1.599,0.047,2.937,0.047,2.937C234.749,165.069,232.883,163.226,231.792,162.762z"/>
					<path opacity="0.1" fill="#F3F3F3" d="M224.656,166.546c-1.015-0.456-1.903-1.217-2.64-2.264
						c-1.086-1.54-2.752-1.219-2.769-1.216l0.061,0.298c0.061-0.012,1.491-0.28,2.459,1.094c0.769,1.092,1.7,1.888,2.765,2.366
						c1.663,0.746,4.485,1.599,8.854,1.773c0.016-0.103,0.032-0.205,0.044-0.303C229.093,168.125,226.298,167.282,224.656,166.546z"
						/>
					<path opacity="0.1" fill="#F3F3F3" d="M233.503,165.671c-7.35-0.143-8.943-1.777-9.29-2.509l-0.036-0.066
						c-2.075-2.837-4.929-1.71-4.958-1.698l0.115,0.282c0.026-0.011,2.662-1.049,4.585,1.577l0.017,0.035
						c0.778,1.642,4.166,2.583,9.593,2.684C233.523,165.871,233.514,165.77,233.503,165.671z"/>
				</g>
			</g>
		</g>
		<rect x="257.474" y="161.601" fill="#D0D2D3" width="57.911" height="7.01"/>
		<rect x="257.474" y="176.606" fill="#D0D2D3" width="57.911" height="7.01"/>
		<rect x="257.474" y="191.612" fill="#D0D2D3" width="57.911" height="7.01"/>
		<rect x="227.764" y="214.23" fill="#D0D2D3" width="87.621" height="7.011"/>
		<rect x="227.764" y="236.849" fill="#D0D2D3" width="87.621" height="7.011"/>
		<rect x="227.764" y="259.468" fill="#D0D2D3" width="87.621" height="7.011"/>
		<rect x="227.764" y="282.087" fill="#D0D2D3" width="87.621" height="7.011"/>
		<g>
			<rect x="205.583" y="212.478" fill="none" stroke="#58595B" stroke-miterlimit="10" width="9.718" height="8.671"/>
			<rect x="205.583" y="236.019" fill="none" stroke="#58595B" stroke-miterlimit="10" width="9.718" height="8.672"/>
			<rect x="205.583" y="259.56" fill="none" stroke="#58595B" stroke-miterlimit="10" width="9.718" height="8.673"/>
			<rect x="205.583" y="283.102" fill="none" stroke="#58595B" stroke-miterlimit="10" width="9.718" height="8.672"/>
		</g>
		<g>
			<g>
				<g>
					<defs>
						<path id="SVGID_3_" d="M385.218,354.068h-259.54c-5.188,0-9.393-4.007-9.393-8.948V189.06c0-4.942,4.205-8.949,9.393-8.949
							h259.54c5.188,0,9.393,4.007,9.393,8.949v156.06C394.61,350.062,390.405,354.068,385.218,354.068z"/>
					</defs>
					<clipPath id="SVGID_4_">
						<use xlink:href="#SVGID_3_"  overflow="visible"/>
					</clipPath>
					<g clip-path="url(#SVGID_4_)">
						<g>
							<path fill="#FFBE90" d="M191.412,291.517c-2.132-1.578-2.768-4.149-2.9-6.894c-1.56,7.023-6.115,6.758-7.231,7.354
								c-0.057,0.04-0.11,0.082-0.167,0.119c0.041-0.044,0.1-0.083,0.167-0.119c6.735-4.64,7.315-12.792,7.363-13.938
								c0.067-8.59-2.491-17.188-7.271-24.329c-3.158-4.716-7.744-9.942-3.792-15.613c1.018-1.459,2.603-2.394,4.032-3.451
								c3.311-2.449,6.003-5.819,7.294-9.729c0.614-1.859,2.068-12.174-1.853-11.487c-0.641,0.112-1.19,0.508-1.718,0.89
								c-4.143,2.988-8.466,5.723-12.942,8.184c-3.915,2.153-6.513,2.817-8.005,7.225c-4.868,14.378-10.201,28.07-7.266,43.51
								c1.843,9.69-3.753,20.031-8.889,28.456c-0.869,1.426-1.828,2.847-2.178,4.478c7.443,8.793,15.28,17.661,24.698,24.295
								c3.476-4.805,6.994-9.654,11.47-13.543c3.988-3.463,4.304-5.36,8.912-7.944v-8.497L191.412,291.517z"/>
							<g>
								<path fill="#F4CDB3" d="M176.641,226.611c0.07,0.109,0.15,0.224,0.272,0.269c0.16,0.059,0.334-0.019,0.485-0.096
									c1.561-0.793,3.074-1.68,4.529-2.654c0.651-0.437,1.3-0.899,1.797-1.506c0.702-0.855,1.056-1.947,1.245-3.037
									c0.281-1.619,0.22-3.294-0.164-4.89c-3.201,2.284-6.51,4.417-9.911,6.39C174.965,223.074,175.788,225.283,176.641,226.611z"
									/>
								<path fill="#FFA97C" d="M173.798,227.973c-0.766-0.592-1.008-3.092-1.126-3.991c-0.069-0.53-0.1-1.053-0.103-1.576
									c-0.059,0.032-0.117,0.066-0.175,0.098c-0.257,0.141-0.507,0.275-0.753,0.405
									C171.585,224.835,172.354,226.856,173.798,227.973z"/>
								<path fill="#FFA97C" d="M171.636,227.973c-0.767-0.592-1.009-3.092-1.126-3.991c-0.02-0.153-0.035-0.305-0.049-0.457
									c-0.32,0.166-0.629,0.328-0.928,0.488C169.737,225.572,170.465,227.069,171.636,227.973z"/>
								<path opacity="0.4" fill="#FFA97C" d="M165.07,278.122c-0.182-9.117-5.231-17.259-6.919-26.084
									c-0.081-0.424-0.164-0.848-0.247-1.273c-1.628,7.253-2.27,14.638-0.78,22.475c1.843,9.69-3.753,20.031-8.889,28.456
									c-0.869,1.426-1.828,2.847-2.178,4.478c1.203,1.42,2.417,2.842,3.645,4.256c1.37-1.648,2.625-3.42,3.848-5.166
									C159.29,297.069,165.271,288.124,165.07,278.122z"/>
								<path fill="#FFA97C" d="M171.802,238.968c2.046-0.234,4.136-0.585,6.079-1.255c0.265-0.327,0.558-0.626,0.872-0.909
									c-0.432,0.143-0.835,0.288-1.167,0.439c-2.072,0.954-4.26,1.59-6.535,1.807
									C171.302,239.023,171.552,238.997,171.802,238.968z"/>
								<path fill="#FFA97C" d="M172.032,328.708c0.674-0.925,1.357-1.844,2.05-2.755c-0.621-0.737-1.271-1.443-1.973-2.103
									c-5.361-5.024-11.105-10.014-15.482-15.97c3.958,5.387,7.917,10.773,11.874,16.16
									C169.656,325.61,170.816,327.185,172.032,328.708z"/>
								<path fill="#F9FAFE" d="M143.686,295.417c0,0,11.367,23.357,31.132,38.06c0.306,0.864-4.421,5.294-4.421,5.294
									s-24.981-15.304-33.63-37.994C137.631,298.411,143.686,295.417,143.686,295.417z"/>
								<g>
									<path fill="#FFFFFF" d="M137.722,299.612c0,0,3.092,19.097,35.735,36.13c-1.348-0.917-34.361,44.429-34.361,44.429
										l-50.754-40.28L137.722,299.612z"/>
									<path opacity="0.1" fill="#303637" d="M158.009,326.061h-2.655l-47.022,29.697l30.764,24.413
										c0,0,33.014-45.346,34.361-44.429C167.322,332.541,162.232,329.266,158.009,326.061L158.009,326.061z"/>
								</g>
							</g>
						</g>
					</g>
					<g clip-path="url(#SVGID_4_)">
						<g>
							<rect x="256.48" y="203.939" fill="none" width="103.945" height="147.741"/>
							<g>
								<g>
									<path fill="#FBA478" d="M327.487,238.083c1.154,1.507,1.938,3.261,2.685,5.007c1.438,3.357,2.785,6.752,4.046,10.18
										c1.343,3.656,2.593,7.383,3.042,11.252c0.292,2.513,0.244,5.05,0.195,7.578c-0.216,11.076-0.432,22.152-0.647,33.228
										c-1.65-1.966-2.618-4.399-3.527-6.801c-4.531-11.994-8.222-24.309-11.03-36.82c-0.914-4.082-1.743-8.201-3.163-12.136
										c-0.956-2.645-2.173-5.186-3.387-7.722c-1.876-3.917-3.672-7.887-5.655-11.751c2.724-1.004,5.772,1.195,8.314,2.145
										C321.796,233.524,325.198,235.095,327.487,238.083z"/>
									<path fill="#E67944" d="M279.604,240.741c0.746,0.611,1.682,1.097,2.156,1.208c1.778,0.416,3.443-1.212,5.084-1.619
										c1.054-0.261,2.146-0.315,3.229-0.366c2.548-0.124,5.096-0.246,7.643-0.368c0.344-0.017,0.704-0.029,1.013,0.122
										c0.33,0.161,0.545,0.481,0.752,0.783c0.983,1.434,2.131,2.756,3.412,3.933c0.432,0.397,0.897,0.806,1.078,1.365
										c0.287,0.9-0.255,1.827-0.681,2.671c-1.093,2.167-1.502,4.675-1.153,7.078c0.056,0.388,0.129,0.788,0.01,1.161
										c-0.151,0.472-0.577,0.791-0.961,1.105c-2.608,2.144-4.143,5.533-4.028,8.907c3.552,0.195,7.146-0.436,10.421-1.827
										c1.827-0.776,3.592-1.817,4.854-3.35c1.435-1.736,2.123-3.992,2.33-6.236c0.206-2.243-0.036-4.501-0.277-6.74
										c-0.225-2.084-0.464-4.219-1.391-6.101c-0.908-1.845-2.431-3.332-4.134-4.482c-2.33-1.577-5.021-2.573-7.774-3.165
										c-4.829-1.038-10.12-1.651-14.728,0.337c-2.424,1.045-4.846,2.089-7.269,3.135c-0.218,0.093-0.447,0.198-0.567,0.401
										C278.252,239.328,278.823,240.103,279.604,240.741z"/>
									<path fill="#FBA478" d="M305.399,256.414c-0.008-1.208-0.253-2.436,0.07-3.597c0.389-1.402,1.527-2.443,2.423-3.592
										c0.177-0.225,0.352-0.476,0.359-0.761c0.005-0.248-0.117-0.477-0.235-0.695c-2.428-4.449-2.38-8.881-7.896-10.516
										c-5.639-1.672-12.466-0.602-18.305-0.472c-1.908,0.043-4.155-0.268-4.597-2.623c-0.028-0.147-0.042-0.306,0.016-0.443
										c0.064-0.149,0.203-0.25,0.341-0.335c0.955-0.592,2.106-0.75,3.192-1.043c2.971-0.802,5.659-2.027,8.7-2.611
										c4.729-0.906,9.457-1.812,14.185-2.719c0.672-0.128,1.369-0.257,2.034-0.093c0.691,0.169,1.266,0.633,1.816,1.084
										c2.593,2.129,5.185,4.258,7.777,6.387c1.85,1.519,3.775,3.139,4.628,5.375c0.722,1.896,0.581,3.995,0.459,6.02
										c-0.462,7.625-0.49,15.275-0.089,22.902c0.116,2.203,0.214,4.947-1.332,6.728c-2.909,3.35-11.29,0.512-14.453-1.316
										c-4.282-2.478-5.734-6.72-2.641-10.823c1.417-1.88,3.221-3.684,3.504-6.019C305.391,256.975,305.4,256.695,305.399,256.414
										z"/>
									<path fill="#FFBE90" d="M338.19,289.51c-0.851-8.812-1.302-17.256-2.972-25.95c-0.027-0.148,0.241,2.056,0.271,1.907
										c0.579-2.858-0.314-5.83-1.663-8.417c-1.351-2.585-3.149-4.91-4.583-7.45c-3.381-5.997-4.63-13.026-8.135-18.95
										c-0.845-1.428-1.869-2.83-3.334-3.609c-1.159-0.617-2.496-0.791-3.801-0.954c-4.369-0.548-8.739-1.096-13.108-1.645
										c-2.86-0.359-5.738-0.718-8.617-0.563c-4.513,0.242-8.603,1.485-12.981,0.366c-0.905-0.231-1.781,0.696-1.825,1.628
										c-0.046,0.933,0.489,1.792,1.076,2.518c2.117,2.618,5.234,4.406,8.563,4.912c2.431,0.37,4.929,0.081,7.354,0.475
										c2.161,0.351,4.195,1.232,6.192,2.126c3.574,1.599,7.116,3.264,10.626,4.994c1.139,0.561,2.413,1.31,2.603,2.565
										c0.168,1.129-0.625,2.146-1.288,3.077c-3.127,4.392-4.15,10.217-2.705,15.41c0.769,2.765-2.59,3.729-4.918,4.124
										c-2.559,0.436-4.089-1.208-5.431-3.381c-2.394-3.878-3.33-8.446-4.705-12.791c-0.057-0.296-0.198-0.6-0.301-0.883
										c-0.809-2.234-1.854-4.399-3.069-6.439c-0.671-1.128-1.406-2.224-2.236-3.243c-1.696-2.082-4.518-2.855-7.018-1.943
										c-1.526,0.557-2.697,1.851-3.425,3.303c-1.596,3.188-0.652,6.278-0.089,9.583c0.331,1.947,0.657,3.896,0.977,5.847
										c0.661,4.045,1.583,8.096,3.37,11.808c2.837,5.896,4.417,11.797,6.147,17.963c1.821,6.494,6.014,12.821,9.628,18.437
										c7.57,11.762,16.606,22.676,22.466,35.467c3.162,6.901,5.31,14.21,7.008,21.595c0.709,3.085,1.812,18.579,4.769,19.468
										c1.352,0.407,4.689-2.44,5.996-2.937c3.541-1.345,7.62-1.929,11.313-2.755c2.335-0.522,21.125-5.637,22.148-4.113
										C356.622,347.437,340.966,318.223,338.19,289.51z"/>
									<path fill="#F4CDB3" d="M278.73,245.046c0,0-0.584-8.672,8.803-4.38c0.361,0.119,2.329,6.528,2.214,8.09
										c-0.241-0.48-3.828,3.163-8.753,3.542C280.851,252.489,278.73,245.046,278.73,245.046z"/>
									<path fill="#F4CDB3" d="M280.87,226.269c2.046,0.646,4.243,0.809,6.361,0.472c-0.171-0.759-0.341-1.517-0.512-2.275
										c-2.242,0.256-4.452,0.396-6.73-0.059c0.089,0.709,0.235,1.393,0.492,1.661
										C280.582,226.174,280.729,226.224,280.87,226.269z"/>
									<path fill="#FFAC7A" d="M289.314,227.597c-0.136-1.14-0.159-2.29-0.096-3.435c-0.179,0.021-0.356,0.042-0.532,0.064
										C288.791,225.366,288.997,226.497,289.314,227.597z"/>
									<path fill="#FFAC7A" d="M291.028,226.383c-0.083-0.809,0.006-1.621,0.134-2.426c-0.148,0.012-0.297,0.025-0.445,0.04
										c-0.001,0.096-0.005,0.191,0.002,0.288C290.771,224.991,290.875,225.692,291.028,226.383z"/>
									<path fill="#FFAC7A" d="M293.193,233.634c0.453-0.306,0.893-0.618,1.313-0.915c0.735-0.519,1.48-1.047,2.054-1.741
										c-0.942,1.137-3.15,1.972-4.533,2.587C292.417,233.58,292.806,233.602,293.193,233.634z"/>
									<path fill="#FFAC7A" d="M305.707,238.233c1.077-0.326,2.123-0.758,3.165-1.192c-1.279,0.529-2.588,0.779-3.939,0.838
										C305.19,237.998,305.45,238.113,305.707,238.233z"/>
									<path fill="#FFAC7A" d="M315.839,231.428c-0.262-1.687-0.159-3.366,0.145-5.019c-0.271-0.061-0.545-0.11-0.821-0.154
										C314.789,228.13,315.563,229.652,315.839,231.428z"/>
									<path fill="#FBA478" d="M300.663,264.308c0.665,3.473,0.894,7.029,0.661,10.559c0.361-3.174,0.487-6.433,0.271-9.644
										C301.265,264.96,300.955,264.653,300.663,264.308z"/>
									<path fill="#FFAC7A" d="M321.429,244.539c-2.791-0.437-5.528-1.198-8.149-2.252c0.294,0.337,0.507,0.723,0.576,1.177
										c0.039,0.266,0.021,0.526-0.031,0.781C316.299,244.9,318.914,245.021,321.429,244.539z"/>
									<path fill="#FFAC7A" d="M291.747,250.267c-2.857,1.96-6.247,3.463-9.688,3.996c1.438-0.748,2.385-1.492,3.997-1.913
										C287.87,251.877,290.179,251.341,291.747,250.267z"/>
									<path fill="#FFAC7A" d="M282.868,255.756c1.599,0.375,3.294,0.386,4.874-0.06c1.531-0.431,3.057-1.32,4.026-2.602
										c-1.193,0.678-2.561,0.994-3.807,1.566C286.357,255.395,284.605,255.594,282.868,255.756z"/>
								</g>
								<path fill="#F9FAFE" d="M306.902,322.296v5.852c0,0,35.217-7.541,40.406-15.571c-0.699-2.017-3.46-5.264-3.46-5.264
									S340.296,315.657,306.902,322.296z"/>
								<path fill="#FFFFFF" d="M346.265,310.61c0,0-11.619,12.42-39.36,17.081c-0.093,0.311,13.076,47.22,13.076,47.22
									s50.823-18.328,50.514-18.796C370.185,355.649,346.265,310.61,346.265,310.61z"/>
								<path opacity="0.1" fill="#303637" d="M346.473,364.858c-2.61-7.053-6.943-18.726-10.518-28.166
									c-3.24-8.559-5.856-15.282-6.001-15.068c-2.912,1.625-9.521,3.304-14.771,4.467c-2.325,0.561-4.791,1.068-7.4,1.505
									c-0.092,0.31,12.914,46.635,12.914,46.635S333.729,369.529,346.473,364.858z"/>
								<g>
									<path fill="#303637" d="M264.338,223.069c0,0,40.633,17.071,78.788,45.523c0.248,0.657,1.486,3.94-4.212,5.472
										C338.666,274.282,276.478,235.763,264.338,223.069z"/>
									<path fill="#999999" d="M264.338,223.069c0,0,3.494,3.382,6.698,5.858c0.037,0.03,2.39,0.21,1.968-1.942
										C272.855,226.916,264.338,223.069,264.338,223.069z"/>
									<path fill="#131313" d="M264.338,223.069l2.888,2.665c0,0,1.144-0.026,1.021-0.956
										C268.196,224.812,264.338,223.069,264.338,223.069z"/>
									<path fill="#131313" d="M322.814,254.551c-0.558,2-1.881,4.305-4.748,6.602c0.208,0.134,0.415,0.266,0.622,0.397
										c2.805-2.273,4.173-4.559,4.787-6.574C323.256,254.833,323.036,254.692,322.814,254.551z"/>
									<path opacity="0.2" fill="#F1F1F1" d="M276.112,229.429c0,0,32.828,16.634,44.102,25.607c0,0.327-1.115,1.532-1.115,1.532
										L276.112,229.429z"/>
									<path opacity="0.2" fill="#F1F1F1" d="M323.476,259.139L340.9,271.45c0,0,1.736-0.593,1.208-2.297
										c0.094-0.083-18.209-11.656-18.209-11.656L323.476,259.139z"/>
								</g>
							</g>
						</g>
					</g>
				</g>
			</g>
		</g>
		<polyline fill="none" stroke="#34BF6E" stroke-width="3" stroke-miterlimit="10" points="204.045,208.582 210.442,216.813 
			225.729,205.592 		"/>
		<polyline fill="none" stroke="#34BF6E" stroke-width="3" stroke-miterlimit="10" points="204.045,232.215 210.442,240.446 
			225.729,229.225 		"/>
		<polyline fill="none" stroke="#34BF6E" stroke-width="3" stroke-miterlimit="10" points="204.045,255.85 210.442,264.079 
			225.729,252.858 		"/>
		<polyline fill="none" stroke="#34BF6E" stroke-width="3" stroke-miterlimit="10" points="204.045,279.481 210.442,287.714 
			225.729,276.491 		"/>
		<polygon fill="#FFCE55" points="424.783,344.419 482.644,365.615 467.171,383.104 		"/>
		<polygon fill="#FFCE55" points="404.347,357.226 418.301,384.359 404.347,386.309 		"/>
		<polygon points="96.623,360.504 61.076,392.425 51.278,380.08 		"/>
		<g>
			<polygon points="93.692,353.158 59.326,361.523 57.655,346.614 			"/>
		</g>
		<g>
			<g>
				<path fill="none" stroke="#83B735" stroke-miterlimit="10" d="M202.821,84.109c-0.505-0.501-1.148-0.755-1.934-0.755h-14.384
					c-0.955-4.654-2.75-8.692-5.385-12.114h19.599c0.788,0,1.431-0.252,1.937-0.758c0.502-0.505,0.754-1.147,0.754-1.936v-8.579
					c0-0.787-0.252-1.434-0.754-1.937c-0.506-0.504-1.15-0.757-1.937-0.757h-69.994c-0.785,0-1.431,0.253-1.935,0.757
					c-0.503,0.503-0.757,1.15-0.757,1.937v11.186c0,0.73,0.267,1.358,0.798,1.895c0.534,0.529,1.167,0.8,1.894,0.8h12.198
					c11.833,0,19.352,3.166,22.547,9.503h-34.745c-0.785,0-1.433,0.254-1.935,0.758c-0.503,0.503-0.757,1.151-0.757,1.936v8.582
					c0,0.787,0.253,1.431,0.757,1.934c0.504,0.504,1.151,0.755,1.935,0.755h35.923c-1.231,4.601-4.109,8.107-8.625,10.517
					c-4.514,2.414-10.47,3.619-17.875,3.619h-9.422c-0.727,0-1.36,0.267-1.894,0.8c-0.531,0.533-0.798,1.163-0.798,1.895v10.684
					c0,0.731,0.253,1.344,0.757,1.849c10.769,11.44,24.734,27.453,41.896,48.039c0.504,0.67,1.205,1.007,2.103,1.007h16.403
					c1.179,0,1.994-0.502,2.441-1.514c0.561-1.01,0.453-1.963-0.337-2.859c-16.375-20.08-29.246-35.11-38.614-45.094
					c9.535-1.122,17.274-4.208,23.22-9.254c5.944-5.05,9.559-11.609,10.854-19.688h14.132c0.786,0,1.429-0.247,1.934-0.755
					c0.506-0.499,0.758-1.147,0.758-1.932v-8.582C203.579,85.26,203.327,84.612,202.821,84.109z"/>
			</g>
		</g>
	</g>
</g>
<g id="DESIGNED_BY_FREEPIK">
</g>
</svg>
