<?xml version="1.0" encoding="utf-8"?>
<!-- Generator: Adobe Illustrator 16.0.0, SVG Export Plug-In . SVG Version: 6.00 Build 0)  -->
<!DOCTYPE svg PUBLIC "-//W3C//DTD SVG 1.1//EN" "http://www.w3.org/Graphics/SVG/1.1/DTD/svg11.dtd">
<svg version="1.1" id="Layer_1" xmlns="http://www.w3.org/2000/svg" xmlns:xlink="http://www.w3.org/1999/xlink" x="0px" y="0px"
	 width="376.25px" height="342.5px" viewBox="0 0 376.25 342.5" enable-background="new 0 0 376.25 342.5" xml:space="preserve">
<g>
	<g>
		<g>
			<path fill="#493757" d="M300.709,276.869h-98.311c-3.775,0-6.836-3.061-6.836-6.836V69.329c0-3.775,3.061-6.836,6.836-6.836
				h98.311c3.775,0,6.836,3.061,6.836,6.836v200.705C307.545,273.809,304.484,276.869,300.709,276.869z"/>
			<g>
				<path fill="#301D41" d="M191.342,108.805h-7.479c-1.347,0-2.438-1.092-2.438-2.438V89.529c0-1.347,1.092-2.438,2.438-2.438
					h7.479c1.346,0,2.438,1.092,2.438,2.438v16.838C193.779,107.713,192.688,108.805,191.342,108.805z"/>
				<path fill="#493757" d="M191.035,108.805h-1.236c-1.516,0-2.744-1.229-2.744-2.745V89.835c0-1.516,1.229-2.745,2.744-2.745
					h1.236c1.516,0,2.744,1.229,2.744,2.745v16.224C193.779,107.576,192.551,108.805,191.035,108.805z"/>
			</g>
			<path fill="#301D41" d="M288.896,276.869h-96.59c-4.25,0-7.695-3.445-7.695-7.696V70.189c0-4.25,3.445-7.697,7.695-7.697h96.59
				c4.25,0,7.695,3.446,7.695,7.697v198.984C296.592,273.424,293.146,276.869,288.896,276.869z"/>
			<path fill="#FFFFFF" d="M290.969,71.16v193.72c0,1.17-0.951,2.12-2.121,2.12h-97.399c-1.17,0-2.12-0.95-2.12-2.12V71.16
				c0-1.18,0.95-2.13,2.12-2.13h97.399C290.018,69.03,290.969,69.98,290.969,71.16z"/>
			<circle fill="#FAE38B" cx="240.148" cy="247.722" r="13.945"/>
			<path fill="#FFFFFF" d="M238.908,254.542c-0.443,0-0.865-0.196-1.15-0.538l-5.719-6.839c-0.531-0.636-0.446-1.581,0.189-2.112
				c0.635-0.533,1.581-0.448,2.113,0.188l4.494,5.376l6.934-9.374c0.494-0.668,1.433-0.806,2.098-0.314
				c0.666,0.493,0.807,1.432,0.314,2.098l-8.067,10.907c-0.273,0.37-0.702,0.594-1.161,0.607
				C238.938,254.542,238.923,254.542,238.908,254.542z"/>
			<g>
				<path fill="#301D41" d="M250.074,74.853H231.27c-0.852,0-1.543-0.691-1.543-1.543v-0.388c0-0.852,0.691-1.543,1.543-1.543
					h18.805c0.852,0,1.543,0.691,1.543,1.543v0.388C251.617,74.162,250.926,74.853,250.074,74.853z"/>
				<circle fill="#301D41" cx="226.509" cy="73.115" r="1.737"/>
			</g>
			<g>
				<path fill="#301D41" d="M309.148,108.805h-7.479c-1.346,0-2.438-1.092-2.438-2.438V89.529c0-1.347,1.092-2.438,2.438-2.438
					h7.479c1.346,0,2.438,1.092,2.438,2.438v16.838C311.586,107.713,310.494,108.805,309.148,108.805z"/>
				<path fill="#493757" d="M308.842,108.805h-1.236c-1.516,0-2.744-1.229-2.744-2.745V89.835c0-1.516,1.229-2.745,2.744-2.745
					h1.236c1.516,0,2.744,1.229,2.744,2.745v16.224C311.586,107.576,310.357,108.805,308.842,108.805z"/>
			</g>
			<g>
				<path fill="#301D41" d="M309.148,133.702h-7.479c-1.346,0-2.438-1.092-2.438-2.438v-16.838c0-1.347,1.092-2.438,2.438-2.438
					h7.479c1.346,0,2.438,1.091,2.438,2.438v16.838C311.586,132.61,310.494,133.702,309.148,133.702z"/>
				<path fill="#493757" d="M308.842,133.702h-1.236c-1.516,0-2.744-1.229-2.744-2.746v-16.224c0-1.516,1.229-2.745,2.744-2.745
					h1.236c1.516,0,2.744,1.229,2.744,2.745v16.224C311.586,132.472,310.357,133.702,308.842,133.702z"/>
			</g>
		</g>
		<path fill="#FAE38B" d="M271.154,100.67h-62.453c-1.457,0-2.639-1.181-2.639-2.638V87.068c0-1.457,1.182-2.638,2.639-2.638h62.453
			c1.457,0,2.639,1.181,2.639,2.638v10.964C273.793,99.489,272.611,100.67,271.154,100.67z"/>
		<g>
			<path fill="#FAE38B" d="M276.877,220.023h-73.899c-2.13,0-3.854-1.987-3.854-4.439V132.87c0-2.452,1.725-4.439,3.854-4.439
				h73.899c2.129,0,3.855,1.987,3.855,4.439v82.714C280.732,218.036,279.006,220.023,276.877,220.023z"/>
			<path fill="#FFFFFF" d="M269.084,211.376h-54.816c-1.258,0-2.277-1.019-2.277-2.276v-0.572c0-1.257,1.02-2.276,2.277-2.276
				h54.816c1.258,0,2.277,1.02,2.277,2.276v0.572C271.361,210.357,270.342,211.376,269.084,211.376z"/>
			<path fill="#FFFFFF" d="M269.084,199.631h-54.816c-1.258,0-2.277-1.02-2.277-2.276v-0.573c0-1.257,1.02-2.276,2.277-2.276h54.816
				c1.258,0,2.277,1.02,2.277,2.276v0.573C271.361,198.611,270.342,199.631,269.084,199.631z"/>
			<path fill="#FFFFFF" d="M269.084,187.885h-54.816c-1.258,0-2.277-1.02-2.277-2.276v-0.573c0-1.257,1.02-2.275,2.277-2.275h54.816
				c1.258,0,2.277,1.019,2.277,2.275v0.573C271.361,186.865,270.342,187.885,269.084,187.885z"/>
			<path fill="#FFFFFF" d="M269.084,144.105h-54.816c-1.258,0-2.277-1.019-2.277-2.276v-0.573c0-1.257,1.02-2.276,2.277-2.276
				h54.816c1.258,0,2.277,1.019,2.277,2.276v0.573C271.361,143.086,270.342,144.105,269.084,144.105z"/>
		</g>
		<path opacity="0.2" fill="#FFFFFF" d="M287.559,69.03L235.219,267h-43.771c-1.17,0-2.12-0.95-2.12-2.12V71.16
			c0-1.18,0.95-2.13,2.12-2.13H287.559z"/>
		<g>
			<path fill="#FAA754" d="M196.577,246.12c-0.891-0.483-1.772-0.979-2.646-1.484c-30.042-17.45-49.115-49.5-51.022-85.736
				l-1.666-31.648l6.96,0.136c3.288,0,32.526-0.506,46.472-18.017l4.619-5.802l4.902,5.565c15.893,18.042,46.745,18.25,47.055,18.25
				h6.549l-0.326,6.54l-1.314,24.975c-1.907,36.236-20.98,68.286-51.021,85.735c-0.873,0.507-1.754,1.002-2.644,1.484l-2.958,1.603
				L196.577,246.12z"/>
			<polygon fill="#FAA754" points="254.35,118.458 257.8,127.466 248.984,134.636 			"/>
			<path fill="#FAD85E" d="M191.662,237.116c-0.911-0.481-1.813-0.975-2.706-1.479c-30.85-17.439-50.439-49.5-52.399-85.761
				l-1.712-31.655l6.979,0.133c1.634,0,10.291-0.125,20.344-2.598c12.394-3.049,21.675-8.258,27.587-15.482l4.571-5.588l4.845,5.353
				c16.383,18.103,48.209,18.313,48.529,18.313h6.559l-0.338,6.549l-1.35,24.976c-1.961,36.261-21.55,68.322-52.4,85.761
				c-0.893,0.505-1.793,0.998-2.703,1.479l-2.902,1.535L191.662,237.116z"/>
			<path fill="#83B841" d="M194.564,231.622L194.564,231.622L194.564,231.622c-0.859-0.453-1.709-0.918-2.551-1.395
				c-29.175-16.493-47.443-47.223-49.252-80.688l-1.351-24.975c0,0,35.918,0.709,53.154-20.356
				c18.547,20.493,53.154,20.356,53.154,20.356l-1.352,24.975c-1.809,33.465-20.076,64.195-49.252,80.688
				C196.273,230.704,195.423,231.169,194.564,231.622z"/>
			<path fill="#299780" d="M194.564,104.208c-17.235,21.065-53.154,20.356-53.154,20.356l0.392,7.253
				c3.919,0.002,34.812-1.076,52.762-19.062c17.661,17.985,48.899,18.995,52.762,19.055l0.393-7.247
				C247.719,124.564,213.111,124.701,194.564,104.208z"/>
			<g>
				<g>
					<g>
						<path fill="#299780" d="M213.73,202.938h-31.646c-2.812,0-5.091-2.279-5.091-5.091v-36.737h41.827v36.737
							C218.82,200.658,216.541,202.938,213.73,202.938z"/>
						<path fill="#299780" d="M197.907,139.443c8.669,0,15.722,7.053,15.722,15.722v15.721h-31.443v-15.721
							C182.186,146.496,189.238,139.443,197.907,139.443 M197.907,134.25c-11.55,0-20.914,9.364-20.914,20.914v20.914h41.827
							v-20.914C218.82,143.614,209.457,134.25,197.907,134.25L197.907,134.25z"/>
						<rect x="176.994" y="161.109" fill="#299780" width="41.827" height="3.304"/>
					</g>
					<g>
						<circle fill="#299780" cx="197.907" cy="176.078" r="6.901"/>
						<path fill="#299780" d="M198.703,193.786h-1.592c-1.475,0-2.67-1.195-2.67-2.67v-10.934c0-1.475,1.195-2.67,2.67-2.67h1.592
							c1.475,0,2.67,1.195,2.67,2.67v10.934C201.373,192.591,200.178,193.786,198.703,193.786z"/>
					</g>
					<circle fill="#299780" cx="213.68" cy="198.079" r="1.889"/>
					<circle fill="#299780" cx="181.846" cy="198.079" r="1.888"/>
				</g>
				<g>
					<g>
						<path fill="#FAD85E" d="M210.387,200.301h-31.646c-2.812,0-5.091-2.279-5.091-5.091v-36.737h41.828v36.737
							C215.479,198.021,213.199,200.301,210.387,200.301z"/>
						<path fill="#FAD85E" d="M195.455,136.585c8.301,0,15.053,6.752,15.053,15.052v16.834h-31.887v-16.834
							c0-8.299,6.752-15.052,15.051-15.052H195.455 M195.455,131.614h-1.783c-11.057,0-20.021,8.964-20.021,20.022v21.806h41.828
							v-21.806C215.479,140.579,206.514,131.614,195.455,131.614L195.455,131.614z"/>
						<rect x="173.65" y="158.473" fill="#FAA754" width="41.828" height="3.304"/>
					</g>
					<g>
						<circle fill="#FAA754" cx="194.564" cy="173.442" r="6.902"/>
						<path fill="#FAA754" d="M195.359,191.15h-1.591c-1.475,0-2.67-1.195-2.67-2.67v-10.934c0-1.475,1.195-2.67,2.67-2.67h1.591
							c1.475,0,2.67,1.195,2.67,2.67v10.934C198.029,189.955,196.834,191.15,195.359,191.15z"/>
					</g>
					<circle fill="#FAA754" cx="210.337" cy="195.442" r="1.888"/>
					<circle fill="#FAA754" cx="178.503" cy="195.442" r="1.888"/>
				</g>
			</g>
		</g>
	</g>
	<g>
		<g>
			<path fill="#493757" d="M144.7,303.304L42.236,285.864c-3.752-0.639-6.276-4.197-5.637-7.949l10.415-61.191
				c0.638-3.752,4.198-6.275,7.949-5.637l102.464,17.438c3.752,0.639,6.275,4.198,5.638,7.95l-10.415,61.191
				C152.011,301.419,148.452,303.942,144.7,303.304z"/>
			<path fill="#FAD85E" d="M70.474,239.825l-15.289-2.603c-1.729-0.294-2.892-1.934-2.598-3.663l2.309-13.566
				c0.294-1.729,1.935-2.893,3.663-2.598l15.289,2.602c1.729,0.294,2.892,1.935,2.597,3.663l-2.309,13.567
				C73.843,238.956,72.203,240.119,70.474,239.825z"/>
			<g>
				
					<rect x="52.593" y="223.966" transform="matrix(0.9858 0.1678 -0.1678 0.9858 38.6796 -7.9277)" fill="#493757" width="27.336" height="2"/>
				
					<rect x="51.333" y="231.372" transform="matrix(0.9858 0.1678 -0.1678 0.9858 39.9034 -7.6114)" fill="#493757" width="27.337" height="2"/>
				<path fill="#493757" d="M62.688,239.897c-2.217-0.377-3.712-2.486-3.335-4.702l2.405-14.136
					c0.377-2.216,2.487-3.711,4.703-3.334s3.712,2.486,3.335,4.702l-2.406,14.136C67.013,238.779,64.904,240.275,62.688,239.897z
					 M66.126,219.697c-1.129-0.192-2.204,0.57-2.396,1.698l-2.405,14.136c-0.192,1.128,0.57,2.203,1.698,2.395
					c1.129,0.192,2.204-0.569,2.396-1.698l2.406-14.135C68.017,220.964,67.254,219.89,66.126,219.697z"/>
			</g>
			<path fill="#FAD85E" d="M147.745,242.775l-62.523-10.642c-1.058-0.18-1.769-1.183-1.589-2.24l0,0
				c0.18-1.059,1.184-1.77,2.241-1.59l62.524,10.642c1.057,0.18,1.77,1.184,1.589,2.241l0,0
				C149.806,242.244,148.804,242.955,147.745,242.775z"/>
			<path fill="#FAA754" d="M113.478,243.533l-29.347-4.994c-1.058-0.181-1.769-1.184-1.589-2.241l0,0
				c0.18-1.058,1.183-1.77,2.241-1.589l29.347,4.994c1.058,0.181,1.769,1.184,1.589,2.241l0,0
				C115.539,243.002,114.536,243.714,113.478,243.533z"/>
			
				<rect x="40.902" y="253.091" transform="matrix(0.9858 0.1678 -0.1678 0.9858 44.6373 -13.0868)" fill="#83B841" width="117.72" height="9.029"/>
			
				<rect x="38.772" y="267.859" transform="matrix(0.9858 0.1678 -0.1678 0.9858 46.7043 -12.5517)" fill="#83B841" width="117.719" height="4.515"/>
			<path fill="#FFFFFF" d="M137.05,293.701l-39.249-6.681c-2.146-0.365-3.589-2.4-3.224-4.547l0,0
				c0.365-2.146,2.401-3.59,4.547-3.225l39.249,6.681c2.146,0.365,3.59,2.4,3.225,4.547l0,0
				C141.231,292.623,139.196,294.066,137.05,293.701z"/>
		</g>
		<g>
			<path fill="#FAE38B" d="M72.103,255.835c-1.043-0.178-1.748-1.171-1.57-2.214l0.328-1.931c0.178-1.043,1.171-1.747,2.214-1.569
				c1.044,0.178,1.748,1.17,1.57,2.214l-0.328,1.93C74.139,255.309,73.146,256.013,72.103,255.835z M72.907,251.106
				c-0.5-0.085-0.975,0.252-1.06,0.752l-0.329,1.931c-0.085,0.499,0.252,0.975,0.751,1.06c0.5,0.085,0.976-0.252,1.061-0.751
				l0.329-1.931C73.745,251.667,73.407,251.191,72.907,251.106z"/>
			<path fill="#FAE38B" d="M78.141,256.862c-1.043-0.178-1.748-1.17-1.57-2.214l0.329-1.93c0.178-1.044,1.17-1.748,2.214-1.57
				c1.043,0.178,1.747,1.17,1.569,2.214l-0.328,1.931C80.177,256.336,79.184,257.04,78.141,256.862z M78.946,252.135
				c-0.5-0.085-0.976,0.252-1.061,0.751l-0.329,1.931c-0.085,0.5,0.252,0.976,0.752,1.061c0.5,0.085,0.975-0.253,1.06-0.752
				l0.329-1.931C79.783,252.695,79.446,252.22,78.946,252.135z"/>
			<path fill="#FAE38B" d="M84.18,257.891c-1.043-0.178-1.748-1.171-1.57-2.214l0.328-1.931c0.178-1.044,1.171-1.747,2.214-1.569
				c1.043,0.177,1.748,1.17,1.57,2.214l-0.329,1.93C86.216,257.364,85.223,258.067,84.18,257.891z M84.984,253.162
				c-0.5-0.085-0.975,0.252-1.06,0.752l-0.329,1.93c-0.085,0.5,0.253,0.976,0.752,1.061s0.975-0.252,1.06-0.752l0.328-1.93
				C85.821,253.723,85.484,253.247,84.984,253.162z"/>
			<path fill="#FAE38B" d="M90.218,258.918c-1.043-0.178-1.748-1.17-1.57-2.214l0.329-1.931c0.177-1.043,1.17-1.747,2.213-1.569
				c1.043,0.178,1.748,1.17,1.57,2.214l-0.329,1.931C92.254,258.392,91.261,259.096,90.218,258.918z M91.023,254.19
				c-0.5-0.086-0.976,0.252-1.061,0.751l-0.328,1.931c-0.085,0.499,0.252,0.975,0.751,1.06c0.5,0.086,0.976-0.252,1.061-0.751
				l0.329-1.931C91.86,254.75,91.522,254.275,91.023,254.19z"/>
			<path fill="#FAE38B" d="M96.256,259.945c-1.043-0.178-1.748-1.17-1.57-2.214l0.329-1.93c0.178-1.044,1.17-1.747,2.214-1.57
				c1.043,0.178,1.748,1.171,1.57,2.214l-0.329,1.931C98.292,259.42,97.3,260.123,96.256,259.945z M97.061,255.218
				c-0.499-0.085-0.976,0.252-1.061,0.752l-0.328,1.93c-0.085,0.5,0.252,0.976,0.752,1.061c0.5,0.085,0.975-0.252,1.061-0.752
				l0.328-1.931C97.898,255.778,97.561,255.303,97.061,255.218z"/>
			<path fill="#FAE38B" d="M102.295,260.974c-1.044-0.178-1.748-1.171-1.57-2.214l0.328-1.931c0.178-1.043,1.171-1.747,2.215-1.569
				c1.043,0.178,1.747,1.17,1.569,2.214l-0.328,1.93C104.332,260.447,103.338,261.15,102.295,260.974z M103.1,256.245
				c-0.5-0.085-0.976,0.252-1.061,0.752l-0.329,1.931c-0.085,0.499,0.252,0.975,0.752,1.06c0.499,0.085,0.975-0.252,1.06-0.752
				l0.329-1.93C103.937,256.806,103.6,256.33,103.1,256.245z"/>
			<path fill="#FAE38B" d="M108.333,262.001c-1.043-0.178-1.747-1.17-1.57-2.214l0.329-1.93c0.178-1.044,1.171-1.748,2.214-1.57
				c1.043,0.178,1.748,1.171,1.57,2.214l-0.329,1.931C110.37,261.475,109.377,262.179,108.333,262.001z M109.138,257.273
				c-0.5-0.085-0.975,0.252-1.06,0.751l-0.329,1.931c-0.085,0.5,0.252,0.975,0.752,1.061c0.5,0.085,0.976-0.252,1.061-0.752
				l0.328-1.931C109.975,257.834,109.638,257.358,109.138,257.273z"/>
			<path fill="#FAE38B" d="M114.372,263.029c-1.043-0.178-1.748-1.171-1.57-2.214l0.329-1.931c0.178-1.043,1.17-1.747,2.214-1.569
				c1.043,0.177,1.748,1.17,1.57,2.214l-0.328,1.93C116.409,262.503,115.416,263.206,114.372,263.029z M115.177,258.301
				c-0.5-0.085-0.975,0.252-1.06,0.752l-0.329,1.93c-0.085,0.5,0.252,0.976,0.752,1.061c0.5,0.085,0.975-0.252,1.061-0.752
				l0.329-1.93C116.014,258.861,115.676,258.386,115.177,258.301z"/>
			<path fill="#FAE38B" d="M120.411,264.057c-1.044-0.178-1.748-1.17-1.57-2.214l0.328-1.931c0.178-1.043,1.17-1.747,2.215-1.569
				c1.043,0.178,1.746,1.17,1.569,2.214l-0.329,1.931C122.446,263.53,121.454,264.234,120.411,264.057z M121.216,259.329
				c-0.5-0.085-0.977,0.252-1.061,0.751l-0.328,1.931c-0.086,0.5,0.252,0.975,0.752,1.06c0.5,0.086,0.975-0.252,1.06-0.751
				l0.329-1.931C122.052,259.89,121.716,259.414,121.216,259.329z"/>
			<path fill="#FAE38B" d="M126.45,265.084c-1.045-0.177-1.748-1.17-1.57-2.214l0.328-1.93c0.178-1.044,1.17-1.747,2.214-1.569
				c1.044,0.177,1.747,1.17,1.569,2.213l-0.328,1.931C128.485,264.559,127.493,265.262,126.45,265.084z M127.255,260.356
				c-0.5-0.085-0.977,0.252-1.061,0.752l-0.33,1.93c-0.084,0.5,0.254,0.976,0.753,1.061s0.976-0.252,1.06-0.752l0.329-1.93
				C128.091,260.917,127.753,260.441,127.255,260.356z"/>
		</g>
	</g>
	<path fill="#FAE38B" d="M119.178,101.01H70.306v-2.947c0-2.342,1.898-4.24,4.24-4.24h4.24v-4.976
		c0-6.038,4.895-10.933,10.933-10.933h4.975c5.952,0,10.776,4.825,10.776,10.776v0.039h4.24c5.229,0,9.468,4.239,9.468,9.468V101.01
		z"/>
	<path fill="#FAE38B" d="M172.868,54.271h-58.045v-0.27c0-5.809,4.709-10.519,10.519-10.519h2.966l0,0
		c0-5.66,4.588-10.249,10.249-10.249h8.091c3.277,0,5.934,2.657,5.934,5.934l0,0h5.184C166.105,39.168,172.868,45.93,172.868,54.271
		L172.868,54.271z"/>
	<path fill="#FAE38B" d="M359.289,106.222h-35.783v-0.166c0-3.581,2.903-6.484,6.484-6.484h1.828l0,0
		c0-3.489,2.83-6.318,6.318-6.318h4.988c2.02,0,3.658,1.638,3.658,3.658l0,0h3.195C355.121,96.911,359.289,101.08,359.289,106.222
		L359.289,106.222z"/>
	<ellipse fill="#83B841" cx="241.563" cy="301.948" rx="24.883" ry="3.99"/>
</g>
</svg>
