<?xml version="1.0" encoding="utf-8"?>
<!-- Generator: Adobe Illustrator 16.0.0, SVG Export Plug-In . SVG Version: 6.00 Build 0)  -->
<!DOCTYPE svg PUBLIC "-//W3C//DTD SVG 1.1//EN" "http://www.w3.org/Graphics/SVG/1.1/DTD/svg11.dtd">
<svg version="1.1" xmlns="http://www.w3.org/2000/svg" xmlns:xlink="http://www.w3.org/1999/xlink" x="0px" y="0px" width="500px"
	 height="400.479px" viewBox="0 0 500 400.479" enable-background="new 0 0 500 400.479" xml:space="preserve">
<g id="BACKGROUND" display="none">
	<rect y="-29.657" display="inline" fill="#7D3AEA" width="500" height="500"/>
</g>
<g id="OBJECTS">
	<g>
		<g>
			<path fill="#EF6CA8" d="M73.979,303.857c0,0.57-0.389,1.035-0.866,1.035h-6.716c-0.479,0-0.867-0.465-0.867-1.035v-9.819
				c0-0.571,0.388-1.035,0.867-1.035h6.716c0.477,0,0.866,0.464,0.866,1.035V303.857z"/>
			<path fill="#83B735" d="M464.732,111.655c-0.997-2.264-1.748-2.523-4.776-2.523h-90.173v201.623h118.178
				c2.896,0,4.197-1.279,4.197-3.664V207.8L464.732,111.655z"/>
			<path fill="#3E347F" d="M484.058,310.665c-0.672-35.067-24.707-63.248-54.263-63.248c-29.557,0-53.592,28.181-54.263,63.248
				H484.058z"/>
			<g>
				<path fill="#534D9F" d="M472.887,312.17c0,28.391-19.292,51.404-43.092,51.404c-23.799,0-43.092-23.014-43.092-51.404
					c0-28.387,19.293-51.405,43.092-51.405C453.595,260.765,472.887,283.783,472.887,312.17z"/>
				<path fill="#FFFFFF" d="M453.297,312.17c0,15.488-10.521,28.037-23.502,28.037c-12.981,0-23.506-12.549-23.506-28.037
					c0-15.483,10.524-28.036,23.506-28.036C442.775,284.134,453.297,296.687,453.297,312.17z"/>
				<path fill="#A09BBF" d="M429.795,274.872c-17.269,0-31.268,16.697-31.268,37.298c0,20.599,13.999,37.298,31.268,37.298
					s31.268-16.699,31.268-37.298C461.063,291.569,447.063,274.872,429.795,274.872z M429.795,335.115
					c-10.623,0-19.234-10.273-19.234-22.945c0-12.673,8.611-22.945,19.234-22.945s19.233,10.272,19.233,22.945
					C449.028,324.842,440.418,335.115,429.795,335.115z"/>
			</g>
			<rect x="86.931" y="275.549" fill="#3E347F" width="257.253" height="16.289"/>
			<rect x="355.309" y="99.6" fill="#534D9F" width="14.475" height="211.154"/>
			<g>
				<rect x="70.665" y="290.681" fill="#534D9F" width="299.118" height="20.129"/>
				<rect x="70.665" y="300.689" fill="#3E347F" width="299.118" height="10.12"/>
			</g>
			<g>
				<path fill="#83B735" d="M355.185,275.06c0,0.755-0.536,1.363-1.2,1.363H77.088c-0.662,0-1.199-0.608-1.199-1.363V56.861
					c0-0.751,0.537-1.363,1.199-1.363h276.896c0.664,0,1.2,0.612,1.2,1.363V275.06z"/>
				<path fill="#FDD961" d="M331.92,260.439c0,2.59-1.761,4.692-3.933,4.692h-48.53c-2.175,0-3.936-2.103-3.936-4.692v-51.636
					c0-2.593,1.761-4.694,3.936-4.694h48.53c2.172,0,3.933,2.101,3.933,4.694V260.439z"/>
				<g>
					<g>
						<path fill="#FDD961" d="M152.058,219.363c0,2.189-1.489,3.963-3.326,3.963H98.75c-1.836,0-3.324-1.774-3.324-3.963l0,0
							c0-2.189,1.488-3.965,3.324-3.965h49.982C150.569,215.397,152.058,217.173,152.058,219.363L152.058,219.363z"/>
						<path fill="#FDD961" d="M152.058,234.619c0,2.191-1.489,3.97-3.326,3.97H98.75c-1.836,0-3.324-1.778-3.324-3.97l0,0
							c0-2.187,1.488-3.964,3.324-3.964h49.982C150.569,230.655,152.058,232.433,152.058,234.619L152.058,234.619z"/>
						<path fill="#FDD961" d="M152.058,249.881c0,2.188-1.489,3.964-3.326,3.964H98.75c-1.836,0-3.324-1.776-3.324-3.964l0,0
							c0-2.19,1.488-3.968,3.324-3.968h49.982C150.569,245.913,152.058,247.69,152.058,249.881L152.058,249.881z"/>
					</g>
				</g>
				<rect x="190.884" y="55.59" fill="#FDD961" width="46.797" height="65.919"/>
			</g>
			<path fill="#3E347F" d="M185.943,310.906c-0.672-35.07-24.708-63.25-54.264-63.25c-29.557,0-53.592,28.18-54.262,63.25H185.943z"
				/>
			<g>
				<path fill="#534D9F" d="M174.771,312.409c0,28.39-19.292,51.405-43.092,51.405c-23.799,0-43.092-23.016-43.092-51.405
					c0-28.394,19.293-51.404,43.092-51.404C155.479,261.005,174.771,284.016,174.771,312.409z"/>
				<ellipse fill="#FFFFFF" cx="131.68" cy="312.409" rx="23.504" ry="28.04"/>
				<path fill="#A09BBF" d="M131.68,275.11c-17.268,0-31.266,16.697-31.266,37.299c0,20.599,13.999,37.3,31.266,37.3
					c17.269,0,31.267-16.701,31.267-37.3C162.947,291.808,148.948,275.11,131.68,275.11z M131.68,335.355
					c-10.624,0-19.236-10.273-19.236-22.946c0-12.67,8.613-22.948,19.236-22.948c10.623,0,19.235,10.278,19.235,22.948
					C150.915,325.082,142.302,335.355,131.68,335.355z"/>
			</g>
			<g>
				<polygon fill="#E5BBCE" points="473.282,219.304 376.968,219.304 376.968,121.107 453.721,121.107 473.282,194.67 				"/>
				<polygon fill="#05B3E9" points="466.122,212 384.131,212 384.131,128.41 449.467,128.41 466.122,191.032 				"/>
				<g>
					<polygon fill="#FFFFFF" points="425.127,128.457 406.811,212 415.603,212 433.916,128.457 					"/>
					<polygon fill="#FFFFFF" points="415.936,128.379 397.62,212 403.477,212.008 421.666,128.413 					"/>
				</g>
			</g>
			<g>
				<path fill="#FDC028" d="M492.203,230.175H480.1c-0.992,0-1.802,0.959-1.802,2.142v20.33c0,1.186,0.81,2.142,1.802,2.142h12.104
					V230.175z"/>
				<path fill="#EF6CA8" d="M490.049,236.566c0,0.285-0.194,0.516-0.437,0.516h-7.611c-0.239,0-0.438-0.23-0.438-0.516v-2.389
					c0-0.283,0.198-0.518,0.438-0.518h7.611c0.242,0,0.437,0.234,0.437,0.518V236.566z"/>
			</g>
		</g>
		<g>
			<polygon fill="#534D9F" points="7.751,203.821 73.223,199.011 73.223,209.502 			"/>
			<polygon fill="#534D9F" points="7.751,219.12 52.213,214.846 52.213,224.173 			"/>
			<polygon fill="#534D9F" points="7.751,249.623 68.582,245.35 68.582,254.675 			"/>
			<polygon fill="#534D9F" points="7.751,234.372 96.431,230.097 96.431,239.423 			"/>
		</g>
	</g>
</g>
<g id="DESIGNED_BY_FREEPIK">
</g>
</svg>
