<?xml version="1.0" encoding="utf-8"?>
<!-- Generator: Adobe Illustrator 16.0.0, SVG Export Plug-In . SVG Version: 6.00 Build 0)  -->
<!DOCTYPE svg PUBLIC "-//W3C//DTD SVG 1.1//EN" "http://www.w3.org/Graphics/SVG/1.1/DTD/svg11.dtd">
<svg version="1.1" xmlns="http://www.w3.org/2000/svg" xmlns:xlink="http://www.w3.org/1999/xlink" x="0px" y="0px" width="500px"
	 height="400.479px" viewBox="0 0 500 400.479" enable-background="new 0 0 500 400.479" xml:space="preserve">
<g id="BACKGROUND" display="none">
	<rect y="-29.657" display="inline" fill="#7D3AEA" width="500" height="500"/>
</g>
<g id="OBJECTS">
	<g>
		<path fill="#388E3C" d="M410.988,276.243c-20.476,0-37.074,16.597-37.074,37.071v48.572h74.146v-48.572
			C448.061,292.84,431.462,276.243,410.988,276.243z"/>
		<path fill="#2E7D32" d="M481.954,331.33c0,14.301-11.593,25.895-25.892,25.895c-14.301,0-25.894-11.594-25.894-25.895
			c0-14.298,11.593-25.892,25.894-25.892C470.361,305.438,481.954,317.032,481.954,331.33z"/>
		<circle fill="#1B5E20" cx="39.803" cy="340.002" r="17.223"/>
		<circle fill="#2E7D32" cx="77.991" cy="321.64" r="35.585"/>
		<rect x="10.462" y="347.692" fill="#434343" width="486.557" height="19.789"/>
		<g>
			<rect x="91.998" y="144.646" fill="#FFBB43" width="323.485" height="203.046"/>
			<path fill="#F5F5F5" d="M416.396,335.409h-30.85v12.283h34.397v-8.736C419.943,336.997,418.355,335.409,416.396,335.409z"/>
			<g>
				<rect x="294.663" y="200.841" fill="#3E2723" width="90.883" height="146.852"/>
				<rect x="300.061" y="206.239" fill="#80CBC4" width="80.088" height="136.055"/>
				<g>
					<polygon fill="#B2DFDB" points="380.146,239.905 380.146,248.251 338.134,206.239 346.479,206.239 					"/>
					<polygon fill="#B2DFDB" points="380.146,321.928 380.146,330.266 300.061,250.18 300.061,241.841 					"/>
					<polygon fill="#B2DFDB" points="380.146,252.687 380.146,269.379 317.008,206.239 333.698,206.239 					"/>
				</g>
				<rect x="300.061" y="206.239" opacity="0.2" fill="#212121" width="80.088" height="2.887"/>
				<polygon opacity="0.4" fill="#212121" points="294.663,314.971 294.663,347.692 327.385,347.692 				"/>
				<g>
					<circle fill="#E0E0E0" cx="309.758" cy="264.736" r="3.452"/>
					<circle fill="#E0E0E0" cx="309.758" cy="289.465" r="3.452"/>
					<path fill="#F5F5F5" d="M309.758,262.037c-1.093,0-1.977,0.884-1.977,1.977v26.173c0,1.093,0.884,1.978,1.977,1.978
						s1.978-0.885,1.978-1.978v-26.173C311.735,262.921,310.851,262.037,309.758,262.037z"/>
				</g>
			</g>
			<path fill="#F5F5F5" d="M294.663,335.409H91.084c-1.958,0-3.546,1.588-3.546,3.547v8.736h207.125V335.409z"/>
			<rect x="91.592" y="131.799" fill="#BDBDBD" width="324.296" height="5.954"/>
			<rect x="91.592" y="119.891" fill="#BDBDBD" width="324.296" height="5.954"/>
			<rect x="95.572" y="125.845" fill="#FF7043" width="316.336" height="5.955"/>
			<rect x="95.572" y="125.845" opacity="0.4" fill="#212121" width="316.336" height="2.977"/>
			<g>
				<rect x="357.065" y="188.776" fill="#FF490F" width="18.146" height="7.057"/>
				<rect x="379.978" y="188.776" fill="#FF490F" width="18.147" height="7.057"/>
				<rect x="368.596" y="177.028" fill="#FF490F" width="18.147" height="7.057"/>
			</g>
			<g>
				<rect x="389.051" y="287.793" fill="#FF490F" width="18.147" height="7.058"/>
				<rect x="400.582" y="276.044" fill="#FF490F" width="18.146" height="7.06"/>
			</g>
			<g>
				<rect x="121.948" y="188.776" fill="#FF490F" width="18.146" height="7.057"/>
				<rect x="144.86" y="188.776" fill="#FF490F" width="18.147" height="7.057"/>
				<rect x="133.479" y="177.028" fill="#FF490F" width="18.146" height="7.057"/>
				<rect x="156.391" y="177.028" fill="#FF490F" width="18.146" height="7.057"/>
			</g>
			<g>
				<rect x="176.995" y="322.777" fill="#FF490F" width="18.146" height="7.058"/>
				<rect x="244.667" y="311.028" fill="#FF490F" width="18.146" height="7.06"/>
				<rect x="154.083" y="322.777" fill="#FF490F" width="18.147" height="7.058"/>
				<rect x="165.464" y="311.028" fill="#FF490F" width="18.147" height="7.06"/>
				<rect x="142.552" y="311.028" fill="#FF490F" width="18.146" height="7.06"/>
			</g>
			<g>
				<rect x="88.963" y="249.884" fill="#FF490F" width="13.115" height="7.058"/>
				<rect x="97.296" y="238.136" fill="#FF490F" width="13.115" height="7.057"/>
			</g>
			<g>
				<path fill="#F5F5F5" d="M385.546,221.582c-0.745,0-1.352,0.606-1.352,1.354v10.33c0,0.747,0.606,1.353,1.352,1.353
					c0.748,0,1.354-0.605,1.354-1.353v-10.33C386.9,222.188,386.294,221.582,385.546,221.582z"/>
				<path fill="#F5F5F5" d="M385.546,313.914c-0.745,0-1.352,0.606-1.352,1.353v10.331c0,0.748,0.606,1.354,1.352,1.354
					c0.748,0,1.354-0.605,1.354-1.354v-10.331C386.9,314.521,386.294,313.914,385.546,313.914z"/>
			</g>
			<rect x="240.575" y="188.776" fill="#FF490F" width="9.073" height="7.057"/>
			<rect x="250.931" y="177.028" fill="#FF490F" width="9.074" height="7.057"/>
			<rect x="226.651" y="177.028" fill="#FF490F" width="18.146" height="7.057"/>
			<rect x="104.503" y="310.537" fill="#FF490F" width="9.074" height="7.056"/>
			<rect x="89.072" y="298.789" fill="#FF490F" width="18.147" height="7.057"/>
			<rect x="391.949" y="241.371" fill="#FF490F" width="13.1" height="7.058"/>
			<rect x="271.442" y="219.265" fill="#FF490F" width="9.161" height="7.057"/>
			<rect x="276.021" y="229.435" fill="#FF490F" width="9.163" height="7.056"/>
			<g>
				<g>
					<path fill="#E0E0E0" d="M121.297,163.342c0,10.449,8.471,18.92,18.92,18.92l0,0c10.45,0,18.921-8.471,18.921-18.92V151.54
						h-37.841V163.342z"/>
					<path fill="#E0E0E0" d="M196.979,163.342c0,10.449,8.47,18.92,18.92,18.92l0,0c10.449,0,18.92-8.471,18.92-18.92V151.54h-37.84
						V163.342z"/>
					<path fill="#E0E0E0" d="M272.66,163.342c0,10.449,8.472,18.92,18.92,18.92l0,0c10.45,0,18.921-8.471,18.921-18.92V151.54
						H272.66V163.342z"/>
					<path fill="#E0E0E0" d="M348.343,151.54v11.802c0,10.449,8.47,18.92,18.919,18.92l0,0c10.45,0,18.922-8.471,18.922-18.92
						V151.54H348.343z"/>
				</g>
				<g>
					<polygon fill="#EEEEEE" points="121.297,151.54 159.138,151.54 163.658,137.753 127.625,137.753 					"/>
					<polygon fill="#EEEEEE" points="196.979,151.54 234.819,151.54 235.724,137.753 199.69,137.753 					"/>
					<polygon fill="#EEEEEE" points="271.757,137.753 272.66,151.54 310.502,151.54 307.79,137.753 					"/>
					<polygon fill="#EEEEEE" points="379.854,137.753 343.822,137.753 348.343,151.54 386.184,151.54 					"/>
				</g>
				<g>
					<path fill="#D32E2E" d="M83.457,163.342c0,10.449,8.47,18.92,18.92,18.92l0,0c10.449,0,18.92-8.471,18.92-18.92V151.54H83.457
						V163.342z"/>
					<path fill="#D32E2E" d="M159.138,163.342c0,10.449,8.471,18.92,18.92,18.92l0,0c10.449,0,18.921-8.471,18.921-18.92V151.54
						h-37.841V163.342z"/>
					<path fill="#D32E2E" d="M234.819,163.342c0,10.449,8.472,18.92,18.92,18.92c10.451,0,18.921-8.471,18.921-18.92V151.54h-37.841
						V163.342z"/>
					<path fill="#D32E2E" d="M310.501,163.342c0,10.449,8.472,18.92,18.921,18.92l0,0c10.45,0,18.921-8.471,18.921-18.92V151.54
						h-37.842V163.342z"/>
					<path fill="#D32E2E" d="M386.184,151.54v11.802c0,10.449,8.47,18.92,18.92,18.92l0,0c10.449,0,18.92-8.471,18.92-18.92V151.54
						H386.184z"/>
				</g>
				<g>
					<polygon fill="#E53A35" points="83.457,151.54 121.297,151.54 127.625,137.753 91.592,137.753 					"/>
					<polygon fill="#E53A35" points="159.138,151.54 196.979,151.54 199.69,137.753 163.658,137.753 					"/>
					<polygon fill="#E53A35" points="235.724,137.753 234.819,151.54 272.66,151.54 271.757,137.753 					"/>
					<polygon fill="#E53A35" points="307.79,137.753 310.502,151.54 348.343,151.54 343.822,137.753 					"/>
					<polygon fill="#E53A35" points="415.889,137.753 379.854,137.753 386.184,151.54 424.023,151.54 					"/>
				</g>
			</g>
			<rect x="95.52" y="200.841" fill="#FF490F" width="9.621" height="7.057"/>
			<g>
				<g>
					<rect x="117.482" y="202.347" fill="#3E2723" width="153.96" height="93.394"/>
					<rect x="122.88" y="207.745" fill="#80CBC4" width="143.164" height="82.599"/>
					<g>
						<polygon fill="#B2DFDB" points="266.042,232.116 266.042,244.899 228.887,207.745 241.668,207.745 						"/>
						<polygon fill="#B2DFDB" points="266.042,248.455 266.042,254.841 218.945,207.745 225.34,207.745 						"/>
						<polygon fill="#B2DFDB" points="266.042,277.564 266.042,290.348 253.261,290.348 170.658,207.745 196.222,207.745 						"/>
					</g>
					<rect x="122.88" y="207.745" opacity="0.2" fill="#212121" width="143.164" height="2.887"/>
				</g>
				<rect x="109.468" y="295.741" fill="#FAFBFB" width="169.989" height="17.573"/>
				<path fill="#2E7D32" d="M268.916,285.449H120.008c-3.944,0-7.141,3.196-7.141,7.141v3.151h163.189v-3.151
					C276.057,288.646,272.86,285.449,268.916,285.449z"/>
				<rect x="109.468" y="295.741" fill="#EEEEEE" width="169.986" height="3.767"/>
				<path fill="#1B5E20" d="M276.038,292.227H112.885c-0.006,0.122-0.018,0.241-0.018,0.363v3.151h163.189v-3.151
					C276.057,292.468,276.045,292.349,276.038,292.227z"/>
				<polygon opacity="0.4" fill="#212121" points="294.661,310.946 294.661,347.694 143.843,347.694 109.468,313.318 
					279.453,313.318 279.453,295.739 				"/>
			</g>
		</g>
		<path fill="#3E2723" d="M420.828,43.551H86.652c-5.231,0-9.472,4.241-9.472,9.471v51.622c0,5.23,4.241,9.471,9.472,9.471h334.176
			c5.231,0,9.471-4.24,9.471-9.471V53.021C430.299,47.792,426.06,43.551,420.828,43.551z"/>
		<path fill="#83B735" d="M418.723,49.147H88.757c-3.361,0-6.086,2.725-6.086,6.086v47.198c0,3.361,2.725,6.086,6.086,6.086h329.966
			c3.361,0,6.086-2.725,6.086-6.086V55.233C424.809,51.872,422.084,49.147,418.723,49.147z"/>
		<path opacity="0.2" fill="#212121" d="M424.806,55.234v0.679H82.675v-0.679c0-3.358,2.717-6.083,6.083-6.083h329.963
			C422.088,49.15,424.806,51.876,424.806,55.234z"/>
		<text transform="matrix(1 0 0 1 152.0078 98.5303)"><tspan x="0" y="0" fill="#FAFBFB" font-family="'OstrichSans-Black'" font-size="47.2185" letter-spacing="18">STOR</tspan><tspan x="180.232" y="0" fill="#FAFBFB" font-family="'OstrichSans-Black'" font-size="47.2185">E</tspan></text>
		<g>
			<rect x="115.081" y="114.114" fill="#212121" width="5.649" height="5.777"/>
			<rect x="386.75" y="114.114" fill="#212121" width="5.649" height="5.777"/>
		</g>
	</g>
</g>
<g id="DESIGNED_BY_FREEPIK">
</g>
</svg>
