<?xml version="1.0" encoding="UTF-8"?>
<!DOCTYPE svg PUBLIC "-//W3C//DTD SVG 1.1//EN" "http://www.w3.org/Graphics/SVG/1.1/DTD/svg11.dtd">
<!-- Creator: CorelDRAW 2017 -->
<svg xmlns="http://www.w3.org/2000/svg" xml:space="preserve" width="517px" height="517px" version="1.1" style="shape-rendering:geometricPrecision; text-rendering:geometricPrecision; image-rendering:optimizeQuality; fill-rule:evenodd; clip-rule:evenodd"
viewBox="0 0 85.21 85.21"
 xmlns:xlink="http://www.w3.org/1999/xlink">
 <defs>
  <style type="text/css">
   <![CDATA[
    .fil0 {fill:#FEFEFE}
    .fil2 {fill:white}
    .fil1 {fill:#EF7F1A;fill-opacity:0.501961}
   ]]>
  </style>
 </defs>
 <g id="Layer_x0020_1">
  <metadata id="CorelCorpID_0Corel-Layer"/>
  <path class="fil0" d="M42.6 0c23.53,0 42.61,19.07 42.61,42.6 0,23.53 -19.08,42.61 -42.61,42.61 -23.53,0 -42.6,-19.08 -42.6,-42.61 0,-23.53 19.07,-42.6 42.6,-42.6zm0 1.26c22.83,0 41.35,18.51 41.35,41.34 0,22.84 -18.52,41.35 -41.35,41.35 -22.83,0 -41.34,-18.51 -41.34,-41.35 0,-22.83 18.51,-41.34 41.34,-41.34z"/>
  <path class="fil1" d="M42.6 5.15c20.68,0 37.45,16.76 37.45,37.45 0,20.68 -16.77,37.45 -37.45,37.45 -20.69,0 -37.44,-16.77 -37.44,-37.45 0,-20.69 16.75,-37.45 37.44,-37.45z"/>
  <g id="_2150445215568">
   <g>
    <g>
     <path class="fil2" d="M64.78 52.95c-0.39,0 -0.32,0.01 -0.59,0.07 0.21,0.24 0.3,0.19 0.59,0.35 0.21,0.13 0.42,0.26 0.55,0.35 -0.12,0.19 -0.44,0.39 -0.66,0.5 -0.14,0.21 0.02,0.12 -0.32,0.25 -0.36,0.42 -1.32,0.99 -1.76,1.52 -0.45,-0.12 -0.66,-0.28 -1,-0.45 -0.24,-0.12 -0.63,-0.33 -0.88,-0.41l-0.29 0.23c0.44,0.2 1.34,0.63 1.72,0.89 -0.24,0.27 -0.35,0.35 -0.67,0.55l-0.28 0.23c-0.3,0.3 -1.53,1.3 -1.86,1.44 -0.33,-0.16 -0.62,-0.35 -0.93,-0.55 -0.29,-0.22 -0.56,-0.38 -0.88,-0.61 -0.37,0.09 -0.18,-0.03 -0.32,0.16 0.6,0.51 1.1,0.84 1.83,1.25l-0.73 0.5 -0.34 0.2c-0.19,0.19 -0.49,0.33 -0.8,0.46 -0.18,0.2 -0.16,0.18 -0.04,0.45 0.42,-0.18 0.83,-0.44 1.23,-0.65l0.3 -0.23c0.22,-0.22 0.41,-0.25 0.68,-0.47l0.75 0.32 0.23 -0.26 -0.6 -0.31c0.15,-0.17 0.73,-0.59 0.92,-0.72 0.34,-0.25 0.54,-0.49 0.94,-0.73l0.33 -0.23c0.14,-0.23 0.4,-0.37 0.62,-0.62l0.65 0.29 0.32 -0.24c-0.22,-0.07 -0.06,0 -0.33,-0.15 -0.2,-0.1 -0.13,-0.07 -0.23,-0.15 0.21,-0.27 1.55,-1.32 1.83,-1.46l0.22 -0.26c0.39,-0.15 0.31,-0.33 0.76,-0.49 0.42,0.17 0.19,0.18 0.67,0.34 0.33,-0.13 0.14,0 0.31,-0.22l-0.64 -0.37c0.31,-0.34 0.8,-0.53 1.15,-0.83 -0.24,-0.05 -0.28,-0.07 -0.58,-0.07l-0.91 0.63c-0.44,-0.11 -0.66,-0.28 -0.96,-0.5l0 0 0 0z"/>
     <path class="fil2" d="M66.72 54.09c-0.17,0.22 0.02,0.09 -0.31,0.22 -0.23,0.24 -0.36,0.25 -0.68,0.46l-0.29 0.23c-0.02,0 -0.05,0.05 -0.06,0.04 0,-0.01 -0.04,0.02 -0.05,0.04 -0.19,0.18 -0.27,0.2 -0.5,0.36 -0.18,0.13 -0.26,0.22 -0.43,0.35 -0.36,0.26 -0.53,0.46 -0.91,0.69l-0.32 0.24c-0.14,0.22 -0.4,0.39 -0.65,0.57 -0.15,0.11 -0.06,0.04 -0.18,0.15 -0.02,0.03 -0.08,0.08 -0.09,0.1 -0.01,0 -0.05,0.06 -0.06,0.05 0,-0.01 -0.03,0.03 -0.04,0.04 -0.34,0.24 -0.6,0.47 -0.91,0.72 -0.35,0.27 -0.58,0.52 -0.93,0.69l-0.23 0.26c-0.28,0.1 -0.43,0.31 -0.63,0.48 -0.27,0.11 -0.24,0.12 -0.45,0.25 -0.32,0.34 -0.81,0.54 -1.15,0.86 0.27,0.09 0.16,0.07 0.58,0.07l0.87 -0.65 0.39 -0.27c0.01,0 0.04,-0.02 0.05,-0.04 0.19,-0.16 0.47,-0.36 0.66,-0.46 0.14,-0.22 -0.02,-0.12 0.33,-0.25 0.16,-0.19 1.5,-1.28 1.81,-1.49l0.42 -0.35c0.27,-0.24 0.29,-0.28 0.65,-0.49l0.21 -0.26c0.21,-0.06 0.75,-0.57 0.97,-0.73 0.37,-0.29 0.55,-0.48 0.98,-0.67l0.3 -0.24 0.7 -0.51 0.34 -0.2c0.21,-0.22 0.49,-0.33 0.86,-0.53l0.12 -0.05 0 -0.36c-0.45,0.06 -1.28,0.68 -1.31,0.65 -0.01,-0.02 -0.04,0.02 -0.06,0.03l0 0 0 0z"/>
     <path class="fil2" d="M67.55 56.45c-0.16,0.14 -0.65,0.46 -0.89,0.62 -0.34,0.2 -0.59,0.37 -0.87,0.59 -0.58,-0.14 -1.26,-0.75 -1.97,-0.96l-0.21 0.26c0.59,0.28 1.17,0.67 1.74,0.88 -0.15,0.26 -0.33,0.42 -0.71,0.56l-0.26 0.24c-0.47,0.51 -1.37,1.02 -1.84,1.53 -0.28,-0.06 -1.55,-0.72 -1.81,-0.88 -0.35,0.13 -0.19,0.03 -0.33,0.25 0.31,0.1 0.68,0.33 0.99,0.49 0.33,0.17 0.78,0.28 0.73,0.51 0.43,-0.01 0.35,-0.06 0.74,-0.08 0.16,-0.24 1.65,-1.46 1.94,-1.58l0.29 -0.24c0.16,-0.24 0.37,-0.33 0.65,-0.5l0.63 0.35 0.33 -0.22 -0.63 -0.4c0.3,-0.26 0.6,-0.35 0.9,-0.6 0.35,-0.27 0.63,-0.44 1.07,-0.58 0,-0.02 -0.03,-0.21 -0.03,-0.22 -0.05,-0.15 -0.07,-0.12 -0.11,-0.15l-0.35 0.13 0 0 0 0z"/>
     <path class="fil2" d="M62.21 53.31c-0.18,0.3 -0.97,0.86 -1.38,1.18 -0.12,0.1 -0.13,0.12 -0.24,0.21 -0.1,0.08 -0.08,0.05 -0.15,0.1l-0.12 0.06 -0.35 0.27c-0.11,0.17 -0.43,0.37 -0.62,0.49 -0.19,0.2 -0.04,0.1 -0.34,0.22 -0.15,0.23 -1.54,1.07 -1.85,1.17l-0.17 0.37 0 0.11 0.21 -0.02c0.14,-0.19 -0.05,-0.07 0.32,-0.16 0.18,-0.16 0.22,-0.14 0.43,-0.29 0.23,-0.16 0.26,-0.19 0.47,-0.32 0.33,-0.2 0.54,-0.41 0.91,-0.58 0.19,-0.11 0.07,-0.04 0.22,-0.14l0.2 -0.16c0.22,-0.18 0.32,-0.32 0.67,-0.46l0.29 -0.23c0.18,-0.22 1.69,-1.43 1.92,-1.55l0.26 -0.22 0.06 -0.12c-0.4,0 -0.44,0.02 -0.74,0.07l0 0 0 0z"/>
     <path class="fil2" d="M60.29 53.59c-0.25,0.23 -0.6,0.52 -0.96,0.7 -0.36,-0.14 -0.68,-0.33 -0.88,-0.57 -0.33,-0.05 -0.25,-0.06 -0.7,-0.06 0.23,0.28 0.94,0.67 1.22,0.9l-0.63 0.43 -0.32 0.21c-0.27,0.19 -0.58,0.44 -0.95,0.55 -0.13,0.61 0.02,0.3 0.24,0.38 0.09,-0.15 0.85,-0.57 1.06,-0.64l0.33 -0.21 0.62 -0.49c0.42,0.1 0.33,0.14 0.65,0.34l0.35 -0.27 -0.6 -0.26c0.33,-0.48 0.87,-0.62 1.21,-1.09l-0.64 0.08 0 0z"/>
     <path class="fil2" d="M66.7 58.27l-0.33 0.22c-0.18,0.2 -0.42,0.39 -0.72,0.51 -0.07,0.06 -0.12,0.12 -0.17,0.16 -0.23,0.2 0.01,-0.01 -0.16,0.12 -0.35,0.25 -0.94,0.67 -1.17,0.97l0.65 -0.06c0.27,-0.23 0.58,-0.5 0.91,-0.72 0.19,-0.18 0.08,-0.1 0.36,-0.23 0.12,-0.2 0.53,-0.37 0.74,-0.49l0.31 -0.21c0.21,-0.23 0.64,-0.45 0.97,-0.58l-0.05 -0.3 -0.02 -0.05c-0.63,0.21 -0.82,0.5 -1.32,0.66l0 0 0 0z"/>
     <path class="fil2" d="M67.9 54.91c0.06,0.07 0.16,0.14 0.14,0.29 -0.04,0.24 0.05,0.13 -0.23,0.25 0.03,0.01 0.05,0.03 0.06,0.04 0,0.01 0.03,0.03 0.05,0.05l0.09 0.16c0.05,0.1 -0.07,0.01 0.08,0.18 0.44,0.11 0.89,0.28 1.28,0.15 -0.17,-0.41 -0.75,-0.31 -1.28,-0.48l0 -0.49c0.5,0.02 1.2,0.35 1.25,0.06 0.02,-0.02 0.03,-0.05 0.03,-0.06l0 -0.03c-0.03,-0.05 -0.13,-0.09 -0.52,-0.18 -0.25,-0.06 -0.49,-0.1 -0.76,-0.13 0,0 -0.08,0.08 -0.1,0.12 -0.02,0.01 -0.05,0.04 -0.05,0.03 0,-0.01 -0.04,0.02 -0.04,0.04l0 0 0 0z"/>
     <path class="fil2" d="M65.77 55.3c0.31,0.17 0.59,0.34 0.89,0.55 0.31,0.22 0.58,0.39 0.89,0.6l0.35 -0.13 -0.03 -0.06c-0.62,-0.43 -1.09,-0.87 -1.8,-1.2l-0.3 0.24 0 0 0 0z"/>
     <path class="fil2" d="M59.33 56.12c0.22,0.05 0.72,0.36 0.9,0.45 0.31,0.17 0.61,0.35 0.96,0.46l0.28 -0.23c-0.38,-0.16 -1.54,-0.7 -1.72,-0.98l-0.2 0.16c-0.15,0.1 -0.03,0.03 -0.22,0.14l0 0z"/>
     <path class="fil2" d="M62.54 57.8c0.58,0.12 1.25,0.64 1.84,0.84l0.26 -0.24c-0.23,-0.11 -0.59,-0.3 -0.87,-0.44 -0.22,-0.11 -0.29,-0.14 -0.48,-0.23 -0.32,-0.17 -0.25,-0.08 -0.33,-0.28l-0.42 0.35z"/>
     <path class="fil2" d="M62.63 53.58c0.57,0.31 1.18,0.59 1.72,0.89 0.34,-0.13 0.18,-0.04 0.32,-0.25 -0.25,-0.09 -0.65,-0.31 -0.93,-0.45 -0.26,-0.14 -0.53,-0.28 -0.85,-0.41l-0.26 0.22 0 0 0 0z"/>
     <path class="fil2" d="M56.99 58.7l0.04 0.09c0.41,0.18 0.7,0.38 0.93,0.63l0.34 -0.2c-0.2,-0.31 0.01,-0.07 -0.36,-0.31 -0.14,-0.07 -0.18,-0.12 -0.29,-0.21 -0.2,-0.17 -0.27,-0.32 -0.66,-0.4l0 0.4 0 0z"/>
     <path class="fil2" d="M57.05 54.49l0.04 0.12c0.4,0.18 0.36,0.28 0.64,0.45 0.21,0.15 0.06,0.08 0.29,0.14l0.32 -0.21c-0.26,-0.13 -0.36,-0.26 -0.6,-0.43l-0.71 -0.44 0.02 0.37 0 0z"/>
     <path class="fil2" d="M66.81 58.75c0.11,0.16 0.89,0.73 1.14,0.88 0.11,-0.28 0.1,-0.17 0.01,-0.48l-0.84 -0.61 -0.31 0.21 0 0z"/>
     <path class="fil2" d="M56.99 56.5l0.32 -0.37c-0.22,-0.08 -0.37,0.23 -0.24,-0.38l-0.08 0 0 0.37c-0.68,-0.02 -1.36,-0.44 -1.27,-0.03 0.04,0.22 0.92,0.32 1.27,0.41l0 0 0 0z"/>
     <path class="fil2" d="M66.77 54.55c0.17,0.24 0.02,0.08 0.31,0.26 0.11,0.07 0.13,0.08 0.26,0.17 0.2,0.16 0.35,0.28 0.47,0.47 0.28,-0.12 0.19,-0.01 0.23,-0.25 0.02,-0.15 -0.08,-0.22 -0.14,-0.29 -0.37,-0.18 -0.58,-0.36 -0.79,-0.56l-0.34 0.2z"/>
     <path class="fil2" d="M56.99 60.41c0.25,0 0.26,0.06 0.13,-0.08 -0.12,-0.27 -0.14,-0.25 0.04,-0.45l-0.15 -0.33c-0.78,-0.01 -0.61,-0.24 -1.3,-0.13 0.03,0.29 0.05,0.24 0.43,0.33 0.27,0.07 0.53,0.13 0.85,0.15l0 0.51 0 0z"/>
     <path class="fil2" d="M65.71 59.47c0.38,0.13 0.71,0.33 0.91,0.57 0.33,0.05 0.25,0.07 0.71,0.07 -0.2,-0.33 -0.31,-0.23 -0.59,-0.45 -0.34,-0.24 -0.21,-0.26 -0.67,-0.42 -0.28,0.13 -0.17,0.05 -0.36,0.23l0 0 0 0z"/>
     <path class="fil2" d="M56.99 57.38l0.17 -0.37 -0.17 -0.12c-0.12,0.16 0.02,0.17 -0.12,0.07 -0.53,-0.04 -0.51,-0.15 -1.16,-0.15l0 0.28 1.28 0.29 0 0z"/>
     <path class="fil2" d="M59.3 60.31c0.47,0.11 0.69,0.29 1,0.5 0.36,0 0.33,-0.01 0.6,-0.07 -0.36,-0.27 -0.87,-0.44 -1.16,-0.74 -0.01,0.02 -0.04,0.04 -0.05,0.04l-0.39 0.27 0 0 0 0z"/>
     <path class="fil2" d="M67.96 59.15c0.09,0.31 0.1,0.2 -0.01,0.48 -0.11,0.15 -0.12,0.09 0.14,0.09l0 -0.39c0.5,0.09 0.87,0.28 1.28,0.15 -0.1,-0.26 -0.09,-0.21 -0.49,-0.31 -0.34,-0.1 -0.51,-0.11 -0.79,-0.16l-0.13 0.14 0 0 0 0z"/>
     <path class="fil2" d="M57.07 60.81c0,-0.23 0.04,-0.18 -0.08,-0.33 -0.33,-0.13 -0.8,-0.23 -1.28,-0.23l0 0.29 1.36 0.27 0 0 0 0z"/>
     <path class="fil2" d="M56.99 53.91l0.13 -0.32c-0.56,-0.08 -0.74,-0.22 -1.41,-0.22l0 0.29 1.28 0.25z"/>
     <path class="fil2" d="M68.02 57.61l0.02 0.05c0.37,0 0.46,0.02 0.76,0.1 0.41,0.1 0.15,0.09 0.57,0.03 -0.05,-0.32 -0.41,-0.42 -1.28,-0.5 -0.12,0.16 -0.08,0.07 -0.07,0.32l0 0z"/>
     <path class="fil2" d="M68.08 54.21c0.35,0.01 0.43,0.03 0.72,0.1 0.41,0.12 0.15,0.11 0.57,0.05 -0.06,-0.48 -0.42,-0.26 -1.08,-0.49 -0.19,-0.07 -0.08,-0.02 -0.2,-0.1l-0.12 0.05 0.11 0.39 0 0 0 0z"/>
     <path class="fil2" d="M56.99 59.04c0.1,-0.13 0.09,0.01 0.04,-0.25l-0.04 -0.09c-0.74,-0.03 -1.19,-0.41 -1.27,-0.06 -0.06,0.27 0.95,0.38 1.27,0.4z"/>
     <path class="fil2" d="M56.99 55.62c0.1,-0.14 0.16,-0.14 0,-0.32 -0.77,-0.15 -1.2,-0.4 -1.27,-0.09 -0.06,0.25 0.95,0.36 1.27,0.41l0 0z"/>
     <path class="fil2" d="M68.04 56.69l0.05 -0.02c0.29,0.2 0.89,0.33 1.28,0.22 -0.1,-0.26 -0.09,-0.23 -0.49,-0.32 -0.31,-0.07 -0.43,-0.1 -0.79,-0.12l0 -0.23 -0.22 0.04 0.03 0.06c0.04,0.03 0.06,0 0.11,0.15 0,0.01 0.03,0.2 0.03,0.22l0 0 0 0z"/>
     <path class="fil2" d="M68.09 58.46c0.77,0.14 1.19,0.41 1.27,0.1 0.05,-0.26 -0.95,-0.37 -1.27,-0.4 -0.12,0.14 -0.15,0.13 0,0.3z"/>
     <path class="fil2" d="M67.96 60.19c0.54,0.06 0.93,0.28 1.41,0.13 -0.1,-0.25 -0.09,-0.23 -0.49,-0.3 -0.28,-0.07 -0.54,-0.09 -0.79,-0.16l-0.13 0.33 0 0z"/>
     <path class="fil2" d="M68.09 53.28l0.64 0.17c0.35,0.08 0.25,0.12 0.64,-0.01 -0.12,-0.27 -0.15,-0.24 -0.57,-0.33 -0.32,-0.07 -0.51,-0.11 -0.78,-0.16 -0.01,0.23 -0.07,0.18 0.07,0.33l0 0 0 0z"/>
     <path class="fil2" d="M56.99 58.17c0.15,-0.14 0.11,-0.15 0,-0.29 -0.45,-0.11 -0.9,-0.28 -1.28,-0.15 0.03,0.22 0.17,0.3 0.87,0.4l0.41 0.04z"/>
     <path class="fil2" d="M56.99 54.75l0.1 -0.14 -0.04 -0.12 -0.06 0c-0.36,-0.16 -0.91,-0.32 -1.28,-0.2 0.02,0.13 -0.09,0.18 0.46,0.32 0.28,0.08 0.59,0.1 0.82,0.14l0 0 0 0z"/>
     <path class="fil2" d="M58.35 59.68l0.65 0.35c0.21,-0.13 0.18,-0.14 0.45,-0.25 -0.47,-0.08 -0.1,0.01 -0.42,-0.17 -0.26,-0.14 -0.07,-0.06 -0.38,-0.16l-0.3 0.23 0 0z"/>
     <path class="fil2" d="M58.37 55.49l0.64 0.35c0.3,-0.12 0.15,-0.02 0.34,-0.22l-0.65 -0.34 -0.33 0.21 0 0z"/>
     <path class="fil2" d="M64.76 54.72c0.13,0.07 0.21,0.09 0.31,0.15 0.02,0.01 0.09,0.04 0.11,0.07 0.15,0.1 0.03,0 0.15,0.14 0.01,-0.02 0.05,-0.05 0.05,-0.04 0.01,0.01 0.04,-0.04 0.05,-0.04l0.3 -0.23c-0.29,-0.07 0,0.03 -0.2,-0.06 -0.15,-0.07 0,-0.01 -0.18,-0.1 -0.2,-0.1 -0.11,-0.07 -0.37,-0.15l-0.22 0.26 0 0 0 0z"/>
     <path class="fil2" d="M61.57 57.28c0.24,0.08 0.04,-0.02 0.29,0.12 0.03,0.01 0.09,0.05 0.12,0.07 0.18,0.13 0.01,-0.02 0.16,0.16 0.02,-0.01 0.05,-0.05 0.05,-0.04 0.01,0.01 0.05,-0.05 0.06,-0.05 0.01,-0.02 0.07,-0.07 0.09,-0.1 0.12,-0.11 0.03,-0.04 0.18,-0.15l-0.62 -0.24 -0.33 0.23 0 0z"/>
     <path class="fil2" d="M64.8 58.88c0.22,0.15 0.34,0.1 0.52,0.4 0.17,-0.13 -0.07,0.08 0.16,-0.12 0.05,-0.04 0.1,-0.1 0.17,-0.16 -0.19,-0.12 -0.36,-0.24 -0.56,-0.36l-0.29 0.24 0 0z"/>
    </g>
    <g>
     <path class="fil2" d="M52.24 53.27c-0.39,0.01 -0.32,0.02 -0.59,0.07 0.22,0.24 0.31,0.2 0.59,0.36 0.21,0.12 0.42,0.25 0.55,0.34 -0.13,0.19 -0.44,0.39 -0.65,0.5 -0.15,0.21 0.01,0.11 -0.33,0.25 -0.36,0.43 -1.32,1 -1.76,1.52 -0.44,-0.13 -0.66,-0.28 -1,-0.44 -0.24,-0.12 -0.63,-0.35 -0.88,-0.42l-0.29 0.22c0.45,0.22 1.34,0.64 1.73,0.9 -0.25,0.27 -0.35,0.35 -0.68,0.55l-0.27 0.24c-0.31,0.29 -1.53,1.28 -1.86,1.43 -0.34,-0.16 -0.63,-0.34 -0.93,-0.55 -0.3,-0.21 -0.57,-0.38 -0.89,-0.61 -0.37,0.1 -0.18,-0.03 -0.31,0.17 0.6,0.49 1.09,0.83 1.82,1.24l-0.73 0.5 -0.33 0.2c-0.2,0.2 -0.49,0.34 -0.81,0.46 -0.18,0.2 -0.16,0.19 -0.05,0.46 0.44,-0.18 0.84,-0.44 1.24,-0.67l0.31 -0.21c0.21,-0.23 0.4,-0.25 0.68,-0.47l0.75 0.32 0.22 -0.26 -0.6 -0.32c0.15,-0.16 0.73,-0.59 0.92,-0.71 0.34,-0.25 0.54,-0.49 0.94,-0.73l0.33 -0.25c0.14,-0.22 0.41,-0.36 0.61,-0.6l0.66 0.27 0.33 -0.23c-0.23,-0.07 -0.07,0.01 -0.34,-0.14 -0.19,-0.1 -0.13,-0.08 -0.23,-0.16 0.22,-0.26 1.55,-1.31 1.84,-1.46l0.21 -0.26c0.39,-0.15 0.31,-0.32 0.76,-0.49 0.42,0.18 0.2,0.19 0.67,0.34 0.33,-0.12 0.14,0.01 0.31,-0.23l-0.64 -0.35c0.31,-0.34 0.81,-0.54 1.15,-0.85 -0.24,-0.03 -0.27,-0.07 -0.58,-0.07l-0.91 0.65c-0.44,-0.12 -0.66,-0.29 -0.96,-0.51l0 0 0 0z"/>
     <path class="fil2" d="M54.18 54.4c-0.17,0.24 0.02,0.11 -0.31,0.23 -0.23,0.25 -0.36,0.25 -0.68,0.47l-0.3 0.22c0,0.01 -0.04,0.06 -0.05,0.04 0,-0.01 -0.04,0.03 -0.06,0.04 -0.19,0.18 -0.27,0.19 -0.49,0.37 -0.18,0.12 -0.26,0.21 -0.42,0.35 -0.37,0.26 -0.54,0.45 -0.91,0.68l-0.33 0.23c-0.14,0.23 -0.4,0.4 -0.65,0.59 -0.15,0.09 -0.06,0.03 -0.18,0.15 -0.02,0.01 -0.08,0.08 -0.09,0.09 -0.01,0.01 -0.05,0.06 -0.06,0.05 0,-0.02 -0.03,0.03 -0.04,0.04 -0.34,0.24 -0.6,0.48 -0.91,0.72 -0.35,0.27 -0.58,0.52 -0.93,0.7l-0.22 0.26c-0.29,0.1 -0.44,0.3 -0.64,0.48 -0.27,0.11 -0.24,0.12 -0.45,0.24 -0.32,0.33 -0.81,0.55 -1.15,0.86 0.27,0.09 0.16,0.06 0.58,0.06l0.87 -0.63 0.39 -0.27c0.01,-0.02 0.03,-0.02 0.05,-0.05 0.19,-0.15 0.47,-0.35 0.66,-0.45 0.14,-0.22 -0.02,-0.12 0.33,-0.25 0.16,-0.2 1.5,-1.29 1.82,-1.5l0.42 -0.34c0.27,-0.24 0.28,-0.29 0.64,-0.49l0.22 -0.26c0.19,-0.08 0.74,-0.58 0.95,-0.73 0.38,-0.3 0.56,-0.48 1,-0.68l0.29 -0.24 0.7 -0.5 0.34 -0.2c0.21,-0.23 0.49,-0.33 0.86,-0.53l0.12 -0.05 0 -0.37c-0.45,0.07 -1.28,0.69 -1.31,0.65 -0.01,-0.01 -0.04,0.02 -0.06,0.02l0 0 0 0z"/>
     <path class="fil2" d="M55.02 56.78c-0.16,0.13 -0.66,0.46 -0.9,0.6 -0.34,0.22 -0.59,0.38 -0.87,0.6 -0.58,-0.13 -1.26,-0.74 -1.96,-0.95l-0.22 0.26c0.59,0.27 1.17,0.66 1.75,0.87 -0.16,0.26 -0.34,0.43 -0.72,0.57l-0.26 0.23c-0.46,0.51 -1.37,1.03 -1.83,1.53 -0.29,-0.07 -1.56,-0.71 -1.82,-0.87 -0.35,0.13 -0.19,0.03 -0.33,0.25 0.31,0.1 0.68,0.32 0.99,0.48 0.33,0.16 0.78,0.28 0.74,0.51 0.43,-0.02 0.33,-0.05 0.73,-0.07 0.16,-0.24 1.65,-1.47 1.94,-1.59l0.3 -0.24c0.15,-0.23 0.36,-0.33 0.64,-0.49l0.64 0.34 0.33 -0.21 -0.64 -0.41c0.31,-0.26 0.6,-0.35 0.91,-0.59 0.34,-0.28 0.62,-0.45 1.06,-0.59 0,-0.01 -0.03,-0.2 -0.03,-0.23 -0.05,-0.13 -0.07,-0.1 -0.1,-0.13l-0.35 0.13 0 0 0 0z"/>
     <path class="fil2" d="M49.68 53.62c-0.18,0.32 -0.98,0.87 -1.39,1.19 -0.12,0.09 -0.13,0.13 -0.23,0.21 -0.11,0.08 -0.1,0.06 -0.16,0.11l-0.12 0.06 -0.35 0.26c-0.11,0.17 -0.43,0.37 -0.62,0.48 -0.18,0.21 -0.03,0.12 -0.34,0.24 -0.15,0.22 -1.53,1.06 -1.85,1.16l-0.17 0.37 0 0.1 0.22 0c0.13,-0.2 -0.06,-0.07 0.31,-0.17 0.18,-0.16 0.22,-0.13 0.43,-0.28 0.23,-0.16 0.26,-0.2 0.47,-0.33 0.33,-0.2 0.54,-0.42 0.92,-0.57 0.18,-0.11 0.07,-0.05 0.21,-0.15l0.21 -0.16c0.21,-0.18 0.3,-0.32 0.67,-0.47l0.28 -0.22c0.18,-0.22 1.69,-1.43 1.93,-1.54l0.26 -0.22 0.05 -0.14c-0.39,0 -0.44,0.03 -0.73,0.07l0 0 0 0z"/>
     <path class="fil2" d="M47.75 53.91c-0.25,0.23 -0.6,0.53 -0.95,0.71 -0.37,-0.15 -0.68,-0.33 -0.89,-0.58 -0.33,-0.06 -0.25,-0.07 -0.7,-0.07 0.24,0.29 0.94,0.68 1.22,0.92l-0.63 0.42 -0.32 0.21c-0.27,0.2 -0.58,0.44 -0.95,0.55 -0.12,0.61 0.02,0.29 0.24,0.37 0.09,-0.14 0.85,-0.56 1.06,-0.63l0.33 -0.22 0.62 -0.49c0.42,0.12 0.33,0.14 0.65,0.35l0.35 -0.26 -0.6 -0.26c0.33,-0.48 0.88,-0.62 1.21,-1.09l-0.64 0.07 0 0z"/>
     <path class="fil2" d="M54.17 58.6l-0.33 0.21c-0.18,0.2 -0.42,0.4 -0.73,0.51 -0.07,0.06 -0.12,0.12 -0.17,0.16 -0.23,0.2 0.01,-0.01 -0.16,0.12 -0.35,0.24 -0.94,0.68 -1.17,0.97l0.65 -0.07c0.27,-0.22 0.58,-0.5 0.91,-0.7 0.19,-0.18 0.08,-0.11 0.36,-0.23 0.13,-0.2 0.53,-0.38 0.74,-0.51l0.32 -0.2c0.2,-0.23 0.63,-0.44 0.96,-0.58l-0.05 -0.3 -0.02 -0.05c-0.63,0.2 -0.82,0.51 -1.31,0.67l0 0 0 0z"/>
     <path class="fil2" d="M55.36 55.23c0.06,0.08 0.16,0.14 0.13,0.29 -0.03,0.25 0.06,0.13 -0.21,0.25 0.02,0.02 0.04,0.03 0.05,0.04 0,0.01 0.04,0.03 0.05,0.06l0.09 0.14c0.05,0.11 -0.07,0.02 0.08,0.18 0.44,0.12 0.89,0.29 1.28,0.17 -0.17,-0.43 -0.75,-0.33 -1.28,-0.49l0 -0.49c0.5,0.02 1.2,0.35 1.26,0.07 0.01,-0.03 0.01,-0.05 0.02,-0.07l0 -0.03c-0.02,-0.05 -0.13,-0.09 -0.53,-0.19 -0.24,-0.06 -0.48,-0.1 -0.75,-0.11 0,0 -0.08,0.08 -0.1,0.1 -0.01,0.01 -0.05,0.06 -0.05,0.05 0,-0.01 -0.03,0.02 -0.04,0.03l0 0z"/>
     <path class="fil2" d="M53.24 55.62c0.3,0.17 0.58,0.35 0.88,0.55 0.31,0.23 0.58,0.39 0.9,0.61l0.35 -0.13 -0.04 -0.06c-0.62,-0.43 -1.09,-0.88 -1.8,-1.21l-0.29 0.24 0 0 0 0z"/>
     <path class="fil2" d="M46.8 56.44c0.21,0.06 0.71,0.36 0.89,0.46 0.31,0.17 0.61,0.35 0.97,0.46l0.27 -0.24c-0.38,-0.16 -1.54,-0.7 -1.71,-0.98l-0.21 0.16c-0.14,0.1 -0.03,0.04 -0.21,0.14l0 0 0 0z"/>
     <path class="fil2" d="M50.01 58.12c0.57,0.13 1.24,0.64 1.83,0.84l0.26 -0.23c-0.23,-0.12 -0.59,-0.3 -0.87,-0.45 -0.22,-0.11 -0.29,-0.14 -0.48,-0.24 -0.32,-0.16 -0.25,-0.08 -0.32,-0.26l-0.42 0.34 0 0z"/>
     <path class="fil2" d="M50.1 53.91c0.56,0.31 1.17,0.58 1.71,0.88 0.34,-0.14 0.18,-0.04 0.33,-0.25 -0.25,-0.08 -0.66,-0.32 -0.93,-0.45 -0.27,-0.14 -0.54,-0.29 -0.85,-0.4l-0.26 0.22 0 0 0 0z"/>
     <path class="fil2" d="M44.45 59.03l0.05 0.09c0.4,0.17 0.69,0.36 0.93,0.62l0.33 -0.2c-0.2,-0.32 0.02,-0.07 -0.36,-0.3 -0.13,-0.08 -0.19,-0.12 -0.29,-0.22 -0.19,-0.16 -0.26,-0.32 -0.66,-0.4l0 0.41 0 0z"/>
     <path class="fil2" d="M44.51 54.81l0.04 0.13c0.4,0.16 0.37,0.27 0.64,0.45 0.21,0.15 0.06,0.07 0.29,0.13l0.32 -0.21c-0.26,-0.12 -0.35,-0.25 -0.6,-0.43l-0.7 -0.43 0.01 0.36 0 0z"/>
     <path class="fil2" d="M54.27 59.06c0.11,0.18 0.89,0.74 1.14,0.9 0.11,-0.28 0.11,-0.18 0.01,-0.49l-0.83 -0.61 -0.32 0.2 0 0 0 0z"/>
     <path class="fil2" d="M44.45 56.82l0.32 -0.38c-0.22,-0.08 -0.36,0.24 -0.24,-0.37l-0.08 0 0 0.36c-0.68,-0.01 -1.36,-0.43 -1.27,-0.01 0.05,0.21 0.92,0.32 1.27,0.4l0 0 0 0z"/>
     <path class="fil2" d="M54.23 54.88c0.17,0.22 0.03,0.08 0.31,0.25 0.11,0.08 0.14,0.08 0.26,0.18 0.2,0.15 0.35,0.28 0.48,0.46 0.27,-0.12 0.18,0 0.21,-0.25 0.03,-0.15 -0.07,-0.21 -0.13,-0.29 -0.37,-0.17 -0.58,-0.35 -0.79,-0.55l-0.34 0.2 0 0z"/>
     <path class="fil2" d="M44.45 60.74c0.25,0 0.26,0.05 0.12,-0.08 -0.11,-0.27 -0.13,-0.26 0.05,-0.46l-0.15 -0.33c-0.78,-0.01 -0.61,-0.24 -1.3,-0.14 0.03,0.3 0.06,0.25 0.43,0.34 0.27,0.07 0.53,0.14 0.85,0.15l0 0.52 0 0 0 0z"/>
     <path class="fil2" d="M53.17 59.8c0.38,0.11 0.71,0.33 0.92,0.57 0.33,0.05 0.24,0.07 0.7,0.07 -0.19,-0.35 -0.31,-0.24 -0.59,-0.45 -0.34,-0.25 -0.2,-0.27 -0.67,-0.42 -0.28,0.12 -0.17,0.05 -0.36,0.23l0 0 0 0z"/>
     <path class="fil2" d="M44.45 57.7l0.17 -0.37 -0.17 -0.12c-0.11,0.16 0.02,0.17 -0.11,0.06 -0.54,-0.02 -0.51,-0.13 -1.17,-0.13l0 0.28 1.28 0.28 0 0 0 0z"/>
     <path class="fil2" d="M46.76 60.64c0.47,0.11 0.69,0.29 1,0.5 0.36,-0.01 0.33,-0.02 0.6,-0.07 -0.36,-0.27 -0.87,-0.45 -1.16,-0.75 -0.02,0.03 -0.04,0.03 -0.05,0.05l-0.39 0.27 0 0 0 0z"/>
     <path class="fil2" d="M55.42 59.47c0.1,0.31 0.1,0.21 -0.01,0.49 -0.12,0.13 -0.12,0.09 0.14,0.09l0 -0.39c0.5,0.07 0.87,0.28 1.28,0.14 -0.1,-0.26 -0.09,-0.2 -0.49,-0.32 -0.34,-0.09 -0.52,-0.1 -0.79,-0.15l-0.13 0.14 0 0 0 0z"/>
     <path class="fil2" d="M44.53 61.14c0,-0.23 0.04,-0.18 -0.08,-0.34 -0.33,-0.13 -0.79,-0.23 -1.28,-0.23l0 0.29 1.36 0.28 0 0z"/>
     <path class="fil2" d="M44.45 54.23l0.12 -0.32c-0.55,-0.09 -0.73,-0.22 -1.4,-0.22l0 0.28 1.28 0.26z"/>
     <path class="fil2" d="M55.48 57.93l0.02 0.05c0.38,0 0.46,0.02 0.76,0.1 0.41,0.11 0.15,0.1 0.57,0.04 -0.05,-0.33 -0.41,-0.42 -1.28,-0.51 -0.11,0.17 -0.09,0.07 -0.07,0.32l0 0z"/>
     <path class="fil2" d="M55.54 54.54c0.35,0 0.43,0.02 0.71,0.1 0.42,0.11 0.16,0.09 0.58,0.04 -0.06,-0.47 -0.42,-0.26 -1.08,-0.49 -0.19,-0.06 -0.08,-0.02 -0.2,-0.09l-0.11 0.05 0.1 0.39 0 0 0 0z"/>
     <path class="fil2" d="M44.45 59.37c0.1,-0.13 0.09,0.01 0.05,-0.25l-0.05 -0.09c-0.74,-0.03 -1.19,-0.42 -1.27,-0.07 -0.07,0.26 0.95,0.37 1.27,0.41l0 0z"/>
     <path class="fil2" d="M44.45 55.93c0.1,-0.12 0.16,-0.13 0,-0.3 -0.77,-0.16 -1.2,-0.41 -1.27,-0.11 -0.07,0.27 0.95,0.37 1.27,0.41z"/>
     <path class="fil2" d="M55.5 57.01l0.05 -0.02c0.29,0.21 0.89,0.34 1.28,0.21 -0.1,-0.24 -0.09,-0.21 -0.49,-0.3 -0.31,-0.08 -0.43,-0.12 -0.79,-0.12l0 -0.24 -0.22 0.05 0.04 0.06c0.03,0.03 0.05,0 0.1,0.13 0,0.03 0.03,0.22 0.03,0.23l0 0 0 0z"/>
     <path class="fil2" d="M55.55 58.79c0.77,0.14 1.19,0.41 1.27,0.09 0.05,-0.26 -0.95,-0.37 -1.27,-0.39 -0.11,0.13 -0.15,0.13 0,0.3z"/>
     <path class="fil2" d="M55.42 60.5c0.54,0.08 0.93,0.3 1.41,0.14 -0.1,-0.24 -0.09,-0.22 -0.49,-0.31 -0.28,-0.07 -0.54,-0.09 -0.79,-0.14l-0.13 0.31 0 0z"/>
     <path class="fil2" d="M55.55 53.61l0.63 0.16c0.36,0.08 0.26,0.11 0.65,0 -0.11,-0.27 -0.15,-0.24 -0.57,-0.33 -0.32,-0.07 -0.51,-0.11 -0.78,-0.17 -0.02,0.24 -0.07,0.18 0.07,0.34l0 0 0 0z"/>
     <path class="fil2" d="M44.45 58.5c0.15,-0.14 0.11,-0.15 0,-0.29 -0.44,-0.11 -0.9,-0.28 -1.28,-0.17 0.03,0.23 0.17,0.31 0.87,0.41l0.41 0.05z"/>
     <path class="fil2" d="M44.45 55.08l0.1 -0.14 -0.04 -0.13 -0.06 0c-0.36,-0.16 -0.91,-0.32 -1.28,-0.2 0.02,0.12 -0.09,0.19 0.46,0.33 0.29,0.06 0.59,0.09 0.82,0.14l0 0 0 0z"/>
     <path class="fil2" d="M45.81 59.99l0.65 0.36c0.21,-0.12 0.18,-0.13 0.45,-0.24 -0.46,-0.09 -0.1,0 -0.42,-0.17 -0.26,-0.15 -0.07,-0.07 -0.37,-0.16l-0.31 0.21 0 0 0 0z"/>
     <path class="fil2" d="M45.83 55.81l0.64 0.36c0.31,-0.12 0.16,-0.03 0.34,-0.24l-0.65 -0.34 -0.33 0.22 0 0z"/>
     <path class="fil2" d="M52.23 55.04c0.12,0.06 0.2,0.09 0.29,0.15 0.04,0.01 0.1,0.05 0.13,0.07 0.14,0.1 0.02,0 0.13,0.14 0.02,-0.01 0.06,-0.05 0.06,-0.04 0.01,0.02 0.05,-0.03 0.05,-0.04l0.3 -0.22c-0.28,-0.07 0,0.02 -0.2,-0.07 -0.15,-0.07 0.01,0 -0.17,-0.09 -0.21,-0.12 -0.12,-0.07 -0.38,-0.16l-0.21 0.26 0 0 0 0z"/>
     <path class="fil2" d="M49.03 57.61c0.24,0.07 0.05,-0.02 0.29,0.1 0.03,0.02 0.09,0.06 0.12,0.08 0.17,0.13 0.01,-0.02 0.17,0.16 0.01,-0.01 0.04,-0.06 0.04,-0.04 0.01,0.01 0.05,-0.04 0.06,-0.05 0.01,-0.01 0.07,-0.08 0.09,-0.09 0.12,-0.12 0.03,-0.06 0.18,-0.15l-0.62 -0.26 -0.33 0.25 0 0z"/>
     <path class="fil2" d="M52.26 59.2c0.23,0.15 0.34,0.11 0.52,0.4 0.17,-0.13 -0.07,0.08 0.16,-0.12 0.05,-0.04 0.1,-0.1 0.17,-0.16 -0.19,-0.12 -0.36,-0.23 -0.55,-0.36l-0.3 0.24 0 0z"/>
    </g>
   </g>
   <path class="fil2" d="M27.62 48.59c0.28,-0.67 0.32,-1.88 0.4,-2.73 0.09,-0.83 0.05,-2.11 0.84,-2.34 0.38,0.62 -0.18,3.52 -0.16,4.63 0.03,1.06 0.23,0.98 1.23,1.21 2.23,0.5 5.49,0.04 5.55,-1.46 0.04,-0.76 -0.52,-0.89 -0.1,-2.04 0.76,-2.15 2.86,-1.54 3.81,-8.58 0.19,-1.49 0.34,-3.01 0.45,-4.52 0.1,-1.21 0.55,-3.8 -0.92,-3.98 -0.82,-0.09 -3.21,0.66 -3.96,0.92 -3.59,1.26 -5.91,4.15 -7.21,7.61 -0.47,1.23 -0.86,2.38 -1.42,3.52 -0.89,1.86 -2.37,3.44 -2.63,4.72 -0.5,2.46 0.07,2.69 1.78,2.91 0.77,0.11 1.55,0.27 2.33,0.13l0.01 0 0 0z"/>
   <path class="fil2" d="M45.41 33.85c1.42,-0.44 1.31,1.08 2.52,0.24 0.61,-0.42 0.09,-0.34 0.94,-0.61 1.03,-0.34 -0.41,-0.27 1.14,-0.34l0.03 -0.86 1.71 -0.12c0.14,-0.69 0.02,-1.68 0.12,-2.07l2.42 -3.02c0.41,-0.3 0.4,-0.07 0.68,-0.52 1.11,-1.79 -0.92,-5.41 -1.87,-6.26 -1.37,-1.22 -1.5,-0.6 -3.06,-1.27 -0.96,-0.42 -2.89,0.05 -3.72,0.44 -1.84,0.9 -3.25,2.68 -4.22,4.7 -0.47,0.97 -0.71,2.15 -1.15,3.17 -0.75,1.69 -1.05,0.28 -0.68,3.42 0.26,2.33 0.33,5.97 -0.59,7.96 -0.67,1.47 -1.1,2.05 0.66,2.66 1.65,0.56 2.18,0.03 2.94,-0.97 2.9,-3.78 2,-4.38 2.13,-6.55l0 0 0 0z"/>
   <path class="fil2" d="M54.26 53.82c-0.55,-0.2 -1.55,-0.96 -2.16,-1.33 -1.53,-0.95 -1.69,-1.18 -2.23,-0.41 -0.01,0.01 -0.02,0.06 -0.05,0.08 -0.89,-0.1 -2.82,-0.86 -3.34,-0.65 -0.07,0.65 0.03,0.4 0.65,0.65 -1.07,0.38 -0.96,1.22 -4.12,0.13 -2.85,-0.97 -5.64,-3.43 -8.2,-2.79 -0.83,0.22 -1.28,0.42 -2.23,0.54 -0.83,0.1 -1.83,0.04 -2.21,0.55 0.07,0.46 0.87,1.21 1.22,1.44 0.4,0.29 1.32,0.71 1.85,0.92 1.16,0.48 2.84,1.23 4.07,1.49 2.59,0.52 5.04,0.61 7.3,1.01 0.51,0.07 0.56,0.11 0.95,0.37 0.57,0.36 0.42,0.12 1.12,0.32l0.06 0.68c-0.64,0.11 -1.21,-0.05 -1.15,0.65 0.69,0.28 6.59,-0.65 7.75,-0.8 1.28,-0.16 2.56,-0.33 3.86,-0.49 1.02,-0.12 3.04,-0.09 3.52,-0.81 -0.1,-0.49 -0.04,-0.17 -0.27,-0.48l-0.1 -0.12c0.35,-0.44 0.19,-1.15 0.01,-1.92 -0.1,-0.45 -0.24,-0.41 -0.44,-0.78 -0.35,-0.61 -0.37,-0.74 -1.69,-0.59 -1.09,0.11 -0.39,0.02 -0.89,-0.22 -1.13,-0.54 0.14,0.97 -3.02,-1.91l-2.37 -2.57c-0.38,-0.46 -0.66,-1.07 -1.39,-1.14 -0.49,-0.06 -3.2,0.95 -3.56,1.21 -1.3,0.97 0.88,2.32 1.43,2.71 1.32,0.93 4.84,3.2 5.63,4.26l0 0 0 0z"/>
   <path class="fil2" d="M38.93 50.24c0.41,-0.2 0.3,-0.09 0.75,-0.93l2.71 -5.11c0.42,-0.78 0.62,-1.48 1.26,-1.78 0.7,0.56 0.78,4.36 1.96,4.84 0.51,-0.43 0.35,-0.8 2.04,-1.54 0.85,-0.38 1.88,-0.59 2.87,-0.86 0,-0.57 -1.25,-2.69 -1.58,-5.26 -0.23,-1.84 -0.1,-4.71 -2.3,-4.62 -0.57,1.4 -1.17,2.52 -1.93,3.84 -0.72,1.24 -1.32,2.46 -2.04,3.74 -0.59,1.06 -3.83,6.9 -3.74,7.68l0 0 0 0z"/>
   <path class="fil2" d="M20.83 56.67c1.17,0.19 1.76,0.15 1.95,-1 0.13,-0.92 0.22,-1.85 0.36,-2.78 0.2,-1.5 0.95,-4.47 -0.54,-5.09 -0.66,0.28 -0.56,1.15 -0.71,1.93 -0.32,1.82 -1.39,5.63 -1.06,6.94l0 0z"/>
  </g>
 </g>
</svg>
